<svg width="36" height="40" viewBox="0 0 36 40" fill="none" xmlns="http://www.w3.org/2000/svg">
<g filter="url(#filter0_d_2051_4222)">
<path d="M31.7124 13.84C31.7124 6.23996 25.5524 0.0799561 17.9524 0.0799561C10.3524 0.0799561 4.19238 6.23996 4.19238 13.84C4.19238 18.64 6.64038 22.848 10.3684 25.312L17.9524 31.76L25.5364 25.312C29.2484 22.848 31.7124 18.624 31.7124 13.84Z" fill="#BFBFBF"/>
</g>
<path d="M12.049 6.99646C11.9269 6.94707 11.7903 6.94783 11.6688 6.99857C11.5473 7.04931 11.4507 7.14593 11.4 7.26746L9.2015 12.5425C9.17544 12.6048 9.16229 12.6718 9.16286 12.7394C9.16343 12.807 9.1777 12.8738 9.2048 12.9357C9.23191 12.9977 9.27129 13.0535 9.32057 13.0997C9.36985 13.146 9.428 13.1818 9.4915 13.205L19.472 16.8415C19.5728 16.8782 19.6827 16.8815 19.7855 16.851C19.8883 16.8205 19.9786 16.7577 20.043 16.672L23.364 12.2545C23.41 12.1932 23.4414 12.1222 23.4556 12.0468C23.4698 11.9715 23.4665 11.8939 23.446 11.8201C23.4255 11.7463 23.3882 11.6781 23.3372 11.621C23.2861 11.5638 23.2226 11.5192 23.1515 11.4905L12.049 6.99646ZM25.2205 13.8265C25.1827 13.8289 25.1464 13.8421 25.1157 13.8644C25.0851 13.8867 25.0614 13.9172 25.0475 13.9525L23.9235 16.7805C23.9093 16.816 23.9057 16.8549 23.9129 16.8925C23.9202 16.9301 23.9381 16.9648 23.9645 16.9925L25.662 18.7735C25.6851 18.7976 25.714 18.8156 25.7458 18.8257C25.7777 18.8358 25.8116 18.8378 25.8444 18.8314C25.8773 18.825 25.908 18.8105 25.9338 18.7892C25.9595 18.7679 25.9796 18.7405 25.992 18.7095L27.8835 13.9395C27.896 13.9081 27.9003 13.8741 27.8961 13.8406C27.8919 13.8071 27.8793 13.7752 27.8594 13.7479C27.8395 13.7206 27.8131 13.6987 27.7825 13.6844C27.7519 13.6701 27.7182 13.6637 27.6845 13.666L25.2205 13.8265ZM23.777 12.9445C23.7357 12.9283 23.6902 12.9263 23.6477 12.9388C23.6052 12.9513 23.568 12.9775 23.542 13.0135L21.296 16.1215C21.2781 16.1463 21.2662 16.1748 21.261 16.205C21.2559 16.2351 21.2578 16.266 21.2665 16.2953C21.2752 16.3246 21.2905 16.3516 21.3112 16.374C21.3319 16.3965 21.3575 16.4139 21.386 16.425L23.082 17.0855C23.1312 17.1046 23.186 17.1036 23.2344 17.0825C23.2829 17.0614 23.321 17.022 23.3405 16.973L24.707 13.523C24.7167 13.4985 24.7215 13.4723 24.7211 13.446C24.7206 13.4196 24.715 13.3936 24.7045 13.3695C24.694 13.3453 24.6789 13.3235 24.6599 13.3052C24.6409 13.2869 24.6185 13.2726 24.594 13.263L23.777 12.9445ZM10.782 15.0415C10.772 15.066 10.7669 15.0923 10.7671 15.1189C10.7674 15.1454 10.7729 15.1716 10.7834 15.196C10.7938 15.2204 10.8091 15.2425 10.8281 15.2609C10.8472 15.2794 10.8698 15.2938 10.8945 15.3035L12.015 15.7415C12.0277 15.7465 12.0393 15.754 12.049 15.7637C12.0587 15.7733 12.0663 15.7848 12.0713 15.7975C12.0764 15.8102 12.0788 15.8238 12.0784 15.8375C12.078 15.8512 12.0748 15.8646 12.069 15.877L11.6115 16.8535C11.5954 16.8878 11.5698 16.9169 11.5377 16.9373C11.5057 16.9576 11.4685 16.9685 11.4305 16.9685H9.2C9.14696 16.9685 9.09609 16.9895 9.05858 17.027C9.02107 17.0646 9 17.1154 9 17.1685V17.8535C9 17.9635 9.09 18.0535 9.2 18.0535H12.1225C12.1607 18.0535 12.198 18.0425 12.2302 18.022C12.2624 18.0014 12.288 17.9721 12.304 17.9375L13.084 16.2615C13.0947 16.2384 13.1138 16.2203 13.1374 16.2108C13.161 16.2014 13.1873 16.2012 13.211 16.2105L14.487 16.707C14.5363 16.7261 14.5911 16.725 14.6396 16.7038C14.688 16.6826 14.7261 16.6431 14.7455 16.594L15.068 15.7775C15.0777 15.753 15.0825 15.7268 15.0821 15.7005C15.0816 15.6741 15.076 15.6481 15.0655 15.624C15.055 15.5998 15.0399 15.578 15.0209 15.5597C15.0019 15.5414 14.9795 15.5271 14.955 15.5175L11.3755 14.1135C11.3267 14.0943 11.2722 14.0951 11.224 14.1157C11.1757 14.1362 11.1375 14.175 11.1175 14.2235L10.782 15.0415Z" fill="white"/>
<defs>
<filter id="filter0_d_2051_4222" x="0.192383" y="0.0799561" width="35.5195" height="39.6801" filterUnits="userSpaceOnUse" color-interpolation-filters="sRGB">
<feFlood flood-opacity="0" result="BackgroundImageFix"/>
<feColorMatrix in="SourceAlpha" type="matrix" values="0 0 0 0 0 0 0 0 0 0 0 0 0 0 0 0 0 0 127 0" result="hardAlpha"/>
<feOffset dy="4"/>
<feGaussianBlur stdDeviation="2"/>
<feComposite in2="hardAlpha" operator="out"/>
<feColorMatrix type="matrix" values="0 0 0 0 0 0 0 0 0 0 0 0 0 0 0 0 0 0 0.25 0"/>
<feBlend mode="normal" in2="BackgroundImageFix" result="effect1_dropShadow_2051_4222"/>
<feBlend mode="normal" in="SourceGraphic" in2="effect1_dropShadow_2051_4222" result="shape"/>
</filter>
</defs>
</svg>
