<svg width="32" height="32" viewBox="0 0 32 32" fill="none" xmlns="http://www.w3.org/2000/svg">
<path fill-rule="evenodd" clip-rule="evenodd" d="M15.076 8.97777L8.45614 8.97777C8.06698 8.96906 7.69669 8.80837 7.42454 8.5301C7.15239 8.25183 7 7.87809 7 7.48888C7 7.09968 7.15239 6.72593 7.42454 6.44766C7.69669 6.16939 8.06698 6.0087 8.45614 6H19.2939C19.683 6.0087 20.0533 6.16939 20.3255 6.44766C20.5976 6.72593 20.75 7.09968 20.75 7.48888C20.75 7.87809 20.5976 8.25183 20.3255 8.5301C20.0533 8.80837 19.683 8.96906 19.2939 8.97777H17.7227L17.7225 10.8069C18.8726 10.8674 19.9995 11.1595 21.0384 11.6664C22.0772 12.1733 23.0075 12.8849 23.7755 13.7603C24.5436 14.6357 25.1342 15.6575 25.5134 16.7668C25.8925 17.8761 26.0528 19.051 25.9848 20.2238C26.0106 20.2765 8.09186 20.1975 8.11767 20.1843C8.11767 15.1531 11.0095 11.7551 15.076 10.9649V8.97777ZM23.3902 20.9218H10.713C10.7404 25 13.0237 28.35 17.0515 28.35C21.0922 28.35 23.3902 25.0179 23.3902 20.9218ZM15.9959 25.3337C16.1354 25.4744 16.3013 25.5862 16.4841 25.6628C16.6668 25.7394 16.8629 25.7793 17.0611 25.7801C17.2592 25.7809 17.4556 25.7427 17.639 25.6677C17.8224 25.5926 17.9892 25.4821 18.1299 25.3426C18.2695 25.202 18.3801 25.0353 18.4553 24.852C18.5305 24.6687 18.5689 24.4724 18.5682 24.2742C18.5675 24.0761 18.5278 23.88 18.4513 23.6973C18.3748 23.5145 18.2631 23.3485 18.1224 23.2089C17.9828 23.0682 17.8169 22.9563 17.634 22.8797C17.4512 22.8031 17.255 22.7633 17.0568 22.7625C16.8585 22.7618 16.6621 22.8001 16.4786 22.8753C16.2952 22.9504 16.1284 23.0611 15.9877 23.2007C15.8481 23.3414 15.7376 23.5081 15.6625 23.6915C15.5873 23.8748 15.5491 24.0711 15.5498 24.2693C15.5506 24.4674 15.5904 24.6635 15.6669 24.8462C15.7435 25.029 15.8553 25.1941 15.9959 25.3337Z" fill="#BFBFBF"/>
</svg>
