<svg width="32" height="32" viewBox="0 0 32 32" fill="none" xmlns="http://www.w3.org/2000/svg">
<path d="M22.7824 14.2499C22.4597 12.7625 21.6081 11.4273 20.372 10.4706C19.1359 9.51388 17.5913 8.99446 15.9999 9.00036C14.7499 8.98779 13.5211 9.30887 12.4521 9.92736C11.3831 10.5459 10.5165 11.4372 9.94995 12.5007C7.10978 12.8493 5 15.0373 5 17.7503C5.00464 19.1412 5.58559 20.4738 6.61602 21.4574C7.64646 22.4409 9.0427 22.9954 10.4999 22.9998H22.415C23.0187 23.0054 23.6176 22.896 24.1765 22.6781C24.7354 22.4602 25.2431 22.1381 25.67 21.7306C26.097 21.3231 26.4344 20.8385 26.6628 20.305C26.8911 19.7716 27.0057 19.2 26.9998 18.6238C26.984 17.5271 26.5451 16.4745 25.7669 15.6675C24.9888 14.8605 23.9261 14.3557 22.7824 14.2499Z" fill="#1F8DFF"/>
</svg>
