<svg width="32" height="32" viewBox="0 0 32 32" fill="none" xmlns="http://www.w3.org/2000/svg">
<path fill-rule="evenodd" clip-rule="evenodd" d="M23.4399 7C23.8402 7 24.2251 7.15387 24.5152 7.42976C24.8052 7.70565 24.9781 8.08247 24.998 8.48226L25 8.56013V11.4401C25 12.1899 24.5058 12.7862 23.7999 12.9365C23.8142 13.0826 23.8096 13.2286 23.8049 13.3761C23.804 13.406 23.803 13.4359 23.8022 13.4659L23.7999 13.6001V17.2001C23.7999 21.49 20.2899 25 16 25C11.7543 25 8.2733 21.5628 8.2013 17.334L8.20013 17.2001V13.6001C8.20013 13.3888 8.2159 13.183 8.23172 12.9765L8.23496 12.9341C7.56035 12.7858 7.03835 12.2282 7.00235 11.5196L7 11.4401V8.56013C7 8.15984 7.15387 7.77487 7.42976 7.48484C7.70565 7.19482 8.08247 7.02194 8.48226 7.00196L8.56013 7H23.4399ZM22.7336 11.8749H9.26643C9.21505 11.8749 9.16416 11.885 9.11669 11.9047C9.06921 11.9243 9.02608 11.9531 8.98974 11.9895C8.9534 12.0258 8.92458 12.069 8.90492 12.1164C8.88525 12.1639 8.87513 12.2148 8.87513 12.2662V12.6086C8.87513 12.66 8.88525 12.7108 8.90492 12.7583C8.92458 12.8058 8.9534 12.8489 8.98974 12.8853C9.02608 12.9216 9.06921 12.9504 9.11669 12.9701C9.16416 12.9897 9.21505 12.9999 9.26643 12.9999H22.7336C22.785 12.9999 22.8358 12.9897 22.8833 12.9701C22.9308 12.9504 22.9739 12.9216 23.0103 12.8853C23.0466 12.8489 23.0754 12.8058 23.0951 12.7583C23.1147 12.7108 23.1249 12.66 23.1249 12.6086V12.2662C23.1249 12.2148 23.1147 12.1639 23.0951 12.1164C23.0754 12.069 23.0466 12.0258 23.0103 11.9895C22.9739 11.9531 22.9308 11.9243 22.8833 11.9047C22.8358 11.885 22.785 11.8749 22.7336 11.8749ZM10.0001 9.39987C9.92133 9.39987 9.8433 9.41539 9.7705 9.44555C9.69769 9.4757 9.63154 9.5199 9.57582 9.57562C9.5201 9.63135 9.4759 9.6975 9.44574 9.7703C9.41559 9.8431 9.40007 9.92113 9.40007 9.99993C9.40007 10.0787 9.41559 10.1568 9.44574 10.2296C9.4759 10.3024 9.5201 10.3685 9.57582 10.4242C9.63154 10.48 9.69769 10.5242 9.7705 10.5543C9.8433 10.5845 9.92133 10.6 10.0001 10.6C10.1593 10.6 10.3119 10.5368 10.4244 10.4242C10.537 10.3117 10.6002 10.1591 10.6002 9.99993C10.6002 9.84079 10.537 9.68816 10.4244 9.57562C10.3119 9.46309 10.1593 9.39987 10.0001 9.39987ZM15.1442 21.6707C15.2565 21.7841 15.3901 21.8741 15.5372 21.9358C15.6844 21.9975 15.8423 22.0296 16.0019 22.0303C16.1614 22.0309 16.3196 22.0002 16.4673 21.9397C16.6149 21.8793 16.7493 21.7903 16.8626 21.6779C16.975 21.5647 17.0641 21.4305 17.1246 21.2828C17.1852 21.1352 17.216 20.9771 17.2155 20.8175C17.2149 20.6579 17.1829 20.5 17.1214 20.3528C17.0598 20.2056 16.9698 20.072 16.8566 19.9595C16.7442 19.8462 16.6105 19.7561 16.4633 19.6944C16.316 19.6327 16.1581 19.6006 15.9984 19.6C15.8388 19.5994 15.6806 19.6303 15.5329 19.6908C15.3852 19.7514 15.2508 19.8404 15.1376 19.9529C15.0251 20.0662 14.9361 20.2005 14.8756 20.3482C14.8151 20.4958 14.7843 20.6539 14.7849 20.8135C14.7855 20.9731 14.8176 21.131 14.8792 21.2782C14.9408 21.4253 15.0309 21.5584 15.1442 21.6707Z" fill="#BFBFBF"/>
</svg>
