<svg width="14" height="14" viewBox="0 0 14 14" fill="none" xmlns="http://www.w3.org/2000/svg">
<path fill-rule="evenodd" clip-rule="evenodd" d="M9.56246 0.812951C9.75772 0.617688 10.0743 0.617688 10.2696 0.812951L13.1862 3.72962C13.3815 3.92488 13.3815 4.24146 13.1862 4.43672L4.43624 13.1867C4.24097 13.382 3.92439 13.382 3.72913 13.1867L0.812462 10.2701C0.6172 10.0748 0.6172 9.75821 0.812462 9.56295L9.56246 0.812951ZM9.91602 1.87361L1.87312 9.9165L4.08268 12.1261L12.1256 4.08317L9.91602 1.87361Z" fill="#1F8DFF"/>
<path fill-rule="evenodd" clip-rule="evenodd" d="M9.17582 1.9067C9.37108 2.10196 9.37108 2.41855 9.17582 2.61381L2.61332 9.17631C2.41806 9.37157 2.10147 9.37157 1.90621 9.17631C1.71095 8.98104 1.71095 8.66446 1.90621 8.4692L8.46871 1.9067C8.66397 1.71144 8.98056 1.71144 9.17582 1.9067Z" fill="#1F8DFF"/>
<path fill-rule="evenodd" clip-rule="evenodd" d="M2.27145 8.10494C2.46671 7.90968 2.78329 7.90968 2.97855 8.10494L4.14522 9.27161C4.34048 9.46687 4.34048 9.78345 4.14522 9.97872C3.94996 10.174 3.63338 10.174 3.43811 9.97872L2.27145 8.81205C2.07618 8.61679 2.07618 8.3002 2.27145 8.10494Z" fill="#1F8DFF"/>
<path fill-rule="evenodd" clip-rule="evenodd" d="M3.73043 6.64645C3.92569 6.45118 4.24228 6.45118 4.43754 6.64645L6.18754 8.39645C6.3828 8.59171 6.3828 8.90829 6.18754 9.10355C5.99228 9.29882 5.67569 9.29882 5.48043 9.10355L3.73043 7.35355C3.53517 7.15829 3.53517 6.84171 3.73043 6.64645Z" fill="#1F8DFF"/>
<path fill-rule="evenodd" clip-rule="evenodd" d="M5.18746 5.18795C5.38272 4.99269 5.69931 4.99269 5.89457 5.18795L7.06124 6.35462C7.2565 6.54988 7.2565 6.86646 7.06124 7.06172C6.86597 7.25699 6.54939 7.25699 6.35413 7.06172L5.18746 5.89506C4.9922 5.6998 4.9922 5.38321 5.18746 5.18795Z" fill="#1F8DFF"/>
<path fill-rule="evenodd" clip-rule="evenodd" d="M6.64645 3.72994C6.84171 3.53468 7.15829 3.53468 7.35355 3.72994L9.10355 5.47994C9.29882 5.6752 9.29882 5.99179 9.10355 6.18705C8.90829 6.38231 8.59171 6.38231 8.39645 6.18705L6.64645 4.43705C6.45118 4.24179 6.45118 3.9252 6.64645 3.72994Z" fill="#1F8DFF"/>
<path fill-rule="evenodd" clip-rule="evenodd" d="M8.10543 2.27145C8.30069 2.07618 8.61728 2.07618 8.81254 2.27145L9.9792 3.43811C10.1745 3.63338 10.1745 3.94996 9.9792 4.14522C9.78394 4.34048 9.46736 4.34048 9.2721 4.14522L8.10543 2.97855C7.91017 2.78329 7.91017 2.46671 8.10543 2.27145Z" fill="#1F8DFF"/>
</svg>
