<?xml version="1.0" encoding="UTF-8"?>
<svg width="140px" height="140px" viewBox="0 0 140 140" version="1.1" xmlns="http://www.w3.org/2000/svg" xmlns:xlink="http://www.w3.org/1999/xlink">
    <title>编组 28</title>
    <defs>
        <rect id="path-1" x="0" y="0" width="140" height="140"></rect>
        <linearGradient x1="50%" y1="0%" x2="50%" y2="100%" id="linearGradient-3">
            <stop stop-color="#D3E6FD" offset="0%"></stop>
            <stop stop-color="#EAF3FE" stop-opacity="0.583205857" offset="51.2447022%"></stop>
            <stop stop-color="#FFFFFF" stop-opacity="0" offset="100%"></stop>
        </linearGradient>
        <filter x="-14.6%" y="-16.0%" width="129.2%" height="131.9%" filterUnits="objectBoundingBox" id="filter-4">
            <feOffset dx="0" dy="0" in="SourceAlpha" result="shadowOffsetOuter1"></feOffset>
            <feGaussianBlur stdDeviation="1.5" in="shadowOffsetOuter1" result="shadowBlurOuter1"></feGaussianBlur>
            <feColorMatrix values="0 0 0 0 0.546398029   0 0 0 0 0.5879589   0 0 0 0 0.612686821  0 0 0 0.5 0" type="matrix" in="shadowBlurOuter1" result="shadowMatrixOuter1"></feColorMatrix>
            <feMerge>
                <feMergeNode in="shadowMatrixOuter1"></feMergeNode>
                <feMergeNode in="SourceGraphic"></feMergeNode>
            </feMerge>
        </filter>
        <path d="M2.54545455,0 L17.5025631,0 C19.1392252,1.4757069e-15 20.6760838,0.786866309 21.6328924,2.11471421 L29.5290084,13.0728537 C30.0074126,13.7367777 30.775842,14.1302108 31.594173,14.1302108 L42,14.1302108 C43.4058157,14.1302108 44.5454545,15.2698496 44.5454545,16.6756654 L44.5454545,38.1818182 C44.5454545,39.5876339 43.4058157,40.7272727 42,40.7272727 L2.54545455,40.7272727 C1.13963882,40.7272727 -1.16010486e-15,39.5876339 0,38.1818182 L0,2.54545455 C2.71926437e-16,1.13963882 1.13963882,2.034601e-15 2.54545455,0 Z" id="path-5"></path>
        <path d="M2.54545455,0 L28.0689936,0 L28.0689936,0 L36.9090909,10.3112442 L36.9090909,42 C36.9090909,43.4058157 35.7694521,44.5454545 34.3636364,44.5454545 L2.54545455,44.5454545 C1.13963882,44.5454545 -2.71926437e-16,43.4058157 0,42 L0,2.54545455 C-6.16251983e-16,1.13963882 1.13963882,-1.96220189e-15 2.54545455,0 Z" id="path-7"></path>
        <filter x="-20.3%" y="-16.8%" width="140.6%" height="133.7%" filterUnits="objectBoundingBox" id="filter-8">
            <feOffset dx="0" dy="0" in="SourceAlpha" result="shadowOffsetOuter1"></feOffset>
            <feGaussianBlur stdDeviation="2.5" in="shadowOffsetOuter1" result="shadowBlurOuter1"></feGaussianBlur>
            <feColorMatrix values="0 0 0 0 0.662910464   0 0 0 0 0.779039639   0 0 0 0 0.869282156  0 0 0 0.5 0" type="matrix" in="shadowBlurOuter1"></feColorMatrix>
        </filter>
        <path d="M28.0607351,4.63467648e-14 L36.9090909,10.2955575 L30.6061896,10.2955575 C29.2003739,10.2955575 28.0607351,9.15591871 28.0607351,7.75010299 L28.0607351,4.63467648e-14 L28.0607351,4.63467648e-14 Z" id="path-9"></path>
        <filter x="-33.9%" y="-9.7%" width="145.2%" height="138.9%" filterUnits="objectBoundingBox" id="filter-10">
            <feOffset dx="-1" dy="1" in="SourceAlpha" result="shadowOffsetOuter1"></feOffset>
            <feGaussianBlur stdDeviation="0.5" in="shadowOffsetOuter1" result="shadowBlurOuter1"></feGaussianBlur>
            <feColorMatrix values="0 0 0 0 0.806843056   0 0 0 0 0.851535735   0 0 0 0 0.886265851  0 0 0 0.5 0" type="matrix" in="shadowBlurOuter1"></feColorMatrix>
        </filter>
        <path d="M2.54545455,0 L28.0689936,0 L28.0689936,0 L36.9090909,10.3112442 L36.9090909,42 C36.9090909,43.4058157 35.7694521,44.5454545 34.3636364,44.5454545 L2.54545455,44.5454545 C1.13963882,44.5454545 -2.71926437e-16,43.4058157 0,42 L0,2.54545455 C-6.16251983e-16,1.13963882 1.13963882,-1.96220189e-15 2.54545455,0 Z" id="path-11"></path>
        <filter x="-20.3%" y="-16.8%" width="140.6%" height="133.7%" filterUnits="objectBoundingBox" id="filter-12">
            <feOffset dx="0" dy="0" in="SourceAlpha" result="shadowOffsetOuter1"></feOffset>
            <feGaussianBlur stdDeviation="2.5" in="shadowOffsetOuter1" result="shadowBlurOuter1"></feGaussianBlur>
            <feColorMatrix values="0 0 0 0 0.662910464   0 0 0 0 0.779039639   0 0 0 0 0.869282156  0 0 0 0.5 0" type="matrix" in="shadowBlurOuter1"></feColorMatrix>
        </filter>
        <path d="M28.0607351,4.63467648e-14 L36.9090909,10.2955575 L30.6061896,10.2955575 C29.2003739,10.2955575 28.0607351,9.15591871 28.0607351,7.75010299 L28.0607351,4.63467648e-14 L28.0607351,4.63467648e-14 Z" id="path-13"></path>
        <filter x="-33.9%" y="-9.7%" width="145.2%" height="138.9%" filterUnits="objectBoundingBox" id="filter-14">
            <feOffset dx="-1" dy="1" in="SourceAlpha" result="shadowOffsetOuter1"></feOffset>
            <feGaussianBlur stdDeviation="0.5" in="shadowOffsetOuter1" result="shadowBlurOuter1"></feGaussianBlur>
            <feColorMatrix values="0 0 0 0 0.806843056   0 0 0 0 0.851535735   0 0 0 0 0.886265851  0 0 0 0.5 0" type="matrix" in="shadowBlurOuter1"></feColorMatrix>
        </filter>
        <linearGradient x1="50%" y1="0%" x2="50%" y2="100%" id="linearGradient-15">
            <stop stop-color="#FFBC50" offset="0%"></stop>
            <stop stop-color="#FF862B" offset="100%"></stop>
        </linearGradient>
    </defs>
    <g id="页面-1" stroke="none" stroke-width="1" fill="none" fill-rule="evenodd">
        <g id="切图" transform="translate(-443.000000, -12.000000)">
            <g id="编组-28" transform="translate(443.000000, 12.000000)">
                <mask id="mask-2" fill="white">
                    <use xlink:href="#path-1"></use>
                </mask>
                <use id="蒙版" fill="#D8D8D8" opacity="0" xlink:href="#path-1"></use>
                <g mask="url(#mask-2)">
                    <g transform="translate(2.545455, 10.181818)">
                        <path d="M29.4254545,43.2727273 C22.9719726,43.0076716 17.8181818,37.6629046 17.8181818,31.1069519 C17.8181818,25.1999262 22.0021934,20.2761796 27.5509532,19.1724323 C28.9378468,13.993642 33.6392405,10.1818182 39.2254545,10.1818182 C43.4748521,10.1818182 47.212244,12.3875484 49.3684435,15.7232015 L49.531849,15.6820263 C49.9500522,15.585663 50.3854817,15.5347594 50.8327273,15.5347594 C53.2454193,15.5347594 55.3142507,17.016118 56.1898556,19.1242103 C61.866599,20.1232043 66.1818182,25.108021 66.1818182,31.1069519 C66.1818182,37.6629046 61.0280274,43.0076716 54.5746658,43.2631678 L54.5745455,43.2727273 L29.4254545,43.2727273 Z" id="形状结合备份-4" fill="url(#linearGradient-3)" fill-rule="evenodd" opacity="0.452080305"></path>
                        <g id="编组-25" filter="url(#filter-4)" stroke-width="1" fill="none" fill-rule="evenodd" transform="translate(46.454545, 57.272727) rotate(-30.000000) translate(-46.454545, -57.272727) translate(24.181818, 36.909091)">
                            <g id="矩形">
                                <mask id="mask-6" fill="white">
                                    <use xlink:href="#path-5"></use>
                                </mask>
                                <use id="蒙版" fill="#34B0FF" xlink:href="#path-5"></use>
                                <polygon fill="#1696FF" mask="url(#mask-6)" points="-1.27272727 14 45.8181818 14 45.8181818 42 -1.27272727 42"></polygon>
                            </g>
                            <path d="M7.63636364,3.81818182 L42,3.81818182 C43.4058157,3.81818182 44.5454545,4.95782064 44.5454545,6.36363636 L44.5454545,14 L44.5454545,14 L5.09090909,14 L5.09090909,6.36363636 C5.09090909,4.95782064 6.23054791,3.81818182 7.63636364,3.81818182 Z" id="矩形" fill="#E7F4FF"></path>
                            <path d="M5.09090909,14 L44.5454545,14 L44.5454545,33.0909091 C44.5454545,34.4967248 43.4058157,35.6363636 42,35.6363636 L7.63636364,35.6363636 C6.23054791,35.6363636 5.09090909,34.4967248 5.09090909,33.0909091 L5.09090909,14 L5.09090909,14 Z" id="矩形备份-4" fill="#52AEFF"></path>
                        </g>
                        <g id="编组-26备份-2" stroke-width="1" fill="none" fill-rule="evenodd" transform="translate(88.454545, 57.909091) rotate(25.000000) translate(-88.454545, -57.909091) translate(70.000000, 35.636364)">
                            <g id="矩形">
                                <use fill="black" fill-opacity="1" filter="url(#filter-8)" xlink:href="#path-7"></use>
                                <use fill="#FFFFFF" fill-rule="evenodd" xlink:href="#path-7"></use>
                            </g>
                            <rect id="矩形" fill="#EBF4FB" x="5.09090909" y="17.8181818" width="12.7272727" height="3.81818182"></rect>
                            <rect id="矩形备份-6" fill="#EBF4FB" x="5.09090909" y="11.4545455" width="12.7272727" height="3.81818182"></rect>
                            <rect id="矩形备份-5" fill="#EBF4FB" x="5.09090909" y="24.1818182" width="26.7272727" height="8.90909091"></rect>
                            <g id="路径-12">
                                <use fill="black" fill-opacity="1" filter="url(#filter-10)" xlink:href="#path-9"></use>
                                <use fill="#FFFFFF" fill-rule="evenodd" xlink:href="#path-9"></use>
                            </g>
                        </g>
                        <g id="编组-27" stroke-width="1" fill="none" fill-rule="evenodd" transform="translate(98.636364, 64.272727) rotate(25.000000) translate(-98.636364, -64.272727) translate(88.454545, 54.090909)">
                            <rect id="矩形" fill="#00CAAC" x="2.89384678e-13" y="5.78769356e-13" width="20.3636364" height="20.3636364" rx="1.27272727"></rect>
                            <text id="x" font-family="PangMenZhengDao" font-size="11.4545455" font-weight="normal" fill="#FFFFFF">
                                <tspan x="7.175" y="13.1818182">x</tspan>
                            </text>
                        </g>
                        <g id="编组-26" stroke-width="1" fill="none" fill-rule="evenodd" transform="translate(61.727273, 54.090909) rotate(-5.000000) translate(-61.727273, -54.090909) translate(43.272727, 31.818182)">
                            <g id="矩形">
                                <use fill="black" fill-opacity="1" filter="url(#filter-12)" xlink:href="#path-11"></use>
                                <use fill="#FFFFFF" fill-rule="evenodd" xlink:href="#path-11"></use>
                            </g>
                            <rect id="矩形" fill="#EBF4FB" x="5.09090909" y="17.8181818" width="20.3636364" height="3.81818182"></rect>
                            <rect id="矩形备份-5" fill="#EBF4FB" x="5.09090909" y="24.1818182" width="26.7272727" height="8.90909091"></rect>
                            <text id="H5" font-family="PangMenZhengDao" font-size="9.61220598" font-weight="normal" fill="#A8CBE5">
                                <tspan x="5.09090909" y="13.0909091">H5</tspan>
                            </text>
                            <g id="路径-12">
                                <use fill="black" fill-opacity="1" filter="url(#filter-14)" xlink:href="#path-13"></use>
                                <use fill="#FFFFFF" fill-rule="evenodd" xlink:href="#path-13"></use>
                            </g>
                        </g>
                        <circle id="椭圆形" fill-opacity="0.8" fill="url(#linearGradient-15)" fill-rule="evenodd" cx="76.3636364" cy="71.2727273" r="15.2727273"></circle>
                        <text id="？" fill="none" font-family="TRENDS, ShiShangZhongHeiJianTi" font-size="17.8181818" font-weight="normal">
                            <tspan x="71.9090909" y="76.8181818" fill="#FFFFFF">？</tspan>
                        </text>
                        <path d="M48.6809379,16.5454545 C48.6620861,16.7358574 48.6524341,16.9289766 48.6524341,17.124358 C48.6524341,20.3192909 51.2333674,22.9092958 54.41711,22.9092958 C54.5211645,22.9092958 54.6245751,22.9065292 54.7272727,22.9010653 L54.7272727,23.49602 C54.6245751,23.4905561 54.5211645,23.4877895 54.41711,23.4877895 C51.2873291,23.4877895 48.7400965,25.9907417 48.6546488,29.1108041 L48.6524341,29.2727273 L48.0759665,29.2727273 C48.0759665,26.0777944 45.4950332,23.4877895 42.3112906,23.4877895 C42.2068552,23.4877895 42.1030684,23.4905764 42,23.4960802 L42,22.9010052 C42.1030684,22.9065089 42.2068552,22.9092958 42.3112906,22.9092958 C45.4950332,22.9092958 48.0759665,20.3192909 48.0759665,17.124358 C48.0759665,16.9289766 48.0663144,16.7358574 48.0474627,16.5454545 L48.6809379,16.5454545 Z" id="路径" fill="#FFDE83" fill-rule="evenodd" opacity="0.600000024"></path>
                        <path d="M126.317302,48.3636364 C126.29845,48.5540393 126.288798,48.7471584 126.288798,48.9425399 C126.288798,52.1374727 128.869731,54.7274776 132.053474,54.7274776 C132.157528,54.7274776 132.260939,54.724711 132.363636,54.7192471 L132.363636,55.3142019 C132.260939,55.308738 132.157528,55.3059714 132.053474,55.3059714 C128.923693,55.3059714 126.37646,57.8089235 126.291012,60.9289859 L126.288798,61.0909091 L125.71233,61.0909091 C125.71233,57.8959762 123.131397,55.3059714 119.947654,55.3059714 C119.843219,55.3059714 119.739432,55.3087583 119.636364,55.314262 L119.636364,54.719187 C119.739432,54.7246907 119.843219,54.7274776 119.947654,54.7274776 C123.131397,54.7274776 125.71233,52.1374727 125.71233,48.9425399 C125.71233,48.7471584 125.702678,48.5540393 125.683826,48.3636364 L126.317302,48.3636364 Z" id="路径备份-4" fill="#FFDE83" fill-rule="evenodd" opacity="0.600000024"></path>
                        <path d="M16.9896767,19.0909091 C16.9632842,19.3574731 16.9497714,19.62784 16.9497714,19.901374 C16.9497714,24.37428 20.563078,28.0002868 25.0203176,28.0002868 C25.1659939,28.0002868 25.3107688,27.9964136 25.4545455,27.9887641 L25.4545455,28.8217008 C25.3107688,28.8140513 25.1659939,28.8101781 25.0203176,28.8101781 C20.6386244,28.8101781 17.0724988,32.314311 16.9528719,36.6823984 L16.9497714,36.9090909 L16.1427167,36.9090909 C16.1427167,32.4361849 12.5294101,28.8101781 8.07217054,28.8101781 C7.9259609,28.8101781 7.78065935,28.8140797 7.63636364,28.821785 L7.63636364,27.9886799 C7.78065935,27.9963852 7.9259609,28.0002868 8.07217054,28.0002868 C12.5294101,28.0002868 16.1427167,24.37428 16.1427167,19.901374 C16.1427167,19.62784 16.1292039,19.3574731 16.1028115,19.0909091 L16.9896767,19.0909091 Z" id="路径备份-2" fill="#FFDE83" fill-rule="evenodd"></path>
                        <path d="M67.6449264,0 C67.6336153,0.114241735 67.6278241,0.230113231 67.6278241,0.347342096 C67.6278241,2.26430183 69.1763841,3.81830473 71.0866296,3.81830473 C71.1490623,3.81830473 71.2111087,3.81664477 71.2727273,3.81336643 L71.2727273,4.1703393 C71.2111087,4.16706096 71.1490623,4.165401 71.0866296,4.165401 C69.2087611,4.165401 67.6804216,5.66717226 67.6291529,7.53920971 L67.6278241,7.63636364 L67.2819435,7.63636364 C67.2819435,5.7194039 65.7333836,4.165401 63.823138,4.165401 C63.7604767,4.165401 63.6982047,4.16707314 63.6363636,4.17037537 L63.6363636,3.81333036 C63.6982047,3.8166326 63.7604767,3.81830473 63.823138,3.81830473 C65.7333836,3.81830473 67.2819435,2.26430183 67.2819435,0.347342096 C67.2819435,0.230113231 67.2761523,0.114241735 67.2648413,0 L67.6449264,0 Z" id="路径备份-3" fill="#FFDE83" fill-rule="evenodd" opacity="0.400000006"></path>
                        <path d="M15.4631082,63.6363636 C15.4517971,63.7506054 15.4460059,63.8664769 15.4460059,63.9837057 C15.4460059,65.9006655 16.9945659,67.4546684 18.9048114,67.4546684 C18.9672441,67.4546684 19.0292905,67.4530084 19.0909091,67.4497301 L19.0909091,67.8067029 C19.0292905,67.8034246 18.9672441,67.8017646 18.9048114,67.8017646 C17.0269429,67.8017646 15.4986034,69.3035359 15.4473347,71.1755733 L15.4460059,71.2727273 L15.1001254,71.2727273 C15.1001254,69.3557675 13.5515654,67.8017646 11.6413198,67.8017646 C11.5786586,67.8017646 11.5163865,67.8034368 11.4545455,67.806739 L11.4545455,67.449694 C11.5163865,67.4529962 11.5786586,67.4546684 11.6413198,67.4546684 C13.5515654,67.4546684 15.1001254,65.9006655 15.1001254,63.9837057 C15.1001254,63.8664769 15.0943341,63.7506054 15.0830231,63.6363636 L15.4631082,63.6363636 Z" id="路径备份-6" fill="#FFDE83" fill-rule="evenodd" opacity="0.600000024"></path>
                        <path d="M113.463108,68.7272727 C113.451797,68.8415145 113.446006,68.957386 113.446006,69.0746148 C113.446006,70.9915746 114.994566,72.5455775 116.904811,72.5455775 C116.967244,72.5455775 117.029291,72.5439175 117.090909,72.5406392 L117.090909,72.897612 C117.029291,72.8943337 116.967244,72.8926737 116.904811,72.8926737 C115.026943,72.8926737 113.498603,74.394445 113.447335,76.2664824 L113.446006,76.3636364 L113.100125,76.3636364 C113.100125,74.4466766 111.551565,72.8926737 109.64132,72.8926737 C109.578659,72.8926737 109.516386,72.8943459 109.454545,72.8976481 L109.454545,72.5406031 C109.516386,72.5439053 109.578659,72.5455775 109.64132,72.5455775 C111.551565,72.5455775 113.100125,70.9915746 113.100125,69.0746148 C113.100125,68.957386 113.094334,68.8415145 113.083023,68.7272727 L113.463108,68.7272727 Z" id="路径备份-5" fill="#FFDE83" fill-rule="evenodd" opacity="0.400000006"></path>
                        <path d="M84.5076824,3.81818182 C84.4775197,4.12282644 84.4620764,4.4318171 84.4620764,4.74442741 C84.4620764,9.85632003 88.5915696,14.0003278 93.6855577,14.0003278 C93.852045,14.0003278 94.017502,13.9959012 94.1818182,13.987159 L94.1818182,14.9390866 C94.017502,14.9303444 93.852045,14.9259178 93.6855577,14.9259178 C88.6779084,14.9259178 84.6023363,18.9306412 84.4656198,23.922741 L84.4620764,24.1818182 L83.5397282,24.1818182 C83.5397282,19.0699256 79.410235,14.9259178 74.3162468,14.9259178 C74.1491501,14.9259178 73.9830912,14.9303768 73.8181818,14.9391828 L73.8181818,13.9870628 C73.9830912,13.9958687 74.1491501,14.0003278 74.3162468,14.0003278 C79.410235,14.0003278 83.5397282,9.85632003 83.5397282,4.74442741 C83.5397282,4.4318171 83.5242849,4.12282644 83.4941222,3.81818182 L84.5076824,3.81818182 Z" id="路径备份" fill="#FFDE83" fill-rule="evenodd"></path>
                        <path d="M11.6072727,117.090909 C5.15379077,116.825853 0,111.481086 0,104.925134 C0,99.018108 4.18401156,94.0943615 9.73277143,92.9906141 C11.1196649,87.8118238 15.8210586,84 21.4072727,84 C25.6566703,84 29.3940622,86.2057302 31.5502617,89.5413833 L31.7136672,89.5002081 C32.1318703,89.4038448 32.5672999,89.3529412 33.0145455,89.3529412 C35.4272375,89.3529412 37.4960689,90.8342998 38.3716738,92.9423921 C44.0484171,93.9413861 48.3636364,98.9262028 48.3636364,104.925134 C48.3636364,111.481086 43.2098456,116.825853 36.756484,117.08135 L36.7563636,117.090909 L11.6072727,117.090909 Z" id="形状结合" fill="url(#linearGradient-3)" fill-rule="evenodd"></path>
                        <path d="M96.88,105.636364 C90.426518,105.371308 85.2727273,100.026541 85.2727273,93.4705882 C85.2727273,87.5635625 89.4567388,82.639816 95.0054987,81.5360687 C96.3923922,76.3572784 101.093786,72.5454545 106.68,72.5454545 C110.929398,72.5454545 114.666789,74.7511848 116.822989,78.0868379 L116.986394,78.0456627 C117.404598,77.9492993 117.840027,77.8983957 118.287273,77.8983957 C120.699965,77.8983957 122.768796,79.3797544 123.644401,81.4878466 C129.321144,82.4868407 133.636364,87.4716574 133.636364,93.4705882 C133.636364,100.026541 128.482573,105.371308 122.029211,105.626804 L122.029091,105.636364 L96.88,105.636364 Z" id="形状结合备份-5" fill="url(#linearGradient-3)" fill-rule="evenodd" opacity="0.600000024"></path>
                        <text id="暂无数据" fill="none" font-family="PingFangSC-Medium, PingFang SC" font-size="10" font-weight="400">
                            <tspan x="42" y="100.090909" fill="#F4F7FF">暂无数据</tspan>
                        </text>
                    </g>
                </g>
            </g>
        </g>
    </g>
</svg>
