<svg width="14" height="14" viewBox="0 0 14 14" fill="none" xmlns="http://www.w3.org/2000/svg">
<path fill-rule="evenodd" clip-rule="evenodd" d="M0.5 2C0.5 1.17157 1.17157 0.5 2 0.5H12C12.8284 0.5 13.5 1.17158 13.5 2V12C13.5 12.8284 12.8284 13.5 12 13.5H2C1.17158 13.5 0.5 12.8284 0.5 12V2ZM2 1.5C1.72386 1.5 1.5 1.72386 1.5 2V12C1.5 12.2762 1.72385 12.5 2 12.5H12C12.2762 12.5 12.5 12.2762 12.5 12V2C12.5 1.72385 12.2762 1.5 12 1.5H2Z" fill="#1F8DFF"/>
<path fill-rule="evenodd" clip-rule="evenodd" d="M2.83398 5.00016C2.83398 3.80355 3.80404 2.8335 5.00065 2.8335C6.19726 2.8335 7.16732 3.80355 7.16732 5.00016C7.16732 6.19677 6.19726 7.16683 5.00065 7.16683C3.80404 7.16683 2.83398 6.19677 2.83398 5.00016ZM5.00065 3.8335C4.35633 3.8335 3.83398 4.35584 3.83398 5.00016C3.83398 5.64449 4.35633 6.16683 5.00065 6.16683C5.64498 6.16683 6.16732 5.64449 6.16732 5.00016C6.16732 4.35584 5.64498 3.8335 5.00065 3.8335Z" fill="#1F8DFF"/>
<path fill-rule="evenodd" clip-rule="evenodd" d="M8.99888 7.29486C9.18974 7.12308 9.4797 7.1238 9.6697 7.29653L13.3364 10.6299C13.5407 10.8156 13.5558 11.1318 13.37 11.3362C13.1842 11.5405 12.868 11.5556 12.6637 11.3698L9.33168 8.3407L6.33451 11.0382C6.14779 11.2062 5.86537 11.2096 5.67463 11.0461L3.64583 9.30716L1.30003 11.0665C1.07912 11.2322 0.765715 11.1874 0.600029 10.9665C0.434344 10.7456 0.479116 10.4322 0.700029 10.2665L3.3667 8.2665C3.55418 8.12589 3.81416 8.13436 3.99209 8.28688L5.99198 10.0011L8.99888 7.29486Z" fill="#1F8DFF"/>
</svg>
