<svg width="32" height="32" viewBox="0 0 32 32" fill="none" xmlns="http://www.w3.org/2000/svg">
<path d="M10.8933 18.342L7.40665 14.8554C7.28268 14.7315 7.18434 14.5845 7.11724 14.4226C7.05014 14.2608 7.0156 14.0873 7.0156 13.912C7.0156 13.7368 7.05014 13.5633 7.11724 13.4014C7.18434 13.2396 7.28268 13.0925 7.40665 12.9687L14.0793 6.29736C14.3294 6.0474 14.6684 5.90698 15.022 5.90698C15.3755 5.90698 15.7146 6.0474 15.9647 6.29736L24.62 14.9514C24.8699 15.2014 25.0104 15.5405 25.0104 15.894C25.0104 16.2476 24.8699 16.5867 24.62 16.8367L23.4173 18.04L26.6627 19.1327C26.7702 19.1689 26.8667 19.232 26.9431 19.3159C27.0195 19.3998 27.0732 19.5019 27.0991 19.6124C27.125 19.7229 27.1222 19.8381 27.0911 19.9473C27.06 20.0564 27.0016 20.1558 26.9213 20.236L21.2533 25.904C21.1731 25.9843 21.0737 26.0427 20.9646 26.0738C20.8554 26.105 20.7401 26.1077 20.6297 26.0818C20.5192 26.0559 20.4171 26.0022 20.3332 25.9258C20.2492 25.8495 20.1862 25.7529 20.15 25.6454L19.0567 22.4L17.9473 23.5094C17.6973 23.7593 17.3582 23.8997 17.0047 23.8997C16.6511 23.8997 16.312 23.7593 16.062 23.5094L12.8727 20.3207L11.7927 22.178C11.7297 22.2864 11.6519 22.3854 11.5613 22.472C11.4436 22.5896 11.3026 22.6811 11.1473 22.7407C10.9099 22.8385 10.6492 22.8658 10.3967 22.8194H8.49865V24.36C8.49086 24.7082 8.34707 25.0395 8.09806 25.283C7.84905 25.5265 7.5146 25.6629 7.16632 25.6629C6.81803 25.6629 6.48359 25.5265 6.23458 25.283C5.98556 25.0395 5.84177 24.7082 5.83398 24.36V19.1534C5.84177 18.8052 5.98556 18.4739 6.23458 18.2304C6.48359 17.9868 6.81803 17.8505 7.16632 17.8505C7.5146 17.8505 7.84905 17.9868 8.09806 18.2304C8.34707 18.4739 8.49086 18.8052 8.49865 19.1534V20.4447H9.67132L10.8947 18.342H10.8933ZM19.5707 16.2954C19.6955 16.4213 19.8439 16.5214 20.0074 16.5899C20.1709 16.6584 20.3464 16.6941 20.5237 16.6948C20.701 16.6956 20.8767 16.6614 21.0408 16.5942C21.2048 16.5271 21.3541 16.4282 21.48 16.3034C21.6049 16.1776 21.7039 16.0284 21.7712 15.8643C21.8384 15.7003 21.8728 15.5246 21.8721 15.3473C21.8715 15.17 21.836 14.9946 21.7675 14.831C21.6991 14.6674 21.5991 14.519 21.4733 14.394C21.3484 14.2681 21.1999 14.168 21.0363 14.0994C20.8727 14.0309 20.6972 13.9952 20.5198 13.9945C20.3425 13.9939 20.1667 14.0282 20.0026 14.0954C19.8384 14.1627 19.6892 14.2617 19.5633 14.3867C19.4384 14.5125 19.3395 14.6618 19.2723 14.8258C19.2051 14.9899 19.1708 15.1656 19.1715 15.3429C19.1722 15.5202 19.2078 15.6956 19.2763 15.8592C19.3448 16.0227 19.4448 16.1705 19.5707 16.2954Z" fill="#1F8DFF"/>
</svg>
