<svg width="14" height="14" viewBox="0 0 14 14" fill="none" xmlns="http://www.w3.org/2000/svg">
<path fill-rule="evenodd" clip-rule="evenodd" d="M6.99935 1.66675C4.05383 1.66675 1.66602 4.05456 1.66602 7.00008C1.66602 9.9456 4.05383 12.3334 6.99935 12.3334C9.94487 12.3334 12.3327 9.9456 12.3327 7.00008C12.3327 4.05456 9.94487 1.66675 6.99935 1.66675ZM0.666016 7.00008C0.666016 3.50228 3.50155 0.666748 6.99935 0.666748C10.4972 0.666748 13.3327 3.50228 13.3327 7.00008C13.3327 10.4979 10.4972 13.3334 6.99935 13.3334C3.50155 13.3334 0.666016 10.4979 0.666016 7.00008Z" fill="#1F8DFF"/>
<path fill-rule="evenodd" clip-rule="evenodd" d="M7 5.5C6.17157 5.5 5.5 6.17157 5.5 7C5.5 7.82843 6.17157 8.5 7 8.5C7.82843 8.5 8.5 7.82843 8.5 7C8.5 6.17157 7.82843 5.5 7 5.5ZM4.5 7C4.5 5.61929 5.61929 4.5 7 4.5C8.38071 4.5 9.5 5.61929 9.5 7C9.5 8.38071 8.38071 9.5 7 9.5C5.61929 9.5 4.5 8.38071 4.5 7Z" fill="#1F8DFF"/>
<path fill-rule="evenodd" clip-rule="evenodd" d="M7 10.2917C7.27614 10.2917 7.5 10.5156 7.5 10.7917V12.8334C7.5 13.1096 7.27614 13.3334 7 13.3334C6.72386 13.3334 6.5 13.1096 6.5 12.8334V10.7917C6.5 10.5156 6.72386 10.2917 7 10.2917Z" fill="#1F8DFF"/>
<path fill-rule="evenodd" clip-rule="evenodd" d="M10.29 7C10.29 6.72386 10.5139 6.5 10.79 6.5H12.83C13.1062 6.5 13.33 6.72386 13.33 7C13.33 7.27614 13.1062 7.5 12.83 7.5H10.79C10.5139 7.5 10.29 7.27614 10.29 7Z" fill="#1F8DFF"/>
<path fill-rule="evenodd" clip-rule="evenodd" d="M0.666016 7C0.666016 6.72386 0.889873 6.5 1.16602 6.5H3.20768C3.48382 6.5 3.70768 6.72386 3.70768 7C3.70768 7.27614 3.48382 7.5 3.20768 7.5H1.16602C0.889873 7.5 0.666016 7.27614 0.666016 7Z" fill="#1F8DFF"/>
<path fill-rule="evenodd" clip-rule="evenodd" d="M7 0.666748C7.27614 0.666748 7.5 0.890606 7.5 1.16675V3.20841C7.5 3.48456 7.27614 3.70841 7 3.70841C6.72386 3.70841 6.5 3.48456 6.5 3.20841V1.16675C6.5 0.890606 6.72386 0.666748 7 0.666748Z" fill="#1F8DFF"/>
</svg>
