<svg width="32" height="32" viewBox="0 0 32 32" fill="none" xmlns="http://www.w3.org/2000/svg">
<path d="M12.0147 17.2362L12.0187 17.2296L8.98333 13.9836C8.76404 13.749 8.63676 13.4432 8.62488 13.1223C8.613 12.8014 8.71732 12.487 8.91867 12.2369L9.63133 11.3516L21.6307 23.5982L20.2307 24.4536C20.0227 24.5808 19.7839 24.6485 19.5401 24.6495C19.2963 24.6504 19.0569 24.5845 18.848 24.4589L12.0147 17.2362ZM11.664 17.8309L13.5953 19.8722L12.3533 21.9749C12.2601 22.1332 12.1351 22.2706 11.9862 22.3782C11.8372 22.4858 11.6676 22.5614 11.488 22.6002C11.3933 22.6222 11.2947 22.6336 11.1933 22.6336H9.16667V24.6736C9.16669 24.8487 9.13223 25.0221 9.06523 25.1839C8.99824 25.3457 8.90003 25.4927 8.77621 25.6165C8.6524 25.7403 8.50541 25.8386 8.34363 25.9056C8.18184 25.9726 8.00845 26.0071 7.83333 26.0071C7.65822 26.0071 7.48482 25.9726 7.32304 25.9056C7.16126 25.8386 7.01427 25.7403 6.89045 25.6165C6.76664 25.4927 6.66843 25.3457 6.60144 25.1839C6.53444 25.0221 6.49997 24.8487 6.5 24.6736V19.3402C6.49997 19.1651 6.53444 18.9917 6.60144 18.8299C6.66843 18.6681 6.76664 18.5211 6.89045 18.3973C7.01427 18.2735 7.16126 18.1752 7.32304 18.1082C7.48482 18.0412 7.65822 18.0067 7.83333 18.0067C8.00845 18.0067 8.18184 18.0412 8.34363 18.1082C8.50541 18.1752 8.6524 18.2735 8.77621 18.3973C8.90003 18.5211 8.99824 18.6681 9.06523 18.8299C9.13223 18.9917 9.16669 19.1651 9.16667 19.3402V19.9996H10.3833L11.6633 17.8309H11.664ZM10.4687 10.3109L13.5367 6.49756C13.6535 6.35234 13.7995 6.23323 13.9652 6.14791C14.1309 6.06259 14.3126 6.01296 14.4987 6.00222C14.6848 5.99147 14.871 6.01986 15.0454 6.08555C15.2199 6.15123 15.3786 6.25275 15.5113 6.38356L27.4187 18.1189C27.5629 18.261 27.6729 18.4341 27.7403 18.6251C27.8077 18.8161 27.8307 19.0199 27.8076 19.2211C27.7845 19.4223 27.7158 19.6155 27.6068 19.7862C27.4979 19.9569 27.3514 20.1006 27.1787 20.2062L22.792 22.8876L10.4687 10.3109Z" fill="#1F8DFF"/>
</svg>
