<svg width="14" height="14" viewBox="0 0 14 14" fill="none" xmlns="http://www.w3.org/2000/svg">
<path fill-rule="evenodd" clip-rule="evenodd" d="M9.125 1.75C9.125 1.47386 9.34886 1.25 9.625 1.25H12.25C12.5261 1.25 12.75 1.47386 12.75 1.75V4.375C12.75 4.65114 12.5261 4.875 12.25 4.875C11.9739 4.875 11.75 4.65114 11.75 4.375V2.25H9.625C9.34886 2.25 9.125 2.02614 9.125 1.75Z" fill="#1F8DFF"/>
<path fill-rule="evenodd" clip-rule="evenodd" d="M12.25 9.125C12.5261 9.125 12.75 9.34886 12.75 9.625V12.25C12.75 12.5261 12.5261 12.75 12.25 12.75H9.625C9.34886 12.75 9.125 12.5261 9.125 12.25C9.125 11.9739 9.34886 11.75 9.625 11.75H11.75V9.625C11.75 9.34886 11.9739 9.125 12.25 9.125Z" fill="#1F8DFF"/>
<path fill-rule="evenodd" clip-rule="evenodd" d="M1.75 9.125C2.02614 9.125 2.25 9.34886 2.25 9.625V11.75H4.375C4.65114 11.75 4.875 11.9739 4.875 12.25C4.875 12.5261 4.65114 12.75 4.375 12.75H1.75C1.47386 12.75 1.25 12.5261 1.25 12.25V9.625C1.25 9.34886 1.47386 9.125 1.75 9.125Z" fill="#1F8DFF"/>
<path fill-rule="evenodd" clip-rule="evenodd" d="M1.25 1.75C1.25 1.47386 1.47386 1.25 1.75 1.25H4.375C4.65114 1.25 4.875 1.47386 4.875 1.75C4.875 2.02614 4.65114 2.25 4.375 2.25H2.25V4.375C2.25 4.65114 2.02614 4.875 1.75 4.875C1.47386 4.875 1.25 4.65114 1.25 4.375V1.75Z" fill="#1F8DFF"/>
</svg>
