<svg width="32" height="32" viewBox="0 0 32 32" fill="none" xmlns="http://www.w3.org/2000/svg">
<path fill-rule="evenodd" clip-rule="evenodd" d="M15.076 8.97777L8.45614 8.97777C8.06698 8.96906 7.69669 8.80837 7.42454 8.5301C7.15239 8.25183 7 7.87809 7 7.48888C7 7.09968 7.15239 6.72593 7.42454 6.44766C7.69669 6.16939 8.06698 6.0087 8.45614 6H19.2939C19.683 6.0087 20.0533 6.16939 20.3255 6.44766C20.5976 6.72593 20.75 7.09968 20.75 7.48888C20.75 7.87809 20.5976 8.25183 20.3255 8.5301C20.0533 8.80837 19.683 8.96906 19.2939 8.97777H17.7227L17.7225 10.8069C18.8726 10.8674 19.9995 11.1595 21.0384 11.6664C22.0772 12.1733 23.0075 12.8849 23.7755 13.7603C24.5436 14.6357 25.1342 15.6575 25.5134 16.7668C25.8925 17.8761 26.0528 19.051 25.9848 20.2238C26.0106 20.2765 8.09186 20.1975 8.11767 20.1843C8.11767 15.1531 11.0095 11.7551 15.076 10.9649V8.97777ZM23.3902 20.9218H10.713C10.7404 25 13.0237 28.35 17.0515 28.35C21.0922 28.35 23.3902 25.0179 23.3902 20.9218ZM17.0598 25.78C17.8938 25.78 18.5698 25.104 18.5698 24.27C18.5698 23.4361 17.8938 22.76 17.0598 22.76C16.2259 22.76 15.5498 23.4361 15.5498 24.27C15.5498 25.104 16.2259 25.78 17.0598 25.78Z" fill="#1F8DFF"/>
</svg>
