<svg width="14" height="14" viewBox="0 0 14 14" fill="none" xmlns="http://www.w3.org/2000/svg">
<path fill-rule="evenodd" clip-rule="evenodd" d="M6.99935 1.8335C7.17174 1.8335 7.33198 1.92231 7.42335 2.0685L13.2567 11.4018C13.353 11.556 13.3581 11.7502 13.27 11.9092C13.1819 12.0682 13.0144 12.1668 12.8327 12.1668H1.16602C0.984253 12.1668 0.816807 12.0682 0.728695 11.9092C0.640582 11.7502 0.645683 11.556 0.742017 11.4018L6.57535 2.0685C6.66672 1.92231 6.82695 1.8335 6.99935 1.8335ZM2.06814 11.1668H11.9306L6.99935 3.27689L2.06814 11.1668Z" fill="#595959"/>
<path fill-rule="evenodd" clip-rule="evenodd" d="M6.7227 7.75048C6.89065 7.63851 7.10945 7.63851 7.2774 7.75048L9.0274 8.91715C9.25717 9.07032 9.31925 9.38076 9.16608 9.61052C9.0129 9.84028 8.70247 9.90237 8.4727 9.7492L7.00005 8.76743L5.5274 9.7492C5.29764 9.90237 4.9872 9.84028 4.83403 9.61052C4.68085 9.38076 4.74294 9.07032 4.9727 8.91715L6.7227 7.75048Z" fill="#595959"/>
<path fill-rule="evenodd" clip-rule="evenodd" d="M7 5.9165C7.27614 5.9165 7.5 6.14036 7.5 6.4165V8.1665C7.5 8.44265 7.27614 8.6665 7 8.6665C6.72386 8.6665 6.5 8.44265 6.5 8.1665V6.4165C6.5 6.14036 6.72386 5.9165 7 5.9165Z" fill="#595959"/>
</svg>
