<svg width="14" height="14" viewBox="0 0 14 14" fill="none" xmlns="http://www.w3.org/2000/svg">
<path fill-rule="evenodd" clip-rule="evenodd" d="M9.56295 0.812951C9.75821 0.617688 10.0748 0.617688 10.2701 0.812951L13.1867 3.72962C13.382 3.92488 13.382 4.24146 13.1867 4.43672L4.43672 13.1867C4.24146 13.382 3.92488 13.382 3.72962 13.1867L0.812951 10.2701C0.617688 10.0748 0.617688 9.75821 0.812951 9.56295L9.56295 0.812951ZM9.9165 1.87361L1.87361 9.9165L4.08317 12.1261L12.1261 4.08317L9.9165 1.87361Z" fill="#595959"/>
<path fill-rule="evenodd" clip-rule="evenodd" d="M9.17631 1.9067C9.37157 2.10196 9.37157 2.41855 9.17631 2.61381L2.61381 9.17631C2.41855 9.37157 2.10196 9.37157 1.9067 9.17631C1.71144 8.98104 1.71144 8.66446 1.9067 8.4692L8.4692 1.9067C8.66446 1.71144 8.98104 1.71144 9.17631 1.9067Z" fill="#595959"/>
<path fill-rule="evenodd" clip-rule="evenodd" d="M2.27145 8.10494C2.46671 7.90968 2.78329 7.90968 2.97855 8.10494L4.14522 9.27161C4.34048 9.46687 4.34048 9.78345 4.14522 9.97872C3.94996 10.174 3.63338 10.174 3.43811 9.97872L2.27145 8.81205C2.07618 8.61679 2.07618 8.3002 2.27145 8.10494Z" fill="#595959"/>
<path fill-rule="evenodd" clip-rule="evenodd" d="M3.72994 6.64645C3.9252 6.45118 4.24179 6.45118 4.43705 6.64645L6.18705 8.39645C6.38231 8.59171 6.38231 8.90829 6.18705 9.10355C5.99179 9.29882 5.6752 9.29882 5.47994 9.10355L3.72994 7.35355C3.53468 7.15829 3.53468 6.84171 3.72994 6.64645Z" fill="#595959"/>
<path fill-rule="evenodd" clip-rule="evenodd" d="M5.18795 5.18795C5.38321 4.99269 5.6998 4.99269 5.89506 5.18795L7.06172 6.35462C7.25699 6.54988 7.25699 6.86646 7.06172 7.06172C6.86646 7.25699 6.54988 7.25699 6.35462 7.06172L5.18795 5.89506C4.99269 5.6998 4.99269 5.38321 5.18795 5.18795Z" fill="#595959"/>
<path fill-rule="evenodd" clip-rule="evenodd" d="M6.64645 3.72994C6.84171 3.53468 7.15829 3.53468 7.35355 3.72994L9.10355 5.47994C9.29882 5.6752 9.29882 5.99179 9.10355 6.18705C8.90829 6.38231 8.59171 6.38231 8.39645 6.18705L6.64645 4.43705C6.45118 4.24179 6.45118 3.9252 6.64645 3.72994Z" fill="#595959"/>
<path fill-rule="evenodd" clip-rule="evenodd" d="M8.10494 2.27145C8.3002 2.07618 8.61679 2.07618 8.81205 2.27145L9.97872 3.43811C10.174 3.63338 10.174 3.94996 9.97872 4.14522C9.78345 4.34048 9.46687 4.34048 9.27161 4.14522L8.10494 2.97855C7.90968 2.78329 7.90968 2.46671 8.10494 2.27145Z" fill="#595959"/>
</svg>
