<svg width="64" height="64" viewBox="0 0 64 64" fill="none" xmlns="http://www.w3.org/2000/svg">
<g opacity="0.5">
<path d="M41.4799 16.5603L42.4873 17.3869L42.7977 16.1482L43.9263 15.4806L42.7977 14.8134L42.4873 13.5747L41.4799 14.4013L40.1596 14.3027L40.6652 15.4806L40.1596 16.6592L41.4799 16.5603ZM31.9999 54.873C21.5423 54.873 12.7459 47.6816 10.1689 37.9187L8.77979 37.5418C11.254 48.2048 20.7113 56.1434 31.9999 56.1434C38.8454 56.1434 45.0163 53.225 49.366 48.5501L47.9782 48.1738C43.8892 52.3126 38.2396 54.873 31.9999 54.873Z" fill="#F5222D"/>
<path d="M16.1267 43.9674L17.1507 44.8035L17.3923 43.5456L18.4598 42.8662L17.3267 42.1926L16.9628 40.9366L16.0204 41.7776L14.7283 41.6806L15.2793 42.8742L14.8441 44.071L16.1267 43.9674ZM32 17.3869C36.7564 17.3869 40.9756 19.7155 43.6057 23.3078L45.4454 23.8067C42.6988 19.1981 37.7052 16.1162 32 16.1162C29.3392 16.1131 26.7226 16.7962 24.4028 18.0995L26.2393 18.5974C28.0543 17.7973 30.0164 17.3849 32 17.3869ZM33.702 12.0016L32.934 10.9872L32.3302 12.1491L31.079 12.5856L32.0025 13.4666L31.9974 14.7504L33.1718 14.1328L34.4201 14.4902L34.2224 13.2275L34.999 12.1645L33.702 12.0016Z" fill="#F5222D"/>
<path d="M32 9.12736C42.4576 9.12736 51.2541 16.3184 53.8311 26.0813L55.2205 26.4579C52.7456 15.7952 43.2893 7.85664 32 7.85664C25.1549 7.85664 18.984 10.7754 14.6343 15.4502L16.0218 15.8266C20.1111 11.6877 25.76 9.12736 32 9.12736Z" fill="#F5222D"/>
<path d="M47.7474 19.9798L46.6594 19.217L46.5042 20.4918L45.4792 21.2477L46.6658 21.84L47.1202 23.0698L48.0082 22.1616L49.3148 22.1658L48.677 21.0115L49.0296 19.7843L47.7474 19.9798ZM23.9986 13.7878L22.9621 13.0576L22.7359 14.3504L21.6748 15.151L22.8191 15.7062L23.1996 16.9312L24.133 15.9814L25.4293 15.9382L24.862 14.7958L25.2824 13.5437L23.9986 13.7878ZM61.8831 29.5805L7.31572 14.7808C5.97652 14.4179 4.59956 15.2221 4.24084 16.5779L0.341963 31.3066C-0.016757 32.6621 0.778123 34.0557 2.11732 34.4192L56.6844 49.2189C58.0239 49.5821 59.4002 48.7773 59.7592 47.4218L63.6575 32.6931C64.0172 31.3373 63.222 29.9437 61.8831 29.5805ZM62.2831 32.9782L58.709 46.479C58.4396 47.4963 57.4069 48.0995 56.4028 47.8275L3.04884 33.3565C2.04404 33.0835 1.44788 32.0387 1.717 31.0221L5.29108 17.5203C5.55988 16.5034 6.59284 15.9002 7.59732 16.1728L60.9512 30.6438C61.9557 30.9158 62.5522 31.9613 62.2831 32.9782ZM24.2917 48.0403L23.2924 47.2157L22.9842 48.4515L21.8655 49.1168L22.9842 49.7824L23.2924 51.0189L24.2917 50.1939L25.6008 50.2925L25.0997 49.1168L25.6008 47.9421L24.2917 48.0403ZM41.0748 50.2099L42.1052 50.9395L42.3266 49.6509L43.3784 48.8541L42.2418 48.2989L41.862 47.0768L40.9375 48.0221L39.6511 48.0643L40.2159 49.2038L39.8008 50.4515L41.0748 50.2099ZM31.9957 51.9542L32.758 52.9667L33.357 51.807L34.5976 51.3718L33.6818 50.4928L33.6869 49.2115L32.5221 49.8282L31.2844 49.4717L31.4802 50.7309L30.71 51.7923L31.9957 51.9542ZM37.7608 45.4019C35.9459 46.2026 33.9836 46.6151 31.9999 46.6131C27.2434 46.6131 23.0245 44.2845 20.3941 40.6915L18.5541 40.1926C21.301 44.8013 26.2943 47.8832 31.9999 47.8832C34.6608 47.8865 37.2776 47.2034 39.5973 45.8998L37.7608 45.4019Z" fill="#F5222D"/>
<path d="M29.1262 27.3574L29.6158 25.5331L18.9825 22.6806L18.4929 24.505L22.6107 25.6096C22.4041 26.2448 22.1795 26.8739 21.9371 27.4963L17.1416 26.2096L16.6523 28.0339L21.083 29.2227C20.2433 30.823 18.3073 31.9984 15.2756 32.7494C15.514 33.111 15.8433 33.7581 16.2632 34.6906C18.9451 33.9939 20.9188 32.8854 22.1851 31.3622L21.5838 33.6035C21.1851 34.9491 21.7208 35.8 23.1892 36.1571L24.8571 36.6045C26.1332 36.9837 27.011 36.6979 27.4904 35.7466C27.7688 35.2621 28.0894 34.6221 28.4526 33.8253C27.847 33.4418 27.2427 33.0562 26.6398 32.6685L26.612 32.7728C26.3553 33.4496 26.1556 33.9171 26.0116 34.1763C25.7739 34.783 25.3822 34.9949 24.836 34.8106L24.3147 34.6707C23.714 34.5469 23.5204 34.1597 23.7326 33.5085L24.4878 30.6938L22.924 30.2742L23.22 29.7949L28.9534 31.3331L29.4427 29.5088L24.0222 28.0544C24.2648 27.4321 24.4894 26.8029 24.6958 26.1677L29.1262 27.3574ZM44.9358 29.3082L43.2337 28.5722C42.2856 30.441 41.3051 31.8733 40.2936 32.8678L39.2878 31.2013L37.8894 31.832C38.1944 32.361 38.6046 33.1229 39.1201 34.1181C39.212 34.3293 39.2836 34.4787 39.3352 34.5667L40.2606 34.0326L40.412 35.1347L41.0769 34.5309C41.0401 35.6384 41.1281 36.631 41.3403 37.5069C40.6942 37.9674 39.9377 38.36 39.068 38.6854C38.6658 37.9923 38.2544 37.3045 37.8337 36.6224C38.3486 36.0899 38.7441 35.6563 39.0216 35.3206C39.1812 35.1402 39.3144 34.9898 39.4216 34.8694L38.1198 33.6819C37.7086 34.2419 37.3032 34.7114 36.9048 35.0883L35.8328 33.4595L34.3924 34.2464L35.4846 36.2157C34.7256 36.6826 33.7284 37.0672 32.4929 37.369C32.6081 37.7718 32.7537 38.407 32.9313 39.2746C34.3364 38.7574 35.4795 38.2442 36.3617 37.7363L37.5054 39.7194L38.1284 39.272L38.8212 40.8544C40.1032 40.3789 41.1681 39.8819 42.0145 39.3648C42.4628 40.192 43.0801 41.0842 43.867 42.0406C44.4257 41.4826 44.9233 41.0198 45.3569 40.6525C44.5419 39.801 43.9105 38.961 43.4625 38.1328C44.5112 36.9987 45.4372 35.4218 46.2404 33.4022L47.074 33.6259L47.5496 31.8538L44.0574 30.9168C44.3771 30.3957 44.6703 29.8588 44.9358 29.3082ZM44.6244 32.9683C44.1121 34.3213 43.5089 35.3885 42.8155 36.1706C42.6564 35.2339 42.66 34.0432 42.8244 32.5971L42.9041 32.5069L44.6244 32.9683ZM35.1268 33.3814C36.1585 32.7277 36.9582 32.1782 37.524 31.7338L36.459 30.4986C35.6181 31.1867 34.7233 31.806 33.7832 32.3507L34.5038 33.8291C34.6452 33.7184 34.8526 33.569 35.1268 33.3814Z" fill="#F5222D"/>
<path d="M41.5494 29.8525L39.6208 29.335L39.6515 27.5552L37.6147 27.232C37.6304 27.3114 37.6329 27.4419 37.6214 27.625C37.6291 28.1491 37.6355 28.5421 37.6406 28.8035L35.295 28.1744L34.8477 29.8422L41.1027 31.5203L41.5494 29.8525Z" fill="#F5222D"/>
</g>
</svg>
