<svg width="36" height="40" viewBox="0 0 36 40" fill="none" xmlns="http://www.w3.org/2000/svg">
<g filter="url(#filter0_d_2051_4196)">
<path d="M31.7124 13.84C31.7124 6.23996 25.5524 0.0799561 17.9524 0.0799561C10.3524 0.0799561 4.19238 6.23996 4.19238 13.84C4.19238 18.64 6.64038 22.848 10.3684 25.312L17.9524 31.76L25.5364 25.312C29.2484 22.848 31.7124 18.624 31.7124 13.84Z" fill="#1F8DFF"/>
<path fill-rule="evenodd" clip-rule="evenodd" d="M16.7205 7.96221H11.7032C11.4083 7.95561 11.1276 7.83382 10.9214 7.62292C10.7151 7.41201 10.5996 7.12875 10.5996 6.83376C10.5996 6.53878 10.7151 6.25552 10.9214 6.04461C11.1276 5.83371 11.4083 5.71192 11.7032 5.70532H19.9173C20.2122 5.71192 20.4929 5.83371 20.6992 6.04461C20.9054 6.25552 21.0209 6.53878 21.0209 6.83376C21.0209 7.12875 20.9054 7.41201 20.6992 7.62292C20.4929 7.83382 20.2122 7.95561 19.9173 7.96221H18.7265L18.7264 9.34851C19.598 9.39438 20.4521 9.61578 21.2395 9.99996C22.0268 10.3841 22.7319 10.9235 23.314 11.587C23.8961 12.2504 24.3437 13.0248 24.6311 13.8656C24.9185 14.7064 25.0399 15.5968 24.9884 16.4857C25.008 16.5256 11.4271 16.4657 11.4467 16.4558C11.4467 12.6426 13.6384 10.0672 16.7205 9.46829V7.96221ZM23.0219 17.0148H13.4137C13.4345 20.1057 15.1651 22.6447 18.2177 22.6447C21.2803 22.6447 23.0219 20.1192 23.0219 17.0148ZM18.2241 20.6969C18.8561 20.6969 19.3685 20.1846 19.3685 19.5525C19.3685 18.9204 18.8561 18.408 18.2241 18.408C17.592 18.408 17.0796 18.9204 17.0796 19.5525C17.0796 20.1846 17.592 20.6969 18.2241 20.6969Z" fill="white"/>
</g>
<defs>
<filter id="filter0_d_2051_4196" x="-2" y="0" width="40" height="40" filterUnits="userSpaceOnUse" color-interpolation-filters="sRGB">
<feFlood flood-opacity="0" result="BackgroundImageFix"/>
<feColorMatrix in="SourceAlpha" type="matrix" values="0 0 0 0 0 0 0 0 0 0 0 0 0 0 0 0 0 0 127 0" result="hardAlpha"/>
<feOffset dy="4"/>
<feGaussianBlur stdDeviation="2"/>
<feComposite in2="hardAlpha" operator="out"/>
<feColorMatrix type="matrix" values="0 0 0 0 0 0 0 0 0 0 0 0 0 0 0 0 0 0 0.25 0"/>
<feBlend mode="normal" in2="BackgroundImageFix" result="effect1_dropShadow_2051_4196"/>
<feBlend mode="normal" in="SourceGraphic" in2="effect1_dropShadow_2051_4196" result="shape"/>
</filter>
</defs>
</svg>
