<svg width="36" height="40" viewBox="0 0 36 40" fill="none" xmlns="http://www.w3.org/2000/svg">
<g filter="url(#filter0_d_2051_4202)">
<path d="M31.7124 13.84C31.7124 6.23996 25.5524 0.0799561 17.9524 0.0799561C10.3524 0.0799561 4.19238 6.23996 4.19238 13.84C4.19238 18.64 6.64038 22.848 10.3684 25.312L17.9524 31.76L25.5364 25.312C29.2484 22.848 31.7124 18.624 31.7124 13.84Z" fill="#1F8DFF"/>
<path fill-rule="evenodd" clip-rule="evenodd" d="M24.6132 7C24.969 7 25.3112 7.13677 25.569 7.38201C25.8268 7.62725 25.9805 7.9622 25.9983 8.31757L26 8.38678V10.9468C26 11.6132 25.5607 12.1433 24.9332 12.2769C24.9459 12.4067 24.9418 12.5366 24.9377 12.6676V12.6676L24.9353 12.7475L24.9332 12.8668V16.0668C24.9332 19.88 21.8132 23 18 23C14.2261 23 11.1318 19.9447 11.0678 16.1857L11.0668 16.0668V12.8668C11.0668 12.6789 11.0808 12.496 11.0949 12.3124L11.0977 12.2748C10.4981 12.143 10.0341 11.6473 10.0021 11.0174L10 10.9468V8.38678C10 8.03097 10.1368 7.68877 10.382 7.43097C10.6272 7.17317 10.9622 7.0195 11.3176 7.00174L11.3868 7H24.6132ZM23.9854 11.3332H12.0146C11.9689 11.3332 11.9237 11.3422 11.8815 11.3597C11.8393 11.3772 11.801 11.4028 11.7687 11.4351C11.7364 11.4674 11.7107 11.5057 11.6933 11.5479C11.6758 11.5901 11.6668 11.6354 11.6668 11.681V11.9854C11.6668 12.0311 11.6758 12.0763 11.6933 12.1185C11.7107 12.1607 11.7364 12.199 11.7687 12.2313C11.801 12.2636 11.8393 12.2893 11.8815 12.3067C11.9237 12.3242 11.9689 12.3332 12.0146 12.3332H23.9854C24.0311 12.3332 24.0763 12.3242 24.1185 12.3067C24.1607 12.2893 24.199 12.2636 24.2313 12.2313C24.2636 12.199 24.2893 12.1607 24.3067 12.1185C24.3242 12.0763 24.3332 12.0311 24.3332 11.9854V11.681C24.3332 11.6354 24.3242 11.5901 24.3067 11.5479C24.2893 11.5057 24.2636 11.4674 24.2313 11.4351C24.199 11.4028 24.1607 11.3772 24.1185 11.3597C24.0763 11.3422 24.0311 11.3332 23.9854 11.3332ZM12.6668 9.13322C12.5967 9.13322 12.5274 9.14701 12.4627 9.17382C12.3979 9.20063 12.3391 9.23991 12.2896 9.28944C12.2401 9.33897 12.2008 9.39777 12.174 9.46249C12.1472 9.5272 12.1334 9.59656 12.1334 9.66661C12.1334 9.73665 12.1472 9.80601 12.174 9.87073C12.2008 9.93544 12.2401 9.99424 12.2896 10.0438C12.3391 10.0933 12.3979 10.1326 12.4627 10.1594C12.5274 10.1862 12.5967 10.2 12.6668 10.2C12.8082 10.2 12.9439 10.1438 13.0439 10.0438C13.144 9.94374 13.2002 9.80807 13.2002 9.66661C13.2002 9.52514 13.144 9.38947 13.0439 9.28944C12.9439 9.18941 12.8082 9.13322 12.6668 9.13322ZM17.2395 20.0406C17.3393 20.1414 17.4581 20.2214 17.5889 20.2763C17.7197 20.3311 17.86 20.3596 18.0019 20.3602C18.1437 20.3608 18.2843 20.3335 18.4156 20.2797C18.5468 20.226 18.6662 20.1469 18.7669 20.047C18.8669 19.9464 18.946 19.8271 18.9999 19.6958C19.0537 19.5646 19.0811 19.424 19.0807 19.2822C19.0802 19.1404 19.0517 19 18.997 18.8692C18.9422 18.7383 18.8623 18.6195 18.7616 18.5196C18.6617 18.4188 18.5429 18.3387 18.412 18.2839C18.2811 18.229 18.1407 18.2005 17.9988 18.2C17.8569 18.1994 17.7163 18.2269 17.585 18.2807C17.4537 18.3345 17.3343 18.4137 17.2336 18.5137C17.1337 18.6144 17.0546 18.7337 17.0008 18.865C16.947 18.9963 16.9196 19.1368 16.9201 19.2787C16.9207 19.4205 16.9492 19.5608 17.004 19.6917C17.0587 19.8225 17.1388 19.9407 17.2395 20.0406Z" fill="white"/>
</g>
<defs>
<filter id="filter0_d_2051_4202" x="-2" y="0" width="40" height="40" filterUnits="userSpaceOnUse" color-interpolation-filters="sRGB">
<feFlood flood-opacity="0" result="BackgroundImageFix"/>
<feColorMatrix in="SourceAlpha" type="matrix" values="0 0 0 0 0 0 0 0 0 0 0 0 0 0 0 0 0 0 127 0" result="hardAlpha"/>
<feOffset dy="4"/>
<feGaussianBlur stdDeviation="2"/>
<feComposite in2="hardAlpha" operator="out"/>
<feColorMatrix type="matrix" values="0 0 0 0 0 0 0 0 0 0 0 0 0 0 0 0 0 0 0.25 0"/>
<feBlend mode="normal" in2="BackgroundImageFix" result="effect1_dropShadow_2051_4202"/>
<feBlend mode="normal" in="SourceGraphic" in2="effect1_dropShadow_2051_4202" result="shape"/>
</filter>
</defs>
</svg>
