<svg width="36" height="40" viewBox="0 0 36 40" fill="none" xmlns="http://www.w3.org/2000/svg">
<g filter="url(#filter0_d_2051_4231)">
<path d="M31.7124 13.84C31.7124 6.23996 25.5524 0.0799561 17.9524 0.0799561C10.3524 0.0799561 4.19238 6.23996 4.19238 13.84C4.19238 18.64 6.64038 22.848 10.3684 25.312L17.9524 31.76L25.5364 25.312C29.2484 22.848 31.7124 18.624 31.7124 13.84Z" fill="#BFBFBF"/>
<path d="M14.0413 14.8533L11.2562 12.0905C11.1572 11.9924 11.0786 11.8759 11.025 11.7476C10.9714 11.6193 10.9438 11.4819 10.9438 11.343C10.9438 11.2042 10.9714 11.0667 11.025 10.9384C11.0786 10.8102 11.1572 10.6937 11.2562 10.5955L16.5861 5.30933C16.7859 5.11127 17.0567 5 17.3391 5C17.6215 5 17.8924 5.11127 18.0921 5.30933L25.0057 12.1666C25.2054 12.3647 25.3175 12.6334 25.3175 12.9135C25.3175 13.1937 25.2054 13.4623 25.0057 13.6605L24.0451 14.614L26.6373 15.4798C26.7233 15.5084 26.8004 15.5584 26.8614 15.6249C26.9224 15.6914 26.9653 15.7723 26.9859 15.8598C27.0066 15.9474 27.0045 16.0387 26.9796 16.1252C26.9548 16.2117 26.9081 16.2904 26.844 16.354L22.3165 20.8452C22.2524 20.9088 22.173 20.9551 22.0859 20.9798C21.9987 21.0044 21.9066 21.0066 21.8184 20.9861C21.7301 20.9655 21.6486 20.923 21.5815 20.8625C21.5145 20.802 21.4641 20.7255 21.4352 20.6402L20.5619 18.0687L19.6758 18.9477C19.4761 19.1458 19.2052 19.2571 18.9228 19.2571C18.6404 19.2571 18.3696 19.1458 18.1698 18.9477L15.6223 16.4211L14.7596 17.8928C14.7094 17.9787 14.6472 18.0571 14.5748 18.1258C14.4808 18.2189 14.3682 18.2914 14.2441 18.3387C14.0545 18.4162 13.8463 18.4378 13.6445 18.401H12.1285V19.6218C12.1222 19.8977 12.0074 20.1602 11.8085 20.3532C11.6096 20.5461 11.3424 20.6541 11.0642 20.6541C10.786 20.6541 10.5189 20.5461 10.32 20.3532C10.1211 20.1602 10.0062 19.8977 10 19.6218V15.4961C10.0062 15.2202 10.1211 14.9577 10.32 14.7648C10.5189 14.5718 10.786 14.4638 11.0642 14.4638C11.3424 14.4638 11.6096 14.5718 11.8085 14.7648C12.0074 14.9577 12.1222 15.2202 12.1285 15.4961V16.5194H13.0652L14.0423 14.8533H14.0413ZM20.9725 13.2315C21.0722 13.3313 21.1907 13.4106 21.3213 13.4649C21.452 13.5192 21.5921 13.5475 21.7337 13.5481C21.8753 13.5486 22.0157 13.5216 22.1467 13.4683C22.2778 13.4151 22.397 13.3368 22.4976 13.2379C22.5974 13.1382 22.6764 13.02 22.7302 12.89C22.7839 12.76 22.8113 12.6208 22.8108 12.4803C22.8103 12.3398 22.7819 12.2008 22.7273 12.0712C22.6726 11.9416 22.5928 11.8239 22.4923 11.7249C22.3925 11.6251 22.2739 11.5458 22.1432 11.4915C22.0125 11.4372 21.8723 11.4089 21.7306 11.4084C21.589 11.4079 21.4485 11.435 21.3174 11.4883C21.1864 11.5417 21.0671 11.6201 20.9666 11.7191C20.8668 11.8188 20.7878 11.9371 20.7341 12.0671C20.6804 12.1971 20.6531 12.3363 20.6536 12.4768C20.6542 12.6173 20.6826 12.7563 20.7373 12.8859C20.792 13.0155 20.8719 13.1326 20.9725 13.2315Z" fill="white"/>
</g>
<defs>
<filter id="filter0_d_2051_4231" x="-2" y="0" width="40" height="40" filterUnits="userSpaceOnUse" color-interpolation-filters="sRGB">
<feFlood flood-opacity="0" result="BackgroundImageFix"/>
<feColorMatrix in="SourceAlpha" type="matrix" values="0 0 0 0 0 0 0 0 0 0 0 0 0 0 0 0 0 0 127 0" result="hardAlpha"/>
<feOffset dy="4"/>
<feGaussianBlur stdDeviation="2"/>
<feComposite in2="hardAlpha" operator="out"/>
<feColorMatrix type="matrix" values="0 0 0 0 0 0 0 0 0 0 0 0 0 0 0 0 0 0 0.25 0"/>
<feBlend mode="normal" in2="BackgroundImageFix" result="effect1_dropShadow_2051_4231"/>
<feBlend mode="normal" in="SourceGraphic" in2="effect1_dropShadow_2051_4231" result="shape"/>
</filter>
</defs>
</svg>
