<svg width="36" height="40" viewBox="0 0 36 40" fill="none" xmlns="http://www.w3.org/2000/svg">
<g filter="url(#filter0_d_2051_4241)">
<path d="M31.7124 13.84C31.7124 6.23996 25.5524 0.0799561 17.9524 0.0799561C10.3524 0.0799561 4.19238 6.23996 4.19238 13.84C4.19238 18.64 6.64038 22.848 10.3684 25.312L17.9524 31.76L25.5364 25.312C29.2484 22.848 31.7124 18.624 31.7124 13.84Z" fill="#BFBFBF"/>
<path d="M14.6567 13.9858L14.6601 13.9805L12.097 11.3846C11.9118 11.197 11.8043 10.9524 11.7943 10.6958C11.7843 10.4392 11.8724 10.1878 12.0424 9.98774L12.6442 9.27973L22.7767 19.0736L21.5945 19.7576C21.4189 19.8593 21.2172 19.9135 21.0113 19.9143C20.8055 19.915 20.6034 19.8623 20.4269 19.7619L14.6567 13.9858ZM14.3606 14.4614L15.9915 16.0938L14.9427 17.7754C14.864 17.902 14.7584 18.0118 14.6326 18.0979C14.5069 18.184 14.3637 18.2444 14.212 18.2755C14.132 18.2931 14.0487 18.3021 13.9632 18.3021H12.2518V19.9335C12.2518 20.0736 12.2227 20.2123 12.1661 20.3416C12.1096 20.471 12.0266 20.5886 11.9221 20.6876C11.8175 20.7867 11.6934 20.8652 11.5568 20.9188C11.4202 20.9724 11.2738 21 11.1259 21C10.978 21 10.8316 20.9724 10.695 20.9188C10.5584 20.8652 10.4343 20.7867 10.3297 20.6876C10.2252 20.5886 10.1422 20.471 10.0857 20.3416C10.0291 20.2123 9.99998 20.0736 10 19.9335V15.6684C9.99998 15.5284 10.0291 15.3897 10.0857 15.2603C10.1422 15.1309 10.2252 15.0133 10.3297 14.9143C10.4343 14.8153 10.5584 14.7367 10.695 14.6831C10.8316 14.6295 10.978 14.6019 11.1259 14.6019C11.2738 14.6019 11.4202 14.6295 11.5568 14.6831C11.6934 14.7367 11.8175 14.8153 11.9221 14.9143C12.0266 15.0133 12.1096 15.1309 12.1661 15.2603C12.2227 15.3897 12.2518 15.5284 12.2518 15.6684V16.1957H13.2792L14.36 14.4614H14.3606ZM13.3512 8.44749L15.9419 5.39791C16.0406 5.28177 16.1638 5.18652 16.3038 5.11829C16.4437 5.05005 16.5972 5.01036 16.7543 5.00177C16.9114 4.99318 17.0687 5.01588 17.216 5.06841C17.3633 5.12094 17.4973 5.20213 17.6094 5.30674L27.6642 14.6917C27.786 14.8053 27.8789 14.9438 27.9358 15.0965C27.9927 15.2492 28.0122 15.4122 27.9926 15.5731C27.9731 15.734 27.9151 15.8886 27.8231 16.0251C27.7311 16.1616 27.6074 16.2764 27.4616 16.3609L23.7573 18.5053L13.3512 8.44749Z" fill="white"/>
</g>
<defs>
<filter id="filter0_d_2051_4241" x="-2" y="0" width="40" height="40" filterUnits="userSpaceOnUse" color-interpolation-filters="sRGB">
<feFlood flood-opacity="0" result="BackgroundImageFix"/>
<feColorMatrix in="SourceAlpha" type="matrix" values="0 0 0 0 0 0 0 0 0 0 0 0 0 0 0 0 0 0 127 0" result="hardAlpha"/>
<feOffset dy="4"/>
<feGaussianBlur stdDeviation="2"/>
<feComposite in2="hardAlpha" operator="out"/>
<feColorMatrix type="matrix" values="0 0 0 0 0 0 0 0 0 0 0 0 0 0 0 0 0 0 0.25 0"/>
<feBlend mode="normal" in2="BackgroundImageFix" result="effect1_dropShadow_2051_4241"/>
<feBlend mode="normal" in="SourceGraphic" in2="effect1_dropShadow_2051_4241" result="shape"/>
</filter>
</defs>
</svg>
