<svg width="16" height="16" xmlns="http://www.w3.org/2000/svg">
<path fill-rule="evenodd" clip-rule="evenodd" d="M8.00381 1C6.61902 0.999249 5.26511 1.40925 4.11338 2.17813C2.96166 2.94701 2.06386 4.04022 1.53357 5.31946C1.00329 6.5987 0.864346 8.00648 1.13432 9.3647C1.4043 10.7229 2.07106 11.9705 3.05026 12.9497C4.02945 13.9289 5.27708 14.5957 6.6353 14.8657C7.99352 15.1357 9.40131 14.9967 10.6805 14.4664C11.9598 13.9361 13.053 13.0383 13.8219 11.8866C14.5908 10.7349 15.0008 9.38099 15 7.99619C14.9935 4.1345 11.865 1.00653 8.00381 1ZM8.00381 13.854C7.04875 13.8559 6.10772 13.6243 5.26267 13.1793C4.41762 12.7343 3.6942 12.0894 3.15542 11.3008C2.61663 10.5122 2.27883 9.6039 2.17144 8.6549C2.06405 7.7059 2.19032 6.74503 2.53926 5.856C2.88819 4.96697 3.44921 4.17674 4.17345 3.55415C4.89768 2.93156 5.76316 2.49549 6.69448 2.28393C7.62581 2.07236 8.59475 2.09173 9.51688 2.34033C10.439 2.58893 11.2864 3.05923 11.9852 3.71026H12.0042C12.0944 3.62909 12.2129 3.58676 12.3341 3.59247C12.4553 3.59817 12.5693 3.65144 12.6514 3.74072L12.6819 3.77117C12.7631 3.86134 12.8054 3.97987 12.7997 4.10106C12.794 4.22224 12.7407 4.33628 12.6514 4.41842L12.6324 4.42549C13.3014 5.29079 13.7144 6.32631 13.8246 7.41452C13.9348 8.50272 13.7377 9.60002 13.2557 10.5819C12.7737 11.5637 12.0261 12.3907 11.0978 12.9691C10.1695 13.5475 9.09757 13.8541 8.00381 13.854ZM9 8C9 8.19778 8.94135 8.39112 8.83147 8.55557C8.72159 8.72002 8.56541 8.84819 8.38268 8.92388C8.19996 8.99957 7.99889 9.01937 7.80491 8.98079C7.61093 8.9422 7.43275 8.84696 7.29289 8.70711C7.15304 8.56726 7.0578 8.38907 7.01922 8.19509C6.98063 8.00111 7.00043 7.80004 7.07612 7.61732C7.15181 7.43459 7.27998 7.27841 7.44443 7.16853C7.60888 7.05865 7.80222 7 8 7C8.55128 7.00291 8.99709 7.44872 9 8ZM11.1192 10.5041C11.6916 9.79111 12.0025 8.90348 12 7.98911C11.9988 7.15038 11.7331 6.3334 11.2406 5.65448L9.40014 7.33747C9.51389 7.55128 9.57297 7.78992 9.57212 8.0321C9.57266 8.367 9.46324 8.6928 9.26068 8.95949C9.05811 9.22617 8.7736 9.41898 8.45084 9.5083C8.12808 9.59763 7.78492 9.57852 7.47407 9.45393C7.16322 9.32933 6.90187 9.10613 6.73015 8.81861C6.55844 8.5311 6.48586 8.19516 6.52357 7.86239C6.56128 7.52963 6.70718 7.21845 6.93887 6.97664C7.17057 6.73483 7.47523 6.57577 7.80608 6.52389C8.13693 6.47201 8.47566 6.53017 8.77025 6.68945L10.6325 4.98834C9.94402 4.38657 9.07018 4.03884 8.1565 4.00307C7.24283 3.96729 6.34448 4.24563 5.61108 4.79172C4.87769 5.33781 4.35353 6.11869 4.12592 7.00428C3.8983 7.88987 3.98097 8.82671 4.36015 9.65876C4.73933 10.4908 5.39214 11.1678 6.20983 11.577C7.02752 11.9863 7.96073 12.103 8.85402 11.9078C9.74732 11.7125 10.5468 11.2172 11.1192 10.5041Z"/>
</svg>
