<svg width="16" height="16" xmlns="http://www.w3.org/2000/svg">
<path fill-rule="evenodd" clip-rule="evenodd" d="M4.50033 10.6667C4.96056 10.6667 5.33366 10.2936 5.33366 9.83333C5.33366 9.3731 4.96056 9 4.50033 9C4.04009 9 3.66699 9.3731 3.66699 9.83333C3.66699 10.2936 4.04009 10.6667 4.50033 10.6667Z"/>
<path fill-rule="evenodd" clip-rule="evenodd" d="M11.5003 10.6667C11.9606 10.6667 12.3337 10.2936 12.3337 9.83333C12.3337 9.3731 11.9606 9 11.5003 9C11.0401 9 10.667 9.3731 10.667 9.83333C10.667 10.2936 11.0401 10.6667 11.5003 10.6667Z"/>
<path fill-rule="evenodd" clip-rule="evenodd" d="M1.33301 10.6666C1.33301 11.2189 1.78072 11.6666 2.33301 11.6666H2.99985V12C2.99985 12.7363 3.59677 13.3332 4.33311 13.3332C5.06944 13.3332 5.66634 12.7363 5.66634 12V11.6666H10.333V11.9999C10.333 12.7363 10.9305 13.3332 11.6669 13.3332C12.4032 13.3332 13.0007 12.7363 13.0007 11.9999V11.6666H13.6663C14.2186 11.6666 14.6663 11.2189 14.6663 10.6666L14.6667 8.23603C14.6667 7.4785 14.2387 6.786 13.5611 6.4472L13.3344 6.33383L12.5994 3.04272C12.4633 2.43333 11.9225 2 11.2981 2H4.73533C4.11557 2 3.57753 2.42706 3.43683 3.03065L2.66684 6.33383L2.43953 6.4474C1.76162 6.78603 1.33333 7.47877 1.33333 8.23657L1.33301 10.6666ZM12.0003 8H4.00032L4.66112 4.69604C4.74244 4.28938 5.06708 4 5.44204 4H10.5586C10.9336 4 11.2582 4.28938 11.3395 4.69604L12.0003 8Z"/>
<path d="M1.33301 10.6666L0.895508 10.6665V10.6666H1.33301ZM2.99985 11.6666H3.43735C3.43735 11.4249 3.24148 11.2291 2.99985 11.2291V11.6666ZM5.66634 11.6666V11.2291C5.42472 11.2291 5.22884 11.4249 5.22884 11.6666H5.66634ZM10.333 11.6666H10.7705C10.7705 11.4249 10.5746 11.2291 10.333 11.2291V11.6666ZM13.0007 11.6666V11.2291C12.7591 11.2291 12.5632 11.4249 12.5632 11.6666H13.0007ZM14.6663 10.6666L14.2288 10.6665V10.6666H14.6663ZM14.6667 8.23603L15.1042 8.23609V8.23603H14.6667ZM13.5611 6.4472L13.7568 6.0559L13.7568 6.05588L13.5611 6.4472ZM13.3344 6.33383L12.9074 6.42919C12.9361 6.55762 13.021 6.66631 13.1387 6.72516L13.3344 6.33383ZM12.5994 3.04272L12.1724 3.13806L12.1724 3.13808L12.5994 3.04272ZM3.43683 3.03065L3.01075 2.93133V2.93133L3.43683 3.03065ZM2.66684 6.33383L2.86238 6.72521C2.97885 6.66701 3.06336 6.55996 3.09292 6.43315L2.66684 6.33383ZM2.43953 6.4474L2.63504 6.83879L2.63507 6.83877L2.43953 6.4474ZM1.33333 8.23657L1.77083 8.23662V8.23657H1.33333ZM4.00032 8L3.57132 7.9142C3.54561 8.04273 3.57889 8.17601 3.66199 8.27737C3.74509 8.37873 3.86925 8.4375 4.00032 8.4375V8ZM12.0003 8V8.4375C12.1314 8.4375 12.2556 8.37873 12.3387 8.27737C12.4218 8.17601 12.455 8.04273 12.4293 7.9142L12.0003 8ZM4.66112 4.69604L5.09013 4.78185L5.09013 4.78183L4.66112 4.69604ZM11.3395 4.69604L10.9105 4.78183L10.9105 4.78185L11.3395 4.69604ZM2.33301 11.2291C2.02234 11.2291 1.77051 10.9772 1.77051 10.6666H0.895508C0.895508 11.4605 1.5391 12.1041 2.33301 12.1041V11.2291ZM2.99985 11.2291H2.33301V12.1041H2.99985V11.2291ZM3.43735 12V11.6666H2.56235V12H3.43735ZM4.33311 12.8957C3.83839 12.8957 3.43735 12.4947 3.43735 12H2.56235C2.56235 12.978 3.35516 13.7707 4.33311 13.7707V12.8957ZM5.22884 12C5.22884 12.4947 4.82782 12.8957 4.33311 12.8957V13.7707C5.31107 13.7707 6.10384 12.978 6.10384 12H5.22884ZM5.22884 11.6666V12H6.10384V11.6666H5.22884ZM10.333 11.2291H5.66634V12.1041H10.333V11.2291ZM10.7705 11.9999V11.6666H9.89551V11.9999H10.7705ZM11.6669 12.8957C11.1719 12.8957 10.7705 12.4944 10.7705 11.9999H9.89551C9.89551 12.9781 10.6891 13.7707 11.6669 13.7707V12.8957ZM12.5632 11.9999C12.5632 12.4944 12.1618 12.8957 11.6669 12.8957V13.7707C12.6446 13.7707 13.4382 12.9781 13.4382 11.9999H12.5632ZM12.5632 11.6666V11.9999H13.4382V11.6666H12.5632ZM13.6663 11.2291H13.0007V12.1041H13.6663V11.2291ZM14.2288 10.6666C14.2288 10.9772 13.977 11.2291 13.6663 11.2291V12.1041C14.4603 12.1041 15.1038 11.4605 15.1038 10.6666H14.2288ZM14.2292 8.23598L14.2288 10.6665L15.1038 10.6666L15.1042 8.23609L14.2292 8.23598ZM13.3655 6.8385C13.8948 7.1032 14.2292 7.64422 14.2292 8.23603H15.1042C15.1042 7.31278 14.5825 6.4688 13.7568 6.0559L13.3655 6.8385ZM13.1387 6.72516L13.3655 6.83852L13.7568 6.05588L13.53 5.94251L13.1387 6.72516ZM12.1724 3.13808L12.9074 6.42919L13.7613 6.23848L13.0263 2.94736L12.1724 3.13808ZM11.2981 2.4375C11.7176 2.4375 12.081 2.72865 12.1724 3.13806L13.0264 2.94738C12.8456 2.138 12.1274 1.5625 11.2981 1.5625V2.4375ZM4.73533 2.4375H11.2981V1.5625H4.73533V2.4375ZM3.86291 3.12997C3.95744 2.72442 4.31894 2.4375 4.73533 2.4375V1.5625C3.91219 1.5625 3.19762 2.12969 3.01075 2.93133L3.86291 3.12997ZM3.09292 6.43315L3.86291 3.12997L3.01075 2.93133L2.24077 6.23451L3.09292 6.43315ZM2.63507 6.83877L2.86238 6.72521L2.47131 5.94246L2.244 6.05603L2.63507 6.83877ZM1.77083 8.23657C1.77083 7.64453 2.10544 7.10333 2.63504 6.83879L2.24403 6.05601C1.4178 6.46873 0.895832 7.31301 0.895832 8.23657H1.77083ZM1.77051 10.6666L1.77083 8.23662L0.895832 8.23651L0.895508 10.6665L1.77051 10.6666ZM4.00032 8.4375H12.0003V7.5625H4.00032V8.4375ZM4.23212 4.61024L3.57132 7.9142L4.42933 8.0858L5.09013 4.78185L4.23212 4.61024ZM5.44204 3.5625C4.82818 3.5625 4.34807 4.03039 4.23212 4.61026L5.09013 4.78183C5.13682 4.54837 5.30599 4.4375 5.44204 4.4375V3.5625ZM10.5586 3.5625H5.44204V4.4375H10.5586V3.5625ZM11.7685 4.61026C11.6526 4.03039 11.1725 3.5625 10.5586 3.5625V4.4375C10.6947 4.4375 10.8638 4.54837 10.9105 4.78183L11.7685 4.61026ZM12.4293 7.9142L11.7685 4.61024L10.9105 4.78185L11.5713 8.0858L12.4293 7.9142Z"/>
</svg>
