<svg width="16" height="16" xmlns="http://www.w3.org/2000/svg">
<path d="M11.0702 1H7.63158C7.21403 1 6.89474 1.3138 6.89474 1.72414V12.8276H5.91226V1.72414C5.91228 1.33793 5.59298 1 5.17544 1H1.73684C1.3193 1 1 1.3138 1 1.72414V14.2759C1 14.6621 1.31929 15 1.73684 15H5.17544C5.59298 15 5.91228 14.6862 5.91228 14.2759V13.7931H6.89473V14.2759C6.89473 14.6621 7.21403 15 7.63158 15H11.0702C11.4877 15 11.807 14.6862 11.807 14.2759V1.72414C11.807 1.3138 11.4877 1 11.0702 1ZM3.21052 13.7931H2.22807V12.8276H3.21052V13.7931ZM4.68421 3.17242H2.22806V2.2069H4.68421V3.17241V3.17242ZM9.10526 13.7931H8.12281V12.8276H9.10526V13.7931ZM10.579 3.17242H8.12281V2.2069H10.5789V3.17241L10.579 3.17242ZM14.2877 15C13.8947 15 13.5754 14.6862 13.5754 14.3V1.7C13.5754 1.3138 13.8947 1 14.2877 1C14.6807 1 15 1.3138 15 1.7V14.3C15 14.6862 14.6807 15 14.2877 15Z"/>
</svg>
