<svg width="16" height="16" xmlns="http://www.w3.org/2000/svg">
<path d="M14.9496 6.99901C14.8951 6.69251 14.6019 6.37979 14.2961 6.31211L14.0682 6.25921C13.5137 6.09127 13.0442 5.71783 12.7559 5.21525C12.4646 4.70769 12.378 4.10806 12.5139 3.53884L12.5855 3.32336C12.6773 3.02464 12.5583 2.61312 12.3194 2.40853C12.3194 2.40853 12.1047 2.2265 11.5026 1.87644C10.8982 1.52793 10.6392 1.43069 10.6392 1.43069C10.3451 1.32256 9.93358 1.42602 9.71888 1.65551L9.56018 1.82665C9.14135 2.22696 8.58372 2.44945 8.00435 2.44743C7.42198 2.44891 6.86173 2.22442 6.44152 1.8212L6.28982 1.65551C6.07745 1.42602 5.6636 1.32412 5.36877 1.43069C5.36877 1.43069 5.10584 1.52793 4.50218 1.87644C3.89774 2.22961 3.68536 2.41164 3.68536 2.41164C3.44732 2.6139 3.3283 3.02153 3.42009 3.32336L3.48544 3.54117C3.62065 4.10957 3.53442 4.70812 3.24429 5.21525C2.95556 5.72162 2.48228 6.09678 1.92339 6.26232L1.70324 6.31211C1.40218 6.38212 1.1058 6.69095 1.04979 6.99901C1.04979 6.99901 1 7.27517 1 7.97685C1 8.67853 1.04979 8.95469 1.04979 8.95469C1.10424 9.2643 1.39751 9.57391 1.70324 9.64159L1.91794 9.69137C2.47837 9.85651 2.95261 10.2331 3.2404 10.7416C3.54145 11.269 3.6138 11.8695 3.48233 12.418L3.42009 12.6303C3.3283 12.9291 3.44732 13.3406 3.68614 13.5452C3.68614 13.5452 3.90085 13.7272 4.50295 14.0773C5.10739 14.4273 5.36722 14.523 5.36722 14.523C5.66049 14.6311 6.07279 14.5277 6.28749 14.2982L6.43763 14.1356C6.8588 13.7325 7.41936 13.5077 8.00233 13.508C8.5853 13.5083 9.14564 13.7337 9.56641 14.1372L9.71654 14.3005C9.92814 14.5292 10.342 14.6311 10.6368 14.5246C10.6368 14.5246 10.8998 14.4273 11.5042 14.0788C12.1079 13.7288 12.3194 13.5467 12.3194 13.5467C12.5583 13.3452 12.6773 12.9337 12.5855 12.6319L12.5202 12.411C12.3848 11.8446 12.4711 11.2479 12.7613 10.7431C13.051 10.2363 13.5245 9.86025 14.0838 9.69293L14.2992 9.64314C14.6003 9.57313 14.8967 9.2643 14.9527 8.95624C14.9527 8.95624 15.0025 8.68008 15.0025 7.9784C14.9994 7.27672 14.9496 6.99901 14.9496 6.99901ZM8.00357 10.7875C6.4633 10.7875 5.21163 9.53035 5.21163 7.97685C5.21051 7.60913 5.28187 7.24479 5.42165 6.90467C5.56143 6.56455 5.76687 6.25531 6.02624 5.99464C6.28561 5.73397 6.59382 5.52698 6.93323 5.38551C7.27265 5.24403 7.63663 5.17084 8.00435 5.17013C9.54385 5.17013 10.7955 6.42646 10.7955 7.97996C10.7924 9.53035 9.54307 10.7867 8.00357 10.7867V10.7875Z"/>
</svg>
