<svg width="16" height="16" xmlns="http://www.w3.org/2000/svg">
<path fill-rule="evenodd" clip-rule="evenodd" d="M2.93594 11.4281H6.74844C6.84375 11.9765 7.04219 12.5031 7.33281 12.9796H2.54844C1.69375 12.9734 1.00313 12.2796 1 11.425V2.87183C1.00313 2.01558 1.69375 1.32339 2.54844 1.31714H11.0656C11.9203 1.32339 12.6109 2.01714 12.6141 2.87183V6.41245C12.3391 6.31558 12.0547 6.24683 11.7656 6.2062C9.325 5.86245 7.06719 7.56089 6.72344 10.0015L6.03125 9.01558L5.25625 7.77026C5.22656 7.69995 5.17031 7.6437 5.1 7.61401C5.08793 7.60463 5.07356 7.59754 5.05985 7.59078C5.05758 7.58967 5.05534 7.58856 5.05312 7.58745C4.86562 7.50151 4.64375 7.58276 4.55781 7.77026L2.54531 10.8812V11.0375C2.54375 11.0531 2.54375 11.0703 2.54531 11.0859C2.55937 11.289 2.73437 11.4421 2.93594 11.4281ZM10.3016 4.81401C10.3 4.17026 9.775 3.64995 9.13125 3.65151C8.49531 3.6687 7.98438 4.1812 7.96875 4.81714V4.82183C7.97031 5.46558 8.49531 5.98589 9.13906 5.98433C9.78281 5.98276 10.3031 5.45776 10.3016 4.81401ZM14.0078 12.8234L14.8203 13.639C15.0594 13.8781 15.0594 14.264 14.8219 14.5031C14.5844 14.7421 14.1969 14.7421 13.9578 14.5046L13.1172 13.6609C11.8219 14.5218 10.125 14.4703 8.88437 13.5328C7.27344 12.314 6.95625 10.0203 8.175 8.40933C9.39375 6.79839 11.6875 6.4812 13.2984 7.69995C14.9094 8.9187 15.2266 11.2125 14.0078 12.8234ZM11.05 13.3999C12.5688 13.3999 13.8 12.1687 13.8 10.6499C13.8 9.13112 12.5688 7.8999 11.05 7.8999C9.53122 7.8999 8.3 9.13112 8.3 10.6499C8.3 12.1687 9.53122 13.3999 11.05 13.3999Z"/>
</svg>
