<svg width="16" height="16" xmlns="http://www.w3.org/2000/svg">
<path fill-rule="evenodd" clip-rule="evenodd" d="M7.13164 1.86603C7.37334 1.65875 7.68124 1.5448 7.99964 1.5448C8.31805 1.5448 8.62595 1.65875 8.86764 1.86603L13.0916 5.48603L14.7496 6.8127C14.818 6.86741 14.8749 6.93506 14.9172 7.01178C14.9594 7.0885 14.9861 7.17278 14.9958 7.25982C15.0054 7.34686 14.9978 7.43495 14.9735 7.51906C14.9491 7.60317 14.9084 7.68165 14.8536 7.75003C14.7989 7.8184 14.7313 7.87533 14.6546 7.91756C14.5778 7.95979 14.4936 7.9865 14.4065 7.99616C14.3195 8.00582 14.2314 7.99823 14.1473 7.97385C14.0632 7.94946 13.9847 7.90875 13.9163 7.85403L13.333 7.38736V12.6667C13.333 13.0203 13.1925 13.3595 12.9425 13.6095C12.6924 13.8596 12.3533 14 11.9996 14H9.33298V10.6667C9.33298 10.3131 9.1925 9.97394 8.94245 9.72389C8.6924 9.47384 8.35326 9.33336 7.99964 9.33336C7.64602 9.33336 7.30688 9.47384 7.05683 9.72389C6.80679 9.97394 6.66631 10.3131 6.66631 10.6667V14H3.99964C3.64602 14 3.30688 13.8596 3.05683 13.6095C2.80679 13.3595 2.66631 13.0203 2.66631 12.6667V7.3867L2.08298 7.85336C2.01507 7.91135 1.9362 7.95511 1.85105 7.98203C1.76591 8.00895 1.67622 8.01849 1.58732 8.01009C1.49841 8.00168 1.4121 7.9755 1.33351 7.9331C1.25492 7.8907 1.18565 7.83294 1.12981 7.76325C1.07397 7.69356 1.0327 7.61337 1.00845 7.52742C0.984201 7.44148 0.977464 7.35154 0.988641 7.26294C0.999818 7.17434 1.02868 7.08889 1.07352 7.01166C1.11835 6.93443 1.17825 6.867 1.24964 6.81336L2.90764 5.4867L7.13164 1.86603Z"/>
</svg>
