<svg width="16" height="16" xmlns="http://www.w3.org/2000/svg">
<path fill-rule="evenodd" clip-rule="evenodd" d="M12.4717 8.27199L13.7357 7.53599L15.7037 10.976L14.1997 13.576H10.3997V12.144H13.3757L14.0077 10.976L12.4717 8.27199ZM8.59971 1.59999H7.43171L5.92771 4.16799L4.66371 3.43199L6.56771 0.135986H9.43171L11.3277 3.39999L10.0637 4.13599L8.59971 1.59999ZM3.53571 8.30399L1.99971 10.968L2.63171 12.136H5.63971V13.568H1.80771L0.303711 10.968L2.27171 7.56799L3.53571 8.30399ZM14.6004 5.87197C14.0964 6.36797 13.3364 6.36797 12.8004 5.93597L9.91242 7.53597C10.1204 8.23997 9.95242 8.96797 9.41642 9.50397C9.11242 9.77597 8.78442 9.97598 8.44842 10.04V13.272C8.64042 13.344 8.80842 13.44 8.94442 13.576C9.48042 14.112 9.48042 14.944 8.94442 15.48C8.41642 16.016 7.58442 16.016 7.04842 15.48C6.51242 14.944 6.51242 14.112 7.04842 13.576C7.20842 13.44 7.37642 13.336 7.54442 13.272V10.04C7.17642 9.93598 6.84042 9.76797 6.57642 9.50397C6.04842 8.96797 5.88042 8.19997 6.08042 7.53597L3.18442 5.93597C2.68042 6.36797 1.88042 6.36797 1.38442 5.87197C0.848422 5.34397 0.848422 4.51197 1.38442 3.97597C1.91242 3.43997 2.74442 3.43997 3.28042 3.97597C3.58442 4.31197 3.71242 4.74397 3.64842 5.14397L6.51242 6.74397L6.57642 6.67997C7.37642 5.91197 8.64042 5.91197 9.40842 6.67997L9.47242 6.74397L12.3364 5.14397C12.2724 4.71197 12.4004 4.27997 12.7044 3.97597C13.2324 3.43997 14.0644 3.43997 14.6004 3.97597C15.1364 4.50397 15.1364 5.33597 14.6004 5.87197Z"/>
</svg>
