<svg width="24" height="24" viewBox="0 0 24 24" fill="none" xmlns="http://www.w3.org/2000/svg">
<g filter="url(#filter0_ii_1791_6677)">
<path fill-rule="evenodd" clip-rule="evenodd" d="M18.5569 0.0136719H18.5306H3.99991C1.79457 0.0136719 -9.15527e-05 1.80732 -9.15527e-05 4.01139V8.00912V10.6743V20.0023C-9.15527e-05 22.2064 1.79457 24 3.99991 24H19.9999C22.2052 24 23.9999 22.2064 23.9999 20.0023V10.6743V8.00912V5.31167L18.5569 0.0136719Z" fill="#4D89FF"/>
</g>
<path d="M16.0706 11.4L10.1099 8.04548C9.31098 7.51015 8.66666 7.87643 8.66666 8.89075V15.7093C8.66666 16.7236 9.31098 17.0899 10.1099 16.5545L16.0448 13.3441C16.8696 12.7806 16.8696 11.9353 16.0706 11.4Z" fill="white"/>
<path d="M20.5424 5.312H23.9998L18.5424 0V3.312C18.5424 4.41657 19.4378 5.312 20.5424 5.312Z" fill="#B9CDFA"/>
<defs>
<filter id="filter0_ii_1791_6677" x="-9.15527e-05" y="-6.10487" width="24" height="30.1049" filterUnits="userSpaceOnUse" color-interpolation-filters="sRGB">
<feFlood flood-opacity="0" result="BackgroundImageFix"/>
<feBlend mode="normal" in="SourceGraphic" in2="BackgroundImageFix" result="shape"/>
<feColorMatrix in="SourceAlpha" type="matrix" values="0 0 0 0 0 0 0 0 0 0 0 0 0 0 0 0 0 0 127 0" result="hardAlpha"/>
<feOffset dy="-6.11855"/>
<feGaussianBlur stdDeviation="3.82409"/>
<feComposite in2="hardAlpha" operator="arithmetic" k2="-1" k3="1"/>
<feColorMatrix type="matrix" values="0 0 0 0 0.0362847 0 0 0 0 0.0722396 0 0 0 0 0.395833 0 0 0 0.35 0"/>
<feBlend mode="normal" in2="shape" result="effect1_innerShadow_1791_6677"/>
<feColorMatrix in="SourceAlpha" type="matrix" values="0 0 0 0 0 0 0 0 0 0 0 0 0 0 0 0 0 0 127 0" result="hardAlpha"/>
<feOffset dy="-2.29445"/>
<feGaussianBlur stdDeviation="1.52964"/>
<feComposite in2="hardAlpha" operator="arithmetic" k2="-1" k3="1"/>
<feColorMatrix type="matrix" values="0 0 0 0 1 0 0 0 0 1 0 0 0 0 1 0 0 0 0.25 0"/>
<feBlend mode="normal" in2="effect1_innerShadow_1791_6677" result="effect2_innerShadow_1791_6677"/>
</filter>
</defs>
</svg>
