<svg width="24" height="24" viewBox="0 0 24 24" fill="none" xmlns="http://www.w3.org/2000/svg">
<g filter="url(#filter0_ii_1791_6648)">
<path fill-rule="evenodd" clip-rule="evenodd" d="M18.557 0.0140381H18.5307H4C1.79467 0.0140381 0 1.80766 0 4.0117V8.00936V10.6745V20.0023C0 22.2064 1.79467 24 4 24H20C22.2053 24 24 22.2064 24 20.0023V10.6745V8.00936V5.31196L18.557 0.0140381Z" fill="#4D89FF"/>
</g>
<path d="M20.5425 5.31192H23.9999L18.5425 0V3.31192C18.5425 4.41649 19.4379 5.31192 20.5425 5.31192Z" fill="#B9CDFA"/>
<path d="M8.50047 6.70015C8.50047 6.45066 8.25098 6.2 8.00031 6.2C7.7509 6.2 7.50024 6.44941 7.50024 6.70008V8.70055H6.5V11.7H9.49945V8.70055H8.49922V6.70008H8.50047V6.70015ZM10.4997 13.7005C10.4997 14.3504 10.9003 14.901 11.4998 15.1V17.2H12.5001V15.1C13.0997 14.8997 13.5003 14.3505 13.5003 13.7005V12.7002H10.4997V13.7005ZM6.5 13.7005C6.5 14.3504 6.90057 14.901 7.50024 15.1V17.2H8.50047V15.1C9.10006 14.8997 9.50063 14.3505 9.50063 13.7005V12.7002H6.5V13.7005ZM14.4993 13.7005C14.4993 14.3504 14.8999 14.901 15.4995 15.1V17.2H16.4998V15.1C17.0994 14.8997 17.5 14.3505 17.5 13.7005V12.7002H14.4993V13.7005ZM16.4998 8.70055V6.70008C16.4998 6.45066 16.2504 6.2 15.9997 6.2C15.7502 6.2 15.4995 6.44941 15.4995 6.70008V8.70055H14.4994V11.7H17.4987V8.70055H16.4997H16.4998ZM12.5001 6.70008C12.5001 6.45066 12.2507 6.2 12 6.2C11.7505 6.2 11.4998 6.44941 11.4998 6.70008V8.70055H10.4997V11.7H13.4991V8.70055H12.5001V6.70008Z" fill="white"/>
<defs>
<filter id="filter0_ii_1791_6648" x="0" y="-6.10451" width="24" height="30.1045" filterUnits="userSpaceOnUse" color-interpolation-filters="sRGB">
<feFlood flood-opacity="0" result="BackgroundImageFix"/>
<feBlend mode="normal" in="SourceGraphic" in2="BackgroundImageFix" result="shape"/>
<feColorMatrix in="SourceAlpha" type="matrix" values="0 0 0 0 0 0 0 0 0 0 0 0 0 0 0 0 0 0 127 0" result="hardAlpha"/>
<feOffset dy="-6.11855"/>
<feGaussianBlur stdDeviation="3.82409"/>
<feComposite in2="hardAlpha" operator="arithmetic" k2="-1" k3="1"/>
<feColorMatrix type="matrix" values="0 0 0 0 0.0362847 0 0 0 0 0.0722396 0 0 0 0 0.395833 0 0 0 0.35 0"/>
<feBlend mode="normal" in2="shape" result="effect1_innerShadow_1791_6648"/>
<feColorMatrix in="SourceAlpha" type="matrix" values="0 0 0 0 0 0 0 0 0 0 0 0 0 0 0 0 0 0 127 0" result="hardAlpha"/>
<feOffset dy="-2.29445"/>
<feGaussianBlur stdDeviation="1.52964"/>
<feComposite in2="hardAlpha" operator="arithmetic" k2="-1" k3="1"/>
<feColorMatrix type="matrix" values="0 0 0 0 1 0 0 0 0 1 0 0 0 0 1 0 0 0 0.25 0"/>
<feBlend mode="normal" in2="effect1_innerShadow_1791_6648" result="effect2_innerShadow_1791_6648"/>
</filter>
</defs>
</svg>
