<svg width="24" height="24" viewBox="0 0 24 24" fill="none" xmlns="http://www.w3.org/2000/svg">
<g filter="url(#filter0_ii_1791_6703)">
<path fill-rule="evenodd" clip-rule="evenodd" d="M18.557 0.0136719H18.5307H4.00006C1.79473 0.0136719 6.10352e-05 1.80732 6.10352e-05 4.01139V8.00912V10.6743V20.0023C6.10352e-05 22.2064 1.79473 24 4.00006 24H20.0001C22.2054 24 24.0001 22.2064 24.0001 20.0023V10.6743V8.00912V5.31167L18.557 0.0136719Z" fill="#4D89FF"/>
</g>
<path d="M13.4083 9.125V14.875C13.4081 15.0407 13.3477 15.1996 13.2403 15.3167C13.1329 15.4339 12.9873 15.4998 12.8354 15.5H7.10624C6.95435 15.4998 6.80872 15.4339 6.70132 15.3167C6.59391 15.1996 6.5335 15.0407 6.53333 14.875V9.125C6.5335 8.9593 6.59391 8.80043 6.70132 8.68326C6.80872 8.56609 6.95435 8.50019 7.10624 8.5H12.8354C12.9873 8.50019 13.1329 8.56609 13.2403 8.68326C13.3477 8.80043 13.4081 8.9593 13.4083 9.125ZM17.2438 8.58438C17.1561 8.52909 17.0565 8.50047 16.9552 8.50148C16.8539 8.5025 16.7547 8.53312 16.6679 8.59016L14.6054 9.92609C14.5201 9.98163 14.4495 10.0603 14.4003 10.1545C14.3512 10.2486 14.3252 10.3551 14.325 10.4634V13.5366C14.3252 13.6449 14.3512 13.7514 14.4003 13.8455C14.4495 13.9397 14.5201 14.0184 14.6054 14.0739L16.6679 15.4098C16.7549 15.4662 16.854 15.4964 16.9552 15.4974C17.0563 15.4984 17.1559 15.4702 17.2438 15.4156C17.3317 15.361 17.4048 15.282 17.4557 15.1866C17.5065 15.0912 17.5333 14.9828 17.5333 14.8725V9.1275C17.534 9.01701 17.5075 8.90835 17.4565 8.81283C17.4056 8.71731 17.3322 8.63842 17.2438 8.58438Z" fill="white"/>
<path d="M20.5425 5.312H24L18.5425 0V3.312C18.5425 4.41657 19.438 5.312 20.5425 5.312Z" fill="#B9CDFA"/>
<defs>
<filter id="filter0_ii_1791_6703" x="6.10352e-05" y="-6.10487" width="24" height="30.1049" filterUnits="userSpaceOnUse" color-interpolation-filters="sRGB">
<feFlood flood-opacity="0" result="BackgroundImageFix"/>
<feBlend mode="normal" in="SourceGraphic" in2="BackgroundImageFix" result="shape"/>
<feColorMatrix in="SourceAlpha" type="matrix" values="0 0 0 0 0 0 0 0 0 0 0 0 0 0 0 0 0 0 127 0" result="hardAlpha"/>
<feOffset dy="-6.11855"/>
<feGaussianBlur stdDeviation="3.82409"/>
<feComposite in2="hardAlpha" operator="arithmetic" k2="-1" k3="1"/>
<feColorMatrix type="matrix" values="0 0 0 0 0.0362847 0 0 0 0 0.0722396 0 0 0 0 0.395833 0 0 0 0.35 0"/>
<feBlend mode="normal" in2="shape" result="effect1_innerShadow_1791_6703"/>
<feColorMatrix in="SourceAlpha" type="matrix" values="0 0 0 0 0 0 0 0 0 0 0 0 0 0 0 0 0 0 127 0" result="hardAlpha"/>
<feOffset dy="-2.29445"/>
<feGaussianBlur stdDeviation="1.52964"/>
<feComposite in2="hardAlpha" operator="arithmetic" k2="-1" k3="1"/>
<feColorMatrix type="matrix" values="0 0 0 0 1 0 0 0 0 1 0 0 0 0 1 0 0 0 0.25 0"/>
<feBlend mode="normal" in2="effect1_innerShadow_1791_6703" result="effect2_innerShadow_1791_6703"/>
</filter>
</defs>
</svg>
