<svg width="24" height="24" viewBox="0 0 24 24" fill="none" xmlns="http://www.w3.org/2000/svg">
<g filter="url(#filter0_ii_1791_6716)">
<path fill-rule="evenodd" clip-rule="evenodd" d="M18.5571 0.0136719H18.5308H4.00012C1.79479 0.0136719 0.00012207 1.80732 0.00012207 4.01139V8.00912V10.6743V20.0023C0.00012207 22.2064 1.79479 24 4.00012 24H20.0001C22.2055 24 24.0001 22.2064 24.0001 20.0023V10.6743V8.00912V5.31167L18.5571 0.0136719Z" fill="#4D89FF"/>
</g>
<path d="M15.6998 10.9998C15.3497 9.29994 13.8497 7.99999 12 7.99999C10.5494 7.99999 9.29995 8.80044 8.70006 10.0005C7.1499 10.1997 6 11.4498 6 13.0002C6 14.6499 7.35023 16 9 16H15.4995C16.8999 16 18 14.8996 18 13.4993C18 12.1998 16.9501 11.0998 15.6998 10.9998Z" fill="white"/>
<path d="M20.5426 5.312H24L18.5426 0V3.312C18.5426 4.41657 19.438 5.312 20.5426 5.312Z" fill="#B9CDFA"/>
<defs>
<filter id="filter0_ii_1791_6716" x="0.00012207" y="-6.10487" width="24" height="30.1049" filterUnits="userSpaceOnUse" color-interpolation-filters="sRGB">
<feFlood flood-opacity="0" result="BackgroundImageFix"/>
<feBlend mode="normal" in="SourceGraphic" in2="BackgroundImageFix" result="shape"/>
<feColorMatrix in="SourceAlpha" type="matrix" values="0 0 0 0 0 0 0 0 0 0 0 0 0 0 0 0 0 0 127 0" result="hardAlpha"/>
<feOffset dy="-6.11855"/>
<feGaussianBlur stdDeviation="3.82409"/>
<feComposite in2="hardAlpha" operator="arithmetic" k2="-1" k3="1"/>
<feColorMatrix type="matrix" values="0 0 0 0 0.0362847 0 0 0 0 0.0722396 0 0 0 0 0.395833 0 0 0 0.35 0"/>
<feBlend mode="normal" in2="shape" result="effect1_innerShadow_1791_6716"/>
<feColorMatrix in="SourceAlpha" type="matrix" values="0 0 0 0 0 0 0 0 0 0 0 0 0 0 0 0 0 0 127 0" result="hardAlpha"/>
<feOffset dy="-2.29445"/>
<feGaussianBlur stdDeviation="1.52964"/>
<feComposite in2="hardAlpha" operator="arithmetic" k2="-1" k3="1"/>
<feColorMatrix type="matrix" values="0 0 0 0 1 0 0 0 0 1 0 0 0 0 1 0 0 0 0.25 0"/>
<feBlend mode="normal" in2="effect1_innerShadow_1791_6716" result="effect2_innerShadow_1791_6716"/>
</filter>
</defs>
</svg>
