<svg width="24" height="24" viewBox="0 0 24 24" fill="none" xmlns="http://www.w3.org/2000/svg">
<g filter="url(#filter0_ii_1791_6664)">
<path fill-rule="evenodd" clip-rule="evenodd" d="M18.5574 0.013916H18.5307H4.00006C1.79473 0.013916 6.10352e-05 1.80756 6.10352e-05 4.01164V8.00936V10.6745V20.0025C6.10352e-05 22.2066 1.79473 24.0003 4.00006 24.0003H20.0001C22.2054 24.0003 24.0001 22.2066 24.0001 20.0025V10.6745V8.00936V5.31152L18.5574 0.013916Z" fill="#4D89FF"/>
</g>
<path d="M9.75733 12.6184L9.75933 12.615L8.24167 10.992C8.13202 10.8747 8.06838 10.7218 8.06244 10.5614C8.0565 10.401 8.10866 10.2438 8.20933 10.1187L8.56567 9.67602L14.5653 15.7994L13.8653 16.227C13.7614 16.2906 13.6419 16.3245 13.52 16.325C13.3982 16.3254 13.2785 16.2925 13.174 16.2297L9.75733 12.6184ZM9.582 12.9157L10.5477 13.9364L9.92667 14.9877C9.88006 15.0669 9.81755 15.1355 9.74308 15.1893C9.66862 15.2432 9.58381 15.281 9.494 15.3004C9.44667 15.3114 9.39733 15.317 9.34667 15.317H8.33333V16.337C8.33335 16.4246 8.31611 16.5113 8.28262 16.5922C8.24912 16.6731 8.20001 16.7466 8.13811 16.8085C8.0762 16.8704 8.0027 16.9195 7.92181 16.953C7.84092 16.9865 7.75422 17.0038 7.66667 17.0038C7.57911 17.0038 7.49241 16.9865 7.41152 16.953C7.33063 16.9195 7.25713 16.8704 7.19523 16.8085C7.13332 16.7466 7.08421 16.6731 7.05072 16.5922C7.01722 16.5113 6.99999 16.4246 7 16.337V13.6704C6.99999 13.5828 7.01722 13.4961 7.05072 13.4152C7.08421 13.3343 7.13332 13.2608 7.19523 13.1989C7.25713 13.137 7.33063 13.0879 7.41152 13.0543C7.49241 13.0208 7.57911 13.0036 7.66667 13.0036C7.75422 13.0036 7.84092 13.0208 7.92181 13.0543C8.0027 13.0879 8.0762 13.137 8.13811 13.1989C8.20001 13.2608 8.24912 13.3343 8.28262 13.4152C8.31611 13.4961 8.33335 13.5828 8.33333 13.6704V14H8.94167L9.58167 12.9157H9.582ZM8.98433 9.15569L10.5183 7.24902C10.5767 7.17642 10.6497 7.11686 10.7326 7.0742C10.8154 7.03154 10.9063 7.00672 10.9993 7.00135C11.0924 6.99598 11.1855 7.01017 11.2727 7.04302C11.3599 7.07586 11.4393 7.12662 11.5057 7.19202L17.4593 13.0597C17.5315 13.1307 17.5865 13.2173 17.6202 13.3128C17.6539 13.4083 17.6654 13.5102 17.6538 13.6108C17.6422 13.7114 17.6079 13.808 17.5534 13.8934C17.4989 13.9787 17.4257 14.0505 17.3393 14.1034L15.146 15.444L8.98433 9.15569Z" fill="white"/>
<path d="M20.5425 5.312H24L18.5425 0V3.312C18.5425 4.41657 19.438 5.312 20.5425 5.312Z" fill="#B9CDFA"/>
<defs>
<filter id="filter0_ii_1791_6664" x="6.10352e-05" y="-6.10463" width="24" height="30.1049" filterUnits="userSpaceOnUse" color-interpolation-filters="sRGB">
<feFlood flood-opacity="0" result="BackgroundImageFix"/>
<feBlend mode="normal" in="SourceGraphic" in2="BackgroundImageFix" result="shape"/>
<feColorMatrix in="SourceAlpha" type="matrix" values="0 0 0 0 0 0 0 0 0 0 0 0 0 0 0 0 0 0 127 0" result="hardAlpha"/>
<feOffset dy="-6.11855"/>
<feGaussianBlur stdDeviation="3.82409"/>
<feComposite in2="hardAlpha" operator="arithmetic" k2="-1" k3="1"/>
<feColorMatrix type="matrix" values="0 0 0 0 0.0362847 0 0 0 0 0.0722396 0 0 0 0 0.395833 0 0 0 0.35 0"/>
<feBlend mode="normal" in2="shape" result="effect1_innerShadow_1791_6664"/>
<feColorMatrix in="SourceAlpha" type="matrix" values="0 0 0 0 0 0 0 0 0 0 0 0 0 0 0 0 0 0 127 0" result="hardAlpha"/>
<feOffset dy="-2.29445"/>
<feGaussianBlur stdDeviation="1.52964"/>
<feComposite in2="hardAlpha" operator="arithmetic" k2="-1" k3="1"/>
<feColorMatrix type="matrix" values="0 0 0 0 1 0 0 0 0 1 0 0 0 0 1 0 0 0 0.25 0"/>
<feBlend mode="normal" in2="effect1_innerShadow_1791_6664" result="effect2_innerShadow_1791_6664"/>
</filter>
</defs>
</svg>
