<svg width="16" height="16" xmlns="http://www.w3.org/2000/svg">
<path fill-rule="evenodd" clip-rule="evenodd" d="M2 3H14C14.265 3.00078 14.5189 3.10639 14.7062 3.29376C14.8936 3.48113 14.9992 3.73502 15 4V12C14.9992 12.265 14.8936 12.5189 14.7062 12.7062C14.5189 12.8936 14.265 12.9992 14 13H2C1.73502 12.9992 1.48113 12.8936 1.29376 12.7062C1.10639 12.5189 1.00078 12.265 1 12V4C1.00078 3.73502 1.10639 3.48113 1.29376 3.29376C1.48113 3.10639 1.73502 3.00078 2 3ZM7.00828 10.9375L7.4375 10.5083C7.47734 10.4684 7.49973 10.4143 7.49973 10.358C7.49973 10.3016 7.47734 10.2475 7.4375 10.2077L4.96125 7.73141C5.09851 7.44132 5.14276 7.1159 5.08793 6.79969C5.03309 6.48349 4.88187 6.19196 4.65495 5.96503C4.42803 5.73809 4.13652 5.58684 3.82032 5.53199C3.50412 5.47713 3.17869 5.52135 2.88859 5.65859L3.92484 6.695L3.195 7.42484L2.15875 6.38859C2.02154 6.67867 1.97734 7.00407 2.03219 7.32024C2.08705 7.63642 2.23828 7.92791 2.46519 8.15481C2.69209 8.38172 2.98359 8.53295 3.29976 8.58781C3.61593 8.64266 3.94133 8.59846 4.23141 8.46125L6.7075 10.9375C6.72725 10.9573 6.75069 10.9729 6.7765 10.9836C6.8023 10.9943 6.82996 10.9998 6.85789 10.9998C6.88582 10.9998 6.91348 10.9943 6.93928 10.9836C6.96509 10.9729 6.98853 10.9573 7.00828 10.9375ZM8.5 12H14V4H8.5V12ZM13 5.5H9.5V6.5H13V5.5ZM13 7.5H9.5V8.5H13V7.5ZM13 9.5H9.5V10.5H13V9.5Z"/>
</svg>
