<svg width="16" height="16" xmlns="http://www.w3.org/2000/svg">
<path fill-rule="evenodd" clip-rule="evenodd" d="M7.13164 1.86615C7.37334 1.65887 7.68124 1.54492 7.99964 1.54492C8.31805 1.54492 8.62595 1.65887 8.86764 1.86615L13.0916 5.48615L14.7496 6.81282C14.818 6.86754 14.8749 6.93518 14.9172 7.0119C14.9594 7.08862 14.9861 7.17291 14.9958 7.25995C15.0054 7.34699 14.9978 7.43507 14.9735 7.51918C14.9491 7.60329 14.9084 7.68178 14.8536 7.75015C14.7989 7.81853 14.7313 7.87545 14.6546 7.91769C14.5778 7.95992 14.4936 7.98662 14.4065 7.99628C14.3195 8.00594 14.2314 7.99836 14.1473 7.97397C14.0632 7.94958 13.9847 7.90887 13.9163 7.85415L13.333 7.38749V12.6668C13.333 13.0204 13.1925 13.3596 12.9425 13.6096C12.6924 13.8597 12.3533 14.0002 11.9996 14.0002H9.33298H6.66631H3.99964C3.64602 14.0002 3.30688 13.8597 3.05683 13.6096C2.80679 13.3596 2.66631 13.0204 2.66631 12.6668V7.38682L2.08298 7.85349C2.01507 7.91147 1.9362 7.95523 1.85105 7.98215C1.76591 8.00907 1.67622 8.01861 1.58732 8.01021C1.49841 8.0018 1.4121 7.97562 1.33351 7.93322C1.25492 7.89082 1.18565 7.83306 1.12981 7.76337C1.07397 7.69368 1.0327 7.61349 1.00845 7.52754C0.984201 7.4416 0.977464 7.35166 0.988641 7.26306C0.999818 7.17446 1.02868 7.08901 1.07352 7.01179C1.11835 6.93456 1.17825 6.86712 1.24964 6.81349L2.90764 5.48682L7.13164 1.86615ZM7.2381 9.83214H5.40741C5.182 9.83214 5 10.0164 5 10.243V12.0891C5 12.3165 5.18276 12.5 5.40741 12.5H7.2381C7.46351 12.5 7.64551 12.3157 7.64551 12.0891V10.243C7.64551 10.0157 7.46275 9.83214 7.2381 9.83214ZM10.5926 9.83214H8.7619C8.53725 9.83214 8.35449 10.0164 8.35449 10.243V12.0891C8.35449 12.3165 8.53725 12.5 8.7619 12.5H10.5926C10.818 12.5 11 12.3157 11 12.0891V10.243C11 10.0157 10.8172 9.83214 10.5926 9.83214ZM7.2381 6.5H5.40741C5.182 6.5 5 6.68354 5 6.91009V8.75701C5 8.98432 5.18276 9.16786 5.40741 9.16786H7.2381C7.46351 9.16786 7.64551 8.98355 7.64551 8.75701V6.91085C7.64551 6.68354 7.46275 6.5 7.2381 6.5Z"/>
</svg>
