<svg width="16" height="16" viewBox="0 0 16 16" fill="none" xmlns="http://www.w3.org/2000/svg">
<path d="M12.0737 6.32229L10.4922 5.66674C10.4464 5.64898 10.3976 5.64043 10.3485 5.64155C10.2994 5.64268 10.251 5.65346 10.206 5.6733C10.1611 5.69313 10.1205 5.72162 10.0866 5.75714C10.0526 5.79266 10.026 5.83452 10.0083 5.88032C9.99053 5.92612 9.98197 5.97497 9.9831 6.02407C9.98422 6.07318 9.99501 6.12159 10.0148 6.16653C10.0347 6.21147 10.0632 6.25206 10.0987 6.28599C10.1342 6.31991 10.1761 6.34651 10.2219 6.36427L11.0046 6.68155L10.2219 7.04081C10.1323 7.08033 10.0621 7.15367 10.0265 7.24481C9.99085 7.33595 9.99274 7.43748 10.0317 7.52723C10.0627 7.59056 10.1108 7.64392 10.1706 7.68124C10.2304 7.71856 10.2995 7.73834 10.37 7.73834C10.423 7.74454 10.4763 7.72945 10.5182 7.69637L12.0737 6.97661C12.1374 6.94662 12.1914 6.89937 12.2296 6.84023C12.2678 6.78109 12.2886 6.71243 12.2898 6.64205C12.2912 6.57296 12.2712 6.50513 12.2325 6.44788C12.1938 6.39063 12.1383 6.34676 12.0737 6.32229ZM8.48482 4.84205C8.39231 4.81182 8.29161 4.81922 8.20451 4.86266C8.11742 4.90609 8.05091 4.98206 8.01939 5.07414L7.21569 7.52723C7.18546 7.61975 7.19286 7.72044 7.2363 7.80754C7.27973 7.89464 7.3557 7.96114 7.44779 7.99266C7.48098 8.00806 7.5174 8.01526 7.55396 8.01365C7.63245 8.009 7.70797 7.98201 7.77162 7.93585C7.83527 7.8897 7.8844 7.82631 7.91322 7.75316L8.71692 5.3013C8.74529 5.2096 8.73695 5.11046 8.69365 5.02479C8.65035 4.93911 8.57548 4.87359 8.48482 4.84205ZM6.01075 5.87785C5.97083 5.78963 5.89971 5.71927 5.81106 5.6803C5.72242 5.64134 5.6225 5.6365 5.5305 5.66674L3.93914 6.32229C3.87328 6.35213 3.81683 6.39943 3.77592 6.45906C3.73501 6.51869 3.71119 6.58837 3.70705 6.66056C3.70631 6.73121 3.72579 6.8006 3.76319 6.86053C3.8006 6.92047 3.85437 6.96846 3.91816 6.99884L5.48235 7.71735C5.52847 7.74102 5.57883 7.75529 5.6305 7.75933C5.701 7.75933 5.77007 7.73955 5.82988 7.70222C5.88968 7.6649 5.9378 7.61154 5.96877 7.54822C6.00769 7.45832 6.00941 7.35666 5.97354 7.26549C5.93768 7.17433 5.86716 7.10109 5.77742 7.0618L4.9947 6.70254L5.77742 6.38525C5.98976 6.27908 6.09593 6.06797 6.01075 5.87785ZM8.8947 11.9741H3.18482C3.0866 11.9741 2.99239 12.0132 2.92293 12.0826C2.85347 12.1521 2.81445 12.2463 2.81445 12.3445C2.81445 12.4427 2.85347 12.5369 2.92293 12.6064C2.99239 12.6759 3.0866 12.7149 3.18482 12.7149H8.8947C8.99293 12.7149 9.08713 12.6759 9.15659 12.6064C9.22605 12.5369 9.26507 12.4427 9.26507 12.3445C9.26507 12.2463 9.22605 12.1521 9.15659 12.0826C9.08713 12.0132 8.99293 11.9741 8.8947 11.9741Z" fill="#303133"/>
<path d="M13.1853 3.0851V9.75177H2.81496V3.0851H13.1853ZM13.1853 2.34436H2.81496C2.6185 2.34436 2.43009 2.4224 2.29118 2.56132C2.15226 2.70023 2.07422 2.88864 2.07422 3.0851V9.75177C2.07422 9.94822 2.15226 10.1366 2.29118 10.2755C2.43009 10.4145 2.6185 10.4925 2.81496 10.4925H13.1853C13.3818 10.4925 13.5702 10.4145 13.7091 10.2755C13.848 10.1366 13.9261 9.94822 13.9261 9.75177V3.0851C13.9261 2.88864 13.848 2.70023 13.7091 2.56132C13.5702 2.4224 13.3818 2.34436 13.1853 2.34436ZM12.815 11.974H11.0792C10.9809 11.974 10.8867 12.013 10.8173 12.0825C10.7478 12.1519 10.7088 12.2461 10.7088 12.3444C10.7088 12.4426 10.7478 12.5368 10.8173 12.6063C10.8867 12.6757 10.9809 12.7147 11.0792 12.7147H12.815C12.9132 12.7147 13.0074 12.6757 13.0769 12.6063C13.1463 12.5368 13.1853 12.4426 13.1853 12.3444C13.1853 12.2461 13.1463 12.1519 13.0769 12.0825C13.0074 12.013 12.9132 11.974 12.815 11.974Z" fill="#303133"/>
<path d="M10.0142 13.6555C9.75492 13.6555 9.50143 13.5787 9.28582 13.4346C9.07021 13.2905 8.90216 13.0858 8.80293 12.8462C8.70369 12.6066 8.67773 12.343 8.72832 12.0887C8.77891 11.8343 8.90378 11.6007 9.08714 11.4173C9.2705 11.234 9.50412 11.1091 9.75845 11.0585C10.0128 11.0079 10.2764 11.0339 10.516 11.1331C10.7556 11.2324 10.9603 11.4004 11.1044 11.616C11.2485 11.8316 11.3253 12.0851 11.3253 12.3444C11.3247 12.692 11.1864 13.0251 10.9406 13.2708C10.6949 13.5166 10.3618 13.6549 10.0142 13.6555ZM10.0142 11.7728C9.90153 11.7731 9.79143 11.8067 9.69782 11.8695C9.60421 11.9322 9.5313 12.0213 9.48828 12.1255C9.44527 12.2297 9.43408 12.3443 9.45612 12.4548C9.47817 12.5653 9.53247 12.6668 9.61216 12.7465C9.69185 12.8262 9.79337 12.8805 9.9039 12.9026C10.0144 12.9246 10.129 12.9134 10.2332 12.8704C10.3373 12.8274 10.4264 12.7545 10.4892 12.6609C10.552 12.5672 10.5856 12.4571 10.5858 12.3444C10.5858 12.1928 10.5256 12.0474 10.4184 11.9403C10.3112 11.8331 10.1658 11.7728 10.0142 11.7728Z" fill="#303133"/>
</svg>
