<svg width="16" height="16" xmlns="http://www.w3.org/2000/svg">
<path d="M14.2081 7.71805L14.9465 6.42604C15.1644 6.03678 15.2788 5.59813 15.2788 5.15202C15.2788 4.70591 15.1644 4.26726 14.9465 3.878C14.7305 3.49161 14.414 3.17091 14.0305 2.94994C13.6469 2.72897 13.2107 2.61598 12.7682 2.62296H11.3283C11.1586 1.87567 10.739 1.20866 10.1388 0.732213C9.53857 0.255769 8.79375 -0.00157212 8.02744 0.00273884C7.26114 0.0070498 6.51926 0.272755 5.92446 0.755921C5.32966 1.23909 4.91756 1.91078 4.75631 2.65994H3.31642C2.87449 2.65635 2.43962 2.77078 2.05669 2.99141C1.67376 3.21203 1.35665 3.53086 1.13809 3.91497C0.920165 4.30423 0.805731 4.74288 0.805731 5.18899C0.805731 5.6351 0.920165 6.07376 1.13809 6.46301L1.87653 7.75502C1.31234 8.18681 0.897721 8.7846 0.690978 9.4643C0.484235 10.144 0.495775 10.8714 0.723976 11.5442C0.952177 12.217 1.38556 12.8014 1.96315 13.215C2.54074 13.6287 3.23349 13.8509 3.94394 13.8503C4.38711 13.8467 4.82556 13.7589 5.23594 13.5915L5.90043 14.7357C6.11637 15.122 6.43291 15.4427 6.81644 15.6637C7.19997 15.8847 7.63618 15.9977 8.07876 15.9907C8.52069 15.9943 8.95556 15.8799 9.33849 15.6592C9.72142 15.4386 10.0385 15.1198 10.2571 14.7357L10.9566 13.5176C11.2908 13.6235 11.6402 13.6734 11.9908 13.6655C12.4372 13.6667 12.8796 13.5796 13.2923 13.4093C13.705 13.239 14.08 12.9888 14.3957 12.6731C14.7114 12.3573 14.9616 11.9823 15.132 11.5696C15.3023 11.1569 15.3893 10.7146 15.3881 10.2681C15.3468 9.29564 14.9226 8.37899 14.2081 7.71805ZM8.55839 10.2291C8.56239 10.7404 8.68045 11.2443 8.90397 11.7041C9.12749 12.164 9.45083 12.5681 9.8504 12.8871L9.15094 14.0682C9.02758 14.271 8.85407 14.4387 8.64712 14.5551C8.44018 14.6714 8.20676 14.7325 7.96935 14.7325C7.73193 14.7325 7.49851 14.6714 7.29157 14.5551C7.08462 14.4387 6.91111 14.271 6.78775 14.0682L6.08829 12.8871C6.583 12.4203 6.92623 11.8158 7.07354 11.1518C7.22085 10.4878 7.16546 9.79484 6.91455 9.16266C6.66363 8.53048 6.22874 7.98816 5.66617 7.6059C5.10359 7.22365 4.43923 7.01905 3.75908 7.01859C3.42017 7.01311 3.08264 7.06307 2.75985 7.16647L1.98444 5.83749C1.8576 5.63227 1.79041 5.39578 1.79041 5.15452C1.79041 4.91326 1.8576 4.67677 1.98444 4.47154C2.10634 4.26747 2.27945 4.09879 2.48662 3.98224C2.6938 3.86568 2.92783 3.80529 3.16554 3.80705H4.56746C4.6739 4.62287 5.07353 5.37209 5.69178 5.91491C6.31002 6.45773 7.10465 6.75707 7.92738 6.75707C8.75011 6.75707 9.54473 6.45773 10.163 5.91491C10.7812 5.37209 11.1809 4.62287 11.2873 3.80705H12.6862C12.923 3.80979 13.1554 3.87209 13.3618 3.98821C13.5682 4.10434 13.742 4.27056 13.8673 4.47154C13.9942 4.67677 14.0613 4.91326 14.0613 5.15452C14.0613 5.39578 13.9942 5.63227 13.8673 5.83749L13.1679 7.09253C12.7682 6.93249 12.3432 6.84485 11.9128 6.83373C11.0223 6.8529 10.1742 7.21791 9.54806 7.85148C8.92196 8.48505 8.56701 9.33742 8.55839 10.2281V10.2291Z"/>
</svg>
