<svg width="16" height="16" xmlns="http://www.w3.org/2000/svg">
<path d="M12.4872 5.43037C11.7692 5.43037 11.0513 5.78481 10.6026 6.31645L6.02563 3.56961V3.48102C6.02563 2.15191 4.85896 1 3.5128 1C2.16665 1 1 2.15191 1 3.48102C1 4.54431 1.62821 5.43039 2.61538 5.78481V11.0127C2.07692 11.4557 1.71795 12.0759 1.71795 12.7848C1.71794 14.0253 2.70513 15 3.96154 15C5.21794 15 6.20513 14.0253 6.20513 12.7848C6.20513 12.6076 6.20513 12.4304 6.11539 12.1645L10.6026 9.50632C11.0513 10.038 11.7692 10.3924 12.4872 10.3924C13.8333 10.3924 15 9.2405 15 7.91138C15 6.58226 13.8333 5.43035 12.4872 5.43035L12.4872 5.43037ZM5.66665 11.3671C5.30768 10.9241 4.67947 10.5696 3.96152 10.5696C3.78204 10.5696 3.69229 10.5696 3.5128 10.6582V5.96202C4.49998 5.96202 5.39742 5.34177 5.84613 4.45569L10.1538 7.02531C10.0641 7.29113 9.97433 7.55695 9.97433 7.91138C9.97433 8.17721 10.0641 8.53164 10.1538 8.79746L5.66665 11.3671V11.3671Z"/>
</svg>
