<svg width="16" height="16" viewBox="0 0 16 16" fill="none" xmlns="http://www.w3.org/2000/svg">
<path d="M8 0C3.58172 0 0 3.58172 0 8C0 12.4183 3.58172 16 8 16C12.4183 16 16 12.4183 16 8C16 3.58172 12.4183 0 8 0ZM12.1023 5.95964L7.24089 10.821C7.18323 10.8788 7.11365 10.9232 7.037 10.9513C6.83317 11.0355 6.58994 10.9948 6.42428 10.8292L3.90522 8.31009C3.68555 8.09042 3.68555 7.73427 3.90522 7.51459C4.12489 7.29492 4.48105 7.29492 4.70072 7.51459L6.82852 9.64239L11.3068 5.16414C11.5264 4.94447 11.8826 4.94447 12.1023 5.16414C12.3219 5.38381 12.3219 5.73997 12.1023 5.95964Z" fill="#3183FF"/>
</svg>
