<svg width="16" height="16" xmlns="http://www.w3.org/2000/svg">
<path d="M11.0307 2.66675C11.884 2.66675 12.576 3.32275 12.576 4.13141V6.51808L14.154 5.03741C14.648 4.56275 16 4.80408 16 5.62941V10.9867C16 11.7934 14.6513 12.0387 14.1533 11.5554L12.5773 10.0741V11.8687C12.5773 12.6774 11.8853 13.3334 11.0327 13.3334H1.54533C0.692 13.3334 0 12.6774 0 11.8687V4.13341C0 3.32475 0.692 2.66875 1.54533 2.66875H11.0307V2.66675ZM5.22667 5.55208C4.92 5.55208 4.67067 5.78808 4.67067 6.07741V9.78141C4.67067 10.0721 4.91933 10.3081 5.22667 10.3081C5.338 10.3081 5.44667 10.2774 5.53933 10.2174L8.54 8.29408C8.58993 8.26363 8.63306 8.22323 8.6667 8.17539C8.70033 8.12755 8.72376 8.0733 8.73552 8.01601C8.74728 7.95873 8.74711 7.89963 8.73504 7.84241C8.72296 7.78519 8.69924 7.73107 8.66533 7.68341C8.63164 7.63611 8.58907 7.59581 8.54 7.56475L5.53867 5.64141C5.44533 5.58191 5.33669 5.55087 5.226 5.55208H5.22667Z"/>
</svg>
