<svg width="16" height="16" viewBox="0 0 16 16" fill="none" xmlns="http://www.w3.org/2000/svg">
<path d="M15.8546 13.7767L8.93848 1.07444C8.84338 0.899796 8.7066 0.754769 8.5419 0.653934C8.37719 0.5531 8.19035 0.50001 8.00015 0.5C7.80996 0.499983 7.62311 0.553062 7.45839 0.6539C7.29368 0.754737 7.15691 0.899778 7.06183 1.07444L0.14527 13.7767C-0.0484234 14.1321 -0.0484234 14.5701 0.14527 14.9256C0.338964 15.281 0.696615 15.5 1.0836 15.5H14.9165C15.3037 15.5 15.6611 15.281 15.8548 14.9256C16.0485 14.5701 16.0483 14.1321 15.8546 13.7767ZM8.14008 4.62301C8.63236 4.61869 9.12036 5.08213 9.12036 5.51188L8.87717 9.95644C8.87717 10.3862 8.54559 10.738 8.14028 10.738C7.73497 10.738 7.40339 10.3864 7.40339 9.95644L7.1602 5.51188C7.15979 5.08213 7.54657 4.63942 8.14008 4.62301ZM8.14008 13.9689C7.58079 13.9689 7.12741 13.4882 7.12741 12.8952C7.12741 12.3021 7.58079 11.8214 8.14008 11.8214C8.69936 11.8214 9.15274 12.3021 9.15274 12.8952C9.15274 13.4882 8.69936 13.9689 8.14008 13.9689Z" fill="#E8684A"/>
</svg>
