<?xml version="1.0" encoding="UTF-8"?>
<svg width="16px" height="16px" viewBox="0 0 16 16" version="1.1" xmlns="http://www.w3.org/2000/svg" xmlns:xlink="http://www.w3.org/1999/xlink">
    <title>icon</title>
    <g id="页面-1" stroke="none" stroke-width="1" fill="none" fill-rule="evenodd">
        <g id="导航icon" transform="translate(-949.000000, -171.000000)">
            <g id="icon" transform="translate(949.000000, 171.000000)">
                <rect id="矩形" stroke="#979797" fill="#D8D8D8" opacity="0" x="0.5" y="0.5" width="15" height="15"></rect>
                <path d="M12,1 L4,1 L0,8 L4,15 L12,15 L16,8 L12,1 Z M10.839,3 L13.696,8 L10.838,13 L5.161,13 L2.303,8 L5.16,3 L10.839,3 Z" id="合并形状-copy-8" fill="#2C7BE5" fill-rule="nonzero"></path>
                <path d="M8,11.031089 C6.343146,11.031089 5,9.674024 5,8 C5,6.325976 6.343146,4.968911 8,4.968911 C9.656854,4.968911 11,6.325976 11,8 C11,9.674024 9.656854,11.031089 8,11.031089 Z M8,9.010363 C8.552285,9.010363 9,8.558008 9,8 C9,7.441992 8.552285,6.989637 8,6.989637 C7.447715,6.989637 7,7.441992 7,8 C7,8.558008 7.447715,9.010363 8,9.010363 Z" id="形状结合" fill="#0CD5A7" fill-rule="nonzero"></path>
            </g>
        </g>
    </g>
</svg>