<?xml version="1.0" encoding="UTF-8"?>
<svg width="16px" height="16px" viewBox="0 0 16 16" version="1.1" xmlns="http://www.w3.org/2000/svg" xmlns:xlink="http://www.w3.org/1999/xlink">
    <title>Li-1备份 2</title>
    <g id="页面-1" stroke="none" stroke-width="1" fill="none" fill-rule="evenodd">
        <g id="导航icon" transform="translate(-949.000000, -89.000000)">
            <g id="Li-1备份-2" transform="translate(949.000000, 89.000000)">
                <g id="编组-9" transform="translate(-0.000000, 0.000000)">
                    <rect id="矩形" fill-opacity="0" fill="#D8D8D8" x="0" y="0" width="16" height="16"></rect>
                    <g id="gray" transform="translate(-0.000000, 1.000000)" fill-rule="nonzero">
                        <path d="M14.9282032,2.92820323 L8.00000001,-1.07179677 L1.07179677,2.92820323 L1.07179677,10.9282032 L8.00000001,14.9282032 L14.9282032,10.9282032 L14.9282032,2.92820323 Z M7.99923048,1.007 L13.1272305,3.967 L13.1272305,9.889 L7.99923048,12.849 L2.87123048,9.889 L2.87123048,3.967 L7.99923048,1.007 Z" id="多边形" fill="#2C7BE5" transform="translate(8.000000, 6.928203) rotate(-90.000000) translate(-8.000000, -6.928203) "></path>
                        <path d="M7.84110766,3.9282032 L8.87412616,9.9282032 L7.27684388,9.9282032 L7.19901806,8.84975972 L6.40846199,8.84975972 L6.31581221,9.9282032 L4.69999998,9.9282032 L5.58415892,3.9282032 L7.84110766,3.9282032 Z M7.15454617,7.7861402 C7.10183847,7.33318343 6.97615246,6.49439406 6.77748814,5.26977207 C6.54547125,6.59322099 6.41628588,7.43201036 6.38993204,7.7861402 L7.15454617,7.7861402 Z M11.3602224,3.9282032 L11.3602224,9.9282032 L9.79999998,9.9282032 L9.79999998,3.9282032 L11.3602224,3.9282032 Z" id="合并形状" fill="#0CD5A7"></path>
                    </g>
                </g>
            </g>
        </g>
    </g>
</svg>