<?xml version="1.0" encoding="UTF-8"?>
<svg width="16px" height="16px" viewBox="0 0 16 16" version="1.1" xmlns="http://www.w3.org/2000/svg" xmlns:xlink="http://www.w3.org/1999/xlink">
    <title>Li-1备份 7</title>
    <g id="页面-1" stroke="none" stroke-width="1" fill="none" fill-rule="evenodd">
        <g id="导航icon" transform="translate(-949.000000, -291.000000)">
            <g id="icon-6" transform="translate(949.000000, 291.000000)">
                <rect id="icon" fill="#252939" opacity="0" x="0" y="0" width="16" height="16"></rect>
                <g id="统计" transform="translate(0.500000, 0.500000)" fill-rule="nonzero">
                    <path d="M7.62714922,-7.54951657e-14 C11.6426508,0.362632812 14.8373672,3.5568 15.2,7.57286562 L7.62714922,7.57286562 L7.62714922,-7.54951657e-14 Z M9.627,2.594 L9.627,5.572 L12.605,5.572 L12.5704582,5.49928457 C11.9526621,4.25826461 10.9416967,3.24732382 9.70067651,2.62953917 L9.627,2.594 Z" id="形状" fill="#0CD5A7"></path>
                    <path d="M6.36934922,1.18396719 L6.36934922,8.15806563 C6.36934922,8.47777181 6.6049611,8.7424479 6.91201962,8.78792862 L7.00611641,8.79483281 L13.9802,8.79483281 C13.6582836,12.3657492 10.6600836,15.163618 7.00610156,15.163618 C3.13771641,15.163618 -1.59872116e-14,12.027 -1.59872116e-14,8.15751641 C-1.59872116e-14,4.58298329 2.67860993,1.63652704 6.13761366,1.20873458 L6.36934922,1.18396719 Z M4.4688,3.72875 L4.3482565,3.79941517 C2.87564447,4.69836565 1.9,6.32069856 1.9,8.15751641 C1.9,10.9772336 4.186632,13.263618 7.00610156,13.263618 C8.84330823,13.263618 10.4657722,12.2882467 11.3647536,10.8158096 L11.4342,10.69415 L7.00611641,10.6948328 C5.65898388,10.6948328 4.55710696,9.64476869 4.47434,8.31849477 L4.46934922,8.15806563 L4.4688,3.72875 Z" id="路径" fill="#2C7BE5"></path>
                </g>
            </g>
        </g>
    </g>
</svg>