<?xml version="1.0" encoding="UTF-8"?>
<svg width="17px" height="16px" viewBox="0 0 17 16" version="1.1" xmlns="http://www.w3.org/2000/svg" xmlns:xlink="http://www.w3.org/1999/xlink">
    <title>Li-1备份 6</title>
    <defs>
        <rect id="path-1" x="0" y="0" width="16" height="16"></rect>
    </defs>
    <g id="页面-1" stroke="none" stroke-width="1" fill="none" fill-rule="evenodd">
        <g id="导航icon" transform="translate(-949.000000, -249.000000)">
            <g id="gray" transform="translate(949.600000, 249.000000)">
                <mask id="mask-2" fill="white">
                    <use xlink:href="#path-1"></use>
                </mask>
                <use id="蒙版" fill="#D8D8D8" opacity="0" xlink:href="#path-1"></use>
                <g mask="url(#mask-2)" fill-rule="nonzero">
                    <g transform="translate(0.400000, 1.000000)">
                        <path d="M5,10 L5,12 L0,12 L0,10 L5,10 Z M13,5 L13,7 L0,7 L0,5 L13,5 Z M13.1,0 L13.1,2 L0.1,2 L0.1,0 L13.1,0 Z" id="Combined-Shape" fill="#2C7BE5"></path>
                        <polygon id="Combined-Shape-path" fill="#0CD5A7" points="12.4 8.5 15 11.9 13.3 13 11.9 11.2 8.3 13.8 6.1 10.8 7.8 9.5 8.8 11 11.7 9"></polygon>
                    </g>
                </g>
            </g>
        </g>
    </g>
</svg>