<?xml version="1.0" encoding="UTF-8"?>
<svg width="16px" height="16px" viewBox="0 0 16 16" version="1.1" xmlns="http://www.w3.org/2000/svg" xmlns:xlink="http://www.w3.org/1999/xlink">
    <title>icon</title>
    <defs>
        <rect id="path-1" x="0" y="0" width="16" height="16"></rect>
    </defs>
    <g id="页面-1" stroke="none" stroke-width="1" fill="none" fill-rule="evenodd">
        <g id="导航icon" transform="translate(-371.000000, -625.000000)">
            <g id="icon" transform="translate(371.000000, 625.000000)">
                <mask id="mask-2" fill="white">
                    <use xlink:href="#path-1"></use>
                </mask>
                <use id="蒙版" fill="#D8D8D8" opacity="0" xlink:href="#path-1"></use>
                <g mask="url(#mask-2)" fill="#B1B8CE" id="形状">
                    <g transform="translate(1.000000, 1.000000)">
                        <path d="M4,12 L4,14 L0,14 L0,0 L14,0 L14,2 L2,2 L2,12 L4,12 Z M11,7.00306886 L13.005188,5 L14.499054,6.5128479 L10.0020142,11 L5.51956177,6.5128479 L7.01016235,5 L9,6.99525689 L9,3 L11,3 L11,7.00306886 Z M6,12 L14,12 L14,14 L6,14 L6,12 Z"></path>
                    </g>
                </g>
            </g>
        </g>
    </g>
</svg>