<?xml version="1.0" encoding="UTF-8"?>
<svg width="16px" height="16px" viewBox="0 0 16 16" version="1.1" xmlns="http://www.w3.org/2000/svg" xmlns:xlink="http://www.w3.org/1999/xlink">
    <title>无线网络_wifi</title>
    <g id="页面-1" stroke="none" stroke-width="1" fill="none" fill-rule="evenodd">
        <g id="导航icon" transform="translate(-951.000000, -697.000000)">
            <g id="无线网络_wifi" transform="translate(951.000000, 697.000000)">
                <rect id="矩形" fill-opacity="0.01" fill="#FFFFFF" fill-rule="nonzero" x="0.00342573461" y="0" width="16" height="16"></rect>
                <g id="编组-16" transform="translate(0.000000, 2.250006)">
                    <path d="M0.889440943,2.48785846 C0.645587869,2.68358996 0.409455427,2.8896546 0.181458802,3.10572477 L0,3.2776915 L1.3219631,4.67262645 L1.80040395,4.23746364 L2.09955758,3.98731612 C5.75143931,1.05636884 11.0394105,1.27177904 14.4504331,4.5043397 L14.631893,4.67630573 L15.9599001,3.27498252 L15.5262326,2.8760534 C11.40313,-0.805817428 5.19950705,-0.971418579 0.889440943,2.48785846 Z" id="路径" fill="#2C7BE5" fill-rule="nonzero"></path>
                    <path d="M2.30326556,5.56151673 L2.12648887,5.73829343 L3.48528607,7.09709063 L3.86088379,6.73715883 C6.25724348,4.53705485 9.97930863,4.61179995 12.2915477,6.92403898 L12.4683244,7.10081568 L13.8340554,5.73508463 L13.4423809,5.35730995 C10.2865552,2.4210239 5.36022254,2.50455975 2.30326556,5.56151673 Z" id="路径" fill="#0CD5A7" fill-rule="nonzero"></path>
                    <path d="M4.44361173,7.88546892 L4.26683503,8.06224562 L5.62394353,9.41935412 L5.95374877,9.10944932 C7.15982903,8.0452201 9.00252403,8.0993137 10.1512015,9.24799117 L10.3279782,9.42476787 L11.6951744,8.05757162 L11.3212343,7.70277254 C9.35105355,5.92852532 6.3260858,6.00299485 4.44361173,7.88546892 Z" id="路径" fill="#2C7BE5" fill-rule="nonzero"></path>
                    <path d="M8.00342573,11.7499939 C8.55570573,11.7499939 9.00342573,11.3022739 9.00342573,10.7499939 C9.00342573,10.1977139 8.55570573,9.74999391 8.00342573,9.74999391 C7.45114573,9.74999391 7.00342573,10.1977139 7.00342573,10.7499939 C7.00342573,11.3022739 7.45114573,11.7499939 8.00342573,11.7499939 Z" id="路径" fill="#0CD5A7"></path>
                </g>
            </g>
        </g>
    </g>
</svg>