<?xml version="1.0" encoding="UTF-8"?>
<svg width="16px" height="16px" viewBox="0 0 16 16" version="1.1" xmlns="http://www.w3.org/2000/svg" xmlns:xlink="http://www.w3.org/1999/xlink">
    <title>Li-1备份 8</title>
    <defs>
        <rect id="path-1" x="0" y="0" width="16" height="16"></rect>
    </defs>
    <g id="页面-1" stroke="none" stroke-width="1" fill="none" fill-rule="evenodd">
        <g id="导航icon" transform="translate(-797.000000, -401.000000)">
            <g id="编组-6" transform="translate(797.000000, 401.000000)">
                <mask id="mask-2" fill="white">
                    <use xlink:href="#path-1"></use>
                </mask>
                <use id="蒙版" fill="#D8D8D8" opacity="0" xlink:href="#path-1"></use>
                <g mask="url(#mask-2)" fill="#B1B8CE" fill-rule="nonzero" id="形状结合">
                    <g transform="translate(0.000500, 0.000000)">
                        <path d="M16,8 L14,8 L14,2 L2,2 L2,14 L8,13.995 L8,16 L3.71258579e-13,16 L3.71258579e-13,3.73034936e-14 L16,3.73034936e-14 L16,8 Z"></path>
                        <path d="M9.91301536,3.2552464 C12.3982967,3.2552464 14.4130154,5.26996503 14.4130154,7.7552464 C14.4130154,9.8901031 12.9263928,11.6777405 10.931895,12.1394111 L10.931123,16.6366337 L8.93112301,16.6366337 L8.93101162,12.1477827 C6.91798962,11.6997272 5.41301536,9.90323959 5.41301536,7.7552464 C5.41301536,5.26996503 7.42773399,3.2552464 9.91301536,3.2552464 Z M9.91301536,5.2552464 C8.53230349,5.2552464 7.41301536,6.37453453 7.41301536,7.7552464 C7.41301536,9.13595827 8.53230349,10.2552464 9.91301536,10.2552464 C11.2937272,10.2552464 12.4130154,9.13595827 12.4130154,7.7552464 C12.4130154,6.37453453 11.2937272,5.2552464 9.91301536,5.2552464 Z" transform="translate(9.913015, 9.945940) rotate(-45.000000) translate(-9.913015, -9.945940) "></path>
                    </g>
                </g>
            </g>
        </g>
    </g>
</svg>