<?xml version="1.0" encoding="UTF-8"?>
<svg width="16px" height="16px" viewBox="0 0 16 16" version="1.1" xmlns="http://www.w3.org/2000/svg" xmlns:xlink="http://www.w3.org/1999/xlink">
    <title>Li-1备份 6</title>
    <g id="页面-1" stroke="none" stroke-width="1" fill="none" fill-rule="evenodd">
        <g id="导航icon" transform="translate(-59.000000, -565.000000)">
            <g id="Li-1备份-6" transform="translate(59.000000, 565.000000)">
                <g id="网络服务" transform="translate(0.000000, -0.000000)">
                    <rect id="icon" fill="#252939" opacity="0" x="0" y="0" width="16" height="16"></rect>
                    <g id="编组-14" transform="translate(0.000000, -0.000000)" fill="#B1B8CE" fill-rule="nonzero">
                        <path d="M11,13.4 L11,16 L9,16 L9,11.9 C11.8,11.4 14,9 14,6 L16,6 C16,9.40000001 13.9,12.2 11,13.4 L11,13.4 Z M5,13.4 C2.1,12.2 1.42108547e-14,9.30000001 1.42108547e-14,6 L2,6 C2,9 4.2,11.4 7,11.9 L7,16 L5,16 L5,13.4 L5,13.4 Z" id="形状"></path>
                        <path d="M9,-1.24344979e-14 L9.3,0.699999985 C10,0.899999977 10.6,1.29999999 11.1,1.8 L11.8,1.69999999 L12.8,3.39999999 L12.3,4 C12.3833333,4.24999999 12.3972222,4.56944444 12.399537,4.90046296 L12.4,5.1 C12.4,5.5 12.4,5.80000001 12.3,6.2 L12.8,6.8 L11.8,8.5 L11.1,8.3 C10.6,8.79999999 10,9.2 9.3,9.39999999 L9,10 L6.99999999,10 L6.69999999,9.30000001 C5.99999998,9.10000001 5.39999998,8.70000001 4.89999999,8.19999999 L4.19999999,8.3 L3.19999999,6.6 L3.69999999,6 C3.52857142,5.74285715 3.50408163,5.48571429 3.50058308,5.16559767 L3.49999999,5 C3.49999999,4.59999999 3.49999999,4.29999999 3.6,3.9 L3.19999999,3.39999999 L4.19999999,1.69999999 L4.89999999,1.8 C5.39999998,1.30000001 5.99999998,0.900000001 6.69999999,0.699999985 L6.99999999,-1.24344979e-14 L9,-1.24344979e-14 Z M7.99999999,1.99999999 C6.3,1.99999999 4.99999999,3.3 4.99999999,4.99999999 C4.99999999,6.69999999 6.3,7.99999999 7.99999999,7.99999999 C9.69999999,7.99999999 11,6.69999999 11,4.99999999 C11,3.3 9.69999999,1.99999999 7.99999999,1.99999999 Z" id="形状结合"></path>
                        <path d="M7.99999999,5.99999999 C7.4,5.99999999 6.99999999,5.6 6.99999999,4.99999999 C6.99999999,4.39999999 7.4,3.99999999 7.99999999,3.99999999 C8.6,3.99999999 8.99999999,4.39999999 8.99999999,4.99999999 C8.99999999,5.6 8.6,5.99999999 7.99999999,5.99999999 L7.99999999,5.99999999 Z" id="路径"></path>
                    </g>
                </g>
            </g>
        </g>
    </g>
</svg>