<?xml version="1.0" encoding="UTF-8"?>
<svg width="16px" height="16px" viewBox="0 0 16 16" version="1.1" xmlns="http://www.w3.org/2000/svg" xmlns:xlink="http://www.w3.org/1999/xlink">
    <title>Li-1备份 11</title>
    <g id="页面-1" stroke="none" stroke-width="1" fill="none" fill-rule="evenodd">
        <g id="导航icon" transform="translate(-959.000000, -340.000000)">
            <g id="运维" transform="translate(959.000000, 340.000000)">
                <rect id="矩形" fill-opacity="0.31" fill="#FFFFFF" fill-rule="nonzero" opacity="0" x="0" y="0" width="16" height="16"></rect>
                <path d="M16,0 L16,13 L0,13 L0,0 L16,0 Z M14,2 L2,2 L2,11 L14,11 L14,2 Z" id="矩形" fill="#2C7BE5" fill-rule="nonzero"></path>
                <polygon id="矩形" fill="#0CD5A7" fill-rule="nonzero" points="14 14 14 16 2 16 2 14"></polygon>
                <polygon id="矩形" fill="#0CD5A7" fill-rule="nonzero" points="12 4 12 6 4 6 4 4"></polygon>
                <polygon id="矩形备份-19" fill="#0CD5A7" fill-rule="nonzero" points="12 7 12 9 4 9 4 7"></polygon>
                <rect id="矩形" fill="#0CD5A7" x="5" y="3" width="2" height="3"></rect>
                <rect id="矩形备份-20" fill="#0CD5A7" x="9" y="7" width="2" height="3"></rect>
            </g>
        </g>
    </g>
</svg>