<?xml version="1.0" encoding="UTF-8"?>
<svg width="16px" height="16px" viewBox="0 0 16 16" version="1.1" xmlns="http://www.w3.org/2000/svg" xmlns:xlink="http://www.w3.org/1999/xlink">
    <title>Li-1备份 7</title>
    <g id="页面-1" stroke="none" stroke-width="1" fill="none" fill-rule="evenodd">
        <g id="导航icon" transform="translate(-51.000000, -473.000000)">
            <g id="资源管理" transform="translate(51.000000, 473.000000)">
                <rect id="矩形" fill="#393939" opacity="0" x="0" y="0" width="16" height="16"></rect>
                <g id="椭圆形-2" fill="#B1B8CE" fill-rule="nonzero">
                    <path d="M8,0 C12.418278,0 16,3.581722 16,8 C16,12.418278 12.418278,16 8,16 C3.581722,16 0,12.418278 0,8 C0,3.581722 3.581722,0 8,0 Z M8,2 C4.6862915,2 2,4.6862915 2,8 C2,11.3137085 4.6862915,14 8,14 C11.3137085,14 14,11.3137085 14,8 C14,4.6862915 11.3137085,2 8,2 Z" id="椭圆形"></path>
                </g>
                <g id="编组-12" transform="translate(3.000000, 3.000000)" fill="#B1B8CE">
                    <path d="M6.81818182,7.27272727 L5,10 L3.18181818,7.27272727 L6.81818182,7.27272727 Z M7.27272727,3.18181818 L10,5 L7.27272727,6.81818182 L7.27272727,3.18181818 Z M2.72727273,3.18181818 L2.72727273,6.81818182 L-3.32757683e-16,5 L2.72727273,3.18181818 Z M5,1.23689893e-18 L6.81818182,2.72727273 L3.18181818,2.72727273 L5,1.23689893e-18 Z" id="形状结合"></path>
                </g>
            </g>
        </g>
    </g>
</svg>