<?xml version="1.0" encoding="UTF-8"?>
<svg width="16px" height="16px" viewBox="0 0 16 16" version="1.1" xmlns="http://www.w3.org/2000/svg" xmlns:xlink="http://www.w3.org/1999/xlink">
    <title>Li-1备份 9</title>
    <g id="页面-1" stroke="none" stroke-width="1" fill="none" fill-rule="evenodd">
        <g id="导航icon" transform="translate(-244.000000, -432.000000)">
            <g id="联网汇聚备份-5" transform="translate(215.000000, 340.000000)">
                <g id="网络设备" transform="translate(29.000000, 92.000000)">
                    <rect id="icon" fill="#252939" opacity="0" x="0" y="0" width="16" height="16"></rect>
                    <polygon id="三角形" fill="#0CD5A7" transform="translate(8.500000, 8.000000) rotate(-270.000000) translate(-8.500000, -8.000000) " points="8.5 6.5 10.5 9.5 6.5 9.5"></polygon>
                    <path d="M8.16915547,2.27373675e-13 C11.8698635,2.27373675e-13 14.9958315,2.40980047 16.0000621,5.71443701 L13.518618,5.71402499 C12.6181335,3.69598735 10.5618203,2.28571429 8.16915547,2.28571429 C4.94651263,2.28571429 2.33404442,4.84408714 2.33404442,8 C2.33404442,11.1559129 4.94651263,13.7142857 8.16915547,13.7142857 C10.2324639,13.7142857 12.0456467,12.6655458 13.0831907,11.0826977 L11,9 L16,9 L16,14 L14.7463469,12.7457206 C13.258707,14.719676 10.8666106,16 8.16915547,16 C3.65745549,16 0,12.418278 0,8 C0,3.581722 3.65745549,2.27373675e-13 8.16915547,2.27373675e-13 Z" id="形状结合" fill="#2C7BE5" fill-rule="nonzero"></path>
                </g>
            </g>
        </g>
    </g>
</svg>