<?xml version="1.0" encoding="UTF-8"?>
<svg width="16px" height="17px" viewBox="0 0 16 17" version="1.1" xmlns="http://www.w3.org/2000/svg" xmlns:xlink="http://www.w3.org/1999/xlink">
    <title>Li-1备份 7</title>
    <g id="页面-1" stroke="none" stroke-width="1" fill="none" fill-rule="evenodd">
        <g id="导航icon" transform="translate(-226.000000, -156.000000)">
            <g id="Li-1备份-7" transform="translate(226.000000, 156.000000)">
                <g id="资源管理" transform="translate(0.000000, 1.000000)">
                    <rect id="矩形" fill="#393939" opacity="0" x="0" y="0" width="16" height="16"></rect>
                    <g id="icon" transform="translate(1.000000, 1.000000)" fill-rule="nonzero">
                        <polygon id="Fill-1-Copy-path" fill="#2C7BE5" points="9 0 9 4.001 11 4.001 11 3.001 14 3.001 14 1.001 11 1.001 11 0"></polygon>
                        <polygon id="Fill-1-Copy-path" fill="#0CD5A7" points="0 3.001 7 3.001 7 1.001 0 1.001"></polygon>
                        <polygon id="Fill-1-Copy-path" fill="#2C7BE5" points="3 5 3 6 0 6 0 8 3 8 3 9 5 9 5 5"></polygon>
                        <polygon id="Fill-1-Copy-path" fill="#0CD5A7" points="7 8 14 8 14 6 7 6"></polygon>
                        <polygon id="Fill-1-Copy-path" fill="#2C7BE5" points="9 10.001 9 14 11 14 11 13.001 14 13.001 14 11.001 11 11.001 11 10.001"></polygon>
                        <polygon id="Fill-1-Copy-path" fill="#0CD5A7" points="0 13.001 7 13.001 7 11.001 0 11.001"></polygon>
                    </g>
                </g>
            </g>
        </g>
    </g>
</svg>