<?xml version="1.0" encoding="UTF-8"?>
<svg width="16px" height="16px" viewBox="0 0 16 16" version="1.1" xmlns="http://www.w3.org/2000/svg" xmlns:xlink="http://www.w3.org/1999/xlink">
    <title>配置_config</title>
    <g id="页面-1" stroke="none" stroke-width="1" fill="none" fill-rule="evenodd">
        <g id="导航icon" transform="translate(-932.000000, -536.000000)">
            <g id="配置_config" transform="translate(932.000000, 536.000000)">
                <rect id="矩形" fill-opacity="0.01" fill="#FFFFFF" x="-3.64153152e-14" y="-3.64153152e-14" width="16" height="16"></rect>
                <g id="编组" fill-rule="nonzero">
                    <path d="M10.3901687,2.39005009 L8,0 L5.60851135,2.39005009 L2.39005009,2.39005009 L2.39005009,5.60851135 L0,8 L2.39005009,10.3901687 L2.39005009,13.6099499 L5.60950134,13.6096199 L8,16 L10.3891787,13.6096199 L13.6099499,13.6099499 L13.6096199,10.3891787 L16,8 L13.6096199,5.60950134 L13.6099499,2.39005009 L10.3901687,2.39005009 Z M7.99952404,3 L9.50971262,4.50975726 L11.4902427,4.50975726 L11.4905601,6.49060469 L13,7.99952404 L11.4905601,9.50971262 L11.4902427,11.4902427 L9.50971262,11.4905601 L7.99952404,13 L6.49060469,11.4905601 L4.50975726,11.4902427 L4.50975726,9.50971262 L3,7.99952404 L4.50975726,6.49060469 L4.50975726,4.50975726 L6.49060469,4.50975726 L7.99952404,3 Z" id="路径" fill="#2C7BE5"></path>
                    <path d="M8,5 C6.34314575,5 5,6.34314575 5,8 C5,9.65685425 6.34314575,11 8,11 C9.65685425,11 11,9.65685425 11,8 C11,6.34314575 9.65685425,5 8,5 Z M8,7 C8.55228475,7 9,7.44771525 9,8 C9,8.55228475 8.55228475,9 8,9 C7.44771525,9 7,8.55228475 7,8 C7,7.44771525 7.44771525,7 8,7 Z" id="椭圆形" fill="#0CD5A7"></path>
                </g>
            </g>
        </g>
    </g>
</svg>