<?xml version="1.0" encoding="UTF-8"?>
<svg width="16px" height="16px" viewBox="0 0 16 16" version="1.1" xmlns="http://www.w3.org/2000/svg" xmlns:xlink="http://www.w3.org/1999/xlink">
    <title>Li-1备份 3</title>
    <defs>
        <rect id="path-1" x="0" y="0" width="16" height="16"></rect>
    </defs>
    <g id="页面-1" stroke="none" stroke-width="1" fill="none" fill-rule="evenodd">
        <g id="导航icon" transform="translate(-951.000000, -557.000000)">
            <g id="gray" transform="translate(951.000000, 557.000000)">
                <mask id="mask-2" fill="white">
                    <use xlink:href="#path-1"></use>
                </mask>
                <use id="蒙版" fill="#D8D8D8" opacity="0" xlink:href="#path-1"></use>
                <g mask="url(#mask-2)">
                    <g transform="translate(1.000000, 1.000000)">
                        <g id="路径备份-4" stroke-width="1" fill="none" fill-rule="evenodd" transform="translate(0.000000, 11.000000)">
                            <path d="M14,4 L12,4 C12,2.9 11.1,2 10,2 L4,2 C2.9,2 2,2.9 2,4 L0,4 C0,1.8 1.8,0 4,0 L10,0 C12.2,0 14,1.8 14,4 Z" id="路径" fill="#2C7BE5" fill-rule="nonzero"></path>
                        </g>
                        <g id="路径" stroke-width="1" fill="none" fill-rule="evenodd" transform="translate(2.000000, 0.000000)">
                            <path d="M5,10 C2.2,10 0,7.8 0,5 C0,2.2 2.2,0 5,0 L5,2 C3.3,2 2,3.3 2,5 C2,6.7 3.3,8 5,8 C6.7,8 8,6.7 8,5 L10,5 C10,7.8 7.8,10 5,10 Z" fill="#2C7BE5" fill-rule="nonzero"></path>
                        </g>
                        <polygon id="星形备份-5" fill="#0CD5A7" fill-rule="nonzero" points="10.1 4.1 9 6 7.9 4.1 6 3 7.9 1.9 9 0 10.1 1.9 12 3"></polygon>
                    </g>
                </g>
            </g>
        </g>
    </g>
</svg>