<?xml version="1.0" encoding="UTF-8"?>
<svg width="16px" height="16px" viewBox="0 0 16 16" version="1.1" xmlns="http://www.w3.org/2000/svg" xmlns:xlink="http://www.w3.org/1999/xlink">
    <title>Li-1备份 8</title>
    <g id="页面-1" stroke="none" stroke-width="1" fill="none" fill-rule="evenodd">
        <g id="导航icon" transform="translate(-51.000000, -85.000000)" fill="#B1B8CE" fill-rule="nonzero">
            <g id="Li-1备份-8" transform="translate(51.000000, 85.000000)">
                <g id="gray" transform="translate(1.000000, 1.000000)">
                    <path d="M14,-1 L0,-1 L0,10 L14,10 L14,-1 Z M12,1 L12,8 L2,8 L2,1 L12,1 Z" id="路径"></path>
                    <polygon id="形状" points="12 4 12 6 10.39 6 8.406 9.436 5.594 4.564 4.765 6 2 6 2 4 3.61 4 5.594 0.564 8.406 5.436 9.235 4"></polygon>
                    <polygon id="路径" points="0 12 14 12 14 14 0 14"></polygon>
                </g>
            </g>
        </g>
    </g>
</svg>