<?xml version="1.0" encoding="UTF-8"?>
<svg width="16px" height="16px" viewBox="0 0 16 16" version="1.1" xmlns="http://www.w3.org/2000/svg" xmlns:xlink="http://www.w3.org/1999/xlink">
    <title>Li-1备份 6</title>
    <g id="页面-1" stroke="none" stroke-width="1" fill="none" fill-rule="evenodd">
        <g id="导航icon" transform="translate(-51.000000, -53.000000)" fill-rule="nonzero">
            <g id="本地_local-two" transform="translate(51.000000, 53.000000)">
                <rect id="矩形" fill-opacity="0.01" fill="#FFFFFF" x="0" y="0" width="16" height="16"></rect>
                <g id="编组-4" transform="translate(0.500000, 0.500000)" fill="#AEB8D1">
                    <path d="M7.5,0 C4.41947297,0 1.875,2.38544341 1.875,5.390625 C1.875,7.26763247 2.7680797,9.02588312 4.20681905,10.6894255 C5.0103469,11.6185046 5.80792673,12.324695 6.375,12.75 L7.5,13.59375 L8.625,12.75 C9.19207327,12.324695 9.9896531,11.6185046 10.7931809,10.6894255 C12.2319203,9.02588312 13.125,7.26763247 13.125,5.390625 C13.125,2.38544341 10.580527,0 7.5,0 Z M7.5,1.875 C9.571075,1.875 11.25,3.44899219 11.25,5.390625 C11.25,7.06640625 10.115625,8.67128906 9.0946875,9.77633789 L8.82,10.065 L8.5565625,10.3269434 L8.31,10.5602344 L8.0859375,10.7629395 L7.80433594,11.0054187 L7.5,11.25 L7.19566406,11.0054187 L6.9140625,10.7629395 L6.69,10.5602344 L6.4434375,10.3269434 C6.40078125,10.2856201 6.35742188,10.243103 6.31347656,10.1994324 L6.04371094,9.92388794 L5.76550781,9.62259155 L5.48449219,9.29747681 C4.59609375,8.23227539 3.75,6.83789062 3.75,5.390625 C3.75,3.44899219 5.428925,1.875 7.5,1.875 Z" id="路径"></path>
                    <path d="M7.5,2.8125 C5.94670047,2.8125 4.6875,4.07170047 4.6875,5.625 C4.6875,7.17829953 5.94670047,8.4375 7.5,8.4375 C9.05329953,8.4375 10.3125,7.17829953 10.3125,5.625 C10.3125,4.07170047 9.05329953,2.8125 7.5,2.8125 Z M7.5,4.6875 C8.01776562,4.6875 8.4375,5.10723437 8.4375,5.625 C8.4375,6.14276563 8.01776562,6.5625 7.5,6.5625 C6.98223437,6.5625 6.5625,6.14276563 6.5625,5.625 C6.5625,5.10723437 6.98223437,4.6875 7.5,4.6875 Z" id="路径"></path>
                    <path d="M2.812,9.375 L2.812,11.25 L2.5246875,11.25 L2.2125,13.125 L4.687,13.125 L4.687,15 L0,15 L0.9375,9.375 L2.812,9.375 Z M14.0625,9.375 L15,15 L10.312,15 L10.312,13.125 L12.7865625,13.125 L12.474375,11.25 L12.187,11.25 L12.187,9.375 L14.0625,9.375 Z" id="形状结合"></path>
                </g>
            </g>
        </g>
    </g>
</svg>