<?xml version="1.0" encoding="UTF-8"?>
<svg width="16px" height="16px" viewBox="0 0 16 16" version="1.1" xmlns="http://www.w3.org/2000/svg" xmlns:xlink="http://www.w3.org/1999/xlink">
    <title>Li-1备份 8</title>
    <g id="页面-1" stroke="none" stroke-width="1" fill="none" fill-rule="evenodd">
        <g id="导航icon" transform="translate(-226.000000, -85.000000)" fill-rule="nonzero">
            <g id="Li-1备份-8" transform="translate(226.000000, 85.000000)">
                <g id="gray" transform="translate(1.000000, 0.000000)">
                    <polygon id="形状" fill="#0CD5A7" points="12 5 12 7 10.39 7 8.406 10.436 5.594 5.564 4.765 7 2 7 2 5 3.61 5 5.594 1.564 8.406 6.436 9.235 5"></polygon>
                    <path d="M14,0 L0,0 L0,11 L14,11 L14,0 Z M12,2 L12,9 L2,9 L2,2 L12,2 Z" id="路径" fill="#2C7BE5"></path>
                    <polygon id="路径" fill="#2C7BE5" points="0 13 14 13 14 15 0 15"></polygon>
                </g>
            </g>
        </g>
    </g>
</svg>