<?xml version="1.0" encoding="UTF-8"?>
<svg width="16px" height="16px" viewBox="0 0 16 16" version="1.1" xmlns="http://www.w3.org/2000/svg" xmlns:xlink="http://www.w3.org/1999/xlink">
    <title>Li-1备份 11</title>
    <g id="页面-1" stroke="none" stroke-width="1" fill="none" fill-rule="evenodd">
        <g id="导航icon" transform="translate(-589.000000, -340.000000)" fill-rule="nonzero">
            <g id="摄像_monitor-(3)" transform="translate(589.000000, 340.000000)">
                <rect id="矩形" fill-opacity="0.31" fill="#FFFFFF" opacity="0" x="0" y="0" width="16" height="16"></rect>
                <path d="M16,0 L0,0 L0,16 L16,16 L16,0 Z M14,2 L14,14 L2,14 L2,2 L14,2 Z" id="矩形" fill="#2C7BE5"></path>
                <path d="M8,4 C5.790861,4 4,5.790861 4,8 C4,10.209139 5.790861,12 8,12 C10.209139,12 12,10.209139 12,8 C12,5.790861 10.209139,4 8,4 Z M8,6 C9.1045695,6 10,6.8954305 10,8 C10,9.1045695 9.1045695,10 8,10 C6.8954305,10 6,9.1045695 6,8 C6,6.8954305 6.8954305,6 8,6 Z" id="椭圆形" fill="#0CD5A7"></path>
                <path d="M12,3 C12.5522847,3 13,3.44771525 13,4 C13,4.55228475 12.5522847,5 12,5 C11.4477153,5 11,4.55228475 11,4 C11,3.44771525 11.4477153,3 12,3 Z" id="椭圆形" fill="#0CD5A7"></path>
            </g>
        </g>
    </g>
</svg>