<?xml version="1.0" encoding="UTF-8"?>
<svg width="16px" height="16px" viewBox="0 0 16 16" version="1.1" xmlns="http://www.w3.org/2000/svg" xmlns:xlink="http://www.w3.org/1999/xlink">
    <title>Li-1备份 6</title>
    <g id="页面-1" stroke="none" stroke-width="1" fill="none" fill-rule="evenodd">
        <g id="导航icon" transform="translate(-618.000000, -369.000000)">
            <g id="摄像_monitor-(3)" transform="translate(618.000000, 369.000000)">
                <rect id="矩形" fill-opacity="0.31" fill="#FFFFFF" fill-rule="nonzero" opacity="0" x="0" y="0" width="16" height="16"></rect>
                <g id="编组-13" transform="translate(1.000000, 0.278571)">
                    <path d="M9.16,0.27 L12.25,1.0547619 L12.6,2.38809524 L14,3.0547619 L14,8.72142857 C13.9537356,10.7077171 12.7446634,12.6401353 10.9599805,13.6601274 L10.85,13.7214286 L7,15.7214286 L3.15,13.7214286 C1.30517084,12.7189871 0.0472085299,10.7482536 0,8.72142857 L0,3.0547619 L1.4,2.38809524 L1.75,1.0547619 L4.84,0.27 C6.2575,-0.09 7.7425,-0.09 9.16,0.27 Z M8.66769231,2.20846154 C7.68271154,1.95830769 6.65551731,1.93329231 5.66209385,2.13341538 L5.33230769,2.20846154 L3.384,2.703 L3.09859804,3.79442062 L2,4.317 L1.99945771,8.67485748 C2.02789413,9.89573128 2.784054,11.1534091 3.88530767,11.8379406 L4.07197966,11.9466177 L7,13.467 L9.87627714,11.9744701 L9.96757551,11.9237138 C11.098449,11.2773905 11.8803898,10.0786187 11.9880642,8.9245097 L12,8.72142857 L12,4.317 L10.901402,3.79442062 L10.615,2.703 L8.66769231,2.20846154 Z" id="形状结合" fill="#2C7BE5" fill-rule="nonzero"></path>
                    <polygon id="星形" fill="#0CD5A7" points="7 9.15200079 5.20328403 10.1414438 5.54642625 8.04576992 4.09285249 6.56160546 6.10164202 6.25585077 7 4.34914372 7.89835798 6.25585077 9.90714751 6.56160546 8.45357375 8.04576992 8.79671597 10.1414438"></polygon>
                </g>
            </g>
        </g>
    </g>
</svg>