<?xml version="1.0" encoding="UTF-8"?>
<svg width="20px" height="20px" viewBox="0 0 20 20" version="1.1" xmlns="http://www.w3.org/2000/svg" xmlns:xlink="http://www.w3.org/1999/xlink">
    <title>地图-未选中</title>
    <defs>
        <rect id="path-1" x="0" y="0" width="20" height="20"></rect>
    </defs>
    <g id="0716" stroke="none" stroke-width="1" fill="none" fill-rule="evenodd">
        <g id="地图-未选中">
            <mask id="mask-2" fill="white">
                <use xlink:href="#path-1"></use>
            </mask>
            <use id="蒙版" fill="#D8D8D8" opacity="0" xlink:href="#path-1"></use>
            <g id="地图_map-draw" mask="url(#mask-2)">
                <g transform="translate(2.500000, 2.500000)">
                    <polygon id="路径" fill-opacity="0.01" fill="#FFFFFF" fill-rule="nonzero" points="14.1666667 0.833333333 0.833333333 0.833333333 0.833333333 14.1666667 14.1666667 14.1666667"></polygon>
                    <g id="地图2-(1)" stroke-width="1" fill="none" fill-rule="evenodd">
                        <path d="M15.3684896,1.84049479 C15.0068359,1.6077474 14.5592448,1.57552083 14.1671549,1.75455729 L13.141276,2.36865234 C13.2415365,2.76611328 13.2952474,3.18147786 13.2952474,3.609375 C13.2952474,5.79899089 10.1782227,9.04313151 8.84440104,10.3733724 C8.51676432,10.7010091 7.98502604,10.7010091 7.65738932,10.3733724 C6.32356771,9.04313151 3.20654297,5.80078125 3.20654297,3.609375 C3.20654297,3.35514323 3.22623698,3.10449219 3.26204427,2.8610026 C2.93977865,2.97558594 2.69628906,3.0633138 2.62288411,3.08837891 L0.868326823,3.73291016 L0.862955729,3.73470052 C0.345540365,3.89941406 0,4.37027995 0,4.90559896 L0,12.6578776 C0,13.0714518 0.207682292,13.4563802 0.556803385,13.6855469 C0.913085938,13.9182943 1.35888672,13.9558919 1.74739583,13.7858073 C1.79215495,13.7661133 1.8297526,13.7464193 1.85302734,13.7320964 L5.54475911,12.0563151 L9.65901693,13.9576823 L9.66438802,13.961263 C9.69124349,13.9791667 9.71630859,13.9970703 9.7413737,14.0113932 C9.93473307,14.1259766 10.1567383,14.1850586 10.3787435,14.1850586 C10.4915365,14.1850586 10.6043294,14.1689453 10.7135417,14.1385091 L10.7189128,14.1367187 L15.0283203,11.1486003 C15.5600586,10.9982096 15.9307089,10.5112305 15.9307089,9.96516927 L15.9307089,2.87353516 C15.9342448,2.45458984 15.7229818,2.06787109 15.3684896,1.84049479 Z" id="形状结合" fill="#61677F" fill-rule="nonzero"></path>
                        <path d="M8.25179036,0 C6.22867839,0 4.59049479,1.63997396 4.59049479,3.66129557 C4.59049479,5.25113932 6.85351562,7.60546875 7.82210286,8.57047526 C8.06022135,8.80859375 8.44514974,8.80859375 8.68326823,8.57047526 C9.65185547,7.60546875 11.9148763,5.25113932 11.9148763,3.66129557 C11.9130859,1.63997396 10.273112,0 8.25179036,0 Z M8.25179036,4.66389974 C7.59830729,4.66389974 7.06835937,4.13395182 7.06835937,3.48225911 C7.06835937,2.82877604 7.59830729,2.29882812 8.25179036,2.29882812 C8.90527344,2.29882812 9.43522135,2.82877604 9.43522135,3.48225911 C9.43343099,4.13395182 8.90527344,4.66389974 8.25179036,4.66389974 Z M5.73811849,3.66295573 L5.8992513,3.66295573 M10.5380859,1.50019531 L10.6992187,1.50019531" id="形状" fill="#A2A9C4" fill-rule="nonzero"></path>
                    </g>
                </g>
            </g>
        </g>
    </g>
</svg>