<?xml version="1.0" standalone="no"?><!DOCTYPE svg PUBLIC "-//W3C//DTD SVG 1.1//EN" "http://www.w3.org/Graphics/SVG/1.1/DTD/svg11.dtd"><svg t="1575009730804" class="icon" viewBox="0 0 1024 1024" version="1.1" xmlns="http://www.w3.org/2000/svg" p-id="2875" xmlns:xlink="http://www.w3.org/1999/xlink" width="200" height="200"><defs><style type="text/css"></style></defs><path d="M70.129 271.319c7.465 0 13.542 6.072 13.542 13.542s-6.072 13.543-13.542 13.543-13.543-6.072-13.543-13.543 6.078-13.542 13.543-13.542m0-36.111c-27.423 0-49.649 22.23-49.649 49.648s22.226 49.649 49.649 49.649 49.648-22.231 49.648-49.649-22.226-49.648-49.648-49.648z m890.741 85.76a13.558 13.558 0 0 1 13.543 13.542 13.558 13.558 0 0 1-13.543 13.542 13.558 13.558 0 0 1-13.542-13.542 13.553 13.553 0 0 1 13.542-13.542m0-36.112c-27.422 0-49.648 22.231-49.648 49.649s22.226 49.649 49.648 49.649c27.423 0 49.649-22.231 49.649-49.649s-22.231-49.649-49.649-49.649zM215.465 158.48h-12.524v-12.523a10.184 10.184 0 0 0-10.153-10.153 10.184 10.184 0 0 0-10.152 10.153v12.523h-12.524a10.184 10.184 0 0 0-10.153 10.153c0 5.586 4.572 10.153 10.153 10.153h12.524v12.524c0 5.586 4.572 10.153 10.152 10.153a10.184 10.184 0 0 0 10.153-10.153V178.79h12.524a10.184 10.184 0 0 0 10.153-10.153 10.189 10.189 0 0 0-10.153-10.158z m-58.977 332.196h-12.524v-12.523c0-5.586-4.572-10.153-10.153-10.153s-10.153 4.572-10.153 10.153v12.523h-12.523c-5.586 0-10.153 4.572-10.153 10.153s4.572 10.153 10.153 10.153h12.523v12.524c0 5.586 4.572 10.153 10.153 10.153s10.153-4.573 10.153-10.153V510.98h12.524c5.586 0 10.153-4.572 10.153-10.153s-4.567-10.153-10.153-10.153z" fill="#bfbfbf" p-id="2876"></path><path d="M786.872 173.148H368.02c-27.801 0-50.55 22.748-50.55 50.55v31.667h-36.106c-27.801 0-50.55 22.748-50.55 50.55v534.4c0 27.801 22.749 50.55 50.55 50.55h418.852c27.802 0 50.55-22.749 50.55-50.55v-31.667h36.106c27.802 0 50.55-22.748 50.55-50.55v-534.4c0-27.802-22.748-50.55-50.55-50.55z m-51.271 620.34v46.832c0 19.512-15.872 35.384-35.385 35.384H281.36a35.42 35.42 0 0 1-35.384-35.384v-534.4c0-19.512 15.872-35.384 35.384-35.384h418.852a35.43 35.43 0 0 1 35.385 35.384v487.567z m86.66-35.39c0 19.512-15.871 35.384-35.384 35.384h-36.106V305.92c0-27.802-22.748-50.55-50.55-50.55H332.636v-31.667c0-19.512 15.872-35.384 35.384-35.384h418.852c19.513 0 35.385 15.872 35.385 35.384v534.395z" fill="#bfbfbf" p-id="2877"></path><path d="M531.41 384.154H349.967a11.766 11.766 0 0 1-11.735-11.735 11.766 11.766 0 0 1 11.735-11.735H531.41a11.766 11.766 0 0 1 11.735 11.735 11.77 11.77 0 0 1-11.735 11.735z m62.346 67.701H349.967a11.766 11.766 0 0 1-11.735-11.735 11.766 11.766 0 0 1 11.735-11.735h243.794a11.766 11.766 0 0 1 11.735 11.735 11.776 11.776 0 0 1-11.74 11.735zM474.21 519.562H349.967a11.766 11.766 0 0 1-11.735-11.735 11.766 11.766 0 0 1 11.735-11.735H474.21a11.766 11.766 0 0 1 11.735 11.735 11.776 11.776 0 0 1-11.735 11.735zM187.843 890.87h120.145c4.173 0 7.583-3.41 7.583-7.583s-3.41-7.583-7.583-7.583H187.843c-4.173 0-7.583 3.41-7.583 7.583s3.41 7.583 7.583 7.583z m-154.665 0h110.55c4.173 0 7.583-3.41 7.583-7.583s-3.41-7.583-7.582-7.583H33.178c-4.173 0-7.583 3.41-7.583 7.583s3.415 7.583 7.583 7.583z m899.998-82.217H764.063a7.603 7.603 0 0 1-7.583-7.583c0-4.173 3.41-7.583 7.583-7.583h169.113c4.173 0 7.583 3.41 7.583 7.583 0 4.168-3.41 7.583-7.583 7.583zM416.16 692.373c-0.855 0-1.72 0.143-2.56 0.445a6.943 6.943 0 0 0-4.28 8.709 80.952 80.952 0 0 0 6.2 13.87 7.27 7.27 0 0 0 8.591 3.318 7.255 7.255 0 0 0 4.04-10.501 66.268 66.268 0 0 1-4.956-10.937 7.409 7.409 0 0 0-7.035-4.905z" fill="#bfbfbf" p-id="2878"></path><path d="M611.405 787.343l-55.501-55.5-5.955-5.95a80.983 80.983 0 0 0 17.403-55.608c-1.848-29.778-20.203-55.424-45.88-67.922a79.887 79.887 0 0 0-30.019-7.977c-47.216-2.929-86.425 34.498-86.425 81.08 0 0.738 0.01 1.475 0.03 2.212a7.26 7.26 0 0 0 7.24 7.076c4.076 0 7.347-3.364 7.204-7.434a55.37 55.37 0 0 1-0.036-1.849c0-35.02 27.1-63.815 61.43-66.56a67.994 67.994 0 0 1 13.01 0.19c30.597 3.415 55.322 28.14 58.737 58.736a66.586 66.586 0 0 1-14.09 49.142 67.604 67.604 0 0 1-9.631 9.846 66.493 66.493 0 0 1-41.324 15.39c-0.445 0.01-0.886 0.062-1.336 0.062-17.306 0-33.05-6.65-44.918-17.49a7.306 7.306 0 0 0-10.127 0.128c-2.898 2.898-2.888 7.67 0.133 10.44a80.937 80.937 0 0 0 54.912 21.366c15.6 0 30.126-4.465 42.5-12.094a81.756 81.756 0 0 0 9.17-6.482l2.673 2.673 58.665 58.665a8.602 8.602 0 0 0 12.13 0 8.602 8.602 0 0 0 0.005-12.14z" fill="#bfbfbf" p-id="2879"></path><path d="M538.557 716.974a66.59 66.59 0 0 0 14.09-49.142c-3.414-30.597-28.144-55.321-58.736-58.736a68.403 68.403 0 0 0-13.01-0.19c-24.3 11.694-41.119 36.47-41.119 65.244 0 31.35 19.953 57.974 47.826 68.06a66.478 66.478 0 0 0 41.324-15.39 67.052 67.052 0 0 0 9.625-9.846z m248.315-528.66H368.02a35.42 35.42 0 0 0-35.384 35.384v31.667h367.58c27.802 0 50.55 22.748 50.55 50.55v487.562h36.106a35.43 35.43 0 0 0 35.385-35.384V223.698c0.005-19.507-15.872-35.384-35.385-35.384z" fill="#bfbfbf" p-id="2880"></path></svg>