<?xml version="1.0" encoding="UTF-8"?>
<svg width="16px" height="16px" viewBox="0 0 16 16" version="1.1" xmlns="http://www.w3.org/2000/svg" xmlns:xlink="http://www.w3.org/1999/xlink">
    <title>编辑</title>
    <g id="页面-1" stroke="none" stroke-width="1" fill="none" fill-rule="evenodd">
        <g id="切图" transform="translate(-183.000000, -886.000000)" fill-rule="nonzero">
            <g id="编辑" transform="translate(183.000000, 886.000000)">
                <g id="Icon-BG">
                    <polygon points="0 0 16 0 16 16 0 16"></polygon>
                </g>
                <g id="写作_write-(2)" transform="translate(1.000000, 1.000000)">
                    <rect id="矩形" fill-opacity="0.01" fill="#FFFFFF" x="0" y="0" width="14" height="14"></rect>
                    <path d="M13.9274131,3.61296153 L10.6275742,0.31313826 L0.969707083,9.97099609 L0.969707083,13.2708333 L4.26954124,13.2708333 L13.9274131,3.61296153 Z M10.627,1.963 L12.277,3.612 L3.786,12.104 L2.136,12.104 L2.136,10.454 L10.627,1.963 Z" id="路径" fill="#2C7BE5"></path>
                    <path d="M7.74021688,3.20048354 C7.94271095,2.99798947 8.25703942,2.97549013 8.48438559,3.13298552 L8.56517479,3.20048354 L11.040054,5.67536271 C11.2678598,5.90316855 11.2678598,6.27251479 11.040054,6.50032062 C10.8375599,6.7028147 10.5232314,6.72531404 10.2958852,6.56781865 L10.215096,6.50032062 L7.74021688,4.02544146 C7.51241104,3.79763562 7.51241104,3.42828938 7.74021688,3.20048354 Z" id="路径" fill="#2C7BE5"></path>
                </g>
            </g>
        </g>
    </g>
</svg>