<?xml version="1.0" encoding="UTF-8"?>
<svg width="16px" height="16px" viewBox="0 0 16 16" version="1.1" xmlns="http://www.w3.org/2000/svg" xmlns:xlink="http://www.w3.org/1999/xlink">
    <title>删除</title>
    <g id="页面-1" stroke="none" stroke-width="1" fill="none" fill-rule="evenodd">
        <g id="切图" transform="translate(-207.000000, -886.000000)" fill-rule="nonzero">
            <g id="删除" transform="translate(207.000000, 886.000000)">
                <g id="Icon-BG">
                    <polygon points="0 0 16 0 16 16 0 16"></polygon>
                </g>
                <g id="删除_delete-(2)" transform="translate(1.516667, 1.516667)" fill="#2C7BE5">
                    <path d="M10.8583333,1.75 L2.10833333,1.75 C1.74934825,1.75 1.45833333,2.04101491 1.45833333,2.4 L1.45833333,12.3166667 C1.45833333,12.6756518 1.74934825,12.9666667 2.10833333,12.9666667 L10.8583333,12.9666667 C11.2173184,12.9666667 11.5083333,12.6756518 11.5083333,12.3166667 L11.5083333,2.4 C11.5083333,2.04101491 11.2173184,1.75 10.8583333,1.75 Z M10.208,3.05 L10.208,11.666 L2.758,11.666 L2.758,3.05 L10.208,3.05 Z" id="路径"></path>
                    <path d="M5.31666667,4.66666667 C5.64301675,4.66666667 5.91319313,4.90717486 5.959619,5.22061443 L5.96666667,5.31666667 L5.96666667,9.10833333 C5.96666667,9.46731842 5.67565175,9.75833333 5.31666667,9.75833333 C4.99031659,9.75833333 4.72014021,9.51782514 4.67371434,9.20438557 L4.66666667,9.10833333 L4.66666667,5.31666667 C4.66666667,4.95768158 4.95768158,4.66666667 5.31666667,4.66666667 Z" id="路径"></path>
                    <path d="M7.65,4.66666667 C7.97635008,4.66666667 8.24652646,4.90717486 8.29295233,5.22061443 L8.3,5.31666667 L8.3,9.10833333 C8.3,9.46731842 8.00898509,9.75833333 7.65,9.75833333 C7.32364992,9.75833333 7.05347354,9.51782514 7.00704767,9.20438557 L7,9.10833333 L7,5.31666667 C7,4.95768158 7.29101491,4.66666667 7.65,4.66666667 Z" id="路径"></path>
                    <path d="M12.3166667,1.75 C12.6756518,1.75 12.9666667,2.04101491 12.9666667,2.4 C12.9666667,2.72635008 12.7261585,2.99652646 12.4127189,3.04295233 L12.3166667,3.05 L0.65,3.05 C0.291014913,3.05 0,2.75898509 0,2.4 C0,2.07364992 0.240508192,1.80347354 0.553947764,1.75704767 L0.65,1.75 L12.3166667,1.75 Z" id="路径"></path>
                    <path d="M7.87665417,0 L5.10929167,0 C4.8719143,0 4.65341414,0.129400636 4.53931064,0.3375554 L3.58001897,2.0875554 C3.34256704,2.5207301 3.65601241,3.05 4.15,3.05 L8.81666667,3.05 C9.30821421,3.05 9.62188828,2.52544774 9.38928608,2.09241748 L8.44927358,0.342417481 C8.33600712,0.131551878 8.11601497,0 7.87665417,0 Z M7.488,1.3 L7.73,1.75 L5.247,1.75 L5.494,1.3 L7.488,1.3 Z" id="路径"></path>
                </g>
            </g>
        </g>
    </g>
</svg>