<?xml version="1.0" encoding="UTF-8"?>
<svg width="16px" height="16px" viewBox="0 0 16 16" version="1.1" xmlns="http://www.w3.org/2000/svg" xmlns:xlink="http://www.w3.org/1999/xlink">
    <title>下载</title>
    <g id="页面-1" stroke="none" stroke-width="1" fill="none" fill-rule="evenodd">
        <g id="切图" transform="translate(-283.000000, -914.000000)" fill="#FFFFFF" fill-rule="nonzero">
            <g id="下载" transform="translate(283.000000, 914.000000)">
                <rect id="矩形" fill-opacity="0.01" x="0" y="0" width="16" height="16"></rect>
                <path d="M14,7.33333333 C14.334718,7.33333333 14.611822,7.5800084 14.6594383,7.90148489 L14.6666667,8 L14.6666667,14 C14.6666667,14.334718 14.4199916,14.611822 14.0985151,14.6594383 L14,14.6666667 L2,14.6666667 C1.66528197,14.6666667 1.38817799,14.4199916 1.34056171,14.0985151 L1.33333333,14 L1.33333333,8.00276667 C1.33333333,7.63457683 1.63181017,7.3361 2,7.3361 C2.33471803,7.3361 2.61182201,7.58277507 2.65943829,7.90425155 L2.66666667,8.00276667 L2.666,13.333 L13.333,13.333 L13.3333333,8 C13.3333333,7.66528197 13.5800084,7.38817799 13.9014849,7.34056171 L14,7.33333333 Z" id="路径"></path>
                <path d="M10.5285955,7.19526215 C10.788945,6.93491262 11.211055,6.93491262 11.4714045,7.19526215 C11.7057191,7.42957672 11.7291506,7.79491727 11.5416989,8.05543704 L11.4714045,8.13807119 L8.47140452,11.1380712 C8.23708995,11.3723858 7.8717494,11.3958172 7.61122963,11.2083656 L7.52859548,11.1380712 L4.52859548,8.13807119 C4.26824595,7.87772166 4.26824595,7.45561167 4.52859548,7.19526215 C4.76291005,6.96094757 5.1282506,6.93751611 5.38877037,7.12496777 L5.47140452,7.19526215 L8,9.724 L10.5285955,7.19526215 Z" id="路径"></path>
                <path d="M7.99723333,1.33333333 C8.33195136,1.33333333 8.60905534,1.5800084 8.65667162,1.90148489 L8.6639,2 L8.6639,10.6666667 C8.6639,11.0348565 8.36542317,11.3333333 7.99723333,11.3333333 C7.6625153,11.3333333 7.38541132,11.0866583 7.33779505,10.7651818 L7.33056667,10.6666667 L7.33056667,2 C7.33056667,1.63181017 7.6290435,1.33333333 7.99723333,1.33333333 Z" id="路径"></path>
            </g>
        </g>
    </g>
</svg>