<?xml version="1.0" encoding="UTF-8"?>
<svg width="16px" height="16px" viewBox="0 0 16 16" version="1.1" xmlns="http://www.w3.org/2000/svg" xmlns:xlink="http://www.w3.org/1999/xlink">
    <title>加密文件_file-lock (1)</title>
    <defs>
        <rect id="path-1" x="0" y="0" width="16" height="16"></rect>
    </defs>
    <g id="页面-1" stroke="none" stroke-width="1" fill="none" fill-rule="evenodd">
        <g id="切图" transform="translate(-159.000000, -886.000000)">
            <g id="加密文件_file-lock-(1)" transform="translate(159.000000, 886.000000)">
                <mask id="mask-2" fill="white">
                    <use xlink:href="#path-1"></use>
                </mask>
                <use id="蒙版" fill="#D8D8D8" opacity="0" xlink:href="#path-1"></use>
                <g id="钥匙_key-(1)" mask="url(#mask-2)" fill-rule="nonzero">
                    <rect id="矩形" fill-opacity="0.01" fill="#FFFFFF" x="0" y="0" width="16" height="16"></rect>
                    <rect id="矩形" fill-opacity="0.01" fill="#FFFFFF" x="0" y="0" width="16" height="16"></rect>
                    <path d="M2.50150455,7.66748636 C0.963054035,9.19785383 0.941424486,11.6737569 2.45294429,13.2305341 C3.46202397,14.2478943 4.93356151,14.6471399 6.31442346,14.2823929 C7.69607391,13.9173977 8.77582929,12.8433283 9.14314698,11.4672695 C9.49143616,10.1626764 9.14848008,8.77719474 8.24054022,7.7814544 L8.08400723,7.61918709 C6.52104579,6.11758183 4.03804129,6.13903853 2.50150455,7.66748636 Z M7.16025944,8.58067958 C7.83182112,9.2389309 8.09851245,10.2109672 7.85492561,11.1233749 C7.61118311,12.0364919 6.89357276,12.7503233 5.97389242,12.9932784 C5.0535093,13.2363924 4.07277904,12.9703087 3.40456437,12.2966464 C2.40662837,11.2687759 2.42095979,9.62827901 3.44182458,8.61277786 C4.46461188,7.5953749 6.11980715,7.58107165 7.16025944,8.58067958 Z" id="路径" fill="#2C7BE5"></path>
                    <path d="M12.8619288,1.86192881 C13.1222783,1.60157928 13.5443883,1.60157928 13.8047379,1.86192881 C14.0390524,2.09624339 14.0624839,2.46158393 13.8750322,2.7221037 L13.8047379,2.80473785 L8.13807119,8.47140452 C7.87772166,8.73175405 7.45561167,8.73175405 7.19526215,8.47140452 C6.96094757,8.23708995 6.93751611,7.8717494 7.12496777,7.61122963 L7.19526215,7.52859548 L12.8619288,1.86192881 Z" id="路径" fill="#2C7BE5"></path>
                    <path d="M14.9677436,5.33333458 L12.2128975,2.59300209 L9.15649784,5.63333147 L11.9112944,8.37366519 L14.9677436,5.33333458 Z M12.212,4.473 L13.077,5.333 L11.911,6.493 L11.046,5.633 L12.212,4.473 Z" id="路径" fill="#2C7BE5"></path>
                </g>
            </g>
        </g>
    </g>
</svg>