<?xml version="1.0" encoding="UTF-8"?>
<svg width="16px" height="16px" viewBox="0 0 16 16" version="1.1" xmlns="http://www.w3.org/2000/svg" xmlns:xlink="http://www.w3.org/1999/xlink">
    <title>预览-打开_preview-open (1)</title>
    <g id="页面-1" stroke="none" stroke-width="1" fill="none" fill-rule="evenodd">
        <g id="切图" transform="translate(-256.000000, -886.000000)" fill-rule="nonzero">
            <g id="预览-打开_preview-open-(1)" transform="translate(256.000000, 886.000000)">
                <rect id="矩形" fill-opacity="0.01" fill="#FFFFFF" x="0" y="0" width="16" height="16"></rect>
                <path d="M8,3.33333333 C6.20715971,3.33333333 4.47711359,4.1467438 2.86051124,5.48673325 C2.30593894,5.94641402 1.80384323,6.43754083 1.36160584,6.92913191 L1.15147523,7.16779999 L0.909642161,7.4585805 L0.799024874,7.60130348 L0.501520854,8 L0.849176117,8.46458401 L1.0609371,8.72576889 L1.2517466,8.94741354 C1.28677645,8.98722163 1.32340427,9.02840322 1.36160584,9.07086809 C1.80384323,9.56245917 2.30593894,10.053586 2.86051124,10.5132668 C4.47711359,11.8532562 6.20715971,12.6666667 8,12.6666667 C9.79284029,12.6666667 11.5228864,11.8532562 13.1394888,10.5132668 C13.6940611,10.053586 14.1961568,9.56245917 14.6383942,9.07086809 L14.8485248,8.83220001 L15.0903578,8.5414195 L15.2009751,8.39869652 L15.4984791,8 L15.1508239,7.53541599 L14.9390629,7.27423111 L14.7482534,7.05258646 C14.7132236,7.01277837 14.6765957,6.97159678 14.6383942,6.92913191 C14.1961568,6.43754083 13.6940611,5.94641402 13.1394888,5.48673325 C11.5228864,4.1467438 9.79284029,3.33333333 8,3.33333333 Z M8,4.66666667 C9.42882221,4.66666667 10.8891323,5.3532562 12.2886029,6.51326675 C12.7896561,6.92858598 13.2459987,7.37495917 13.6471402,7.82086809 L13.805,7.999 L13.6471402,8.17913191 C13.2459987,8.62504083 12.7896561,9.07141402 12.2886029,9.48673325 C10.8891323,10.6467438 9.42882221,11.3333333 8,11.3333333 C6.57117779,11.3333333 5.11086766,10.6467438 3.71139709,9.48673325 C3.21034387,9.07141402 2.7540013,8.62504083 2.35285978,8.17913191 L2.194,7.999 L2.35285978,7.82086809 C2.7540013,7.37495917 3.21034387,6.92858598 3.71139709,6.51326675 C5.11086766,5.3532562 6.57117779,4.66666667 8,4.66666667 Z" id="路径" fill="#2C7BE5"></path>
                <path d="M8,5.66666667 C6.7113435,5.66666667 5.66666667,6.7113435 5.66666667,8 C5.66666667,9.2886565 6.7113435,10.3333333 8,10.3333333 C9.2886565,10.3333333 10.3333333,9.2886565 10.3333333,8 C10.3333333,6.7113435 9.2886565,5.66666667 8,5.66666667 Z M8,7 C8.55227683,7 9,7.44772317 9,8 C9,8.55227683 8.55227683,9 8,9 C7.44772317,9 7,8.55227683 7,8 C7,7.44772317 7.44772317,7 8,7 Z" id="路径" fill="#2C7BE5"></path>
            </g>
        </g>
    </g>
</svg>