<?xml version="1.0" encoding="UTF-8"?>
<svg width="16px" height="16px" viewBox="0 0 16 16" version="1.1" xmlns="http://www.w3.org/2000/svg" xmlns:xlink="http://www.w3.org/1999/xlink">
    <title>申请</title>
    <g id="页面-1" stroke="none" stroke-width="1" fill="none" fill-rule="evenodd">
        <g id="切图" transform="translate(-159.000000, -914.000000)">
            <g id="Icon-NewlyAdded" transform="translate(159.000000, 914.000000)">
                <g id="Icon-BG" fill-rule="nonzero">
                    <polygon points="0 0 16 0 16 16 0 16"></polygon>
                </g>
                <g id="Icon-Body" transform="translate(3.000000, 2.000000)" fill="#FFFFFF">
                    <path d="M8,10 L8,11.3333333 C8,11.7015232 7.70152317,12 7.33333333,12 C6.9651435,12 6.66666667,11.7015232 6.66666667,11.3333333 L6.66666667,10 L5.33333333,10 C4.9651435,10 4.66666667,9.70152317 4.66666667,9.33333333 C4.66666667,8.9651435 4.9651435,8.66666667 5.33333333,8.66666667 L6.66666667,8.66666667 L6.66666667,7.33333333 C6.66666667,6.9651435 6.9651435,6.66666667 7.33333333,6.66666667 C7.70152317,6.66666667 8,6.9651435 8,7.33333333 L8,8.66666667 L9.33333333,8.66666667 C9.70152317,8.66666667 10,8.9651435 10,9.33333333 C10,9.70152317 9.70152317,10 9.33333333,10 L8,10 Z M2.66666667,12 L0.666666667,12 C0.298476833,12 0,11.7015232 0,11.3333333 L0,0.666666667 C0,0.298476833 0.298476833,0 0.666666667,0 L8.66666667,0 C9.0348565,0 9.33333333,0.298476833 9.33333333,0.666666667 L9.33333333,4.66666667 C9.33333333,5.0348565 9.0348565,5.33333333 8.66666667,5.33333333 C8.29847683,5.33333333 8,5.0348565 8,4.66666667 L8,1.33333333 L1.33333333,1.33333333 L1.33333333,10.6666667 L2.66666667,10.6666667 C3.0348565,10.6666667 3.33333333,10.9651435 3.33333333,11.3333333 C3.33333333,11.7015232 3.0348565,12 2.66666667,12 Z" id="Icon-NewlyAdded"></path>
                </g>
            </g>
        </g>
    </g>
</svg>