<?xml version="1.0" encoding="UTF-8"?>
<svg width="16px" height="16px" viewBox="0 0 16 16" version="1.1" xmlns="http://www.w3.org/2000/svg" xmlns:xlink="http://www.w3.org/1999/xlink">
    <title>Icon-Edit</title>
    <g id="页面-1" stroke="none" stroke-width="1" fill="none" fill-rule="evenodd">
        <g id="切图" transform="translate(-231.000000, -886.000000)" fill-rule="nonzero">
            <g id="Icon-Edit" transform="translate(231.000000, 886.000000)">
                <g id="Icon-BG">
                    <polygon points="0 0 16 0 16 16 0 16"></polygon>
                </g>
                <g id="链接_link-three" transform="translate(1.172412, 1.172412)" fill="#2C7BE5">
                    <path d="M10.980219,0.919377741 L8.05425449,0.919377741 C7.40786825,0.919377741 6.88386867,1.44337732 6.88386867,2.08976356 L6.88386867,6.18611391 C6.88386867,6.83250015 7.40786825,7.35649973 8.05425449,7.35649973 L10.980219,7.35649973 C11.6266053,7.35649973 12.1506048,6.83250015 12.1506048,6.18611391 L12.1506048,2.08976356 C12.1506048,1.44337732 11.6266053,0.919377741 10.980219,0.919377741 Z M8.05425449,2.08976356 L10.980219,2.08976356 L10.980219,6.18611391 L8.05425449,6.18611391 L8.05425449,2.08976356 Z" id="矩形" transform="translate(9.517237, 4.137939) rotate(45.000000) translate(-9.517237, -4.137939) "></path>
                    <path d="M5.600921,6.29870503 L2.67495646,6.29870503 C2.02857023,6.29870503 1.50457065,6.8227046 1.50457065,7.46909084 L1.50457065,11.5654412 C1.50457065,12.2118274 2.02857023,12.735827 2.67495646,12.735827 L5.600921,12.735827 C6.24730724,12.735827 6.77130682,12.2118274 6.77130682,11.5654412 L6.77130682,7.46909084 C6.77130682,6.8227046 6.24730724,6.29870503 5.600921,6.29870503 Z M2.67495646,7.46909084 L5.600921,7.46909084 L5.600921,11.5654412 L2.67495646,11.5654412 L2.67495646,7.46909084 Z" id="矩形" transform="translate(4.137939, 9.517266) rotate(45.000000) translate(-4.137939, -9.517266) "></path>
                    <path d="M8.482881,4.34484494 C8.71141414,4.11631398 9.08193779,4.11631574 9.31046875,4.34484887 C9.51360738,4.54798944 9.53617695,4.86332004 9.3781784,5.0913902 L9.31046481,5.17243662 L5.17250724,9.31035484 C4.94397411,9.5388858 4.57345046,9.53888404 4.3449195,9.31035091 C4.14178087,9.10721034 4.1192113,8.79187974 4.27720985,8.56380958 L4.34492343,8.48276316 L8.482881,4.34484494 Z" id="路径"></path>
                </g>
            </g>
        </g>
    </g>
</svg>