<?xml version="1.0" encoding="UTF-8"?>
<svg width="16px" height="16px" viewBox="0 0 16 16" version="1.1" xmlns="http://www.w3.org/2000/svg" xmlns:xlink="http://www.w3.org/1999/xlink">
    <title>配置下发</title>
    <g id="页面-1" stroke="none" stroke-width="1" fill="none" fill-rule="evenodd">
        <g id="切图" transform="translate(-190.000000, -914.000000)" fill="#FFFFFF" fill-rule="nonzero">
            <g id="Figma-选择箭头_figma-flatten-selection-(1)" transform="translate(190.000000, 914.000000)">
                <rect id="矩形" fill-opacity="0.01" x="0" y="0" width="16" height="16"></rect>
                <path d="M10.1952621,5.52859548 C10.4556117,5.26824595 10.8777217,5.26824595 11.1380712,5.52859548 C11.3723858,5.76291005 11.3958172,6.1282506 11.2083656,6.38877037 L11.1380712,6.47140452 L8.47140452,9.13807119 C8.23708995,9.37238576 7.8717494,9.39581722 7.61122963,9.20836556 L7.52859548,9.13807119 L4.86192881,6.47140452 C4.60157928,6.21105499 4.60157928,5.78894501 4.86192881,5.52859548 C5.09624339,5.2942809 5.46158393,5.27084945 5.7221037,5.45830111 L5.80473785,5.52859548 L8,7.724 L10.1952621,5.52859548 Z" id="路径"></path>
                <path d="M12,13.3333333 C12.3681898,13.3333333 12.6666667,13.6318102 12.6666667,14 C12.6666667,14.334718 12.4199916,14.611822 12.0985151,14.6594383 L12,14.6666667 L4,14.6666667 C3.63181017,14.6666667 3.33333333,14.3681898 3.33333333,14 C3.33333333,13.665282 3.5800084,13.388178 3.90148489,13.3405617 L4,13.3333333 L12,13.3333333 Z" id="路径"></path>
                <path d="M14,10.6666667 C14.3681898,10.6666667 14.6666667,10.9651435 14.6666667,11.3333333 C14.6666667,11.6680514 14.4199916,11.9451553 14.0985151,11.9927716 L14,12 L2,12 C1.63181017,12 1.33333333,11.7015232 1.33333333,11.3333333 C1.33333333,10.9986153 1.5800084,10.7215113 1.90148489,10.673895 L2,10.6666667 L14,10.6666667 Z" id="路径"></path>
                <path d="M8,1.33333333 C8.33471803,1.33333333 8.61182201,1.5800084 8.65943829,1.90148489 L8.66666667,2 L8.66666667,8.66666667 C8.66666667,9.0348565 8.36818983,9.33333333 8,9.33333333 C7.66528197,9.33333333 7.38817799,9.08665826 7.34056171,8.76518178 L7.33333333,8.66666667 L7.33333333,2 C7.33333333,1.63181017 7.63181017,1.33333333 8,1.33333333 Z" id="路径"></path>
            </g>
        </g>
    </g>
</svg>