<?xml version="1.0" encoding="UTF-8"?>
<svg width="16px" height="16px" viewBox="0 0 16 16" version="1.1" xmlns="http://www.w3.org/2000/svg" xmlns:xlink="http://www.w3.org/1999/xlink">
    <title>下拉列表_drop-down-list</title>
    <g id="页面-1" stroke="none" stroke-width="1" fill="none" fill-rule="evenodd">
        <g id="切图" transform="translate(-278.000000, -955.000000)">
            <g id="下拉列表_drop-down-list" transform="translate(286.000000, 963.000000) rotate(-360.000000) translate(-286.000000, -963.000000) translate(278.000000, 955.000000)">
                <rect id="矩形" x="0" y="0" width="16" height="16"></rect>
                <path d="M13.3333333,9.33333333 C13.5542472,9.6278852 13.4945519,10.0457528 13.2,10.2666667 L8,14.1666667 L8,14.1666667 L2.8,10.2666667 C2.50544813,10.0457528 2.44575277,9.6278852 2.66666667,9.33333333 C2.88758127,9.03878053 3.30544914,8.97908282 3.60000432,9.19999423 L7.99966667,12.4996667 L7.99966667,12.4996667 L12.3999697,9.19995964 C12.6945448,8.97906313 13.1124145,9.03877494 13.3333333,9.33333333 Z" id="路径" fill="#7588A3" fill-rule="nonzero"></path>
                <path d="M13.3333333,3.33333333 C13.3333333,3.70152317 13.0348565,4 12.6666667,4 L3.33333333,4 C2.9651435,4 2.66666667,3.70152317 2.66666667,3.33333333 C2.66666667,2.9651435 2.9651435,2.66666667 3.33333333,2.66666667 L12.6666667,2.66666667 C13.0348565,2.66666667 13.3333333,2.9651435 13.3333333,3.33333333 Z" id="路径" fill="#7588A3" fill-rule="nonzero"></path>
                <path d="M13.3333333,6 C13.3333333,6.36818983 13.0348565,6.66666667 12.6666667,6.66666667 L3.33333333,6.66666667 C2.9651435,6.66666667 2.66666667,6.36818983 2.66666667,6 C2.66666667,5.63181017 2.9651435,5.33333333 3.33333333,5.33333333 L12.6666667,5.33333333 C13.0348565,5.33333333 13.3333333,5.63181017 13.3333333,6 Z" id="路径" fill="#7588A3" fill-rule="nonzero"></path>
            </g>
        </g>
    </g>
</svg>