<?xml version="1.0" encoding="UTF-8"?>
<svg width="16px" height="16px" viewBox="0 0 16 16" version="1.1" xmlns="http://www.w3.org/2000/svg" xmlns:xlink="http://www.w3.org/1999/xlink">
    <title>提示_tips-one</title>
    <g id="页面-1" stroke="none" stroke-width="1" fill="none" fill-rule="evenodd">
        <g id="切图" transform="translate(-193.000000, -955.000000)" fill-rule="nonzero">
            <g id="提示_tips-one" transform="translate(193.000000, 955.000000)">
                <rect id="矩形" fill-opacity="0.01" fill="#FFFFFF" x="0" y="0" width="16" height="16"></rect>
                <g id="编组-6" transform="translate(0.666667, 1.500000)" fill="#2C7BE5">
                    <path d="M14.6666667,-7.10542736e-14 L6.07514039e-13,-7.10542736e-14 L6.07514039e-13,11.3333333 L5.38933333,11.333 L7.33333333,13.2761424 L9.27633333,11.333 L14.6666667,11.3333333 L14.6666667,-7.10542736e-14 Z M13.3323333,1.333 L13.3323333,10 L8.72385763,10 L7.33333333,11.39 L5.94280904,10 L1.33233333,10 L1.33233333,1.333 L13.3323333,1.333 Z" id="路径"></path>
                    <polygon id="路径" points="8 5 8 9.33333333 6.66666667 9.33333333 6.66666667 5"></polygon>
                    <polygon id="路径" points="8 2.66666667 8 4.33333333 6.66666667 4.33333333 6.66666667 2.66666667"></polygon>
                </g>
            </g>
        </g>
    </g>
</svg>