<?xml version="1.0" encoding="UTF-8"?>
<svg width="16px" height="16px" viewBox="0 0 16 16" version="1.1" xmlns="http://www.w3.org/2000/svg" xmlns:xlink="http://www.w3.org/1999/xlink">
    <title>追踪_trace</title>
    <g id="页面-1" stroke="none" stroke-width="1" fill="none" fill-rule="evenodd">
        <g id="切图" transform="translate(-169.000000, -955.000000)" fill-rule="nonzero">
            <g id="追踪_trace" transform="translate(169.000000, 955.000000)">
                <rect id="矩形" fill-opacity="0.01" fill="#FFFFFF" x="0" y="0" width="16" height="16"></rect>
                <g id="编组-2" transform="translate(1.333333, 0.385657)" fill="#2C7BE5">
                    <path d="M7.33333333,0.947676633 L7.33333333,2.28100997 L6.66666667,2.28100997 C3.7211565,2.28100997 1.33333333,4.66883313 1.33333333,7.6143433 C1.33333333,10.5598535 3.7211565,12.9476766 6.66666667,12.9476766 C9.53853908,12.9476766 11.8802603,10.6777522 11.9955514,7.8341823 L12,7.6143433 L12,6.94767663 L13.3333333,6.94767663 L13.3333333,7.6143433 C13.3333333,11.2962331 10.3485565,14.28101 6.66666667,14.28101 C2.98477683,14.28101 -6.05737682e-13,11.2962331 -6.05737682e-13,7.6143433 C-6.05737682e-13,4.01079155 2.85911624,1.07500399 6.43262119,0.951708166 L6.66666667,0.947676633 L7.33333333,0.947676633 Z" id="路径"></path>
                    <path d="M7.33333333,3.94767663 L7.33333333,5.28100997 L6.66666667,5.28100997 C5.37798983,5.28100997 4.33333333,6.32566647 4.33333333,7.6143433 C4.33333333,8.90302013 5.37798983,9.94767663 6.66666667,9.94767663 C7.90164863,9.94767663 8.91252165,8.9882612 8.994617,7.77409905 L9,7.6143433 L9,6.94767663 L10.3333333,6.94767663 L10.3333333,7.6143433 C10.3333333,9.6393998 8.69172317,11.28101 6.66666667,11.28101 C4.64161017,11.28101 3,9.6393998 3,7.6143433 C3,5.6546112 4.53740806,4.05398597 6.47193271,3.95275909 L6.66666667,3.94767663 L7.33333333,3.94767663 Z" id="路径"></path>
                    <polygon id="路径" points="8.76623287 4.56963436 9.70947561 5.51200951 6.66710046 8.55718558 5.72385772 7.61481042"></polygon>
                    <path d="M11.2336667,3.0473433 L11.2344333,-6.75015599e-14 L8.1,3.14783355 L8.1,6.18100997 L11.152075,6.18100997 L14.2709513,3.0477433 L11.2336667,3.0473433 Z M9.90066667,3.2283433 L9.9011,4.38107663 L11.0616667,4.3803433 L10.5966667,4.8473433 L9.43266667,4.8473433 L9.43266667,3.6983433 L9.90066667,3.2283433 Z" id="路径"></path>
                </g>
            </g>
        </g>
    </g>
</svg>