<?xml version="1.0" encoding="UTF-8"?>
<svg width="20px" height="20px" viewBox="0 0 20 20" version="1.1" xmlns="http://www.w3.org/2000/svg" xmlns:xlink="http://www.w3.org/1999/xlink">
    <title>系统级联-选中</title>
    <defs>
        <rect id="path-1" x="0" y="0" width="20" height="20"></rect>
        <linearGradient x1="50%" y1="0%" x2="50%" y2="100%" id="linearGradient-3">
            <stop stop-color="#58FFA8" offset="0%"></stop>
            <stop stop-color="#0DDC92" offset="100%"></stop>
        </linearGradient>
        <linearGradient x1="50%" y1="0%" x2="50%" y2="100%" id="linearGradient-4">
            <stop stop-color="#7BE9FF" offset="0%"></stop>
            <stop stop-color="#3795FF" offset="100%"></stop>
        </linearGradient>
    </defs>
    <g id="0716" stroke="none" stroke-width="1" fill="none" fill-rule="evenodd">
        <g id="系统级联-选中">
            <rect id="矩形" fill-opacity="0.01" fill="#FFFFFF" fill-rule="nonzero" x="3.33333333" y="3.33333333" width="13.3333333" height="13.3333333"></rect>
            <g id="层级">
                <mask id="mask-2" fill="white">
                    <use xlink:href="#path-1"></use>
                </mask>
                <use id="蒙版" fill="#D8D8D8" opacity="0" xlink:href="#path-1"></use>
                <g mask="url(#mask-2)" fill-rule="nonzero">
                    <g transform="translate(2.500000, 2.500000)">
                        <path d="M7.50466427,11.4263055 C6.91897918,11.426845 6.34090878,11.2935948 5.8145601,11.0367206 L0.46810177,8.40817891 C0.0850075413,8.19870059 -0.0652480217,7.72473514 0.127188375,7.33280328 C0.319624771,6.94087142 0.786527415,6.76992726 1.18653927,6.94494974 L6.53070594,9.57578307 C7.1448726,9.87599141 7.87591427,9.87369974 8.4854976,9.57005391 L13.7414351,6.95067891 C14.0017924,6.82090963 14.3116036,6.83989683 14.5541657,7.00048822 C14.7967278,7.16107962 14.93519,7.43887755 14.9173949,7.72923822 C14.8995997,8.0195989 14.7282507,8.27840963 14.4678934,8.40817891 L9.21653927,11.0252622 C8.68497443,11.2894158 8.09939086,11.4266926 7.5058101,11.4263055 L7.50466427,11.4263055 Z M7.50466427,14.8408889 C6.91897918,14.8414283 6.34090878,14.7081782 5.8145601,14.4513039 L0.46810177,11.8227622 C0.0649069976,11.623611 -0.10153599,11.1360611 0.0957059363,10.7319289 C0.294857134,10.3287341 0.782407056,10.1622911 1.18653927,10.3595331 L6.53185177,12.9880747 C7.1448726,13.2882831 7.8770601,13.2859914 8.48664344,12.9823456 L13.7402893,10.3629706 C14.0006466,10.2332013 14.3104577,10.2521885 14.5530199,10.4127799 C14.795582,10.5733713 14.9340442,10.8511692 14.9162491,11.1415299 C14.8984539,11.4318906 14.7271049,11.6907013 14.4667476,11.8204706 L9.21539344,14.4398456 C8.68382859,14.7039991 8.09824503,14.8412759 7.50466427,14.8408889 L7.50466427,14.8408889 Z" id="形状" fill="url(#linearGradient-3)"></path>
                        <path d="M6.3851851,7.81692891 L0.487580936,4.83776224 C0.188630858,4.68732397 0,4.38123255 0,4.04656432 C0,3.7118961 0.188630858,3.40580468 0.487580936,3.25536641 L6.39320594,0.270470575 C7.10404382,-0.0889424461 7.9431539,-0.0902176894 8.65508094,0.267033075 L14.3911226,3.14651224 C14.7213992,3.31215892 14.9303866,3.64953545 14.9316025,4.01902157 C14.9328079,4.3885077 14.7260358,4.72724648 14.3968518,4.89505391 L8.6573726,7.81349141 C7.94373229,8.17637669 7.09992013,8.17765326 6.3851851,7.81692891 L6.3851851,7.81692891 Z" id="路径" fill="url(#linearGradient-4)"></path>
                    </g>
                </g>
            </g>
        </g>
    </g>
</svg>