<?xml version="1.0" encoding="utf-8"?>
<!-- Generator: Adobe Illustrator 24.0.1, SVG Export Plug-In . SVG Version: 6.00 Build 0)  -->
<svg version="1.1" id="Layer_1" xmlns="http://www.w3.org/2000/svg" xmlns:xlink="http://www.w3.org/1999/xlink" x="0px" y="0px"
	 viewBox="0 0 48 48" style="enable-background:new 0 0 48 48;" xml:space="preserve">
<style type="text/css">
	.st0{fill:#0F5DCE;stroke:#FFFFFF;stroke-miterlimit:10;}
</style>
<g>
	<path class="st0" d="M22.9,36.6c0.7,0.6,1.8,0.6,2.5,0l19-16.4c0.6-0.5,0.8-1.4,0.5-2.1c-0.3-0.8-1-1.3-1.8-1.3l-5.9,0.1L37.1,2.4
		c0-1.1-0.9-2-2-2L12.7,0.6c-1.1,0-2,0.9-2,2l0.2,14.5l-5.9,0.1c-0.8,0-1.6,0.5-1.8,1.3c-0.3,0.8-0.1,1.6,0.6,2.2L22.9,36.6z"/>
	<path class="st0" d="M2.8,47.7l43-0.4c1.1,0,2-0.9,2-2c0-1.1-0.9-2-2-2L2.7,43.7c-1.1,0-2,0.9-2,2C0.7,46.8,1.7,47.7,2.8,47.7z"/>
</g>
</svg>
