<?xml version="1.0" encoding="UTF-8"?>
<svg width="32px" height="32px" viewBox="0 0 32 32" version="1.1" xmlns="http://www.w3.org/2000/svg" xmlns:xlink="http://www.w3.org/1999/xlink">
    <title>编组 22</title>
    <defs>
        <polygon id="path-1" points="9.99933333 13.6666667 9.99933333 2.99966667 8.66666667 2.99966667 8.24983313 4.55747299 3.42199299 4.55747299 2.94118961 2.99966667 1.01797609 2.99966667 1.01797609 13.6666667"></polygon>
        <filter x="-16.7%" y="-14.1%" width="133.4%" height="128.1%" filterUnits="objectBoundingBox" id="filter-2">
            <feGaussianBlur stdDeviation="1.5" in="SourceAlpha" result="shadowBlurInner1"></feGaussianBlur>
            <feOffset dx="0" dy="0" in="shadowBlurInner1" result="shadowOffsetInner1"></feOffset>
            <feComposite in="shadowOffsetInner1" in2="SourceAlpha" operator="arithmetic" k2="-1" k3="1" result="shadowInnerInner1"></feComposite>
            <feColorMatrix values="0 0 0 0 1   0 0 0 0 1   0 0 0 0 1  0 0 0 0.5 0" type="matrix" in="shadowInnerInner1"></feColorMatrix>
        </filter>
    </defs>
    <g id="页面-1" stroke="none" stroke-width="1" fill="none" fill-rule="evenodd">
        <g id="切图" transform="translate(-22.000000, -1602.000000)">
            <g id="编组-22" transform="translate(22.000000, 1602.000000)">
                <circle id="椭圆形" fill="#DCEDFF" cx="16" cy="16" r="16"></circle>
                <g id="记事本_notepad" transform="translate(8.000000, 8.000000)">
                    <rect id="矩形" fill-opacity="0.01" fill="#FFFFFF" fill-rule="nonzero" x="0" y="0" width="16" height="16"></rect>
                    <g id="编组-20" transform="translate(2.666667, 0.333333)">
                        <g id="路径-7">
                            <use fill="#DAE8F7" fill-rule="evenodd" xlink:href="#path-1"></use>
                            <use fill="black" fill-opacity="1" filter="url(#filter-2)" xlink:href="#path-1"></use>
                        </g>
                        <path d="M3.33333333,1.66666667 L3.33333333,3 L1.33233333,2.99966667 L1.33233333,13.6666667 L9.99933333,13.6666667 L9.99933333,2.99966667 L8,3 L8,1.66666667 L10.3333333,1.66666667 C10.8461737,1.66666667 11.2688411,2.05270801 11.3266057,2.55004579 L11.3333333,2.66666667 L11.3333333,14 C11.3333333,14.5128406 10.9472975,14.9355078 10.4499554,14.9932723 L10.3333333,15 L1,15 C0.487159441,15 0.064492165,14.6139642 0.00672765908,14.1166221 L-1.50990331e-13,14 L-1.50990331e-13,2.66666667 C-1.50990331e-13,2.15383207 0.386036015,1.73115968 0.88337798,1.67339442 L1,1.66666667 L3.33333333,1.66666667 Z" id="路径" fill="#3588FF" fill-rule="nonzero"></path>
                        <path d="M5.66666667,0 C4.74618087,0 4,0.746189462 4,1.66666667 L2.66666667,1.66666667 L2.66666667,4 C2.66666667,4.55228983 3.11437683,5 3.66666667,5 L7.66666667,5 C8.2189565,5 8.66666667,4.55228983 8.66666667,4 L8.66666667,1.66666667 L7.33333333,1.66666667 C7.33333333,0.746189462 6.58715246,0 5.66666667,0 Z M5.66666667,1.33333333 C5.85076936,1.33333333 6,1.48256569 6,1.66666667 L6,2.31683333 L6.00740934,2.41780458 C6.05621716,2.74728529 6.34024741,3 6.68316667,3 L7.33233333,2.99966667 L7.33233333,3.66566667 L3.99933333,3.66566667 L3.99933333,2.99966667 L4.65016667,3 C5.02737785,3 5.33333333,2.6942152 5.33333333,2.31683333 L5.33333333,1.66666667 C5.33333333,1.48256569 5.48256397,1.33333333 5.66666667,1.33333333 Z" id="路径" fill="#3588FF" fill-rule="nonzero"></path>
                        <rect id="矩形" fill="#FDFFFE" x="2.33333333" y="6.66666667" width="7" height="1"></rect>
                        <rect id="矩形备份-11" fill="#FDFFFE" x="2.33333333" y="9.66666667" width="7" height="1"></rect>
                    </g>
                </g>
            </g>
        </g>
    </g>
</svg>