<?xml version="1.0" encoding="utf-8"?>
<!-- Generator: Adobe Illustrator 24.0.1, SVG Export Plug-In . SVG Version: 6.00 Build 0)  -->
<svg version="1.1" id="Layer_1" xmlns="http://www.w3.org/2000/svg" xmlns:xlink="http://www.w3.org/1999/xlink" x="0px" y="0px"
	 viewBox="0 0 48 48" style="enable-background:new 0 0 48 48;" xml:space="preserve">
<style type="text/css">
	.st0{fill:#50B1E5;}
</style>
<g>
	<path class="st0" d="M45.5,33.9c-1.1,0-2,0.9-2,2v7.7h-7.7c-1.1,0-2,0.9-2,2s0.9,2,2,2h9.6c1.1,0,2-0.9,2-2V36
		C47.5,34.8,46.6,33.9,45.5,33.9z"/>
	<path class="st0" d="M12.1,43.6H4.4v-7.7c0-1.1-0.9-2-2-2s-2,0.9-2,2v9.6c0,1.1,0.9,2,2,2H12c1.1,0,2-0.9,2-2S13.2,43.6,12.1,43.6z
		"/>
	<path class="st0" d="M2.5,14.1c1.1,0,2-0.9,2-2V4.4h7.7c1.1,0,2-0.9,2-2s-0.9-2-2-2H2.5c-1.1,0-2,0.9-2,2V12
		C0.5,13.2,1.4,14.1,2.5,14.1z"/>
	<path class="st0" d="M45.5,0.5h-9.6c-1.1,0-2,0.9-2,2s0.9,2,2,2h7.7v7.7c0,1.1,0.9,2,2,2s2-0.9,2-2V2.5C47.5,1.4,46.6,0.5,45.5,0.5
		z"/>
	<path class="st0" d="M24,19.9c-2.3,0-4.1,1.8-4.1,4.1s1.8,4.1,4.1,4.1s4.1-1.8,4.1-4.1S26.3,19.9,24,19.9z"/>
	<path class="st0" d="M45.2,24c0-0.5-0.2-1.1-0.6-1.4c-5.5-5.1-12.8-8-20.6-8s-15.1,2.8-20.6,8C3,22.9,2.8,23.5,2.8,24
		s0.2,1.1,0.6,1.4c5.5,5.1,12.8,8,20.6,8s15.1-2.8,20.6-8C45,25.1,45.2,24.5,45.2,24z M24,32c-4.4,0-8-3.6-8-8s3.6-8,8-8s8,3.6,8,8
		S28.4,32,24,32z"/>
</g>
</svg>
