<?xml version="1.0" encoding="UTF-8"?>
<svg width="20px" height="20px" viewBox="0 0 20 20" version="1.1" xmlns="http://www.w3.org/2000/svg" xmlns:xlink="http://www.w3.org/1999/xlink">
    <title>自定义 (2)备份</title>
    <defs>
        <rect id="path-1" x="0" y="0" width="20" height="20"></rect>
        <linearGradient x1="50%" y1="0%" x2="50%" y2="100%" id="linearGradient-3">
            <stop stop-color="#7BE9FF" offset="0%"></stop>
            <stop stop-color="#3795FF" offset="100%"></stop>
        </linearGradient>
        <linearGradient x1="50%" y1="0%" x2="50%" y2="100%" id="linearGradient-4">
            <stop stop-color="#58FFA8" offset="0%"></stop>
            <stop stop-color="#0DDC92" offset="100%"></stop>
        </linearGradient>
    </defs>
    <g id="页面-1" stroke="none" stroke-width="1" fill="none" fill-rule="evenodd">
        <g id="切图" transform="translate(-91.000000, -914.000000)">
            <g id="自定义-(2)备份" transform="translate(91.000000, 914.000000)">
                <mask id="mask-2" fill="white">
                    <use xlink:href="#path-1"></use>
                </mask>
                <use id="蒙版" fill="#D8D8D8" opacity="0" xlink:href="#path-1"></use>
                <g id="编组-13" mask="url(#mask-2)">
                    <g transform="translate(2.500000, 1.500000)">
                        <g id="自定义-(2)" stroke-width="1" fill="none" fill-rule="evenodd" transform="translate(-0.000000, 1.074698)">
                            <path d="M5.81241123,14.919747 L0.796650217,14.919747 C0.34131973,14.919747 0,14.5808986 0,14.1281748 L0,9.09960836 C0,8.64688463 0.34203229,8.30803617 0.796650217,8.30803617 L5.92428431,8.30803617 C6.38032736,8.30803617 6.72164709,8.64827333 6.72164709,9.09960836 L6.72164709,14.2413558 C6.61119915,14.5815929 6.26987944,14.919747 5.81241123,14.919747 L5.81241123,14.919747 Z M5.81241123,6.6707316 L0.796650217,6.6707316 C0.34131973,6.6707316 0,6.33049443 0,5.87915941 L0,0.791572187 C0,0.338848452 0.34203229,0 0.796650217,0 L5.92428431,0 C6.38032736,0 6.72164709,0.340237161 6.72164709,0.791572187 L6.72164709,5.87915941 C6.61119915,6.33188314 6.26987944,6.6707316 5.81241123,6.6707316 Z M9.00328748,8.25457033 L14.130209,8.25457033 C14.586252,8.25457033 14.9282844,8.59341878 14.9282844,9.04614251 L14.9282844,14.1337297 C14.9282844,14.5864535 14.5862521,14.9253019 14.130209,14.9253019 L9.00328748,14.9253019 C8.54724443,14.9253019 8.2059247,14.5850647 8.2059247,14.1337297 L8.2059247,9.04614251 C8.2059247,8.48023783 8.547957,8.25457033 9.00328748,8.25457033 L9.00328748,8.25457033 Z" id="形状" fill="url(#linearGradient-3)" fill-rule="nonzero"></path>
                        </g>
                        <path d="M15.7270722,4.69301623 L12.1941637,8.19815343 C11.9661422,8.42382093 11.5108117,8.42382093 11.1673543,8.19815343 L7.75059422,4.69301623 C7.52257268,4.46734873 7.52257268,4.01462497 7.75059422,3.67647089 L11.2827902,0.169250627 C11.5108117,-0.0564168757 11.9668548,-0.0564168757 12.3081745,0.169250627 L15.841083,3.67438781 C16.0691046,4.01462497 16.0691046,4.46734873 15.7270722,4.69301623 Z" id="路径" fill="url(#linearGradient-4)" fill-rule="nonzero"></path>
                    </g>
                </g>
            </g>
        </g>
    </g>
</svg>