<?xml version="1.0" encoding="UTF-8"?>
<svg width="70px" height="70px" viewBox="0 0 70 70" version="1.1" xmlns="http://www.w3.org/2000/svg" xmlns:xlink="http://www.w3.org/1999/xlink">
    <title>编组 7</title>
    <defs>
        <rect id="path-1" x="0" y="0" width="70" height="70"></rect>
        <linearGradient x1="2.82752562%" y1="11.0743786%" x2="99.7099163%" y2="100%" id="linearGradient-3">
            <stop stop-color="#5DB8FA" offset="0%"></stop>
            <stop stop-color="#3489FF" offset="100%"></stop>
        </linearGradient>
        <path d="M9.17172176,17.1570206 L32.3638272,17.1401313 C33.716544,17.1391462 34.8139362,18.2349412 34.8149213,19.587658 C34.8149222,19.5888456 34.8149222,19.5900332 34.8149213,19.5912209 L34.7931311,49.5884851 C34.7921495,50.9398107 33.69693,52.0350322 32.3456044,52.0360163 L9.15349895,52.0529057 C7.80078217,52.0538908 6.70338998,50.9580958 6.70240488,49.605379 C6.70240401,49.6041914 6.70240401,49.6030037 6.70240487,49.6018161 L6.72419505,19.6045518 C6.72517666,18.2532262 7.82039617,17.1580047 9.17172176,17.1570206 Z" id="path-4"></path>
        <filter x="-56.9%" y="-40.1%" width="213.8%" height="191.6%" filterUnits="objectBoundingBox" id="filter-5">
            <feOffset dx="0" dy="2" in="SourceAlpha" result="shadowOffsetOuter1"></feOffset>
            <feGaussianBlur stdDeviation="5" in="shadowOffsetOuter1" result="shadowBlurOuter1"></feGaussianBlur>
            <feColorMatrix values="0 0 0 0 0   0 0 0 0 0.558213592   0 0 0 0 0.991953909  0 0 0 0.200721154 0" type="matrix" in="shadowBlurOuter1"></feColorMatrix>
        </filter>
        <rect id="path-6" x="0" y="0" width="36.6329348" height="46.2208697" rx="2.37030101"></rect>
        <filter x="-23.2%" y="-14.1%" width="146.4%" height="136.8%" filterUnits="objectBoundingBox" id="filter-7">
            <feOffset dx="0" dy="2" in="SourceAlpha" result="shadowOffsetOuter1"></feOffset>
            <feGaussianBlur stdDeviation="2.5" in="shadowOffsetOuter1" result="shadowBlurOuter1"></feGaussianBlur>
            <feColorMatrix values="0 0 0 0 0   0 0 0 0 0.558213592   0 0 0 0 0.991953909  0 0 0 0.298923733 0" type="matrix" in="shadowBlurOuter1"></feColorMatrix>
        </filter>
        <linearGradient x1="100%" y1="50%" x2="0%" y2="50%" id="linearGradient-8">
            <stop stop-color="#FBBD31" offset="0%"></stop>
            <stop stop-color="#F58816" offset="100%"></stop>
        </linearGradient>
        <linearGradient x1="95.7389354%" y1="45.8814277%" x2="6.81331391%" y2="55.1746994%" id="linearGradient-9">
            <stop stop-color="#5DB8FA" offset="0%"></stop>
            <stop stop-color="#3489FF" offset="100%"></stop>
        </linearGradient>
        <linearGradient x1="100%" y1="50%" x2="0%" y2="50%" id="linearGradient-10">
            <stop stop-color="#0DDEA4" offset="0%"></stop>
            <stop stop-color="#00CE3C" offset="100%"></stop>
        </linearGradient>
        <path d="M10.3459664,13.0366556 L21.7040291,13.0366556 L21.7040291,13.0366556 L21.7040291,17.1846823 L10.3459664,17.1846823 C9.20052045,17.1846823 8.27195303,16.2561149 8.27195303,15.1106689 C8.27195303,13.965223 9.20052045,13.0366556 10.3459664,13.0366556 Z" id="path-11"></path>
        <linearGradient x1="95.7389354%" y1="48.0533311%" x2="6.81331391%" y2="52.445854%" id="linearGradient-12">
            <stop stop-color="#5DB8FA" offset="0%"></stop>
            <stop stop-color="#3489FF" offset="100%"></stop>
        </linearGradient>
        <linearGradient x1="100%" y1="50%" x2="0%" y2="50%" id="linearGradient-13">
            <stop stop-color="#0DDEA4" offset="0%"></stop>
            <stop stop-color="#00CE3C" offset="100%"></stop>
        </linearGradient>
        <path d="M10.3459664,28.4436121 L27.8095183,28.4436121 L27.8095183,28.4436121 L27.8095183,32.5916389 L10.3459664,32.5916389 C9.20052045,32.5916389 8.27195303,31.6630715 8.27195303,30.5176255 C8.27195303,29.3721795 9.20052045,28.4436121 10.3459664,28.4436121 Z" id="path-14"></path>
        <linearGradient x1="100%" y1="52.9301986%" x2="6.81331391%" y2="53.1799139%" id="linearGradient-15">
            <stop stop-color="#5DB8FA" offset="0%"></stop>
            <stop stop-color="#3489FF" offset="100%"></stop>
        </linearGradient>
        <linearGradient x1="69.6888758%" y1="5.77809725%" x2="50%" y2="94.2219027%" id="linearGradient-16">
            <stop stop-color="#7FC6F9" offset="0%"></stop>
            <stop stop-color="#519AFF" offset="100%"></stop>
        </linearGradient>
    </defs>
    <g id="页面-1" stroke="none" stroke-width="1" fill="none" fill-rule="evenodd">
        <g id="切图" transform="translate(-352.000000, -888.000000)">
            <g id="编组-7" transform="translate(352.000000, 888.000000)">
                <mask id="mask-2" fill="white">
                    <use xlink:href="#path-1"></use>
                </mask>
                <use id="蒙版" fill="#D8D8D8" opacity="0" xlink:href="#path-1"></use>
                <g mask="url(#mask-2)">
                    <g transform="translate(-0.882305, 3.000000)">
                        <g id="版本更新图" transform="translate(4.198667, 0.000000)">
                            <ellipse id="椭圆形" fill="#ECF6FF" cx="31.7485435" cy="31.8410436" rx="31.7485435" ry="31.8410436"></ellipse>
                            <ellipse id="椭圆形备份-2" fill="url(#linearGradient-3)" cx="31.7485435" cy="31.8410436" rx="26.2536033" ry="26.3300937"></ellipse>
                            <g id="矩形" transform="translate(20.758663, 34.596518) rotate(-15.000000) translate(-20.758663, -34.596518) ">
                                <use fill="black" fill-opacity="1" filter="url(#filter-5)" xlink:href="#path-4"></use>
                                <use fill="#FFFFFF" fill-rule="evenodd" xlink:href="#path-4"></use>
                            </g>
                            <g id="编组-2" transform="translate(15.263723, 0.000000)">
                                <g id="矩形">
                                    <use fill="black" fill-opacity="1" filter="url(#filter-7)" xlink:href="#path-6"></use>
                                    <use fill="#FFFFFF" fill-rule="evenodd" xlink:href="#path-6"></use>
                                </g>
                                <rect id="矩形备份-3" fill="#F9F9F9" x="3.54512273" y="4.74060202" width="29.5426894" height="36.7396656" rx="1.1851505"></rect>
                                <g id="矩形">
                                    <use fill="url(#linearGradient-8)" xlink:href="#path-11"></use>
                                    <use fill="url(#linearGradient-9)" xlink:href="#path-11"></use>
                                    <use fill="url(#linearGradient-10)" xlink:href="#path-11"></use>
                                </g>
                                <g id="矩形备份-7">
                                    <use fill="#D8D8D8" xlink:href="#path-14"></use>
                                    <use fill="url(#linearGradient-12)" xlink:href="#path-14"></use>
                                    <use fill="url(#linearGradient-13)" xlink:href="#path-14"></use>
                                </g>
                                <path d="M10.3459664,20.7401338 L25.4067129,20.7401338 L25.4067129,20.7401338 L25.4067129,24.8881606 L10.3459664,24.8881606 C9.20052045,24.8881606 8.27195303,23.9595932 8.27195303,22.8141472 C8.27195303,21.6687013 9.20052045,20.7401338 10.3459664,20.7401338 Z" id="矩形备份-4" fill="url(#linearGradient-15)"></path>
                            </g>
                            <g id="系统设置" transform="translate(53.728304, 34.290355) rotate(-345.000000) translate(-53.728304, -34.290355) translate(41.517326, 22.043799)">
                                <rect id="矩形" fill="#000000" fill-rule="nonzero" opacity="0" x="0" y="0" width="24.4219566" height="24.4931104"></rect>
                                <path d="M24.264017,10.9073472 C24.1688847,10.3721926 23.6574937,9.83336663 23.12836,9.71188968 L22.7360187,9.62093494 C21.8055136,9.3391613 20.979122,8.71535282 20.4544057,7.80448377 C19.9252965,6.88703056 19.8048558,5.84501633 20.0338517,4.89097072 L20.1497774,4.51755701 C20.3088519,3.99804297 20.1022113,3.282521 19.6905164,2.93064661 C19.6905164,2.93064661 19.3174309,2.61467927 18.2664607,2.00499375 C17.215637,1.39606699 16.7593779,1.22977355 16.7593779,1.22977355 C16.2495245,1.04495139 15.5301018,1.22088858 15.1615313,1.62036978 L14.885018,1.91846925 C14.1775052,2.58929711 13.2240102,2.99998857 12.1760664,2.99998857 C11.1230462,2.99998857 10.1665494,2.58631098 9.45830436,1.91102839 L9.19147998,1.62181391 C8.82434941,1.22309148 8.10414577,1.04639552 7.59434117,1.23131559 C7.59434117,1.23131559 7.13805762,1.39672787 6.08489099,2.00641339 C5.03560479,2.61612338 4.66474019,2.93062214 4.66474019,2.93062214 C4.25150778,3.28249653 4.04418383,3.99503237 4.20469821,4.51677378 L4.31984294,4.89395689 C4.54581263,5.84721925 4.42393202,6.88703058 3.89928893,7.80379847 C3.37308389,8.71836346 2.5385165,9.34371395 1.60427742,9.62237908 L1.2207708,9.71034764 C0.693931222,9.83113924 0.181783713,10.370724 0.0866514153,10.9051198 C0.0866514153,10.9051198 0.000475918108,11.3858875 0.000475918108,12.6059928 C0.000475918108,13.8261716 0.0866514153,14.304712 0.0866514153,14.304712 C0.182540269,14.8413351 0.693906823,15.3794757 1.2207708,15.5031801 L1.59541824,15.5867184 C2.53331813,15.8669011 3.37010642,16.4945034 3.89928891,17.4127888 C4.42615289,18.3295567 4.54659358,19.3715709 4.318403,20.325641 L4.20469819,20.698296 C4.0441838,21.2170267 4.25150776,21.9325487 4.66618008,22.2843497 C4.66618008,22.2843497 5.03706909,22.6003904 6.08867379,23.210076 C7.14027849,23.8212546 7.5951221,23.9853206 7.5951221,23.9853206 C8.10570768,24.1701428 8.82359281,23.9927615 9.19226091,23.5961685 L9.45608339,23.3114822 C10.1643528,22.6332379 11.1214842,22.2203436 12.1760663,22.2203436 C13.2299651,22.2203436 14.1886828,22.6362241 14.8999297,23.3114822 L14.9005886,23.3114822 L15.1615069,23.5961685 C15.5300773,23.9927615 16.2464982,24.1701428 16.7577671,23.9853206 C16.7577671,23.9853206 17.2126107,23.8183663 18.2679494,23.210076 C19.317382,22.6003904 19.6889056,22.2843497 19.6889056,22.2843497 C20.1021868,21.9325487 20.3072898,21.2200374 20.1497529,20.698296 L20.0338273,20.313672 C19.810835,19.3626125 19.9327156,18.325053 20.4543813,17.4127888 C20.9850525,16.4930348 21.8204253,15.8683452 22.7567876,15.5867184 L22.7567876,15.5851519 L23.1313619,15.4987498 C23.66052,15.3779337 24.1718865,14.8398909 24.26697,14.3031944 C24.26697,14.3031944 24.3531455,13.8231854 24.3531455,12.6023213 C24.3501925,11.3873561 24.264017,10.9073472 24.264017,10.9073472 Z" id="形状" fill="url(#linearGradient-16)"></path>
                                <path d="M12.175383,16.5422326 C10.0148941,16.5422326 8.26243925,14.7802172 8.26243925,12.6067761 C8.26243925,10.4363211 10.0148697,8.67584773 12.175383,8.67584773 C14.3357743,8.67584773 16.0860082,10.4370799 16.0860082,12.6097622 C16.0860082,14.7832278 14.3357743,16.5422326 12.175383,16.5422326 Z" id="路径" fill="#FFFFFF" fill-rule="nonzero"></path>
                            </g>
                        </g>
                        <g id="编组" transform="translate(20.078417, 43.583668) rotate(38.000000) translate(-20.078417, -43.583668) translate(11.998827, 21.312316)">
                            <path d="M4.012687,3.06458543 L4.012687,1.12149456 C5.06617541,0.523791069 5.71817466,0.722661107 5.96871622,1.71816716 C6.01903208,2.06698633 6.04419001,2.51580283 6.04419001,3.06458543 L4.012687,3.06458543 Z M5.06617541,0 L4.99070161,0 C4.5388966,0 4.16259683,0.149418064 3.86173941,0.448285432 C3.56088199,0.74712156 3.41046901,1.12096349 3.41046901,1.56978 L3.41046901,5.23103802 L3.41046901,6.50248171 L3.41046901,7.47402715 L3.4859428,19.5058832 C2.33182267,14.3742802 1.20339508,12.1073304 0.100628583,12.7050652 C0.0503127192,12.8050313 0.0251547872,12.9294578 0.0251547872,13.078376 L0.70284658,13.601636 L0.776748005,15.9930123 L0.100628583,16.2929106 C0.401486002,19.8802249 1.60488423,23.2931297 3.71079182,26.5316249 C4.81459609,26.780478 5.84292656,26.8799442 6.79578323,26.8299612 C11.9122776,26.681043 14.9967659,22.5704686 16.0491851,14.4982069 L16.0491851,14.1998706 C15.999907,13.9010032 15.9249678,13.6766106 15.8243361,13.5266615 C15.0717051,12.7300567 14.3190427,12.6056301 13.5664117,13.1533506 L13.3415627,15.9180378 L12.965766,13.2283252 C12.3137668,11.6840678 11.3100596,11.3852004 9.95467606,12.3317543 L9.65278088,15.7930801 L9.58045182,15.7696506 L9.63076769,11.5210918 C8.82021057,10.4798825 7.96587865,10.3549249 7.06780337,11.146219 L6.69672387,15.9930123 L6.65426986,11.5710748 C6.65147104,11.5752922 6.6483263,11.579447 6.64483564,11.5835706 L6.64483564,7.39905258 L6.64483564,6.35253258 L6.64483564,5.00767629 L6.64483564,1.56978 C6.64483564,1.12096349 6.51958058,0.772144322 6.26903903,0.523259999 L6.19356523,0.448285432 C5.89273926,0.149418064 5.5169112,0 5.06617541,0 L5.06617541,0 Z" id="Fill-1" fill="#FFD0BB"></path>
                            <path d="M0.77675115,15.9929998 L0.702849724,13.6016235 L0.025157932,13.0783635 C-0.025157932,14.1748666 2.26713142e-13,15.2463781 0.100631728,16.2928981 L0.77675115,15.9929998 Z M4.01269015,1.12148207 L4.01269015,3.06457293 L6.04419316,3.06457293 C6.04419316,2.51579034 6.01903522,2.06700508 5.96871936,1.71815466 C5.71817781,0.722679851 5.06617855,0.523778573 4.01269015,1.12148207 L4.01269015,1.12148207 Z" id="Fill-3" fill="#FFF5E6"></path>
                            <g transform="translate(3.185629, 32.809152)">
                                <path d="M8.95150667,2.31643296 C9.25233264,2.61526909 9.40274563,2.93912798 9.40274563,3.28794716 C9.40274563,3.63679757 9.25233264,3.93566494 8.95150667,4.18454926 L8.95150667,4.25952383 C8.70096511,4.50840815 8.40013914,4.63283469 8.04896586,4.63283469 C7.69782402,4.63283469 7.37177723,4.48338539 7.07095125,4.18454926 C6.8204097,3.93566494 6.69515465,3.63679757 6.69515465,3.28794716 C6.69515465,2.93912798 6.8204097,2.61526909 7.07095125,2.31643296 C7.17158298,2.21646688 7.27218326,2.14202338 7.37284644,2.09303999 C7.57307213,1.99310514 7.79842431,1.9431221 8.04896586,1.9431221 C8.40013914,1.9431221 8.70096511,2.06754864 8.95150667,2.31643296 L8.95150667,2.31643296 Z" id="路径" fill="#11426A"></path>
                                <polygon id="Fill-5" fill="#3184D8" points="0.827067014 0 9.31344818e-13 0 9.31344818e-13 2.54135667 8.12443966 8.37062925 12.6387161 3.06461666 12.6387161 0.22339297 11.7361753 0.22339297"></polygon>
                            </g>
                            <path d="M12.5883876,36.0971113 C12.5883876,35.7482921 12.4379746,35.4244333 12.1371172,35.1255659 C11.8866071,34.8767128 11.5857497,34.752255 11.2345764,34.752255 C10.9840349,34.752255 10.7586827,34.8022693 10.558457,34.9022042 C10.4578253,34.9511563 10.357225,35.0255998 10.2565933,35.1255659 C10.0060517,35.4244333 9.8807652,35.7482921 9.8807652,36.0971113 C9.8807652,36.4459617 10.0060517,36.7447979 10.2565933,36.9936822 C10.5574192,37.2925495 10.8834346,37.4419988 11.2345764,37.4419988 C11.5857497,37.4419988 11.8866071,37.3175411 12.1371172,37.068688 L12.1371172,36.9936822 C12.4379746,36.7447979 12.5883876,36.4459617 12.5883876,36.0971113 M3.86172998,31.5377517 L4.01267757,32.8091642 L14.9217858,33.0325259 L14.9217858,31.8376187 L14.1686202,31.8376187 L4.91521838,31.612695 L3.86172998,31.5377517" id="Fill-7" fill="#FFFFFF"></path>
                            <path d="M3.71078868,26.5316311 C3.962368,26.9294025 4.26372857,27.3277048 4.61490186,27.7265383 L4.91522467,31.6126888 L14.1686265,31.8376437 L14.3196056,27.4281708 C14.9715734,26.9294025 15.4731596,25.907874 15.8243329,24.3636166 C16.1755062,19.3319797 16.2504454,16.0435014 16.0492134,14.4982131 C14.9967627,22.5704748 11.9122745,26.6810492 6.79578008,26.8299674 C5.84292341,26.8799192 4.81459294,26.7804842 3.71078868,26.5316311" id="Fill-9" fill="#FDC3A9"></path>
                        </g>
                    </g>
                </g>
            </g>
        </g>
    </g>
</svg>