<?xml version="1.0" encoding="UTF-8"?>
<svg width="16px" height="16px" viewBox="0 0 16 16" version="1.1" xmlns="http://www.w3.org/2000/svg" xmlns:xlink="http://www.w3.org/1999/xlink">
    <title>分组-未</title>
    <g id="页面-1" stroke="none" stroke-width="1" fill="none" fill-rule="evenodd">
        <g id="切图" transform="translate(-710.000000, -953.000000)">
            <g id="分组-未" transform="translate(710.000000, 953.000000)">
                <g id="Sicon-BG" fill-rule="nonzero">
                    <rect x="0" y="0" width="16" height="16"></rect>
                </g>
                <g id="编组-2" transform="translate(1.700000, 2.373563)">
                    <path d="M0.5,-3.64153152e-14 L12.1031159,-3.64153152e-14 C12.3792583,-3.64660417e-14 12.6031159,0.223857625 12.6031159,0.5 L12.6031159,4.75180284 C12.6031159,5.02794521 12.3792583,5.25180284 12.1031159,5.25180284 L0.5,5.25180284 C0.223857625,5.25180284 -1.0817675e-12,5.02794521 -1.08180132e-12,4.75180284 L-1.08180132e-12,0.5 C-1.08183513e-12,0.223857625 0.223857625,-3.63645887e-14 0.5,-3.64153152e-14 Z" id="矩形" fill="#A2A9C4" fill-rule="nonzero"></path>
                    <rect id="矩形备份-8" fill="#717894" fill-rule="nonzero" x="3.54383189e-13" y="6.25180284" width="12.6031159" height="2"></rect>
                    <rect id="矩形备份-9" fill="#717894" fill-rule="nonzero" x="3.54383189e-13" y="9.25180284" width="12.6031159" height="2"></rect>
                    <polygon id="矩形" fill="#FFFFFF" points="1.42056075 1.62643709 6.42056075 1.62643709 6.42056075 3.24216846 1.42056075 3.24216846"></polygon>
                </g>
            </g>
        </g>
    </g>
</svg>