<?xml version="1.0" encoding="UTF-8"?>
<svg width="24px" height="24px" viewBox="0 0 24 24" version="1.1" xmlns="http://www.w3.org/2000/svg" xmlns:xlink="http://www.w3.org/1999/xlink">
    <title>拍照</title>
    <defs>
        <rect id="path-1" x="0" y="0" width="24" height="24"></rect>
    </defs>
    <g id="页面-1" stroke="none" stroke-width="1" fill="none" fill-rule="evenodd">
        <g id="切图" transform="translate(-1486.000000, -55.000000)">
            <g id="拍照" transform="translate(1486.000000, 55.000000)">
                <mask id="mask-2" fill="white">
                    <use xlink:href="#path-1"></use>
                </mask>
                <use id="蒙版" fill="#D8D8D8" opacity="0" xlink:href="#path-1"></use>
                <g id="智能摄像头_camera-three" mask="url(#mask-2)">
                    <g transform="translate(3.500000, 3.500000)" id="编组-20">
                        <path d="M14.6666667,0.9375 C14.9121266,0.9375 15.116275,1.11437516 15.158611,1.34762437 L15.1666667,1.4375 L15.1666667,3.3125 C15.1666667,3.58864237 14.942809,3.8125 14.6666667,3.8125 C14.4212068,3.8125 14.2170583,3.63562484 14.1747223,3.40237563 L14.1666667,3.3125 L14.1666667,1.4375 C14.1666667,1.16135763 14.3905243,0.9375 14.6666667,0.9375 Z" id="路径" fill="#00DEAB" fill-rule="nonzero"></path>
                        <path d="M16.7916667,2.8125 L1.20833333,2.8125 C0.540989261,2.8125 0,3.35348926 0,4.02083333 L0,14.7916667 C0,15.4590107 0.540989261,16 1.20833333,16 L16.7916667,16 C17.4590107,16 18,15.4590107 18,14.7916667 L18,4.02083333 C18,3.35348926 17.4590107,2.8125 16.7916667,2.8125 Z M1.20833333,3.8125 L16.7916667,3.8125 C16.906726,3.8125 17,3.90577401 17,4.02083333 L17,14.7916667 C17,14.906726 16.906726,15 16.7916667,15 L1.20833333,15 C1.09327401,15 1,14.906726 1,14.7916667 L1,4.02083333 C1,3.90577401 1.09327401,3.8125 1.20833333,3.8125 Z" id="矩形" fill="#2C7BE5" fill-rule="nonzero"></path>
                        <path d="M7.03239167,0 L3.41205278,0 C3.20182468,0 3.01405058,0.131502914 2.9421795,0.329064045 L1.91901561,3.14156405 C1.8003822,3.46766671 2.0418776,3.8125 2.38888889,3.8125 L8.05555556,3.8125 C8.40256684,3.8125 8.64406225,3.46766671 8.52542884,3.14156405 L7.50226495,0.329064045 C7.43039387,0.131502914 7.24261976,0 7.03239167,0 Z M6.682,1 L7.341,2.812 L3.102,2.812 L3.761,1 L6.682,1 Z" id="路径" fill="#2C7BE5" fill-rule="nonzero"></path>
                        <path d="M11.3611111,5.625 C9.26018347,5.625 7.55555556,7.31709389 7.55555556,9.40625 C7.55555556,11.4954061 9.26018347,13.1875 11.3611111,13.1875 C13.4620387,13.1875 15.1666667,11.4954061 15.1666667,9.40625 C15.1666667,7.31709389 13.4620387,5.625 11.3611111,5.625 Z M11.3611111,6.625 C12.9113993,6.625 14.1666667,7.87103744 14.1666667,9.40625 C14.1666667,10.9414626 12.9113993,12.1875 11.3611111,12.1875 C9.8108229,12.1875 8.55555556,10.9414626 8.55555556,9.40625 C8.55555556,7.87103744 9.8108229,6.625 11.3611111,6.625 Z" id="椭圆形" fill="#00DEAB" fill-rule="nonzero"></path>
                    </g>
                </g>
            </g>
        </g>
    </g>
</svg>