<?xml version="1.0" encoding="UTF-8"?>
<svg width="16px" height="16px" viewBox="0 0 16 16" version="1.1" xmlns="http://www.w3.org/2000/svg" xmlns:xlink="http://www.w3.org/1999/xlink">
    <title>编组 21</title>
    <defs>
        <rect id="path-1" x="0" y="0" width="16" height="16"></rect>
    </defs>
    <g id="页面-1" stroke="none" stroke-width="1" fill="none" fill-rule="evenodd">
        <g id="切图" transform="translate(-1568.000000, -27.000000)">
            <g id="编组-7" transform="translate(1568.000000, 27.000000)">
                <mask id="mask-2" fill="white">
                    <use xlink:href="#path-1"></use>
                </mask>
                <use id="蒙版" fill="#D8D8D8" opacity="0" xlink:href="#path-1"></use>
                <g mask="url(#mask-2)" fill="#737B96" fill-rule="nonzero" id="路径">
                    <g transform="translate(0.500000, 0.500000)">
                        <path d="M15,0 L15,4.5 C15,4.77614237 14.7761424,5 14.5,5 C14.2545401,5 14.0503916,4.82312484 14.0080557,4.58987563 L14,4.5 L14,1 L10.5,1 C10.2545401,1 10.0503916,0.823124839 10.0080557,0.589875632 L10,0.5 C10,0.254540111 10.1768752,0.0503916296 10.4101244,0.00805566941 L10.5,0 L15,0 Z"></path>
                        <path d="M4.5,0 C4.77614237,0 5,0.223857625 5,0.5 C5,0.745459889 4.82312484,0.94960837 4.58987563,0.991944331 L4.5,1 L1,1 L1,4.5 C1,4.74545989 0.823124839,4.94960837 0.589875632,4.99194433 L0.5,5 C0.254540111,5 0.0503916296,4.82312484 0.00805566941,4.58987563 L0,4.5 L0,0 L4.5,0 Z"></path>
                        <path d="M14.5,10 C14.7454599,10 14.9496084,10.1768752 14.9919443,10.4101244 L15,10.5 L15,15 L10.5,15 C10.2238576,15 10,14.7761424 10,14.5 C10,14.2545401 10.1768752,14.0503916 10.4101244,14.0080557 L10.5,14 L14,14 L14,10.5 C14,10.2545401 14.1768752,10.0503916 14.4101244,10.0080557 L14.5,10 Z"></path>
                        <path d="M0.5,10 C0.745459889,10 0.94960837,10.1768752 0.991944331,10.4101244 L1,10.5 L1,14 L4.5,14 C4.74545989,14 4.94960837,14.1768752 4.99194433,14.4101244 L5,14.5 C5,14.7454599 4.82312484,14.9496084 4.58987563,14.9919443 L4.5,15 L0,15 L0,10.5 C0,10.2238576 0.223857625,10 0.5,10 Z"></path>
                        <path d="M14.1464466,0.146446609 C14.3417088,-0.0488155365 14.6582912,-0.0488155365 14.8535534,0.146446609 C15.0271197,0.320012961 15.0464049,0.589437362 14.9114088,0.784305503 L14.8535534,0.853553391 L10.2702201,5.43688672 C10.0749579,5.63214887 9.75837542,5.63214887 9.56311328,5.43688672 C9.38954692,5.26332037 9.37026177,4.99389597 9.50525783,4.79902783 L9.56311328,4.72977994 L14.1464466,0.146446609 Z"></path>
                        <path d="M4.72977994,9.56311328 C4.92504209,9.36785113 5.24162458,9.36785113 5.43688672,9.56311328 C5.61045308,9.73667963 5.62973823,10.006104 5.49474217,10.2009722 L5.43688672,10.2702201 L0.853553391,14.8535534 C0.658291245,15.0488155 0.341708755,15.0488155 0.146446609,14.8535534 C-0.0271197425,14.679987 -0.0464048927,14.4105626 0.0885911588,14.2156945 L0.146446609,14.1464466 L4.72977994,9.56311328 Z"></path>
                    </g>
                </g>
            </g>
        </g>
    </g>
</svg>