<?xml version="1.0" encoding="UTF-8"?>
<svg width="16px" height="16px" viewBox="0 0 16 16" version="1.1" xmlns="http://www.w3.org/2000/svg" xmlns:xlink="http://www.w3.org/1999/xlink">
    <title>审核</title>
    <g id="页面-1" stroke="none" stroke-width="1" fill="none" fill-rule="evenodd">
        <g id="天影平台-算法配置备份" transform="translate(-1188.000000, -317.000000)">
            <g id="审核" transform="translate(1188.000000, 317.000000)">
                <rect id="矩形" fill-opacity="0.01" fill="#FFFFFF" fill-rule="nonzero" x="0" y="0" width="16" height="16"></rect>
                <path d="M2.66658667,11.5033333 L2.66812333,8.85086667 C2.66842333,8.66686667 2.81763,8.51773333 3.00165,8.51753333 C4.11296667,8.51753333 5.2243,8.51753333 6.33563333,8.51753333 C6.6428,8.51753333 6.64116667,8.24506667 6.64116667,7.5964 C6.64116667,6.94773333 5.0073,6.40136667 5.0073,4.12093333 C5.0073,1.84050333 6.6999,1.17 8.1066,1.17 C9.5133,1.17 11.0454667,1.84050333 11.0454667,4.12093333 C11.0454667,6.40136667 9.42016667,6.76393333 9.42016667,7.5964 C9.42016667,8.42883333 9.42016667,8.51753333 9.68036667,8.51753333 C10.7869,8.51753333 11.8934667,8.51753333 13.0000333,8.51753333 C13.1841,8.51753333 13.3333667,8.6668 13.3333667,8.85086667 L13.3333667,11.5033333 L2.66658667,11.5033333 Z M2.66666667,13.5033333 L13.3333333,13.5033333" id="形状结合" stroke="#2C7BE5" stroke-width="1.33333333"></path>
            </g>
        </g>
    </g>
</svg>