<?xml version="1.0" encoding="UTF-8"?>
<svg width="16px" height="16px" viewBox="0 0 16 16" version="1.1" xmlns="http://www.w3.org/2000/svg" xmlns:xlink="http://www.w3.org/1999/xlink">
    <title>全局放大2_full-screen-two (3)</title>
    <g id="页面-1" stroke="none" stroke-width="1" fill="none" fill-rule="evenodd">
        <g id="切图" transform="translate(-1538.000000, -27.000000)" fill-rule="nonzero">
            <g id="全局放大2_full-screen-two-(3)" transform="translate(1538.000000, 27.000000)">
                <rect id="矩形" fill-opacity="0.01" fill="#FFFFFF" x="0" y="0" width="16" height="16"></rect>
                <path d="M14.6666667,1.33333333 L14.6666667,6 C14.6666667,6.36818983 14.3681898,6.66666667 14,6.66666667 C13.665282,6.66666667 13.388178,6.4199916 13.3405617,6.09851511 L13.3333333,6 L13.333,2.666 L10,2.66666667 C9.66528197,2.66666667 9.38817799,2.4199916 9.34056171,2.09851511 L9.33333333,2 C9.33333333,1.66528197 9.5800084,1.38817799 9.90148489,1.34056171 L10,1.33333333 L14.6666667,1.33333333 Z" id="路径" fill="#D8DDEF"></path>
                <path d="M6,1.33333333 C6.36818983,1.33333333 6.66666667,1.63181017 6.66666667,2 C6.66666667,2.33471803 6.4199916,2.61182201 6.09851511,2.65943829 L6,2.66666667 L2.666,2.666 L2.66666667,6 C2.66666667,6.33471803 2.4199916,6.61182201 2.09851511,6.65943829 L2,6.66666667 C1.66528197,6.66666667 1.38817799,6.4199916 1.34056171,6.09851511 L1.33333333,6 L1.33333333,1.33333333 L6,1.33333333 Z" id="路径" fill="#D8DDEF"></path>
                <path d="M14,9.33333333 C14.334718,9.33333333 14.611822,9.5800084 14.6594383,9.90148489 L14.6666667,10 L14.6666667,14.6666667 L10,14.6666667 C9.63181017,14.6666667 9.33333333,14.3681898 9.33333333,14 C9.33333333,13.665282 9.5800084,13.388178 9.90148489,13.3405617 L10,13.3333333 L13.333,13.333 L13.3333333,10 C13.3333333,9.66528197 13.5800084,9.38817799 13.9014849,9.34056171 L14,9.33333333 Z" id="路径" fill="#D8DDEF"></path>
                <path d="M2,9.33333333 C2.33471803,9.33333333 2.61182201,9.5800084 2.65943829,9.90148489 L2.66666667,10 L2.666,13.333 L6,13.3333333 C6.33471803,13.3333333 6.61182201,13.5800084 6.65943829,13.9014849 L6.66666667,14 C6.66666667,14.334718 6.4199916,14.611822 6.09851511,14.6594383 L6,14.6666667 L1.33333333,14.6666667 L1.33333333,10 C1.33333333,9.63181017 1.63181017,9.33333333 2,9.33333333 Z" id="路径" fill="#D8DDEF"></path>
                <path d="M13.5285955,1.52859548 C13.788945,1.26824595 14.211055,1.26824595 14.4714045,1.52859548 C14.7057191,1.76291005 14.7291506,2.1282506 14.5416989,2.38877037 L14.4714045,2.47140452 L10.1380712,6.80473785 C9.87772166,7.06508738 9.45561167,7.06508738 9.19526215,6.80473785 C8.96094757,6.57042328 8.93751611,6.20508273 9.12496777,5.94456296 L9.19526215,5.86192881 L13.5285955,1.52859548 Z" id="路径" fill="#D8DDEF"></path>
                <path d="M5.86192881,9.19526215 C6.12227834,8.93491262 6.54438833,8.93491262 6.80473785,9.19526215 C7.03905243,9.42957672 7.06248389,9.79491727 6.87503223,10.055437 L6.80473785,10.1380712 L2.47140452,14.4714045 C2.21105499,14.731754 1.78894501,14.731754 1.52859548,14.4714045 C1.2942809,14.2370899 1.27084945,13.8717494 1.45830111,13.6112296 L1.52859548,13.5285955 L5.86192881,9.19526215 Z" id="路径" fill="#D8DDEF"></path>
            </g>
        </g>
    </g>
</svg>