<?xml version="1.0" encoding="UTF-8"?>
<svg width="24px" height="24px" viewBox="0 0 24 24" version="1.1" xmlns="http://www.w3.org/2000/svg" xmlns:xlink="http://www.w3.org/1999/xlink">
    <title>椭圆形 + 形状结合 蒙版备份</title>
    <defs>
        <rect id="path-1" x="0" y="0" width="24" height="24"></rect>
    </defs>
    <g id="页面-1" stroke="none" stroke-width="1" fill="none" fill-rule="evenodd">
        <g id="切图" transform="translate(-1454.000000, -81.000000)">
            <g id="椭圆形-+-形状结合-蒙版备份" transform="translate(1454.000000, 81.000000)">
                <mask id="mask-2" fill="white">
                    <use xlink:href="#path-1"></use>
                </mask>
                <use id="蒙版" fill="#D8D8D8" opacity="0" xlink:href="#path-1"></use>
                <g id="摄像_monitor-(1)" mask="url(#mask-2)" fill-rule="nonzero">
                    <rect id="矩形" fill-opacity="0.01" fill="#FFFFFF" opacity="0" x="0" y="0" width="24" height="24"></rect>
                    <g id="编组-19" transform="translate(2.500000, 5.500000)" fill="#6C7186">
                        <path d="M14.9,0 L0.5,0 C0.223857625,0 -1.15463195e-14,0.223857625 -1.15463195e-14,0.5 L-1.15463195e-14,13.5 C-1.15463195e-14,13.7761424 0.223857625,14 0.5,14 L14.9,14 C15.1761424,14 15.4,13.7761424 15.4,13.5 L15.4,0.5 C15.4,0.223857625 15.1761424,0 14.9,0 Z M14.399,1 L14.399,13 L1,13 L1,1 L14.399,1 Z" id="矩形"></path>
                        <path d="M18.1717023,1.98002138 L14.5717023,5.11394995 C14.4626211,5.20890904 14.4,5.34644798 14.4,5.49107143 L14.4,8.50892857 C14.4,8.65355202 14.4626211,8.79109096 14.5717023,8.88605005 L18.1717023,12.0199786 C18.4952589,12.3016462 19,12.0718391 19,11.6428571 L19,2.35714286 C19,1.92816091 18.4952589,1.69835379 18.1717023,1.98002138 Z M18,3.455 L18,10.544 L15.399,8.28 L15.399,5.719 L18,3.455 Z" id="路径"></path>
                        <path d="M5.97086774,4.35259792 C6.13089458,4.1664744 6.39810673,4.12698908 6.60257213,4.24695334 L6.67597351,4.29943917 L9.37597351,6.62086774 C9.58222713,6.7982022 9.6051442,7.10176735 9.44472471,7.30715308 L9.37597351,7.37913226 L6.67597351,9.70056083 C6.46658454,9.88059103 6.15089793,9.85679105 5.97086774,9.64740208 C5.8108409,9.46127855 5.81186506,9.19116677 5.96112886,9.00699879 L6.02402649,8.94229631 L8.283,7 L6.02402649,5.05770369 C5.83790297,4.89767685 5.79841765,4.6304647 5.91838192,4.4259993 L5.97086774,4.35259792 Z" id="路径"></path>
                    </g>
                </g>
            </g>
        </g>
    </g>
</svg>