<?xml version="1.0" encoding="UTF-8"?>
<svg width="16px" height="16px" viewBox="0 0 16 16" version="1.1" xmlns="http://www.w3.org/2000/svg" xmlns:xlink="http://www.w3.org/1999/xlink">
    <title>历史记录_history (1)</title>
    <g id="页面-1" stroke="none" stroke-width="1" fill="none" fill-rule="evenodd">
        <g id="切图" transform="translate(-234.000000, -954.000000)" fill-rule="nonzero">
            <g id="历史记录_history-(1)" transform="translate(234.000000, 954.000000)">
                <rect id="矩形" fill-opacity="0.01" fill="#FFFFFF" x="0" y="0" width="16" height="16"></rect>
                <g id="历史记录_history-(2)" transform="translate(1.000000, 1.000000)">
                    <rect id="矩形" fill-opacity="0.01" fill="#FFFFFF" x="0" y="0" width="14" height="14"></rect>
                    <path d="M1.69698667,1.37879292 C1.98693616,1.37879292 2.22747657,1.59033837 2.27268515,1.86750655 L2.28032,1.96212625 L2.28,3.5 L3.81820833,3.5 C4.10815783,3.5 4.34869823,3.71154546 4.39390682,3.98871364 L4.40154167,4.08333333 C4.40154167,4.37328283 4.18999621,4.61382323 3.91282803,4.65903182 L3.81820833,4.66666667 L1.11365333,4.66666667 L1.11365333,1.96212625 C1.11365333,1.63996015 1.37482056,1.37879292 1.69698667,1.37879292 Z" id="路径" fill="#2C7BE5"></path>
                    <path d="M7,0.583333333 C10.5438286,0.583333333 13.4166667,3.4561714 13.4166667,7 C13.4166667,10.5438286 10.5438286,13.4166667 7,13.4166667 C3.4561714,13.4166667 0.583333333,10.5438286 0.583333333,7 C0.583333333,6.6778339 0.844500563,6.41666667 1.16666667,6.41666667 C1.48883277,6.41666667 1.75,6.6778339 1.75,7 C1.75,9.8994964 4.1005036,12.25 7,12.25 C9.8994964,12.25 12.25,9.8994964 12.25,7 C12.25,4.1005036 9.8994964,1.75 7,1.75 C5.10387529,1.75 3.38487943,2.76315195 2.45229769,4.37492171 C2.29095181,4.65377384 1.93410083,4.74903148 1.6552487,4.5876856 C1.37639658,4.42633973 1.28113894,4.06948875 1.44248481,3.79063662 C2.58154604,1.82201084 4.68318688,0.583333333 7,0.583333333 Z" id="路径" fill="#2C7BE5"></path>
                    <path d="M7.00151662,2.91666667 C7.29146612,2.91666667 7.53198538,3.12826513 7.57716627,3.40543783 L7.58479166,3.50005829 L7.584,6.761 L9.88674562,9.06324604 C10.0892397,9.26574012 10.111739,9.58006859 9.95424365,9.80741475 L9.88674562,9.88820396 C9.68425155,10.090698 9.36992308,10.1131974 9.14257691,9.95570198 L9.06178771,9.88820396 L6.41775085,7.2441671 L6.418125,3.49994171 C6.4181572,3.17777561 6.67935052,2.91666667 7.00151662,2.91666667 Z" id="路径" fill="#2C7BE5"></path>
                </g>
            </g>
        </g>
    </g>
</svg>
