<?xml version="1.0" encoding="UTF-8"?>
<svg width="16px" height="16px" viewBox="0 0 16 16" version="1.1" xmlns="http://www.w3.org/2000/svg" xmlns:xlink="http://www.w3.org/1999/xlink">
    <title>视频通道</title>
    <defs>
        <rect id="path-1" x="0" y="0" width="16" height="16"></rect>
    </defs>
    <g id="页面-1" stroke="none" stroke-width="1" fill="none" fill-rule="evenodd">
        <g id="切图" transform="translate(-684.000000, -931.000000)">
            <g id="形状" transform="translate(684.000000, 931.000000)">
                <mask id="mask-2" fill="white">
                    <use xlink:href="#path-1"></use>
                </mask>
                <use id="蒙版" fill="#D8D8D8" opacity="0" xlink:href="#path-1"></use>
                <path d="M14.623752,5.84963187 L14.623752,12.4622033 C14.6234365,13.3749857 13.8833917,14.1147747 12.9706092,14.1147747 L3.05232346,14.1147747 C2.13976413,14.1144593 1.40006741,13.3747626 1.39975203,12.4622033 L1.39975203,5.84963187 L14.623752,5.84963187 Z" id="路径" fill="#2C7BE5" fill-rule="nonzero" mask="url(#mask-2)"></path>
                <path d="M11.783752,2.54391755 C12.2740378,2.54391755 12.7391806,2.76220329 13.0528949,3.13877473 L14.6243235,5.02334615 L1.39918061,5.02334615 L2.96946632,3.13877473 C3.28361596,2.76177669 3.74902043,2.54383424 4.23975203,2.54391755 L11.7826092,2.54391755 L11.783752,2.54391755 Z" id="路径" fill="#00DEAB" fill-rule="nonzero" mask="url(#mask-2)"></path>
                <path d="M12.0830246,10.5471036 L9.4707903,13.0818035 L9.4707903,12.0447394 L3.89918061,12.0447394 L3.89918061,10.5471036 L12.0830246,10.5471036 Z M6.5114149,7.04391752 L6.5114149,8.08098163 L12.0830246,8.08098163 L12.0830246,9.57861744 L3.89918061,9.57861744 L6.5114149,7.04391752 Z" id="形状结合" fill="#FFFFFF" mask="url(#mask-2)"></path>
            </g>
        </g>
    </g>
</svg>