<?xml version="1.0" encoding="UTF-8"?>
<svg width="16px" height="16px" viewBox="0 0 16 16" version="1.1" xmlns="http://www.w3.org/2000/svg" xmlns:xlink="http://www.w3.org/1999/xlink">
    <title>审核_提交</title>
    <g id="页面-1" stroke="none" stroke-width="1" fill="none" fill-rule="evenodd">
        <g id="天影平台-算法配置备份" transform="translate(-1215.000000, -317.000000)">
            <g id="审核_提交" transform="translate(1215.000000, 317.000000)">
                <rect id="矩形" fill-opacity="0.01" fill="#FFFFFF" fill-rule="nonzero" x="0" y="0" width="16" height="16"></rect>
                <g id="编组" transform="translate(0.999534, 0.000000)">
                    <path d="M7.01937007,13.6670901 L0.667133002,13.6666667 L0.667133002,12.3333333 L6.22805671,12.3332846 C6.40372359,12.8303125 6.67483541,13.2822551 7.01937007,13.6670901 Z M6.10706634,2.39808173e-14 C8.20684468,2.39808173e-14 9.71259967,1.21962775 9.71259967,3.6176 C9.71259967,4.67816455 9.42452269,5.45489607 8.88272442,6.15549848 L8.74200888,6.32918325 L8.43413598,6.67070399 L8.17475352,6.96439312 L8.13229845,7.01821576 L8.11939245,7.03715537 L8.11939245,7.03715537 L8.10914458,7.05284731 L8.08729821,7.09167218 L8.08746634,7.347 L8.36869004,7.34688421 C7.82352392,7.5907704 7.34292883,7.95310739 6.95963571,8.40116425 C6.83989268,8.23858828 6.78455079,8.00168249 6.7641794,7.68426569 L6.75746035,7.54187755 L6.75396634,7.09306667 C6.75396634,6.83902803 6.82462306,6.60971517 6.95313833,6.38916605 L7.03708813,6.25776053 L7.14317634,6.12194036 L7.29630123,5.94310246 L7.70674788,5.48722056 L7.83889021,5.32567967 C8.20149386,4.85161673 8.37926634,4.35555284 8.37926634,3.6176 C8.37926634,2.02522953 7.52504983,1.33333333 6.10706634,1.33333333 C4.63169124,1.33333333 3.674433,2.0567729 3.674433,3.6176 C3.674433,4.35617599 3.85834438,4.88873832 4.21634251,5.38320836 L4.3421094,5.54685123 L4.48530046,5.71236309 L4.94077818,6.22019642 C5.11094076,6.42551656 5.21340589,6.59755728 5.27103343,6.81310829 C5.28731702,6.8740157 5.29845193,6.93588025 5.30406592,6.99852841 L5.30829967,7.09306667 L5.3047638,7.50814855 L5.29563249,7.6895912 C5.28698186,7.79474472 5.27259969,7.87451077 5.24885385,7.96626351 C5.14596278,8.36382943 4.85764932,8.62912934 4.458947,8.67408002 L4.33609967,8.68086667 L1.33446634,8.68 L1.33346634,10.333 L6.05576048,10.3334018 C6.01939488,10.5501859 6.00046634,10.7728824 6.00046634,11 C6.00046634,11.2271176 6.01939488,11.4498141 6.05576048,11.6665982 L3.85824706e-12,11.6666667 L0.00192388796,8.34644638 C0.00275882708,7.83435039 0.388304222,7.41249929 0.885516955,7.35436736 L1.00211634,7.34753333 L3.97346634,7.347 L3.97446634,7.147 L3.92150103,7.07998066 L3.35934377,6.44976921 L3.30728994,6.38764043 C2.68396247,5.6204667 2.34109967,4.7653114 2.34109967,3.6176 C2.34109967,1.22623146 3.96365422,2.39808173e-14 6.10706634,2.39808173e-14 Z" id="形状结合" fill="#2C7BE5" fill-rule="nonzero"></path>
                    <polyline id="路径-2" stroke="#2C7BE5" stroke-width="1.3" points="12.0004997 11 10.0004663 9.02408746 8.03399883 11"></polyline>
                    <line x1="10.0004663" y1="13.5320715" x2="10.0004663" y2="9.87744856" id="路径-3" stroke="#2C7BE5" stroke-width="1.3"></line>
                    <circle id="椭圆形" stroke="#2C7BE5" stroke-width="1.3" cx="10.0004663" cy="11" r="4"></circle>
                </g>
            </g>
        </g>
    </g>
</svg>