<?xml version="1.0" encoding="UTF-8"?>
<svg width="16px" height="16px" viewBox="0 0 16 16" version="1.1" xmlns="http://www.w3.org/2000/svg" xmlns:xlink="http://www.w3.org/1999/xlink">
    <title>轮播</title>
    <defs>
        <rect id="path-1" x="0" y="0" width="16" height="16"></rect>
    </defs>
    <g id="页面-1" stroke="none" stroke-width="1" fill="none" fill-rule="evenodd">
        <g id="切图" transform="translate(-1454.000000, -27.000000)">
            <g id="轮播" transform="translate(1454.000000, 27.000000)">
                <mask id="mask-2" fill="white">
                    <use xlink:href="#path-1"></use>
                </mask>
                <use id="蒙版" fill="#D8D8D8" opacity="0" xlink:href="#path-1"></use>
                <g mask="url(#mask-2)">
                    <g transform="translate(0.683290, 3.000000)">
                        <path d="M0.443658009,8.8456 L1.34285801,8.8456 L1.34285801,1.204 L0.443658009,1.204 C0.138112459,1.31852725 -0.0435990796,1.63333746 0.0100580091,1.9552 L0.0100580091,8.0904 C-0.0459419909,8.4136 0.136458009,8.7304 0.443658009,8.8456 Z M13.3483682,8.8424 L14.3003682,8.8424 C14.6077353,8.72727065 14.7897969,8.4098385 14.7339682,8.0864 L14.7339682,1.9512 C14.7855558,1.63070449 14.604227,1.31823001 14.3003682,1.204 L13.3483682,1.2 L13.3483682,8.8424 Z" id="形状" fill="#717894" fill-rule="nonzero"></path>
                        <path d="M11.6973302,-9.23705556e-14 C12.0395662,0.00138465799 12.3167102,0.320548325 12.3167102,0.713098865 L12.3167102,9.28690114 C12.3167102,9.47659928 12.2509472,9.65798948 12.1341843,9.7923013 C12.0242022,9.92261068 11.8654701,9.99819465 11.6980013,10 L2.93810328,10 C2.59519629,10 2.31671018,9.68083633 2.31671018,9.28690114 L2.31671018,0.713098865 C2.32274964,0.319855996 2.59989365,0.00346164497 2.94280064,-9.23705556e-14 L11.6973302,-9.23705556e-14 Z M6.27871018,2.821 C6.19672629,2.82124046 6.13029217,2.89047355 6.13029217,2.97493769 L6.13029217,6.73913043 C6.13023639,6.795375 6.15996286,6.84715908 6.20779543,6.87414246 C6.25562801,6.90112584 6.3139264,6.89899847 6.35979165,6.86859596 L9.18290264,4.98615342 C9.2253977,4.95784426 9.25106583,4.90922195 9.25106583,4.85703406 C9.25106583,4.80484618 9.2253977,4.75622386 9.18290264,4.72791471 L6.3591206,2.84547217 L6.32054473,2.82738831 L6.32054473,2.82738831 L6.27871018,2.821 Z" id="形状结合" fill="#C0C6E0" fill-rule="evenodd"></path>
                    </g>
                </g>
            </g>
        </g>
    </g>
</svg>