<?xml version="1.0" encoding="UTF-8"?>
<svg width="16px" height="16px" viewBox="0 0 16 16" version="1.1" xmlns="http://www.w3.org/2000/svg" xmlns:xlink="http://www.w3.org/1999/xlink">
    <title>模板-未</title>
    <g id="页面-1" stroke="none" stroke-width="1" fill="none" fill-rule="evenodd">
        <g id="切图" transform="translate(-736.000000, -953.000000)" fill-rule="nonzero">
            <g id="模板-未" transform="translate(736.000000, 953.000000)">
                <g id="Sicon-BG">
                    <rect x="0" y="0" width="16" height="16"></rect>
                </g>
                <g id="模板-(1)" transform="translate(2.000000, 2.000000)">
                    <path d="M0,10.539075 C0,10.7942584 0.209278196,10.9984051 0.470875942,10.9984051 L2.37226534,10.9984051 L2.37226534,4.03313199 L0,4.03313199 L0,10.539075 Z" id="路径" fill="#A2A9C4"></path>
                    <path d="M11.2683229,0.459330144 C11.2683229,0.20414673 11.0590447,0 10.797447,0 L0.470875942,0 C0.209278196,0 0,0.20414673 0,0.459330144 L0,2.74960128 L11.2683229,2.74960128 L11.2683229,0.459330144 Z" id="路径" fill="#A2A9C4"></path>
                    <path d="M6.19986657,8.89314195 L6.3241255,8.82296651 L6.3241255,8.73365231 L6.3241255,8.64433812 L6.19986657,8.57416268 C5.7551504,8.32535885 5.59819176,7.76395534 5.8597895,7.33014354 L6.54648358,6.16905901 C6.80808133,5.73524721 7.37705643,5.58213716 7.82177259,5.83732057 L7.95257147,5.90749601 C7.97873124,5.89473684 7.99835107,5.88197767 8.02451085,5.86283892 C8.05067062,5.85007974 8.0768304,5.83094099 8.10299017,5.81818182 L8.10299017,5.67783094 C8.10299017,5.1738437 8.52154656,4.76555024 9.03820211,4.76555024 L10.4246702,4.76555024 C10.7843671,4.76555024 11.1113642,4.96969697 11.2683229,5.28867624 L11.2683229,4.03313199 L3.75392765,4.03313199 L3.75392765,10.9984051 L6.36990511,10.9984051 L5.8597895,10.1371611 C5.6047317,9.70334928 5.7551504,9.14194577 6.19986657,8.89314195 Z" id="路径" fill="#A2A9C4"></path>
                    <path d="M9.73797608,8.36363636 C9.52869788,8.36363636 9.35865935,8.52950558 9.35865935,8.73365231 C9.35865935,8.93779904 9.52869788,9.10366826 9.73797608,9.10366826 C9.94725428,9.10366826 10.1172928,8.93779904 10.1172928,8.73365231 C10.1172928,8.52950558 9.94725428,8.36363636 9.73797608,8.36363636 Z" id="路径" fill="#FFFFFF"></path>
                    <path d="M12.8967689,9.51196172 L12.530532,9.30781499 C12.4324329,9.25677831 12.3670334,9.12280702 12.3866533,9.01435407 C12.3997331,8.91866029 12.4062731,8.82934609 12.4062731,8.73365231 C12.4062731,8.63795853 12.3997331,8.54864434 12.3866533,8.45295056 C12.3735734,8.34449761 12.4389728,8.2169059 12.530532,8.15948963 L12.8967689,7.9553429 C12.994868,7.89792663 13.0275677,7.7830941 12.9687082,7.68740032 L12.2820142,6.52631579 C12.2231547,6.43062201 12.1054357,6.39872408 12.0073365,6.45614035 L11.6410997,6.66028708 C11.5430005,6.71132376 11.3925818,6.70494418 11.3075626,6.63476874 C11.2290832,6.57735247 11.1506039,6.52631579 11.0721246,6.48165869 C10.9871053,6.43700159 10.902086,6.3923445 10.8105268,6.35406699 C10.7058877,6.31578947 10.6208685,6.18819777 10.6208685,6.0861244 L10.6208685,5.67783094 C10.6208685,5.56937799 10.5293093,5.4800638 10.4181302,5.4800638 L9.03820211,5.4800638 C8.92702307,5.4800638 8.83546386,5.56937799 8.83546386,5.67783094 L8.83546386,6.0861244 C8.83546386,6.19457735 8.75044459,6.31578947 8.64580549,6.35406699 C8.55424628,6.3923445 8.46922701,6.43062201 8.38420775,6.48165869 C8.29918848,6.52631579 8.22070916,6.57735247 8.14876978,6.63476874 C8.06375051,6.69856459 7.9133318,6.71132376 7.81523265,6.66028708 L7.44899581,6.45614035 C7.35089665,6.40510367 7.22663772,6.43700159 7.17431817,6.52631579 L6.49416403,7.68740032 C6.44184449,7.7830941 6.4745442,7.90430622 6.56610341,7.9553429 L6.93234026,8.15948963 C7.03043941,8.21052632 7.09583885,8.34449761 7.07621902,8.45295056 C7.05005924,8.63795853 7.05005924,8.82934609 7.07621902,9.01435407 C7.08929891,9.12280702 7.02389947,9.25039872 6.93234026,9.30781499 L6.56610341,9.51196172 C6.46800426,9.56937799 6.43530454,9.68421053 6.49416403,9.77990431 L7.18085812,10.9473684 C7.23971761,11.0430622 7.3574366,11.0749601 7.45553575,11.0175439 L7.82177259,10.8133971 C7.91987175,10.7623604 8.07029045,10.76874 8.15530972,10.8389155 C8.2272491,10.8899522 8.30572842,10.9409888 8.3776678,10.9856459 C8.46268707,11.0366826 8.55424628,11.0813397 8.65234544,11.1196172 C8.75698453,11.1578947 8.8420038,11.2854864 8.8420038,11.3939394 L8.8420038,11.8022329 C8.8420038,11.9106858 8.93356301,12 9.04474205,12 L10.4246702,12 C10.5358492,12 10.6274084,11.9106858 10.6274084,11.8022329 L10.6274084,11.3875598 C10.6274084,11.2791069 10.7124277,11.1578947 10.8170668,11.1196172 C10.908626,11.0813397 10.9936453,11.0430622 11.0721246,10.9920255 C11.1571439,10.9473684 11.2356232,10.8963317 11.3141025,10.8389155 C11.3991218,10.7751196 11.5495405,10.7623604 11.6476396,10.8133971 L12.0138765,11.0175439 C12.1119756,11.0685805 12.2362346,11.0366826 12.2885541,10.9473684 L12.9752482,9.77990431 C13.0275677,9.68421053 12.994868,9.56937799 12.8967689,9.51196172 L12.8967689,9.51196172 Z M9.73797608,9.81818182 C9.73143614,9.81818182 9.73143614,9.81818182 9.73797608,9.81818182 C9.12322138,9.81818182 8.62618566,9.33333333 8.62618566,8.73365231 C8.62618566,8.13397129 9.12322138,7.64912281 9.73797608,7.64912281 C10.3527308,7.64912281 10.8497665,8.13397129 10.8497665,8.73365231 C10.8497665,9.33333333 10.3527308,9.81818182 9.73797608,9.81818182 Z" id="形状" fill="#717894"></path>
                </g>
            </g>
        </g>
    </g>
</svg>