<?xml version="1.0" encoding="UTF-8"?>
<svg width="2px" height="10px" viewBox="0 0 2 10" version="1.1" xmlns="http://www.w3.org/2000/svg" xmlns:xlink="http://www.w3.org/1999/xlink">
    <title>Panel-Heading-Label</title>
    <g id="页面-1" stroke="none" stroke-width="1" fill="none" fill-rule="evenodd">
        <g id="切图" transform="translate(-151.000000, -1146.000000)" fill="#3B444F">
            <path d="M152,1148 C152.55,1148 153,1147.55 153,1147 C153,1146.45 152.55,1146 152,1146 C151.45,1146 151,1146.45 151,1147 C151,1147.55 151.45,1148 152,1148 L152,1148 Z M152,1150 C151.45,1150 151,1150.45 151,1151 C151,1151.55 151.45,1152 152,1152 C152.55,1152 153,1151.55 153,1151 C153,1150.45 152.55,1150 152,1150 L152,1150 Z M152,1154 C151.45,1154 151,1154.45 151,1155 C151,1155.55 151.45,1156 152,1156 C152.55,1156 153,1155.55 153,1155 C153,1154.45 152.55,1154 152,1154 L152,1154 Z" id="Panel-Heading-Label"></path>
        </g>
    </g>
</svg>