<?xml version="1.0" encoding="UTF-8"?>
<svg width="2px" height="10px" viewBox="0 0 2 10" version="1.1" xmlns="http://www.w3.org/2000/svg" xmlns:xlink="http://www.w3.org/1999/xlink">
    <title>Panel-Heading-Label</title>
    <g id="页面-1" stroke="none" stroke-width="1" fill="none" fill-rule="evenodd">
        <g id="切图" transform="translate(-1530.000000, -604.000000)" fill="#3B444F">
            <path d="M1531,606 C1531.55,606 1532,605.55 1532,605 C1532,604.45 1531.55,604 1531,604 C1530.45,604 1530,604.45 1530,605 C1530,605.55 1530.45,606 1531,606 L1531,606 Z M1531,608 C1530.45,608 1530,608.45 1530,609 C1530,609.55 1530.45,610 1531,610 C1531.55,610 1532,609.55 1532,609 C1532,608.45 1531.55,608 1531,608 L1531,608 Z M1531,612 C1530.45,612 1530,612.45 1530,613 C1530,613.55 1530.45,614 1531,614 C1531.55,614 1532,613.55 1532,613 C1532,612.45 1531.55,612 1531,612 L1531,612 Z" id="Panel-Heading-Label"></path>
        </g>
    </g>
</svg>