<?xml version="1.0" encoding="UTF-8"?>
<svg width="16px" height="16px" viewBox="0 0 16 16" version="1.1" xmlns="http://www.w3.org/2000/svg" xmlns:xlink="http://www.w3.org/1999/xlink">
    <title>下载1_download-one</title>
    <g id="页面-1" stroke="none" stroke-width="1" fill="none" fill-rule="evenodd">
        <g id="切图" transform="translate(-1637.000000, -59.000000)" fill-rule="nonzero">
            <g id="下载1_download-one" transform="translate(1637.000000, 59.000000)">
                <rect id="矩形" fill-opacity="0.01" fill="#FFFFFF" opacity="0" x="0" y="0" width="16" height="16"></rect>
                <g id="编组-15" transform="translate(0.666667, 1.300000)">
                    <path d="M3.07165626,4.10842208 C3.42985595,4.02323562 3.78929145,4.24455657 3.87447792,4.60275626 C3.95966438,4.96095595 3.73834343,5.32039145 3.38014374,5.40557792 C2.18916746,5.68881395 1.33333333,6.75836632 1.33333333,8 C1.33333333,9.47274977 2.5272461,10.6666667 4,10.6666667 C4.24976285,10.6666667 4.49424422,10.6325246 4.72901283,10.5659731 C5.08324474,10.4655564 5.45181024,10.6713143 5.55222693,11.0255462 C5.65264362,11.3797781 5.44688574,11.7483436 5.09265383,11.8487603 C4.73985654,11.9487703 4.37301513,12 4,12 C1.79086541,12 -5.85753668e-13,10.2091284 -5.85753668e-13,8 C-5.85753668e-13,6.1373772 1.28318779,4.53375274 3.07165626,4.10842208 Z" id="路径" fill="#C8DBFF"></path>
                    <path d="M10.7029883,4.60275825 C10.7881736,4.2445583 11.1476085,4.02323624 11.5058084,4.10842161 C13.2942901,4.5337496 14.5774667,6.13736886 14.5774667,8 C14.5774667,10.2091336 12.7866127,12 10.5774667,12 C10.2044515,12 9.83761013,11.9487703 9.48481283,11.8487603 C9.13058093,11.7483436 8.92482304,11.3797781 9.02523973,11.0255462 C9.12565642,10.6713143 9.49422193,10.4655564 9.84845383,10.5659731 C10.0832224,10.6325246 10.3277038,10.6666667 10.5774667,10.6666667 C12.050231,10.6666667 13.2441333,9.47275604 13.2441333,8 C13.2441333,6.75835715 12.3883102,5.68881272 11.1973249,5.40557839 C10.839125,5.32039302 10.6178029,4.9609582 10.7029883,4.60275825 Z" id="路径" fill="#C8DBFF"></path>
                    <path d="M7.33333333,7.54951657e-14 C9.9106565,7.54951657e-14 12,2.0893435 12,4.66666667 C12,5.0348565 11.7015232,5.33333333 11.3333333,5.33333333 C10.9651435,5.33333333 10.6666667,5.0348565 10.6666667,4.66666667 C10.6666667,2.82572317 9.17427683,1.33333333 7.33333333,1.33333333 C5.49238983,1.33333333 4,2.82572317 4,4.66666667 C4,5.0348565 3.70152317,5.33333333 3.33333333,5.33333333 C2.9651435,5.33333333 2.66666667,5.0348565 2.66666667,4.66666667 C2.66666667,2.0893435 4.75601017,7.54951657e-14 7.33333333,7.54951657e-14 Z" id="路径" fill="#C8DBFF"></path>
                    <path d="M9.24104045,7.5267577 C9.50240495,7.26742712 9.92451171,7.26907594 10.1838423,7.53044045 C10.4172398,7.7656685 10.439244,8.13109778 10.2507762,8.39088335 L10.1801596,8.4732423 L7.3306845,11.3005429 L4.54961904,8.51029346 C4.28969903,8.24951512 4.29039486,7.82740571 4.5511732,7.5674857 C4.78587371,7.3335577 5.15125239,7.31072852 5.4114628,7.49860937 L5.49398096,7.56903987 L7.33533333,9.417 L9.24104045,7.5267577 Z" id="路径" fill="#6F82A6"></path>
                    <path d="M7.33333333,4 C7.66805136,4 7.94515534,4.24667507 7.99277162,4.56815155 L8,4.66666667 L8,9.1794 C8,9.54758983 7.70152317,9.84606667 7.33333333,9.84606667 C6.9986153,9.84606667 6.72151132,9.5993916 6.67389505,9.27791511 L6.66666667,9.1794 L6.66666667,4.66666667 C6.66666667,4.29847683 6.9651435,4 7.33333333,4 Z" id="路径" fill="#6F82A6"></path>
                </g>
            </g>
        </g>
    </g>
</svg>