<?xml version="1.0" encoding="UTF-8"?>
<svg width="16px" height="16px" viewBox="0 0 16 16" version="1.1" xmlns="http://www.w3.org/2000/svg" xmlns:xlink="http://www.w3.org/1999/xlink">
    <title>播放进度_playback-progress</title>
    <defs>
        <rect id="path-1" x="0" y="0" width="16" height="16"></rect>
    </defs>
    <g id="页面-1" stroke="none" stroke-width="1" fill="none" fill-rule="evenodd">
        <g id="切图" transform="translate(-1666.000000, -59.000000)">
            <g id="编组-14" transform="translate(1666.000000, 59.000000)">
                <mask id="mask-2" fill="white">
                    <use xlink:href="#path-1"></use>
                </mask>
                <g id="蒙版" opacity="0"></g>
                <g mask="url(#mask-2)" fill-rule="nonzero">
                    <g transform="translate(1.533333, 2.000000)">
                        <path d="M13,-1.86517468e-14 L0,-1.86517468e-14 L0,8.57142857 L13,8.57142857 L13,-1.86517468e-14 Z M11.8175909,1.14228571 L11.8175909,7.42771429 L1.18122727,7.42771429 L1.18122727,1.14228571 L11.8175909,1.14228571 Z" id="矩形" fill="#2C7BE5"></path>
                        <polygon id="路径" fill="#0CD5A7" points="5.31818182 2.07513309 5.31818182 6.49629548 8.7470947 4.28571429"></polygon>
                        <path d="M2.65909091,10 C2.98544099,10 3.25,10.2558373 3.25,10.5714286 C3.25,10.8583297 3.03135619,11.0958474 2.74641112,11.1366614 L2.65909091,11.1428571 L1.18181818,11.1428571 C0.855468102,11.1428571 0.590909091,10.8870199 0.590909091,10.5714286 C0.590909091,10.2845274 0.809552902,10.0470097 1.09449797,10.0061958 L1.18181818,10 L2.65909091,10 Z" id="路径" fill="#2C7BE5"></path>
                        <path d="M11.8218182,10 C12.1481683,10 12.4127273,10.2558373 12.4127273,10.5714286 C12.4127273,10.8583297 12.1940835,11.0958474 11.9091384,11.1366614 L11.8218182,11.1428571 L4.43545455,11.1428571 C4.10910447,11.1428571 3.84454545,10.8870199 3.84454545,10.5714286 C3.84454545,10.2845274 4.06318927,10.0470097 4.34813433,10.0061958 L4.43545455,10 L11.8218182,10 Z" id="路径" fill="#2C7BE5"></path>
                        <path d="M3.54727273,9.14285714 C2.73138401,9.14285714 2.07,9.78243729 2.07,10.5714286 C2.07,11.3604199 2.73138401,12 3.54727273,12 C4.36316144,12 5.02454545,11.3604199 5.02454545,10.5714286 C5.02454545,9.78243729 4.36316144,9.14285714 3.54727273,9.14285714 Z M3.54727273,10.2857143 C3.71046128,10.2857143 3.84272727,10.4136199 3.84272727,10.5714286 C3.84272727,10.7292373 3.71046128,10.8571429 3.54727273,10.8571429 C3.38408417,10.8571429 3.25181818,10.7292373 3.25181818,10.5714286 C3.25181818,10.4136199 3.38408417,10.2857143 3.54727273,10.2857143 Z" id="路径" fill="#2C7BE5"></path>
                    </g>
                </g>
            </g>
        </g>
    </g>
</svg>