<?xml version="1.0" encoding="UTF-8"?>
<svg width="16px" height="16px" viewBox="0 0 16 16" version="1.1" xmlns="http://www.w3.org/2000/svg" xmlns:xlink="http://www.w3.org/1999/xlink">
    <title>编组 10</title>
    <g id="页面-1" stroke="none" stroke-width="1" fill="none" fill-rule="evenodd">
        <g id="切图" transform="translate(-1727.000000, -59.000000)">
            <g id="编组-10" transform="translate(1727.000000, 59.000000)">
                <rect id="矩形" fill="#D8D8D8" opacity="0" x="0" y="0" width="16" height="16"></rect>
                <g id="播放器_play-two-(1)" transform="translate(1.333333, 1.333333)" fill="#FFFFFF" fill-rule="nonzero">
                    <path d="M11.6666667,0 L1.66666667,0 C0.746192084,0 0,0.746192084 0,1.66666667 L0,11.6666667 C0,12.5871412 0.746192084,13.3333333 1.66666667,13.3333333 L11.6666667,13.3333333 C12.5871412,13.3333333 13.3333333,12.5871412 13.3333333,11.6666667 L13.3333333,1.66666667 C13.3333333,0.746192084 12.5871412,0 11.6666667,0 Z M1.66666667,1.33333333 L11.6666667,1.33333333 C11.8507616,1.33333333 12,1.48257175 12,1.66666667 L12,11.6666667 C12,11.8507616 11.8507616,12 11.6666667,12 L1.66666667,12 C1.48257175,12 1.33333333,11.8507616 1.33333333,11.6666667 L1.33333333,1.66666667 C1.33333333,1.48257175 1.48257175,1.33333333 1.66666667,1.33333333 Z" id="矩形"></path>
                    <path d="M4.16666667,2.91390158 L4.16666667,10.4194318 L10.6666667,6.66666667 L4.16666667,2.91390158 Z M5.49966667,5.22266667 L7.99966667,6.66666667 L5.49966667,8.10966667 L5.49966667,5.22266667 Z" id="路径"></path>
                </g>
            </g>
        </g>
    </g>
</svg>