<?xml version="1.0" encoding="UTF-8"?>
<svg width="140px" height="140px" viewBox="0 0 140 140" version="1.1" xmlns="http://www.w3.org/2000/svg" xmlns:xlink="http://www.w3.org/1999/xlink">
    <title>编组 28备份</title>
    <defs>
        <rect id="path-1" x="0" y="0" width="140" height="140"></rect>
        <linearGradient x1="50%" y1="0%" x2="50%" y2="100%" id="linearGradient-3">
            <stop stop-color="#D3E6FD" offset="0%"></stop>
            <stop stop-color="#EAF3FE" stop-opacity="0.583205857" offset="51.2447022%"></stop>
            <stop stop-color="#FFFFFF" stop-opacity="0" offset="100%"></stop>
        </linearGradient>
        <filter x="-14.6%" y="-16.0%" width="129.2%" height="131.9%" filterUnits="objectBoundingBox" id="filter-4">
            <feOffset dx="0" dy="0" in="SourceAlpha" result="shadowOffsetOuter1"></feOffset>
            <feGaussianBlur stdDeviation="1.5" in="shadowOffsetOuter1" result="shadowBlurOuter1"></feGaussianBlur>
            <feColorMatrix values="0 0 0 0 0.546398029   0 0 0 0 0.5879589   0 0 0 0 0.612686821  0 0 0 0.5 0" type="matrix" in="shadowBlurOuter1" result="shadowMatrixOuter1"></feColorMatrix>
            <feMerge>
                <feMergeNode in="shadowMatrixOuter1"></feMergeNode>
                <feMergeNode in="SourceGraphic"></feMergeNode>
            </feMerge>
        </filter>
        <path d="M2.54545455,0 L17.5025631,0 C19.1392252,1.4757069e-15 20.6760838,0.786866309 21.6328924,2.11471421 L29.5290084,13.0728537 C30.0074126,13.7367777 30.775842,14.1302108 31.594173,14.1302108 L42,14.1302108 C43.4058157,14.1302108 44.5454545,15.2698496 44.5454545,16.6756654 L44.5454545,38.1818182 C44.5454545,39.5876339 43.4058157,40.7272727 42,40.7272727 L2.54545455,40.7272727 C1.13963882,40.7272727 -1.16010486e-15,39.5876339 0,38.1818182 L0,2.54545455 C2.71926437e-16,1.13963882 1.13963882,2.034601e-15 2.54545455,0 Z" id="path-5"></path>
        <path d="M2.54545455,0 L28.0689936,0 L28.0689936,0 L36.9090909,10.3112442 L36.9090909,42 C36.9090909,43.4058157 35.7694521,44.5454545 34.3636364,44.5454545 L2.54545455,44.5454545 C1.13963882,44.5454545 -2.71926437e-16,43.4058157 0,42 L0,2.54545455 C-6.16251983e-16,1.13963882 1.13963882,-1.96220189e-15 2.54545455,0 Z" id="path-7"></path>
        <filter x="-20.3%" y="-16.8%" width="140.6%" height="133.7%" filterUnits="objectBoundingBox" id="filter-8">
            <feOffset dx="0" dy="0" in="SourceAlpha" result="shadowOffsetOuter1"></feOffset>
            <feGaussianBlur stdDeviation="2.5" in="shadowOffsetOuter1" result="shadowBlurOuter1"></feGaussianBlur>
            <feColorMatrix values="0 0 0 0 0.662910464   0 0 0 0 0.779039639   0 0 0 0 0.869282156  0 0 0 0.5 0" type="matrix" in="shadowBlurOuter1"></feColorMatrix>
        </filter>
        <path d="M28.0607351,4.63467648e-14 L36.9090909,10.2955575 L30.6061896,10.2955575 C29.2003739,10.2955575 28.0607351,9.15591871 28.0607351,7.75010299 L28.0607351,4.63467648e-14 L28.0607351,4.63467648e-14 Z" id="path-9"></path>
        <filter x="-33.9%" y="-9.7%" width="145.2%" height="138.9%" filterUnits="objectBoundingBox" id="filter-10">
            <feOffset dx="-1" dy="1" in="SourceAlpha" result="shadowOffsetOuter1"></feOffset>
            <feGaussianBlur stdDeviation="0.5" in="shadowOffsetOuter1" result="shadowBlurOuter1"></feGaussianBlur>
            <feColorMatrix values="0 0 0 0 0.806843056   0 0 0 0 0.851535735   0 0 0 0 0.886265851  0 0 0 0.5 0" type="matrix" in="shadowBlurOuter1"></feColorMatrix>
        </filter>
        <path d="M2.54545455,0 L28.0689936,0 L28.0689936,0 L36.9090909,10.3112442 L36.9090909,42 C36.9090909,43.4058157 35.7694521,44.5454545 34.3636364,44.5454545 L2.54545455,44.5454545 C1.13963882,44.5454545 -2.71926437e-16,43.4058157 0,42 L0,2.54545455 C-6.16251983e-16,1.13963882 1.13963882,-1.96220189e-15 2.54545455,0 Z" id="path-11"></path>
        <filter x="-20.3%" y="-16.8%" width="140.6%" height="133.7%" filterUnits="objectBoundingBox" id="filter-12">
            <feOffset dx="0" dy="0" in="SourceAlpha" result="shadowOffsetOuter1"></feOffset>
            <feGaussianBlur stdDeviation="2.5" in="shadowOffsetOuter1" result="shadowBlurOuter1"></feGaussianBlur>
            <feColorMatrix values="0 0 0 0 0.662910464   0 0 0 0 0.779039639   0 0 0 0 0.869282156  0 0 0 0.5 0" type="matrix" in="shadowBlurOuter1"></feColorMatrix>
        </filter>
        <path d="M28.0607351,4.63467648e-14 L36.9090909,10.2955575 L30.6061896,10.2955575 C29.2003739,10.2955575 28.0607351,9.15591871 28.0607351,7.75010299 L28.0607351,4.63467648e-14 L28.0607351,4.63467648e-14 Z" id="path-13"></path>
        <filter x="-33.9%" y="-9.7%" width="145.2%" height="138.9%" filterUnits="objectBoundingBox" id="filter-14">
            <feOffset dx="-1" dy="1" in="SourceAlpha" result="shadowOffsetOuter1"></feOffset>
            <feGaussianBlur stdDeviation="0.5" in="shadowOffsetOuter1" result="shadowBlurOuter1"></feGaussianBlur>
            <feColorMatrix values="0 0 0 0 0.806843056   0 0 0 0 0.851535735   0 0 0 0 0.886265851  0 0 0 0.5 0" type="matrix" in="shadowBlurOuter1"></feColorMatrix>
        </filter>
        <linearGradient x1="50%" y1="0%" x2="50%" y2="100%" id="linearGradient-15">
            <stop stop-color="#FFBC50" offset="0%"></stop>
            <stop stop-color="#FF862B" offset="100%"></stop>
        </linearGradient>
    </defs>
    <g id="页面-1" stroke="none" stroke-width="1" fill="none" fill-rule="evenodd">
        <g id="切图" transform="translate(-870.000000, -859.000000)">
            <g id="编组-28备份" transform="translate(870.000000, 859.000000)">
                <mask id="mask-2" fill="white">
                    <use xlink:href="#path-1"></use>
                </mask>
                <use id="蒙版" fill="#D8D8D8" opacity="0" xlink:href="#path-1"></use>
                <g id="编组-28" mask="url(#mask-2)">
                    <g transform="translate(2.545455, 10.181818)">
                        <path d="M29.4254545,43.2727273 C22.9719726,43.0076716 17.8181818,37.6629046 17.8181818,31.1069519 C17.8181818,25.1999262 22.0021934,20.2761796 27.5509532,19.1724323 C28.9378468,13.993642 33.6392405,10.1818182 39.2254545,10.1818182 C43.4748521,10.1818182 47.212244,12.3875484 49.3684435,15.7232015 L49.531849,15.6820263 C49.9500522,15.585663 50.3854817,15.5347594 50.8327273,15.5347594 C53.2454193,15.5347594 55.3142507,17.016118 56.1898556,19.1242103 C61.866599,20.1232043 66.1818182,25.108021 66.1818182,31.1069519 C66.1818182,37.6629046 61.0280274,43.0076716 54.5746658,43.2631678 L54.5745455,43.2727273 L29.4254545,43.2727273 Z" id="形状结合备份-4" fill="url(#linearGradient-3)" fill-rule="evenodd" opacity="0.452080305"></path>
                        <g id="编组-25" filter="url(#filter-4)" stroke-width="1" fill="none" fill-rule="evenodd" transform="translate(46.454545, 57.272727) rotate(-30.000000) translate(-46.454545, -57.272727) translate(24.181818, 36.909091)">
                            <g id="矩形">
                                <mask id="mask-6" fill="white">
                                    <use xlink:href="#path-5"></use>
                                </mask>
                                <use id="蒙版" fill="#34B0FF" xlink:href="#path-5"></use>
                                <polygon fill="#1696FF" mask="url(#mask-6)" points="-1.27272727 14 45.8181818 14 45.8181818 42 -1.27272727 42"></polygon>
                            </g>
                            <path d="M7.63636364,3.81818182 L42,3.81818182 C43.4058157,3.81818182 44.5454545,4.95782064 44.5454545,6.36363636 L44.5454545,14 L44.5454545,14 L5.09090909,14 L5.09090909,6.36363636 C5.09090909,4.95782064 6.23054791,3.81818182 7.63636364,3.81818182 Z" id="矩形" fill="#E7F4FF"></path>
                            <path d="M5.09090909,14 L44.5454545,14 L44.5454545,33.0909091 C44.5454545,34.4967248 43.4058157,35.6363636 42,35.6363636 L7.63636364,35.6363636 C6.23054791,35.6363636 5.09090909,34.4967248 5.09090909,33.0909091 L5.09090909,14 L5.09090909,14 Z" id="矩形备份-4" fill="#52AEFF"></path>
                        </g>
                        <g id="编组-26备份-2" stroke-width="1" fill="none" fill-rule="evenodd" transform="translate(88.454545, 57.909091) rotate(25.000000) translate(-88.454545, -57.909091) translate(70.000000, 35.636364)">
                            <g id="矩形">
                                <use fill="black" fill-opacity="1" filter="url(#filter-8)" xlink:href="#path-7"></use>
                                <use fill="#FFFFFF" fill-rule="evenodd" xlink:href="#path-7"></use>
                            </g>
                            <rect id="矩形" fill="#EBF4FB" x="5.09090909" y="17.8181818" width="12.7272727" height="3.81818182"></rect>
                            <rect id="矩形备份-6" fill="#EBF4FB" x="5.09090909" y="11.4545455" width="12.7272727" height="3.81818182"></rect>
                            <rect id="矩形备份-5" fill="#EBF4FB" x="5.09090909" y="24.1818182" width="26.7272727" height="8.90909091"></rect>
                            <g id="路径-12">
                                <use fill="black" fill-opacity="1" filter="url(#filter-10)" xlink:href="#path-9"></use>
                                <use fill="#FFFFFF" fill-rule="evenodd" xlink:href="#path-9"></use>
                            </g>
                        </g>
                        <g id="编组-27" stroke-width="1" fill="none" fill-rule="evenodd" transform="translate(98.636364, 64.272727) rotate(25.000000) translate(-98.636364, -64.272727) translate(88.454545, 54.090909)">
                            <rect id="矩形" fill="#00CAAC" x="2.89384678e-13" y="5.78769356e-13" width="20.3636364" height="20.3636364" rx="1.27272727"></rect>
                            <polygon id="x" fill="#FFFFFF" fill-rule="nonzero" points="9.00772727 13.1818182 10.1875455 11.5896364 11.3215455 13.1818182 13.1313636 13.1818182 11.0466364 10.4212727 13.1313636 7.60345455 11.3215455 7.60345455 10.1875455 9.25290909 9.00772727 7.60345455 7.28954545 7.60345455 9.30554545 10.4212727 7.20936364 13.1818182"></polygon>
                        </g>
                        <g id="编组-26" stroke-width="1" fill="none" fill-rule="evenodd" transform="translate(61.727273, 54.090909) rotate(-5.000000) translate(-61.727273, -54.090909) translate(43.272727, 31.818182)">
                            <g id="矩形">
                                <use fill="black" fill-opacity="1" filter="url(#filter-12)" xlink:href="#path-11"></use>
                                <use fill="#FFFFFF" fill-rule="evenodd" xlink:href="#path-11"></use>
                            </g>
                            <rect id="矩形" fill="#EBF4FB" x="5.09090909" y="17.8181818" width="20.3636364" height="3.81818182"></rect>
                            <rect id="矩形备份-5" fill="#EBF4FB" x="5.09090909" y="24.1818182" width="26.7272727" height="8.90909091"></rect>
                            <path d="M7.10947235,13.0909091 L7.10947235,10.4379402 L9.58942149,10.4379402 L9.58942149,13.0909091 L10.9447425,13.0909091 L10.9447425,6.67956771 L9.58942149,6.67956771 L9.58942149,9.29408773 L7.10947235,9.29408773 L7.10947235,6.67956771 L5.7445391,6.67956771 L5.7445391,13.0909091 L7.10947235,13.0909091 Z M14.9530324,13.0909091 C15.7668659,13.0909091 16.3564145,13.0076033 16.7216783,12.8409917 C17.4137572,12.5205849 17.7597966,11.9470566 17.7597966,11.1204069 C17.7597966,10.4667769 17.5355118,9.97014622 17.0869421,9.63051494 C16.9203306,9.50235219 16.7200763,9.41263827 16.4861793,9.36137317 C16.2522823,9.31010807 15.9366815,9.28447552 15.539377,9.28447552 L15.539377,9.28447552 L13.5015893,9.28447552 L13.5015893,7.82342022 L17.4137572,7.82342022 L17.4137572,6.67956771 L12.1462683,6.67956771 L12.1462683,10.4187158 L14.9530324,10.4187158 C15.4080102,10.425124 15.6899682,10.4443484 15.7989065,10.4763891 C15.9334774,10.5148379 16.0424158,10.5997457 16.1257216,10.7311125 C16.2090273,10.8624793 16.2506802,11.0178767 16.2506802,11.1973045 C16.2506802,11.3575079 16.2138334,11.4968849 16.1401399,11.6154355 C16.0664463,11.733986 15.9655181,11.8156898 15.8373554,11.8605467 C15.632295,11.9246281 15.3375207,11.9566688 14.9530324,11.9566688 L14.9530324,11.9566688 L12.1462683,11.9566688 L12.1462683,13.0909091 L14.9530324,13.0909091 Z" id="H5" fill="#A8CBE5" fill-rule="nonzero"></path>
                            <g id="路径-12">
                                <use fill="black" fill-opacity="1" filter="url(#filter-14)" xlink:href="#path-13"></use>
                                <use fill="#FFFFFF" fill-rule="evenodd" xlink:href="#path-13"></use>
                            </g>
                        </g>
                        <circle id="椭圆形" fill-opacity="0.8" fill="url(#linearGradient-15)" fill-rule="evenodd" cx="76.3636364" cy="71.2727273" r="15.2727273"></circle>
                        <path d="M76.720348,75.7132457 L76.720348,72.4071378 C76.720348,72.262133 76.7609493,72.1171283 76.842152,71.9721236 C76.9929569,71.7053149 77.2771662,71.5719105 77.6947798,71.5719105 L77.6947798,71.5719105 L78.3386009,71.5719105 C79.1042259,71.5719105 79.7306463,71.3573035 80.2178622,70.9280895 C80.6354759,70.5510772 80.8442827,70.0986624 80.8442827,69.5708452 L80.8442827,69.5708452 L80.852983,66.3778409 C80.852983,65.9486269 80.7514796,65.5426136 80.548473,65.1598011 C80.3222656,64.7189867 79.9945549,64.3738755 79.5653409,64.1244673 C79.170928,63.8982599 78.5735085,63.7851562 77.7730824,63.7851562 L77.7730824,63.7851562 L72.7965199,63.7851562 L72.7965199,65.9080256 L77.5555753,65.9080256 C78.3154001,65.9080256 78.6924124,66.1951349 78.6866122,66.7693537 L78.6866122,66.7693537 L78.6779119,68.370206 C78.6779119,69.1300308 78.3531013,69.5099432 77.7034801,69.5099432 L77.7034801,69.5099432 L76.7029474,69.5099432 C76.3607363,69.5099432 76.0214252,69.6143466 75.6850142,69.8231534 C75.3022017,70.055161 75.0005919,70.3770715 74.7801847,70.7888849 C74.6003788,71.1136955 74.5104759,71.5893111 74.5104759,72.2157315 L74.5104759,72.2157315 L74.5104759,75.7132457 L76.720348,75.7132457 Z M76.7725497,79.2716619 L76.7725497,77.2183949 L74.5278764,77.2183949 L74.5278764,79.2716619 L76.7725497,79.2716619 Z" id="？" fill="#FFFFFF" fill-rule="nonzero"></path>
                        <path d="M48.6809379,16.5454545 C48.6620861,16.7358574 48.6524341,16.9289766 48.6524341,17.124358 C48.6524341,20.3192909 51.2333674,22.9092958 54.41711,22.9092958 C54.5211645,22.9092958 54.6245751,22.9065292 54.7272727,22.9010653 L54.7272727,23.49602 C54.6245751,23.4905561 54.5211645,23.4877895 54.41711,23.4877895 C51.2873291,23.4877895 48.7400965,25.9907417 48.6546488,29.1108041 L48.6524341,29.2727273 L48.0759665,29.2727273 C48.0759665,26.0777944 45.4950332,23.4877895 42.3112906,23.4877895 C42.2068552,23.4877895 42.1030684,23.4905764 42,23.4960802 L42,22.9010052 C42.1030684,22.9065089 42.2068552,22.9092958 42.3112906,22.9092958 C45.4950332,22.9092958 48.0759665,20.3192909 48.0759665,17.124358 C48.0759665,16.9289766 48.0663144,16.7358574 48.0474627,16.5454545 L48.6809379,16.5454545 Z" id="路径" fill="#FFDE83" fill-rule="evenodd" opacity="0.600000024"></path>
                        <path d="M126.317302,48.3636364 C126.29845,48.5540393 126.288798,48.7471584 126.288798,48.9425399 C126.288798,52.1374727 128.869731,54.7274776 132.053474,54.7274776 C132.157528,54.7274776 132.260939,54.724711 132.363636,54.7192471 L132.363636,55.3142019 C132.260939,55.308738 132.157528,55.3059714 132.053474,55.3059714 C128.923693,55.3059714 126.37646,57.8089235 126.291012,60.9289859 L126.288798,61.0909091 L125.71233,61.0909091 C125.71233,57.8959762 123.131397,55.3059714 119.947654,55.3059714 C119.843219,55.3059714 119.739432,55.3087583 119.636364,55.314262 L119.636364,54.719187 C119.739432,54.7246907 119.843219,54.7274776 119.947654,54.7274776 C123.131397,54.7274776 125.71233,52.1374727 125.71233,48.9425399 C125.71233,48.7471584 125.702678,48.5540393 125.683826,48.3636364 L126.317302,48.3636364 Z" id="路径备份-4" fill="#FFDE83" fill-rule="evenodd" opacity="0.600000024"></path>
                        <path d="M16.9896767,19.0909091 C16.9632842,19.3574731 16.9497714,19.62784 16.9497714,19.901374 C16.9497714,24.37428 20.563078,28.0002868 25.0203176,28.0002868 C25.1659939,28.0002868 25.3107688,27.9964136 25.4545455,27.9887641 L25.4545455,28.8217008 C25.3107688,28.8140513 25.1659939,28.8101781 25.0203176,28.8101781 C20.6386244,28.8101781 17.0724988,32.314311 16.9528719,36.6823984 L16.9497714,36.9090909 L16.1427167,36.9090909 C16.1427167,32.4361849 12.5294101,28.8101781 8.07217054,28.8101781 C7.9259609,28.8101781 7.78065935,28.8140797 7.63636364,28.821785 L7.63636364,27.9886799 C7.78065935,27.9963852 7.9259609,28.0002868 8.07217054,28.0002868 C12.5294101,28.0002868 16.1427167,24.37428 16.1427167,19.901374 C16.1427167,19.62784 16.1292039,19.3574731 16.1028115,19.0909091 L16.9896767,19.0909091 Z" id="路径备份-2" fill="#FFDE83" fill-rule="evenodd"></path>
                        <path d="M67.6449264,0 C67.6336153,0.114241735 67.6278241,0.230113231 67.6278241,0.347342096 C67.6278241,2.26430183 69.1763841,3.81830473 71.0866296,3.81830473 C71.1490623,3.81830473 71.2111087,3.81664477 71.2727273,3.81336643 L71.2727273,4.1703393 C71.2111087,4.16706096 71.1490623,4.165401 71.0866296,4.165401 C69.2087611,4.165401 67.6804216,5.66717226 67.6291529,7.53920971 L67.6278241,7.63636364 L67.2819435,7.63636364 C67.2819435,5.7194039 65.7333836,4.165401 63.823138,4.165401 C63.7604767,4.165401 63.6982047,4.16707314 63.6363636,4.17037537 L63.6363636,3.81333036 C63.6982047,3.8166326 63.7604767,3.81830473 63.823138,3.81830473 C65.7333836,3.81830473 67.2819435,2.26430183 67.2819435,0.347342096 C67.2819435,0.230113231 67.2761523,0.114241735 67.2648413,0 L67.6449264,0 Z" id="路径备份-3" fill="#FFDE83" fill-rule="evenodd" opacity="0.400000006"></path>
                        <path d="M15.4631082,63.6363636 C15.4517971,63.7506054 15.4460059,63.8664769 15.4460059,63.9837057 C15.4460059,65.9006655 16.9945659,67.4546684 18.9048114,67.4546684 C18.9672441,67.4546684 19.0292905,67.4530084 19.0909091,67.4497301 L19.0909091,67.8067029 C19.0292905,67.8034246 18.9672441,67.8017646 18.9048114,67.8017646 C17.0269429,67.8017646 15.4986034,69.3035359 15.4473347,71.1755733 L15.4460059,71.2727273 L15.1001254,71.2727273 C15.1001254,69.3557675 13.5515654,67.8017646 11.6413198,67.8017646 C11.5786586,67.8017646 11.5163865,67.8034368 11.4545455,67.806739 L11.4545455,67.449694 C11.5163865,67.4529962 11.5786586,67.4546684 11.6413198,67.4546684 C13.5515654,67.4546684 15.1001254,65.9006655 15.1001254,63.9837057 C15.1001254,63.8664769 15.0943341,63.7506054 15.0830231,63.6363636 L15.4631082,63.6363636 Z" id="路径备份-6" fill="#FFDE83" fill-rule="evenodd" opacity="0.600000024"></path>
                        <path d="M113.463108,68.7272727 C113.451797,68.8415145 113.446006,68.957386 113.446006,69.0746148 C113.446006,70.9915746 114.994566,72.5455775 116.904811,72.5455775 C116.967244,72.5455775 117.029291,72.5439175 117.090909,72.5406392 L117.090909,72.897612 C117.029291,72.8943337 116.967244,72.8926737 116.904811,72.8926737 C115.026943,72.8926737 113.498603,74.394445 113.447335,76.2664824 L113.446006,76.3636364 L113.100125,76.3636364 C113.100125,74.4466766 111.551565,72.8926737 109.64132,72.8926737 C109.578659,72.8926737 109.516386,72.8943459 109.454545,72.8976481 L109.454545,72.5406031 C109.516386,72.5439053 109.578659,72.5455775 109.64132,72.5455775 C111.551565,72.5455775 113.100125,70.9915746 113.100125,69.0746148 C113.100125,68.957386 113.094334,68.8415145 113.083023,68.7272727 L113.463108,68.7272727 Z" id="路径备份-5" fill="#FFDE83" fill-rule="evenodd" opacity="0.400000006"></path>
                        <path d="M84.5076824,3.81818182 C84.4775197,4.12282644 84.4620764,4.4318171 84.4620764,4.74442741 C84.4620764,9.85632003 88.5915696,14.0003278 93.6855577,14.0003278 C93.852045,14.0003278 94.017502,13.9959012 94.1818182,13.987159 L94.1818182,14.9390866 C94.017502,14.9303444 93.852045,14.9259178 93.6855577,14.9259178 C88.6779084,14.9259178 84.6023363,18.9306412 84.4656198,23.922741 L84.4620764,24.1818182 L83.5397282,24.1818182 C83.5397282,19.0699256 79.410235,14.9259178 74.3162468,14.9259178 C74.1491501,14.9259178 73.9830912,14.9303768 73.8181818,14.9391828 L73.8181818,13.9870628 C73.9830912,13.9958687 74.1491501,14.0003278 74.3162468,14.0003278 C79.410235,14.0003278 83.5397282,9.85632003 83.5397282,4.74442741 C83.5397282,4.4318171 83.5242849,4.12282644 83.4941222,3.81818182 L84.5076824,3.81818182 Z" id="路径备份" fill="#FFDE83" fill-rule="evenodd"></path>
                        <path d="M11.6072727,117.090909 C5.15379077,116.825853 0,111.481086 0,104.925134 C0,99.018108 4.18401156,94.0943615 9.73277143,92.9906141 C11.1196649,87.8118238 15.8210586,84 21.4072727,84 C25.6566703,84 29.3940622,86.2057302 31.5502617,89.5413833 L31.7136672,89.5002081 C32.1318703,89.4038448 32.5672999,89.3529412 33.0145455,89.3529412 C35.4272375,89.3529412 37.4960689,90.8342998 38.3716738,92.9423921 C44.0484171,93.9413861 48.3636364,98.9262028 48.3636364,104.925134 C48.3636364,111.481086 43.2098456,116.825853 36.756484,117.08135 L36.7563636,117.090909 L11.6072727,117.090909 Z" id="形状结合" fill="url(#linearGradient-3)" fill-rule="evenodd"></path>
                        <path d="M96.88,105.636364 C90.426518,105.371308 85.2727273,100.026541 85.2727273,93.4705882 C85.2727273,87.5635625 89.4567388,82.639816 95.0054987,81.5360687 C96.3923922,76.3572784 101.093786,72.5454545 106.68,72.5454545 C110.929398,72.5454545 114.666789,74.7511848 116.822989,78.0868379 L116.986394,78.0456627 C117.404598,77.9492993 117.840027,77.8983957 118.287273,77.8983957 C120.699965,77.8983957 122.768796,79.3797544 123.644401,81.4878466 C129.321144,82.4868407 133.636364,87.4716574 133.636364,93.4705882 C133.636364,100.026541 128.482573,105.371308 122.029211,105.626804 L122.029091,105.636364 L96.88,105.636364 Z" id="形状结合备份-5" fill="url(#linearGradient-3)" fill-rule="evenodd" opacity="0.600000024"></path>
                        <path d="M48.248,97.4189091 L48.248,96.4949091 C48.86,96.4349091 49.448,96.3749091 50.012,96.3269091 L50.012,95.6189091 C49.46,95.6669091 48.872,95.7149091 48.248,95.7629091 L48.248,94.8149091 L50.12,94.8149091 L50.12,94.1069091 L48.248,94.1069091 L48.248,93.3149091 L47.456,93.3149091 L47.456,94.1069091 L46.064,94.1069091 C46.364,93.7109091 46.652,93.2549091 46.916,92.7509091 L50.204,92.7509091 L50.204,91.9829091 L47.276,91.9829091 C47.372,91.7669091 47.456,91.5509091 47.54,91.3349091 L46.676,91.1909091 C46.58,91.4549091 46.472,91.7189091 46.364,91.9829091 L44.696,91.9829091 L44.696,92.7509091 L45.98,92.7509091 C45.692,93.2909091 45.368,93.7469091 45.032,94.1309091 L45.224,94.8149091 L47.456,94.8149091 L47.456,95.8109091 C46.64,95.8589091 45.764,95.8949091 44.852,95.9429091 L44.96,96.7109091 C45.824,96.6629091 46.664,96.6029091 47.456,96.5549091 L47.456,97.4189091 L48.248,97.4189091 Z M50.72,97.4549091 C51.236,96.7109091 51.56,95.8349091 51.692,94.8269091 L53.252,94.8269091 L53.252,97.4309091 L54.08,97.4309091 L54.08,94.8269091 L55.352,94.8269091 L55.352,94.0709091 L51.752,94.0709091 L51.752,92.8229091 C53.048,92.6789091 54.128,92.4029091 55.016,92.0189091 L54.464,91.3709091 C53.624,91.7549091 52.448,92.0189091 50.96,92.1629091 L50.96,94.0469091 C50.936,95.1269091 50.648,96.0509091 50.12,96.8309091 L50.72,97.4549091 Z M47.024,102.290909 L47.024,101.822909 L53.12,101.822909 L53.12,102.290909 L54.008,102.290909 L54.008,97.7789091 L46.136,97.7789091 L46.136,102.290909 L47.024,102.290909 Z M53.12,99.4469091 L47.024,99.4469091 L47.024,98.5109091 L53.12,98.5109091 L53.12,99.4469091 Z M53.12,101.078909 L47.024,101.078909 L47.024,100.142909 L53.12,100.142909 L53.12,101.078909 Z M57.116,102.254909 C58.784,101.534909 59.984,100.514909 60.728,99.2189091 C61.136,98.4509091 61.436,97.5509091 61.628,96.5069091 L62.6,96.5069091 L62.6,100.874909 C62.6,101.690909 62.984,102.098909 63.776,102.098909 L65.72,102.098909 C66.224,102.098909 66.584,101.990909 66.812,101.774909 C67.076,101.510909 67.256,100.802909 67.352,99.6269091 L66.536,99.3629091 C66.476,100.298909 66.368,100.850909 66.2,101.042909 C66.068,101.198909 65.852,101.282909 65.564,101.282909 L64.04,101.282909 C63.656,101.282909 63.464,101.078909 63.464,100.694909 L63.464,96.5069091 L67.184,96.5069091 L67.184,95.6789091 L61.76,95.6789091 C61.844,95.0309091 61.892,94.3229091 61.916,93.5789091 L61.916,92.7749091 L66.212,92.7749091 L66.212,91.9349091 L57.596,91.9349091 L57.596,92.7749091 L61.04,92.7749091 L61.04,93.5789091 C61.028,94.3229091 60.98,95.0309091 60.884,95.6789091 L56.792,95.6789091 L56.792,96.5069091 L60.74,96.5069091 C60.584,97.2629091 60.368,97.9469091 60.08,98.5469091 C59.432,99.7709091 58.292,100.742909 56.636,101.486909 L57.116,102.254909 Z M79.112,102.290909 L79.58,101.582909 C78.716,100.994909 77.984,100.166909 77.36,99.0869091 C78.032,97.6709091 78.404,95.9549091 78.464,93.9509091 L79.244,93.9509091 L79.244,93.1229091 L76.076,93.1229091 C76.172,92.5949091 76.268,92.0189091 76.34,91.4069091 L75.5,91.2629091 C75.26,93.5429091 74.78,95.3549091 74.072,96.6989091 L74.612,97.3589091 C74.864,96.9269091 75.104,96.4349091 75.32,95.8829091 C75.644,97.0829091 76.04,98.1389091 76.508,99.0629091 C75.956,100.082909 75.224,100.910909 74.288,101.558909 L74.732,102.278909 C75.632,101.630909 76.376,100.826909 76.952,99.8669091 C77.552,100.874909 78.272,101.690909 79.112,102.290909 Z M68.996,96.8429091 C70.028,96.1469091 70.748,95.3309091 71.144,94.3829091 L71.144,96.6629091 L71.948,96.6629091 L71.948,95.1029091 C72.38,95.3909091 72.896,95.7749091 73.496,96.2549091 L73.94,95.5829091 C73.268,95.1749091 72.596,94.8029091 71.948,94.4789091 L71.948,94.3469091 L74.132,94.3469091 L74.132,93.5909091 L71.948,93.5909091 L71.948,91.2989091 L71.144,91.2989091 L71.144,93.5909091 L68.804,93.5909091 L68.804,94.3469091 L70.508,94.3469091 C70.148,95.0069091 69.5,95.6069091 68.576,96.1469091 L68.996,96.8429091 Z M73.076,93.3149091 C73.46,92.8109091 73.76,92.2949091 74,91.7669091 L73.376,91.4789091 C73.16,91.9829091 72.848,92.4869091 72.464,93.0029091 L73.076,93.3149091 Z M69.848,93.3029091 L70.472,93.0149091 C70.256,92.4869091 70.016,91.9829091 69.728,91.5149091 L69.044,91.7429091 C69.332,92.1989091 69.596,92.7149091 69.848,93.3029091 Z M76.904,98.1989091 C76.424,97.1909091 76.04,95.9789091 75.74,94.5749091 L75.896,93.9509091 L77.672,93.9509091 C77.624,95.5709091 77.372,96.9869091 76.904,98.1989091 Z M68.912,102.254909 C70.112,101.918909 71.108,101.474909 71.9,100.922909 C72.608,101.234909 73.22,101.558909 73.748,101.870909 L74.216,101.198909 C73.688,100.910909 73.136,100.646909 72.56,100.382909 C73.184,99.8069091 73.628,99.1229091 73.892,98.3309091 L73.892,97.6229091 L71.384,97.6229091 C71.456,97.4069091 71.54,97.1909091 71.624,96.9629091 L70.82,96.8669091 C70.736,97.1069091 70.64,97.3589091 70.532,97.6229091 L68.78,97.6229091 L68.78,98.3789091 L70.196,98.3789091 C69.956,98.8589091 69.68,99.3509091 69.368,99.8789091 C69.956,100.094909 70.508,100.322909 71.036,100.550909 C70.34,100.946909 69.488,101.270909 68.504,101.534909 L68.912,102.254909 Z M71.768,100.046909 C71.336,99.8669091 70.88,99.6989091 70.4,99.5309091 C70.64,99.1709091 70.856,98.7869091 71.048,98.3789091 L73.112,98.3789091 C72.824,99.0029091 72.368,99.5669091 71.768,100.046909 Z M81.968,102.182909 C82.64,102.182909 82.976,101.822909 82.976,101.126909 L82.976,97.6229091 C83.348,97.4549091 83.72,97.2869091 84.092,97.0949091 L84.092,96.2429091 C83.732,96.4349091 83.36,96.6149091 82.976,96.7829091 L82.976,94.4189091 L84.128,94.4189091 L84.128,93.5909091 L82.976,93.5909091 L82.976,91.3229091 L82.136,91.3229091 L82.136,93.5909091 L80.696,93.5909091 L80.696,94.4189091 L82.136,94.4189091 L82.136,97.1309091 C81.608,97.3229091 81.056,97.4909091 80.504,97.6229091 L80.72,98.4629091 C81.188,98.3189091 81.656,98.1509091 82.136,97.9709091 L82.136,100.910909 C82.136,101.246909 81.98,101.426909 81.68,101.426909 C81.392,101.426909 81.08,101.402909 80.768,101.366909 L80.948,102.182909 L81.968,102.182909 Z M86.804,102.290909 L86.804,101.702909 L90.056,101.702909 L90.056,102.290909 L90.86,102.290909 L90.86,98.3549091 L88.844,98.3549091 L88.844,96.8789091 L91.412,96.8789091 L91.412,96.0989091 L88.844,96.0989091 L88.844,94.6829091 L91.1,94.6829091 L91.1,91.7669091 L84.776,91.7669091 L84.776,95.5229091 C84.764,98.0429091 84.332,100.106909 83.48,101.690909 L84.152,102.290909 C84.944,100.730909 85.412,98.9309091 85.556,96.8789091 L88.004,96.8789091 L88.004,98.3549091 L86,98.3549091 L86,102.290909 L86.804,102.290909 Z M90.26,93.9029091 L85.616,93.9029091 L85.616,92.5709091 L90.26,92.5709091 L90.26,93.9029091 Z M88.004,96.0989091 L85.604,96.0989091 L85.616,95.5229091 L85.616,95.5229091 L85.616,94.6829091 L88.004,94.6829091 L88.004,96.0989091 Z M90.056,100.934909 L86.804,100.934909 L86.804,99.1229091 L90.056,99.1229091 L90.056,100.934909 Z" id="暂无数据" fill="#777D92" fill-rule="nonzero"></path>
                    </g>
                </g>
            </g>
        </g>
    </g>
</svg>