<?xml version="1.0" encoding="UTF-8"?>
<svg width="16px" height="16px" viewBox="0 0 16 16" version="1.1" xmlns="http://www.w3.org/2000/svg" xmlns:xlink="http://www.w3.org/1999/xlink">
    <title>市-未</title>
    <g id="0716" stroke="none" stroke-width="1" fill="none" fill-rule="evenodd">
        <g id="画板" transform="translate(-132.000000, -221.000000)" fill-rule="nonzero">
            <g id="市-未" transform="translate(132.000000, 221.000000)">
                <g id="Sicon-BG">
                    <rect x="0" y="0" width="16" height="16"></rect>
                </g>
                <g id="市政" transform="translate(1.000000, 2.000000)">
                    <path d="M13.0341502,11.5370227 L12.1289243,11.5370227 L12.1289243,10.7907971 L1.99094577,10.7907971 L1.99094577,11.5370227 L1.11603189,11.5370227 L1.11603189,12.2537744 L0.451924023,12.2537744 L0.451924023,13 L13.6968802,13 L13.6968802,12.2537744 L13.0341502,12.2537744 L13.0341502,11.5370227 Z M13.3965161,3.35801515 L7.51323689,0.134642139 C7.18118295,-0.0448807131 6.81881705,-0.0448807131 6.48814093,0.134642139 L0.604861726,3.35801515 C0.210806023,3.5670119 0,3.95553151 0,4.37352502 L0,4.731231 L14,4.731231 L14,4.37352502 C14,3.95553151 13.758882,3.5670119 13.3965161,3.35801515 Z M9.23275268,3.17983202 L4.7975593,3.17983202 C4.73693534,3.17983202 4.67631139,3.15035812 4.67631139,3.09007059 C4.67631139,3.02978307 4.67631139,2.97083527 4.73693534,2.94136136 L6.51707509,1.9553254 C6.84912902,1.77580255 7.21149493,1.77580255 7.54354886,1.9553254 L9.32368861,2.94002164 C9.38431257,2.96949554 9.41462454,3.02978307 9.38431257,3.08873087 C9.32368861,3.1490184 9.29337664,3.17983202 9.23275268,3.17983202 L9.23275268,3.17983202 Z" id="形状" fill="#A2A9C4"></path>
                    <path d="M4.16376341,10.1638069 L4.16376341,6.37373113 L4.61568743,6.37373113 L4.61568743,5.86597619 C4.61568743,5.56721801 4.37456943,5.29927346 4.0425155,5.29927346 L2.0818817,5.29927346 C1.78013975,5.29927346 1.53902175,5.53774411 1.53902175,5.86597619 L1.53902175,6.37373113 L2.02125775,6.37373113 L2.02125775,10.1638069 L4.16376341,10.1638069 Z" id="路径" fill="#717894"></path>
                    <path d="M12.0986123,10.1638069 L12.0986123,6.37373113 L12.5808483,6.37373113 L12.5808483,5.86597619 C12.5808483,5.56721801 12.3397303,5.29927346 12.0379884,5.29927346 L10.0773546,5.29927346 C9.77561264,5.29927346 9.53449464,5.53774411 9.53449464,5.86597619 L9.53449464,6.37373113 L10.0167306,6.37373113 L10.0167306,10.1638069 L12.0986123,10.1638069 L12.0986123,10.1638069 Z" id="路径" fill="#717894"></path>
                    <path d="M8.1167208,10.1638069 L8.1167208,6.37373113 L8.5989568,6.37373113 L8.5989568,5.86597619 C8.5989568,5.56721801 8.3578388,5.29927346 8.05609684,5.29927346 L6.09408523,5.29927346 C5.79234327,5.29927346 5.55122527,5.53774411 5.55122527,5.86597619 L5.55122527,6.37373113 L6.0031493,6.37373113 L6.0031493,10.1638069 L8.1167208,10.1638069 L8.1167208,10.1638069 Z" id="路径" fill="#717894"></path>
                </g>
            </g>
        </g>
    </g>
</svg>