<?xml version="1.0" encoding="UTF-8"?>
<svg width="16px" height="16px" viewBox="0 0 16 16" version="1.1" xmlns="http://www.w3.org/2000/svg" xmlns:xlink="http://www.w3.org/1999/xlink">
    <title>地区</title>
    <g id="0716" stroke="none" stroke-width="1" fill="none" fill-rule="evenodd">
        <g id="画板" transform="translate(-173.000000, -222.000000)" fill-rule="nonzero">
            <g id="地区" transform="translate(173.000000, 222.000000)">
                <g id="Sicon-BG">
                    <rect x="0" y="0" width="16" height="16"></rect>
                </g>
                <g id="区域" transform="translate(2.000000, 1.000000)">
                    <path d="M5.7721519,10.7518821 C5.84810127,10.8292183 6,10.8292183 6.07594936,10.7518821 L9.26582278,7.50376423 C9.94936708,6.73040283 10.3291139,5.64769688 10.3291139,4.56499091 C10.4050633,2.01289828 8.43037975,0.00215865325 6,0.00215865325 C3.49367088,-0.0751774913 1.51898733,1.93556215 1.51898733,4.41031863 C1.51898733,5.57036073 1.89873416,6.57573055 2.58227848,7.34909196 C2.58227848,7.4264281 5.7721519,10.7518821 5.7721519,10.7518821 Z M5.92405063,2.39957899 C6.98734177,2.39957899 7.8227848,3.32761267 7.8227848,4.33298249 C7.8227848,5.41568846 6.98734176,6.26638599 5.92405063,6.26638599 C4.8607595,6.26638599 4.02531645,5.33835231 4.02531645,4.33298249 C4.02531645,3.32761267 4.86075948,2.39957899 5.92405063,2.39957899 Z" id="形状" fill="#2C7BE5"></path>
                    <path d="M8.58227848,10.0558569 L6.15189873,12.6079495 C6,12.7626218 5.84810126,12.7626218 5.7721519,12.6079495 L3.34177215,10.0558569 C1.3670886,10.3652014 0,11.0612267 0,11.9119242 C0,13.0719663 2.73417722,14 6,14 C9.26582278,14 12,13.0719663 12,11.9119242 C11.9240506,11.1385628 10.556962,10.4425376 8.58227848,10.0558569 L8.58227848,10.0558569 Z" id="路径" fill="#00DEAB"></path>
                </g>
            </g>
        </g>
    </g>
</svg>