<?xml version="1.0" encoding="UTF-8"?>
<svg width="16px" height="16px" viewBox="0 0 16 16" version="1.1" xmlns="http://www.w3.org/2000/svg" xmlns:xlink="http://www.w3.org/1999/xlink">
    <title>自定义</title>
    <g id="0716" stroke="none" stroke-width="1" fill="none" fill-rule="evenodd">
        <g id="画板" transform="translate(-265.000000, -249.000000)" fill-rule="nonzero">
            <g id="Sicon-FolderOpen" transform="translate(265.000000, 249.000000)">
                <g id="Sicon-BG" transform="translate(0.000000, 0.000000)">
                    <rect x="0" y="0" width="16" height="16"></rect>
                </g>
                <g id="自定义-(5)" transform="translate(2.000000, 2.000000)">
                    <path d="M4.80311381,11.5973093 C5.14360542,11.5973093 5.41910994,11.8900478 5.41910994,12.2519961 C5.42259632,12.5756837 5.19527363,12.8525823 4.8862046,12.9010713 L4.80311381,12.9066829 L0.616060446,12.9066829 C0.450538566,12.9044649 0.292648506,12.8342396 0.17713141,12.7114588 C0.0616143142,12.588678 -0.00206509728,12.4234017 5.11062534e-05,12.2519961 C5.11062534e-05,11.9209116 0.232217116,11.6468784 0.532969655,11.6029209 L0.616060446,11.5973093 L4.80311381,11.5973093 L4.80311381,11.5973093 Z M10.4388371,5.61066599 L9.25027747,6.84054193 L7.7483211,8.39589075 L6.39357994,9.7978558 L5.92032369,10.2888709 L0.903265573,10.2879356 C0.445385792,10.2878731 0.0599988528,9.93299521 0.00642692196,9.46209499 L0.000104796524,9.35266876 L0.000104796524,6.54686813 C0.000104796524,6.07271137 0.342860735,5.67362446 0.797595763,5.61814813 L0.903265573,5.61160126 L10.4388371,5.61066599 L10.4388371,5.61066599 Z M12.6443557,0 C13.1022355,6.25487351e-05 13.4876224,0.354940431 13.5411943,0.825840652 L13.5475165,0.935266876 L13.5475165,3.74106751 C13.5475165,4.21522427 13.2047605,4.61431118 12.7500255,4.66978751 L12.6443557,4.67633438 L0.903265573,4.67633438 C0.445385792,4.67627183 0.0599988528,4.32139395 0.00642692196,3.85049373 L0.000104796524,3.74106751 L0.000104796524,0.935266876 C0.000104796524,0.461110111 0.342860735,0.062023206 0.797595763,0.00654686813 L0.903265573,0 L12.6443557,0 Z M11.1089824,1.68348038 C10.759821,1.68348038 10.4767698,1.97659365 10.4767698,2.33816719 C10.4767698,2.69974073 10.759821,2.992854 11.1089824,2.992854 C11.4581437,2.992854 11.7411949,2.69974073 11.7411949,2.33816719 C11.7411949,1.97659365 11.4581437,1.68348038 11.1089824,1.68348038 L11.1089824,1.68348038 Z" id="形状" fill="#2C7BE5"></path>
                    <path d="M11.2381343,6.75356211 L12.7744108,8.36128588 L11.0078283,10.1990853 L10.3503273,10.8911828 L10.1904678,11.0548545 L9.89423111,11.3606867 L9.75875699,11.5028473 L9.3234335,11.9601928 L9.25993,12.0257492 L9.25993,12.0257492 L9.16645286,12.1203865 C9.15459888,12.1320481 9.14460766,12.1416346 9.13647922,12.1491167 L9.118416,12.1650163 C9.05729069,12.2218292 8.99402002,12.2761171 8.92875224,12.3277527 C8.85740254,12.384804 8.78424651,12.4306321 8.70657469,12.4643017 C8.62980602,12.5045181 8.51781408,12.553152 8.36969572,12.6102033 C8.06600072,12.7260817 7.75775284,12.8287392 7.44576224,12.9179061 C7.30035336,12.9571873 7.19287722,12.9833748 7.12062436,12.994598 C6.97250599,13.0114328 6.87406147,12.9889864 6.82529079,12.9263235 C6.77561695,12.8636606 6.76206953,12.7579755 6.78374539,12.6102033 C6.80312143,12.4933073 6.82936178,12.3777433 6.86232038,12.2641546 C6.90476894,12.1070297 6.94902381,11.9499049 6.99327869,11.7937153 C7.04024305,11.6309789 7.08540109,11.4813362 7.12875281,11.3447872 C7.17300769,11.2082382 7.20823096,11.1137763 7.23622894,11.0623366 C7.2668492,10.9865571 7.30371391,10.9136487 7.34641456,10.8444194 C7.38795995,10.7789508 7.4466654,10.7059999 7.52343407,10.6265022 L7.75374007,10.3833329 C7.87386045,10.254266 8.0246883,10.0962059 8.20532046,9.90821729 L8.80592237,9.28439428 L9.4706487,8.59229679 L11.2381343,6.75356211 Z M12.7951835,5.51807457 C12.8746617,5.52181564 12.9514303,5.53397411 13.0254895,5.55735578 C13.0995487,5.57980218 13.1636731,5.60505439 13.2187659,5.63404766 C13.3334673,5.69671054 13.460813,5.80613677 13.6008029,5.9632616 C13.7398897,6.11945117 13.848269,6.28312288 13.9259408,6.45427671 C13.9747779,6.57906795 13.9999232,6.7124393 14,6.8470888 C13.9990968,6.92191015 13.9855494,6.9967315 13.9575514,7.07061759 C13.9270929,7.14951746 13.8826795,7.22183633 13.8265931,7.28385843 L13.738703,7.37429905 L13.738703,7.37429905 L13.6495736,7.46342967 C13.6038303,7.5083191 13.5586682,7.55383949 13.5140995,7.59997864 C13.4746465,7.64149197 13.4336732,7.68142593 13.3912696,7.7196928 L11.85409,6.12038644 C11.9200207,6.05865883 11.9985957,5.98290221 12.0889118,5.89498712 C12.1792279,5.80613677 12.2541902,5.73599175 12.314702,5.68548734 C12.4501204,5.57149587 12.6207662,5.51203828 12.7951835,5.51807457 Z" id="形状结合" fill="#00DEAB"></path>
                </g>
            </g>
        </g>
    </g>
</svg>