<?xml version="1.0" encoding="UTF-8"?>
<svg width="16px" height="16px" viewBox="0 0 16 16" version="1.1" xmlns="http://www.w3.org/2000/svg" xmlns:xlink="http://www.w3.org/1999/xlink">
    <title>平台-未</title>
    <g id="0716" stroke="none" stroke-width="1" fill="none" fill-rule="evenodd">
        <g id="画板" transform="translate(-86.000000, -249.000000)">
            <g id="Sicon-FolderOpen" transform="translate(86.000000, 249.000000)">
                <g id="Sicon-BG" fill-rule="nonzero">
                    <rect x="0" y="0" width="16" height="16"></rect>
                </g>
                <g id="编组-6" transform="translate(2.000000, 2.000000)">
                    <path d="M11,0 C11.5522847,-1.01453063e-16 12,0.44771525 12,1 L12,8 C12,8.55228475 11.5522847,9 11,9 L1,9 C0.44771525,9 6.76353751e-17,8.55228475 0,8 L0,1 C-6.76353751e-17,0.44771525 0.44771525,1.01453063e-16 1,0 L11,0 Z M10.4996134,1 L1.50038663,1 C1.22403072,1 1,1.22446252 1,1.50135106 L1,1.50135106 L1,7.49864894 C1,7.77553748 1.22403072,8 1.50038663,8 L1.50038663,8 L10.4996134,8 C10.7759693,8 11,7.77553748 11,7.49864894 L11,7.49864894 L11,1.50135106 C11,1.22446252 10.7759693,1 10.4996134,1 L10.4996134,1 Z M9.5,2 C9.77614237,2 10,2.22385763 10,2.5 L10,2.5 L10,6.49821712 C10,6.49881036 9.99999894,6.49940359 9.99999683,6.49999682 L9.99162131,6.58984321 C9.94845539,6.82294025 9.74367863,6.99908764 9.4982203,6.99821395 L9.4982203,6.99821395 L2.4982203,6.973298 C2.22277443,6.97231757 2,6.74874878 2,6.47330117 L2,6.47330117 L2,2.5 C2,2.22385763 2.22385763,2 2.5,2 L2.5,2 Z" id="形状结合" fill="#717894"></path>
                    <path d="M6.62431857,3.81520982 L7.4377798,5.16294549 C7.50119992,5.26801941 7.46743284,5.40461081 7.36235893,5.46803093 C7.3277071,5.48894595 7.28800116,5.5 7.24752664,5.5 L5.62060418,5.5 C5.49787424,5.5 5.39838196,5.40050772 5.39838196,5.27777778 C5.39838196,5.23730326 5.40943601,5.19759732 5.43035103,5.16294549 L6.24381226,3.81520982 C6.30723238,3.7101359 6.44382378,3.67636883 6.5488977,3.73978894 C6.57978802,3.75843361 6.6056739,3.7843195 6.62431857,3.81520982 Z" id="三角形" fill="#C0C6E0" transform="translate(6.434065, 4.500000) rotate(-270.000000) translate(-6.434065, -4.500000) "></path>
                    <path d="M4.27674809,9.74993017 L7.75388984,9.74993017 C7.92683799,9.74993017 8.08750537,9.83930657 8.17871112,9.98625068 L9.57746282,12.2398181 C9.72308898,12.4744404 9.65094334,12.7826927 9.41632102,12.9283188 C9.33715021,12.9774589 9.24582285,13.0034976 9.15264153,13.0034976 L2.93205903,13.0034976 C2.65591666,13.0034976 2.43205903,12.7796399 2.43205903,12.5034976 C2.43205903,12.4132888 2.45646397,12.3247605 2.5026875,12.2472943 L3.84737656,9.99372696 C3.93759363,9.84253196 4.10068264,9.74993017 4.27674809,9.74993017 Z" id="矩形" fill="#C0C6E0"></path>
                </g>
            </g>
        </g>
    </g>
</svg>