<?xml version="1.0" encoding="UTF-8"?>
<svg width="16px" height="16px" viewBox="0 0 16 16" version="1.1" xmlns="http://www.w3.org/2000/svg" xmlns:xlink="http://www.w3.org/1999/xlink">
    <title>摄像头</title>
    <g id="0716" stroke="none" stroke-width="1" fill="none" fill-rule="evenodd">
        <g id="切图" transform="translate(-200.000000, -135.000000)" fill-rule="nonzero">
            <g id="摄像头" transform="translate(200.000000, 135.000000)">
                <g id="Sicon-BG" transform="translate(0.000000, 0.000000)" fill="#FFA540" opacity="0">
                    <rect x="0" y="0" width="16" height="16"></rect>
                </g>
                <g id="摄像头-(2)" transform="translate(1.000000, 3.000000)">
                    <path d="M0.127272722,3 C0.0636363537,3.125 0,3.25000001 0,3.43749999 L0,3.5625 C0,3.875 0.190909091,4.18750001 0.509090904,4.3125 L4.13636363,5.9375 C4.07272727,6.0625 4.07272727,6.18750001 4.07272727,6.25 C4.07272727,6.8125 4.58181817,7.31249999 5.21818181,7.31250001 C5.66363636,7.31250001 6.04545454,7.12500001 6.23636364,6.75000001 L8.01818182,7.5625 L8.14545455,7.5625 C8.20909091,7.5625 8.27272727,7.5625 8.33636364,7.5 L10.8181818,5.75 L12.4090909,6.5 C12.5363636,6.56250001 12.6,6.56250001 12.7272727,6.5 L13.6818182,5.875 C13.8727273,5.75 14,5.5625 14,5.375 L14,5.25000001 L14,5.125 C13.9363636,4.87499999 13.7454545,4.68749999 13.5545455,4.56249999 L4.2,0.1875 C3.88181819,0.0625000049 3.56363636,0 3.3090909,0 C2.54545454,0 1.90909091,0.312499995 1.52727273,0.874999996 L0.127272722,3 Z" id="形状" fill="#2C7BE5"></path>
                    <path d="M0.318181813,5.6875 C0.254545445,5.6875 0.190909091,5.6875 0.127272722,5.75 C0.0636363537,5.81250001 0,5.875 0,5.9375 L0,9.6875 C0,9.875 0.127272722,10 0.318181813,10 L0.890909087,10 C1.39999999,10 1.78181817,9.625 1.78181817,9.1875 L1.78181817,8.9375 L4.96363637,8.9375 C5.53636364,8.9375 6.10909091,8.62500001 6.3,8.06250001 C6.36363637,7.93750001 6.3,7.87500001 6.23636364,7.75 C6.17272727,7.6875 6.04545454,7.625 5.91818182,7.6875 C5.72727273,7.75000001 5.47272727,7.8125 5.21818181,7.8125 C4.51818182,7.8125 3.94545454,7.4375 3.62727273,6.875 C3.56363636,6.8125 3.5,6.75000001 3.37272727,6.75000001 L1.78181817,6.75000001 L1.78181817,6.5 C1.78181817,6.0625 1.39999999,5.6875 0.890909087,5.6875 L0.318181813,5.6875 L0.318181813,5.6875 Z" id="路径" fill="#00DEAB"></path>
                    <path d="M9.16363637,7.625 C9.1,7.68750001 9.03636363,7.75 9.03636363,7.87500001 C9.03636363,7.93750001 9.1,8.06250001 9.16363637,8.125 L11.2,9.18750001 C11.2636364,9.18750001 11.2636364,9.25 11.3272727,9.25 L11.3909091,9.25 C11.4545455,9.25 11.5181818,9.18749999 11.5818182,9.125 L12.4727273,7.50000001 C12.5363636,7.4375 12.5363636,7.37500001 12.4727273,7.31250001 C12.4727273,7.25 12.4090909,7.18750001 12.3454545,7.1875 L11.2,6.625 C11.1363636,6.56249999 11.0090909,6.56249999 10.8818182,6.625 L9.16363637,7.625 L9.16363637,7.625 Z" id="路径" fill="#00DEAB"></path>
                </g>
            </g>
        </g>
    </g>
</svg>