<?xml version="1.0" encoding="UTF-8"?>
<svg width="16px" height="16px" viewBox="0 0 16 16" version="1.1" xmlns="http://www.w3.org/2000/svg" xmlns:xlink="http://www.w3.org/1999/xlink">
    <title>省</title>
    <g id="0716" stroke="none" stroke-width="1" fill="none" fill-rule="evenodd">
        <g id="画板" transform="translate(-87.000000, -222.000000)" fill-rule="nonzero">
            <g id="省" transform="translate(87.000000, 222.000000)">
                <g id="Sicon-BG" opacity="0" fill="#FFA540">
                    <rect x="0" y="0" width="16" height="16"></rect>
                </g>
                <g id="省-(1)" transform="translate(1.000000, 1.000000)">
                    <path d="M9.74322148,6.43680515 L9.74322148,13.995904 L7.98036439,13.995904 L7.98036439,11.5229666 C7.98443626,10.9891125 7.57830407,10.5462415 7.05804969,10.5172191 C6.5377953,10.4881967 6.08714071,10.8832719 6.03462588,11.4144236 L6.02862977,11.5229666 L6.02862977,13.995904 L4.26577268,13.995904 L4.26577268,6.43680515 L9.74322148,6.43680515 Z M6.92205053,7.11468694 C6.90056471,7.12793496 6.88242099,7.14617523 6.86908487,7.16793446 L6.58526887,7.74853716 L5.96766929,7.8417203 C5.9072212,7.85023439 5.85639335,7.89245156 5.83575482,7.95128731 C5.81728904,8.0116607 5.83307551,8.077547 5.87672825,8.12229374 C6.02663107,8.26974839 6.17653388,8.41822704 6.32343863,8.56772967 C6.28946066,8.77252779 6.25448334,8.98551785 6.21850666,9.19338794 C6.21161058,9.24256583 6.22460519,9.29249703 6.25448334,9.33162668 C6.2882052,9.37124257 6.33825643,9.39213655 6.38939586,9.38794616 C6.42154199,9.38336036 6.45246484,9.3722183 6.4803369,9.35517847 L7.00499675,9.07255705 L7.56063652,9.37156232 C7.61420786,9.40018981 7.67895234,9.39543194 7.72798846,9.35926414 C7.77702458,9.32309634 7.80197722,9.26169589 7.7924862,9.20055587 L7.68555552,8.56772967 L8.10728211,8.1478935 C8.13720545,8.12448617 8.1600687,8.09289531 8.17323934,8.05675834 C8.19465148,7.98367106 8.16398484,7.90511427 8.09928729,7.86732006 C8.0681929,7.85114079 8.03416819,7.84172762 7.99935208,7.83967232 L7.42472463,7.7536571 L7.15290086,7.19148625 C7.14044715,7.16081245 7.11918704,7.13474275 7.09194039,7.11673493 C7.04060196,7.0819755 6.97417283,7.08117471 6.92205053,7.11468694 L6.92205053,7.11468694 Z" id="形状" fill="#00DEAB"></path>
                    <path d="M9.96507764,5.39438267 C10.1357034,5.39255392 10.2795136,5.52439328 10.2966466,5.69835173 C10.3137796,5.87231017 10.1985769,6.0309329 10.0310349,6.06407256 L9.96507764,6.07124049 L4.03492235,6.07124049 C3.86408575,6.07363749 3.71974992,5.9419468 3.7023378,5.7677934 C3.68492569,5.59364 3.80020354,5.43469709 3.96796577,5.40155061 L4.03492235,5.39438267 L9.96507764,5.39438267 Z" id="路径" fill="#2C7BE5"></path>
                    <path d="M7.20786522,0 L7.20786522,0.174078412 L7.23284903,0.204798122 C7.55085951,0.35151362 7.90195176,0.406396476 8.24819076,0.363516672 C8.73037054,0.292077508 9.20339821,0.543276208 9.42442817,0.988150963 C9.01604468,0.995054858 8.62112715,1.13893185 8.30015706,1.39774722 C7.99016859,1.68436982 7.51885304,1.68436982 7.20886458,1.39774722 L7.20886458,2.71767115 L9.74322148,5.06670567 L4.26577268,5.06670567 L6.80012958,2.71767115 L6.80012958,0 L7.20786522,0 Z" id="路径" fill="#2C7BE5"></path>
                    <polygon id="路径" fill="#2C7BE5" points="13.7206428 9.4166179 13.7206428 13.995904 10.3108535 13.995904 10.3108535 9.42071387"></polygon>
                    <polygon id="路径" fill="#2C7BE5" points="3.70213811 9.42071387 3.70213811 14 0.288351379 14 0.288351379 9.42071387"></polygon>
                    <path d="M13.6656784,8.45611468 C13.836515,8.45371768 13.9808509,8.58540836 13.998263,8.75956176 C14.0156751,8.93371516 13.9003972,9.09265808 13.732635,9.12580456 L13.6656784,9.1329725 L10.3678165,9.1329725 C10.1969799,9.13536951 10.0526441,9.00367882 10.035232,8.82952542 C10.0178199,8.65537202 10.1330977,8.4964291 10.3008599,8.46328262 L10.3678165,8.45611468 L13.6656784,8.45611468 Z" id="路径" fill="#2C7BE5"></path>
                    <path d="M3.63418216,8.45611468 C3.80501877,8.45371768 3.9493546,8.58540836 3.96676672,8.75956176 C3.98417884,8.93371516 3.86890098,9.09265808 3.70113876,9.12580456 L3.63418216,9.1329725 L0.334321569,9.1329725 C0.163484966,9.1353695 0.0191491367,9.00367881 0.00173702247,8.82952541 C-0.0156750918,8.65537201 0.0996027606,8.4964291 0.267364985,8.46328262 L0.334321569,8.45611468 L3.63418216,8.45611468 Z" id="路径" fill="#2C7BE5"></path>
                </g>
            </g>
        </g>
    </g>
</svg>