<?xml version="1.0" encoding="UTF-8"?>
<svg width="16px" height="16px" viewBox="0 0 16 16" version="1.1" xmlns="http://www.w3.org/2000/svg" xmlns:xlink="http://www.w3.org/1999/xlink">
    <title>网关</title>
    <g id="0716" stroke="none" stroke-width="1" fill="none" fill-rule="evenodd">
        <g id="画板" transform="translate(-163.000000, -250.000000)">
            <g id="网关" transform="translate(163.000000, 250.000000)">
                <g id="Sicon-BG" transform="translate(0.000000, 0.000000)" fill="#FFA540" fill-rule="nonzero" opacity="0">
                    <rect x="0" y="0" width="16" height="16"></rect>
                </g>
                <g id="网关服务" transform="translate(1.000000, 0.999960)">
                    <path d="M10.485125,1.99987256e-05 C10.7454084,-0.00234975267 10.9586372,0.206182071 10.962,0.466452664 L11.375,5.02801248 L13.125,5.02801248 C13.6027508,5.02315171 13.9942335,5.40601822 14,5.88375437 L14,13.1450825 C13.9937554,13.6224754 13.6024135,14.0048128 13.125,14.0000403 L0.875,14.0000403 C0.397249245,14.0048102 0.00576648953,13.6219437 0,13.1442075 L0,5.88287937 C0.00624462089,5.40548649 0.397586519,5.02314908 0.875,5.02801248 L2.625,5.02801248 L3.00825,0.466452664 C3.01161284,0.206182076 3.22484158,-0.00234974508 3.48512499,1.99987256e-05 C3.74540842,-0.00234975267 3.95863717,0.206182071 3.962,0.466452664 L4.375,5.02801248 L9.625,5.02801248 L10.00825,0.466452664 C10.0116128,0.206182076 10.2248416,-0.00234974508 10.485125,1.99987256e-05 Z M12,6 L2,6 C1.44771525,6 1,6.44771525 1,7 L1,7 L1,12 C1,12.5522847 1.44771525,13 2,13 L2,13 L12,13 C12.5522847,13 13,12.5522847 13,12 L13,12 L13,7 C13,6.44771525 12.5522847,6 12,6 L12,6 Z" id="形状结合" fill="#00DEAB" fill-rule="nonzero"></path>
                    <path d="M3.0948341,6.99815568 L10.9936468,6.99815568 C11.5459316,6.99815568 11.9936468,7.44587093 11.9936468,7.99815568 L11.9936468,11.0070786 C11.9936468,11.5593633 11.5459316,12.0070786 10.9936468,12.0070786 L3.0948341,12.0070786 C2.54254935,12.0070786 2.0948341,11.5593633 2.0948341,11.0070786 L2.0948341,7.99815568 C2.0948341,7.44587093 2.54254935,6.99815568 3.0948341,6.99815568 Z" id="矩形" fill="#2C7BE5" fill-rule="nonzero"></path>
                    <rect id="矩形" fill="#00DEAB" x="7" y="9" width="4" height="2" rx="0.5"></rect>
                    <circle id="椭圆形" fill="#00DEAB" cx="5" cy="10" r="1"></circle>
                </g>
            </g>
        </g>
    </g>
</svg>