<?xml version="1.0" encoding="UTF-8"?>
<svg width="16px" height="16px" viewBox="0 0 16 16" version="1.1" xmlns="http://www.w3.org/2000/svg" xmlns:xlink="http://www.w3.org/1999/xlink">
    <title>NVP</title>
    <g id="0716" stroke="none" stroke-width="1" fill="none" fill-rule="evenodd">
        <g id="画板" transform="translate(-206.000000, -250.000000)">
            <g id="NVP" transform="translate(206.000000, 250.000000)">
                <rect id="Sicon-BG" fill="#FFA540" fill-rule="nonzero" opacity="0" x="0" y="0" width="16" height="16"></rect>
                <g id="编组-2" transform="translate(1.000000, 3.000000)">
                    <path d="M10.4969234,-4.41868764e-14 C11.1387241,-4.50670074e-14 11.7521436,0.264555528 12.1926353,0.731326502 L13.1380956,1.73153974 C13.040056,1.71087069 12.9384051,1.7 12.8342152,1.7 L1.16578485,1.7 C1.02978082,1.7 0.898103045,1.71852291 0.773136615,1.75318363 L1.54980842,0.831381617 C1.99281731,0.304314448 2.64613044,-4.40603977e-14 3.33464818,-4.41868764e-14 L10.4969234,-4.41868764e-14 Z" id="形状结合" fill="#00DEAB"></path>
                    <path d="M1.16578485,2 L12.8342152,2 C13.4780603,2 14,2.52193965 14,3.16578485 L14,7.82829346 C14,8.47213866 13.4780603,8.99407831 12.8342152,8.99407831 L1.16578485,8.99407831 C0.521939655,8.99407831 -1.43196309e-16,8.47213866 0,7.82829346 L0,3.16578485 C1.43196309e-16,2.52193965 0.521939655,2 1.16578485,2 Z" id="矩形" fill-rule="nonzero"></path>
                    <path d="M1.16578485,2 L12.8342152,2 C13.4780603,2 14,2.52193965 14,3.16578485 L14,7.82829346 C14,8.47213866 13.4780603,8.99407831 12.8342152,8.99407831 L1.16578485,8.99407831 C0.521939655,8.99407831 -1.43196309e-16,8.47213866 0,7.82829346 L0,3.16578485 C1.43196309e-16,2.52193965 0.521939655,2 1.16578485,2 Z" id="矩形" fill="#2C7BE5" fill-rule="nonzero"></path>
                    <path d="M12,3.65583367 L12,3.89870719 C12.0000667,3.95390963 12.0447976,3.99867037 12.1,3.99877386 L12.9,3.99930719 C12.9552024,3.99941068 12.9999333,4.04417142 13,4.09937386 L13,4.9 C13,4.95522847 12.9552285,5 12.9,5 L10.1,5 C10.0447715,5 10,4.95522847 10,4.9 L10,4.09937386 C10.0000667,4.04417142 10.0447976,3.99941068 10.1,3.99930719 L10.9,3.99877386 C10.9552024,3.99867037 10.9999333,3.95390963 11,3.89870719 L11,3.65583367 C11,3.60060519 11.0447715,3.55583367 11.1,3.55583367 L11.9,3.55583367 C11.9552285,3.55583367 12,3.60060519 12,3.65583367 Z" id="路径" fill="#00DEAB"></path>
                    <circle id="椭圆形" fill="#00DEAB" cx="2.5" cy="4.5" r="1"></circle>
                    <circle id="椭圆形备份-2" fill="#00DEAB" cx="4.5" cy="4.5" r="1"></circle>
                    <circle id="椭圆形备份-10" fill="#00DEAB" cx="6.5" cy="4.5" r="1"></circle>
                    <circle id="椭圆形备份" fill="#00DEAB" cx="2.5" cy="6.5" r="1"></circle>
                    <circle id="椭圆形备份-9" fill="#00DEAB" cx="4.5" cy="6.5" r="1"></circle>
                    <circle id="椭圆形备份-11" fill="#00DEAB" cx="6.5" cy="6.5" r="1"></circle>
                    <rect id="矩形" fill="#00DEAB" x="10" y="6" width="3" height="1"></rect>
                </g>
            </g>
        </g>
    </g>
</svg>