<?xml version="1.0" encoding="UTF-8"?>
<svg width="76px" height="65px" viewBox="0 0 76 65" version="1.1" xmlns="http://www.w3.org/2000/svg" xmlns:xlink="http://www.w3.org/1999/xlink">
    <title>上传文件</title>
    <g id="页面-1" stroke="none" stroke-width="1" fill="none" fill-rule="evenodd" opacity="0.8">
        <g id="切图" transform="translate(-1247.000000, -921.000000)">
            <g id="上传文件" transform="translate(1247.000000, 921.000000)">
                <g transform="translate(0.000000, 0.000000)">
                    <path d="M62.8777341,18.1713206 L39.7127446,18.1713206 L32.1459398,10.9535243 C32.0496316,10.8641085 31.9232612,10.8138734 31.7916886,10.8126994 L15.3898598,10.8126994 C14.8419995,10.8118963 14.3163458,11.0286036 13.9289496,11.41498 C13.5415534,11.8013565 13.3242742,12.3256266 13.3250794,12.8720449 L13.3250794,50.9673719 C13.3244081,51.5140118 13.5419388,52.038434 13.9296345,52.424825 C14.3173301,52.8112161 14.843296,53.0277887 15.391378,53.0267191 L62.8797584,53.0267191 C63.4276188,53.0275205 63.9532725,52.8108132 64.3406687,52.4244367 C64.7280649,52.0380602 64.9453441,51.5137902 64.9445388,50.9673719 L64.9445388,20.2326829 C64.9452102,19.6860429 64.7276794,19.1616208 64.3399837,18.7752297 C63.9522881,18.3888387 63.4263222,18.172266 62.8782402,18.1733396 L62.8777341,18.1713206 Z" id="路径_2316" fill="#E2E5F1" fill-rule="nonzero"></path>
                    <g id="组_9185" transform="translate(70.480896, 43.131188)" fill="#A4BFFF" fill-rule="nonzero">
                        <g id="组_9175" transform="translate(0.000000, -0.000000)">
                            <path d="M2.75159981,5.48863385 C1.6387141,5.48863385 0.63541029,4.82001227 0.209527368,3.7945463 C-0.216355553,2.76908034 0.0190527659,1.58871796 0.805981795,0.803860286 C1.59291082,0.0190026152 2.77638836,-0.215786061 3.80456069,0.208975849 C4.83273301,0.63373776 5.50311919,1.63440067 5.50311919,2.74435703 C5.49263831,4.2556282 4.26685944,5.47818056 2.75159981,5.48863385 Z M2.75159981,0.942936403 C1.75435648,0.942936403 0.945931028,1.74923391 0.945931028,2.74385229 C0.945931028,3.73847067 1.75435648,4.54476818 2.75159981,4.54476818 C3.74884314,4.54476818 4.55726858,3.73847067 4.55726858,2.74385229 C4.55119129,1.75175543 3.74631496,0.948997703 2.75159981,0.942936403 Z" id="路径_2292"></path>
                        </g>
                    </g>
                    <path d="M52.5512126,18.9434492 C52.5512126,18.9434492 55.896031,21.1224764 62.6208805,27.0179781 C62.8100959,27.7863173 62.9481098,28.5663195 63.0340172,29.35287 C61.9828972,33.121438 57.1397707,29.7574765 59.1719534,27.4818081 C61.204136,25.2061397 67.2438349,26.9441541 67.6223483,34.4748921 C68.0008616,42.00563 64.1742584,50.8820909 45.0920429,57.1728248" id="路径_2298" stroke="#C2C8D8" stroke-width="0.506073088" stroke-dasharray="1.012146175983722" transform="translate(56.369509, 38.058137) rotate(3.000000) translate(-56.369509, -38.058137) "></path>
                    <g id="组_9180" transform="translate(9.187428, 17.923998)" fill="#C2C8D8" fill-rule="nonzero">
                        <g id="组_9179" transform="translate(0.000000, -0.000000)">
                            <path d="M4.18320015,8.34437821 L5.7533849e-14,4.17218911 L4.18320015,-2.86912041e-14 L8.36640029,4.17218911 L4.18320015,8.34437821 Z M1.46204515,4.17218911 L4.22368599,6.92656074 L6.98532683,4.17218911 L4.22368599,1.41781747 L1.46204515,4.17218911 Z" id="路径_2294"></path>
                        </g>
                    </g>
                    <path d="M56.0750997,4.8628147 C55.7956032,4.8628147 55.5690266,4.63683445 55.5690266,4.3580737 L55.5690266,3.23452023 L54.443014,3.23452023 C54.1635175,3.23452023 53.9369409,3.00853999 53.9369409,2.72977923 L53.9369409,2.65406808 C53.9369409,2.37530732 54.1635175,2.14932708 54.443014,2.14932708 L55.5690266,2.14932708 L55.5690266,1.0267831 C55.5690266,0.748022339 55.7956032,0.522042096 56.0750997,0.522042096 L56.1510106,0.522042096 C56.4305071,0.522042096 56.6570837,0.748022339 56.6570837,1.0267831 L56.6570837,2.14932708 L57.7830963,2.14932708 C58.0625928,2.14932708 58.2891694,2.37530732 58.2891694,2.65406808 L58.2891694,2.72977923 C58.2891694,3.00853999 58.0625928,3.23452023 57.7830963,3.23452023 L56.6570837,3.23452023 L56.6570837,4.3580737 C56.6570837,4.63683445 56.4305071,4.8628147 56.1510106,4.8628147 L56.0750997,4.8628147 Z" id="联合_11" fill="#417AFF" fill-rule="nonzero"></path>
                    <path d="M32.0093,64.012403 C31.7298036,64.012403 31.5032269,63.7864228 31.5032269,63.507662 L31.5032269,61.6810043 L29.6717484,61.6810043 C29.392252,61.6810043 29.1656754,61.4550241 29.1656754,61.1762633 L29.1656754,60.6301336 C29.1656754,60.3513728 29.392252,60.1253926 29.6717484,60.1253926 L31.5032269,60.1253926 L31.5032269,58.2992396 C31.5032269,58.0204789 31.7298036,57.7944986 32.0093,57.7944986 L32.556365,57.7944986 C32.8358615,57.7944986 33.0624381,58.0204789 33.0624381,58.2992396 L33.0624381,60.1253926 L34.8939166,60.1253926 C35.1734131,60.1253926 35.3999897,60.3513728 35.3999897,60.6301336 L35.3999897,61.1762633 C35.3999897,61.4550241 35.1734131,61.6810043 34.8939166,61.6810043 L33.0624381,61.6810043 L33.0624381,63.5091762 C33.0624381,63.787937 32.8358615,64.0139172 32.556365,64.0139172 L32.0093,64.012403 Z" id="联合_12" fill="#C2C8D8" fill-rule="nonzero"></path>
                    <path d="M6.0406656,11.7681763 C5.76116915,11.7681763 5.53459251,11.5421961 5.53459251,11.2634353 L5.53459251,9.97331732 L4.2410697,9.97331732 C3.96157325,9.97331732 3.73499661,9.74733708 3.73499661,9.46857632 L3.73499661,9.28081267 C3.73499661,9.00205191 3.96157325,8.77607167 4.2410697,8.77607167 L5.53459251,8.77607167 L5.53459251,7.48645842 C5.53459251,7.20769766 5.76116915,6.98171742 6.0406656,6.98171742 L6.22841872,6.98171742 C6.50791516,6.98171742 6.7344918,7.20769766 6.7344918,7.48645842 L6.7344918,8.77607167 L8.02801462,8.77607167 C8.30751107,8.77607167 8.5340877,9.00205191 8.5340877,9.28081267 L8.5340877,9.46807158 C8.5340877,9.74683234 8.30751107,9.97281258 8.02801462,9.97281258 L6.7344918,9.97281258 L6.7344918,11.2634353 C6.7344918,11.5421961 6.50791516,11.7681763 6.22841872,11.7681763 L6.0406656,11.7681763 Z" id="联合_13" fill="#F1F3F8" fill-rule="nonzero"></path>
                    <path d="M17.1595832,35.0552754 C17.3903793,35.0550286 17.6119267,35.1457365 17.7759802,35.3076464 L23.6104968,41.1298339 L23.6094847,41.1313481 C23.7721987,41.2930705 23.8633091,41.5129774 23.8625263,41.7420847 L23.8625263,58.4177179 C23.8628012,58.8948414 23.4755183,59.2820084 22.9971362,59.2828441 L5.64591435,59.2828441 C5.41582194,59.2828441 5.19511492,59.191874 5.032415,59.0296024 C4.86971507,58.8673307 4.77850493,58.6472046 4.77850493,58.4177179 L4.77850493,35.920402 C4.77850493,35.6909153 4.86971507,35.4707892 5.032415,35.3085175 C5.19511492,35.1462458 5.41582194,35.0552754 5.64591435,35.0552754 L17.1595832,35.0552754 Z M18.9934964,45.0944414 L8.99349644,45.0944414 L8.99349644,53.0944414 L18.9934964,53.0944414 L18.9934964,45.0944414 Z M18.368505,45.709826 L18.368505,52.4790568 L9.61849767,52.4790568 L9.61849767,45.709826 L18.368505,45.709826 Z M12.118483,46.9405857 L10.2434793,51.8636818 L17.7435038,51.8636818 L15.868461,49.0944559 L14.6184586,50.0175568 L12.118483,46.9405857 Z M16.8059873,46.325201 C16.2880828,46.325201 15.868461,46.7384336 15.868461,47.2483116 C15.868461,47.7579395 16.2880828,48.1713453 16.8059873,48.1713453 C17.3238918,48.1713453 17.7435135,47.7579299 17.7435135,47.2483116 C17.7435135,46.7383855 17.3238918,46.325201 16.8059873,46.325201 Z M16.7613037,37.0530408 L16.7613037,42.1398206 L21.8625049,42.1392749 L16.7613037,37.0530408 Z" id="路径_2315" fill="#417AFF" fill-rule="nonzero" transform="translate(14.320518, 47.169060) rotate(-30.000000) translate(-14.320518, -47.169060) "></path>
                    <g id="图片-(1)" transform="translate(15.000000, 49.000000) rotate(-30.000000) translate(-15.000000, -49.000000) translate(10.000000, 45.000000)"></g>
                    <path d="M32.6545432,39.4915805 L45.6100143,39.4915805 L45.6100143,33.8384813 L47.2294482,33.8384813 L47.2294482,40.2991661 C47.2294482,40.7451833 46.8669255,41.1067517 46.4197312,41.1067517 L31.8448263,41.1067517 C31.397632,41.1067517 31.0351093,40.7451833 31.0351093,40.2991661 L31.0351093,33.8384813 L32.6545432,33.8384813 L32.6545432,39.4915805 L32.6545432,39.4915805 Z M40.7517126,31.4157245 L40.7517126,36.2612381 L37.5128449,36.2612381 L37.5128449,31.4157245 L33.4642602,31.4157245 L39.1322788,25.7626253 L44.8002973,31.4157245 L40.7517126,31.4157245 Z" id="路径_2318" fill="#FFFFFF" fill-rule="nonzero"></path>
                    <path d="M52.9462169,16.1434531 C52.9461678,13.8918956 51.6459093,11.8417159 49.6061345,10.8769855 L49.6061345,7.42455708 C49.6068904,7.11029753 49.4952831,6.80606454 49.291357,6.56649738 L46.1081573,2.80365323 C45.9814255,2.652709 45.7941673,2.56550429 45.5967705,2.56550429 C45.3993736,2.56550429 45.2121154,2.652709 45.0853836,2.80365323 L41.9047143,6.56700212 C41.7015697,6.8070576 41.5899145,7.11093265 41.5894307,7.42506182 L41.5894307,10.877995 C39.5494852,11.8425331 38.2491501,13.8928336 38.2493483,16.1444626 L41.5170623,16.1444626 C41.4672015,16.3049248 41.4426173,16.4721341 41.4441877,16.6401183 C41.4447905,17.4947792 41.9841032,18.2567607 42.7913543,18.5434966 C43.2711053,19.6653707 44.3759233,20.3933458 45.5987948,20.3933458 C46.8216662,20.3933458 47.9264842,19.6653707 48.4062352,18.5434966 C49.2144176,18.2591566 49.7545172,17.4968727 49.7534018,16.6421372 C49.7534668,16.4747822 49.7315184,16.3081418 49.6881183,16.1464816 L52.9497594,16.1464816 L52.9462169,16.1434531 Z M45.5990478,8.1473462 C46.006645,8.13749315 46.3796263,8.37481757 46.5424529,8.74762586 C46.7052795,9.12043415 46.6255146,9.55445894 46.3406986,9.84543221 C46.0558825,10.1364055 45.6227537,10.2263623 45.2451584,10.0729656 C44.8675632,9.91956897 44.6207224,9.55337711 44.6208085,9.14673338 C44.6209234,8.60402919 45.0550711,8.16049601 45.5990478,8.1473462 L45.5990478,8.1473462 Z M48.0231379,17.1478877 C47.9152637,17.210506 47.7895651,17.2355441 47.6658503,17.2190562 L47.2609918,17.1685821 L47.2022873,17.5723749 C47.0832333,18.3628865 46.4023085,18.9476269 45.6008191,18.9476269 C44.7993296,18.9476269 44.1184048,18.3628865 43.9993508,17.5723749 L43.9411524,17.1660584 L43.5362939,17.2165325 C43.4124559,17.2313573 43.2871306,17.2058625 43.1790063,17.1438498 C42.9969546,17.0390189 42.8848551,16.8452374 42.8849554,16.6355756 C42.883085,16.4262363 43.0009084,16.2341022 43.1886217,16.1404247 L48.0180772,16.1404247 C48.2055367,16.2343776 48.3232524,16.4263362 48.3217358,16.6355756 C48.3212865,16.8465406 48.2080483,17.0412518 48.0246561,17.1463735 L48.0231379,17.1478877 Z" id="路径_2319" fill="#697391" fill-rule="nonzero" transform="translate(45.599554, 11.479425) rotate(-46.000000) translate(-45.599554, -11.479425) "></path>
                </g>
            </g>
        </g>
    </g>
</svg>