<?xml version="1.0" encoding="UTF-8"?>
<svg width="16px" height="16px" viewBox="0 0 16 16" version="1.1" xmlns="http://www.w3.org/2000/svg" xmlns:xlink="http://www.w3.org/1999/xlink">
    <title>录音备份</title>
    <g id="页面-1" stroke="none" stroke-width="1" fill="none" fill-rule="evenodd">
        <g id="切图" transform="translate(-1653.000000, -268.000000)" fill-rule="nonzero">
            <g id="录音备份" transform="translate(1653.000000, 268.000000)">
                <rect id="矩形" fill-opacity="0.01" fill="#FFFFFF" x="0" y="0" width="16" height="16"></rect>
                <path d="M8,0.666666667 C6.34314575,0.666666667 5,2.00981242 5,3.66666667 L5,8 C5,9.65685425 6.34314575,11 8,11 C9.65685425,11 11,9.65685425 11,8 L11,3.66666667 C11,2.00981242 9.65685425,0.666666667 8,0.666666667 Z M8,2 C8.92047458,2 9.66666667,2.74619208 9.66666667,3.66666667 L9.66666667,8 C9.66666667,8.92047458 8.92047458,9.66666667 8,9.66666667 C7.07952542,9.66666667 6.33333333,8.92047458 6.33333333,8 L6.33333333,3.66666667 C6.33333333,2.74619208 7.07952542,2 8,2 Z" id="矩形" fill="#0CD5A7"></path>
                <path d="M3.66666667,7 L3.66666667,7.66666667 C3.66666667,10.0599102 5.6067565,12 8,12 C10.322854,12 12.2188184,10.1723548 12.3283363,7.87662137 L12.3333333,7.66666667 L12.3333333,7 L13.6666667,7 L13.6666667,7.66666667 C13.6666667,10.7962898 11.1296232,13.3333333 8,13.3333333 C4.94315877,13.3333333 2.45165584,10.9129197 2.33742523,7.88402655 L2.33333333,7.66666667 L2.33333333,7 L3.66666667,7 Z" id="路径" fill="#0CD5A7"></path>
                <polygon id="路径" fill="#0CD5A7" points="8.66666667 12 8.66666667 15.3333333 7.33333333 15.3333333 7.33333333 12"></polygon>
            </g>
        </g>
    </g>
</svg>