<?xml version="1.0" encoding="UTF-8"?>
<svg width="16px" height="16px" viewBox="0 0 16 16" version="1.1" xmlns="http://www.w3.org/2000/svg" xmlns:xlink="http://www.w3.org/1999/xlink">
    <title>语音</title>
    <g id="页面-1" stroke="none" stroke-width="1" fill="none" fill-rule="evenodd">
        <g id="切图" transform="translate(-1600.000000, -201.000000)">
            <g id="语音" transform="translate(1600.000000, 201.000000)">
                <rect id="矩形" fill-opacity="0.01" fill="#FFFFFF" fill-rule="nonzero" x="0" y="1" width="14.7692308" height="14.7692308"></rect>
                <rect id="矩形" fill-opacity="0.01" fill="#FFFFFF" fill-rule="nonzero" opacity="0" x="0" y="0" width="16" height="16"></rect>
                <path d="M12.8552615,7.34049231 C12.9330462,6.81870769 12.9075385,6.28452308 12.7787385,5.77089231 C12.6086154,5.09236923 12.2582154,4.44978462 11.7276,3.91916923 C11.1969846,3.38855692 10.5544,3.03818154 9.87590769,2.86804615 C9.36227692,2.73925231 8.82806154,2.71374462 8.30627692,2.79152308" id="路径" stroke="#AEB8D1" stroke-width="1.23076923" stroke-linecap="square"></path>
                <path d="M10.5199077,7.09338462 C10.6032308,6.53443077 10.4297538,5.94458462 9.99947692,5.51430769 C9.56916923,5.08403077 8.97935385,4.91052308 8.4204,4.99384615" id="路径" stroke="#AEB8D1" stroke-width="1.23076923" stroke-linecap="square"></path>
                <path d="M4.42329231,3.70591692 C4.64683077,3.70591692 4.8528,3.82716923 4.96132308,4.02261538 L5.71406154,5.37855385 C5.81261538,5.55609231 5.81726154,5.77083077 5.72643077,5.95246154 L5.00126154,7.4028 C5.00126154,7.4028 5.21141538,8.48326154 6.09092308,9.36276923 C6.97046154,10.2422769 8.04726154,10.4488 8.04726154,10.4488 L9.49738462,9.72375385 C9.67913846,9.63286154 9.89403077,9.63756923 10.0716308,9.73630769 L11.4314154,10.4923077 C11.6267077,10.6008615 11.7477846,10.8067385 11.7477846,11.0301538 L11.7477846,12.5912308 C11.7477846,13.3862154 11.0093538,13.9604 10.2560923,13.7062154 C8.70904615,13.1842154 6.3076,12.1903077 4.78550769,10.6681846 C3.26338462,9.14609231 2.26947692,6.74464615 1.74747385,5.1976 C1.49331077,4.44433846 2.06749231,3.70591692 2.86246154,3.70591692 L4.42329231,3.70591692 Z" id="路径" stroke="#AEB8D1" stroke-width="1.23076923"></path>
            </g>
        </g>
    </g>
</svg>