<?xml version="1.0" encoding="UTF-8"?>
<svg width="16px" height="16px" viewBox="0 0 16 16" version="1.1" xmlns="http://www.w3.org/2000/svg" xmlns:xlink="http://www.w3.org/1999/xlink">
    <title>调用</title>
    <g id="页面-1" stroke="none" stroke-width="1" fill="none" fill-rule="evenodd">
        <g id="切图" transform="translate(-1441.000000, -369.000000)">
            <g id="调用" transform="translate(1441.000000, 369.000000)">
                <rect id="矩形" fill-opacity="0.01" fill="#FFFFFF" fill-rule="nonzero" opacity="0" x="0" y="0" width="16" height="16"></rect>
                <line x1="3.66666667" y1="5.33333333" x2="3.66666667" y2="14" id="路径" stroke="#AEB8D1" stroke-width="1.33333333" stroke-linecap="square"></line>
                <line x1="8" y1="9.66666667" x2="8" y2="14" id="路径" stroke="#AEB8D1" stroke-width="1.33333333" stroke-linecap="square"></line>
                <line x1="8" y1="6.33333333" x2="8" y2="2" id="路径" stroke="#AEB8D1" stroke-width="1.33333333" stroke-linecap="square"></line>
                <line x1="12.3333333" y1="2" x2="12.3333333" y2="10.6666667" id="路径" stroke="#AEB8D1" stroke-width="1.33333333" stroke-linecap="square"></line>
                <path d="M3.66666667,5.33333333 C4.58713333,5.33333333 5.33333333,4.58713333 5.33333333,3.66666667 C5.33333333,2.74619333 4.58713333,2 3.66666667,2 C2.74619333,2 2,2.74619333 2,3.66666667 C2,4.58713333 2.74619333,5.33333333 3.66666667,5.33333333 Z" id="路径" stroke="#AEB8D1" stroke-width="1.33333333"></path>
                <path d="M8,9.66666667 C8.92046667,9.66666667 9.66666667,8.92046667 9.66666667,8 C9.66666667,7.07953333 8.92046667,6.33333333 8,6.33333333 C7.07953333,6.33333333 6.33333333,7.07953333 6.33333333,8 C6.33333333,8.92046667 7.07953333,9.66666667 8,9.66666667 Z" id="路径" stroke="#AEB8D1" stroke-width="1.33333333"></path>
                <path d="M12.3333333,14 C13.2538,14 14,13.2538 14,12.3333333 C14,11.4128667 13.2538,10.6666667 12.3333333,10.6666667 C11.4128667,10.6666667 10.6666667,11.4128667 10.6666667,12.3333333 C10.6666667,13.2538 11.4128667,14 12.3333333,14 Z" id="路径" stroke="#AEB8D1" stroke-width="1.33333333"></path>
            </g>
        </g>
    </g>
</svg>