<?xml version="1.0" encoding="UTF-8"?>
<svg width="16px" height="16px" viewBox="0 0 16 16" version="1.1" xmlns="http://www.w3.org/2000/svg" xmlns:xlink="http://www.w3.org/1999/xlink">
    <title>相机备份</title>
    <g id="页面-1" stroke="none" stroke-width="1" fill="none" fill-rule="evenodd">
        <g id="切图" transform="translate(-1547.000000, -268.000000)" fill-rule="nonzero">
            <g id="相机备份" transform="translate(1547.000000, 268.000000)">
                <rect id="矩形" fill-opacity="0.01" fill="#FFFFFF" x="0" y="0" width="16" height="16"></rect>
                <path d="M13.3333333,4 L2.66666667,4 C1.930287,4 1.33333333,4.59695367 1.33333333,5.33333333 L1.33333333,12.6666667 C1.33333333,13.4030463 1.930287,14 2.66666667,14 L13.3333333,14 C14.069713,14 14.6666667,13.4030463 14.6666667,12.6666667 L14.6666667,5.33333333 C14.6666667,4.59695367 14.069713,4 13.3333333,4 Z M2.66666667,5.33333333 L13.3333333,5.33333333 L13.3333333,12.6666667 L2.66666667,12.6666667 L2.66666667,5.33333333 Z" id="矩形" fill="#0CD5A7"></path>
                <path d="M7.07915901,2 L3.58750766,2 L2.38378544,5.33333333 L8.28288123,5.33333333 L7.07915901,2 Z M6.143,3.333 L6.384,4 L4.282,4 L4.523,3.333 L6.143,3.333 Z" id="路径" fill="#0CD5A7"></path>
                <path d="M9.66666667,6 C8.00981242,6 6.66666667,7.34314575 6.66666667,9 C6.66666667,10.6568542 8.00981242,12 9.66666667,12 C11.3235209,12 12.6666667,10.6568542 12.6666667,9 C12.6666667,7.34314575 11.3235209,6 9.66666667,6 Z M9.66666667,7.33333333 C10.5871412,7.33333333 11.3333333,8.07952542 11.3333333,9 C11.3333333,9.92047458 10.5871412,10.6666667 9.66666667,10.6666667 C8.74619208,10.6666667 8,9.92047458 8,9 C8,8.07952542 8.74619208,7.33333333 9.66666667,7.33333333 Z" id="椭圆形" fill="#0CD5A7"></path>
                <polygon id="路径" fill="#0CD5A7" points="12.6666667 2.66666667 12.6666667 5.33333333 11.3333333 5.33333333 11.3333333 2.66666667"></polygon>
            </g>
        </g>
    </g>
</svg>