<?xml version="1.0" encoding="UTF-8"?>
<svg width="16px" height="16px" viewBox="0 0 16 16" version="1.1" xmlns="http://www.w3.org/2000/svg" xmlns:xlink="http://www.w3.org/1999/xlink">
    <title>语音备份</title>
    <g id="页面-1" stroke="none" stroke-width="1" fill="none" fill-rule="evenodd">
        <g id="切图" transform="translate(-1600.000000, -268.000000)" fill-rule="nonzero">
            <g id="语音备份" transform="translate(1600.000000, 268.000000)">
                <rect id="矩形" fill-opacity="0.01" fill="#FFFFFF" x="0" y="1" width="14.7692308" height="14.7692308"></rect>
                <rect id="矩形" fill-opacity="0.01" fill="#FFFFFF" opacity="0" x="0" y="0" width="16" height="16"></rect>
                <path d="M8.21554866,2.1828634 C8.8183913,2.09300223 9.43428122,2.1228712 10.0255845,2.27114158 C10.82855,2.47248923 11.5650058,2.88629319 12.1627426,3.4840266 C12.7605009,4.08178484 13.1743209,4.81825727 13.3756418,5.62121056 C13.5027377,6.12804548 13.5428385,6.65292202 13.4951083,7.17217771 L13.4639202,7.4312276 L13.3731849,8.03988623 L12.1558676,7.85841565 L12.2466029,7.24975702 C12.3126049,6.80701105 12.2906613,6.35455279 12.1818297,5.92055258 C12.0343166,5.33220743 11.7315866,4.79344106 11.2924586,4.35431313 C10.8533494,3.91520649 10.3145884,3.61248435 9.72623267,3.46495118 C9.37904795,3.37789398 9.02001496,3.34643793 8.66359974,3.37112866 L8.39700519,3.40018276 L7.78834551,3.49091102 L7.60688898,2.27359166 L8.21554866,2.1828634 Z" id="路径" fill="#0CD5A7"></path>
                <path d="M8.32966739,4.38518712 C9.09571435,4.27099274 9.87610478,4.52069022 10.4346196,5.07916506 C10.9501239,5.59466942 11.2025246,6.29929782 11.1484857,7.00718508 L11.1285667,7.18411723 L11.0378341,7.79277626 L9.82051605,7.61131103 L9.91124866,7.002652 C9.96853924,6.6183312 9.84402484,6.22914088 9.56434985,5.94946588 C9.31957413,5.70470767 8.99101182,5.57877446 8.65524868,5.58949308 L8.51113261,5.60250519 L7.90247358,5.6932378 L7.72100835,4.47591974 L8.32966739,4.38518712 Z" id="路径" fill="#0CD5A7"></path>
                <path d="M4.42329231,3.09053231 L2.86246154,3.09053231 C1.64688821,3.09053231 0.775306334,4.24122741 1.16438697,5.39434329 C1.94204057,7.69905384 2.98777638,9.74076612 4.35036946,11.1033316 C5.71292747,12.4659172 7.75464806,13.5116565 10.0593488,14.2893022 C11.2124553,14.6784126 12.3631692,13.8068238 12.3631692,12.5912308 L12.3631692,11.0301538 C12.3631692,10.5832985 12.1209797,10.1715405 11.7303949,9.95443272 L10.3706584,9.1984595 L10.2342316,9.13322487 C9.90902883,9.0016107 9.54020598,9.01429533 9.22213898,9.17335575 L7.979,9.795 L7.78399893,9.72727928 C7.47474738,9.61045486 7.16494729,9.44733199 6.87805334,9.2322452 C6.75357774,9.13892479 6.63592672,9.03748376 6.5260581,8.92761898 C6.41482351,8.81638439 6.31213219,8.69707705 6.2176899,8.5707094 C6.00334941,8.28391305 5.84034686,7.97415082 5.72320936,7.66490924 L5.655,7.47 L6.2768475,6.2276699 C6.45848741,5.86445163 6.44922115,5.43496983 6.25210561,5.07987877 L5.49936044,3.72392822 C5.28229917,3.33300868 4.87037519,3.09053231 4.42329231,3.09053231 Z M2.86246154,4.32130154 L4.42331223,4.32130154 L5.17603269,5.67721588 L4.35723162,7.314818 L4.39719725,7.52029278 C4.4880792,7.98754312 4.73754905,8.64614053 5.23182725,9.30750498 C5.36086243,9.48015935 5.50198561,9.64411704 5.65578044,9.79791187 C5.80773322,9.94985933 5.96953127,10.0893648 6.13977562,10.2169984 C6.8025629,10.7138956 7.46277239,10.9632996 7.93134754,11.0531692 L8.13604263,11.0924284 L9.77260745,10.2741583 L11.1324,11.0301538 L11.1324,12.5912308 C11.1324,12.9804797 10.7926685,13.2378036 10.4528506,13.1231336 C8.31263854,12.4009892 6.41834297,11.4307588 5.22065473,10.2330464 C4.0229345,9.03535036 3.05270704,7.14106188 2.33056029,5.00085544 C2.21589849,4.66103297 2.47322448,4.32130154 2.86246154,4.32130154 Z" id="路径" fill="#0CD5A7"></path>
            </g>
        </g>
    </g>
</svg>