<?xml version="1.0" encoding="UTF-8"?>
<svg width="16px" height="16px" viewBox="0 0 16 16" version="1.1" xmlns="http://www.w3.org/2000/svg" xmlns:xlink="http://www.w3.org/1999/xlink">
    <title>调用备份</title>
    <g id="页面-1" stroke="none" stroke-width="1" fill="none" fill-rule="evenodd">
        <g id="切图" transform="translate(-1567.000000, -369.000000)" fill-rule="nonzero">
            <g id="调用备份" transform="translate(1567.000000, 369.000000)">
                <rect id="矩形" fill-opacity="0.01" fill="#FFFFFF" opacity="0" x="0" y="0" width="16" height="16"></rect>
                <polygon id="路径" fill="#2C7BE5" points="4.33333333 4.66666667 4.33333333 14.6666667 3 14.6666667 3 4.66666667"></polygon>
                <polygon id="路径" fill="#2C7BE5" points="8.66666667 9 8.66666667 14.6666667 7.33333333 14.6666667 7.33333333 9"></polygon>
                <polygon id="路径" fill="#2C7BE5" points="8.66666667 1.33333333 8.66666667 7 7.33333333 7 7.33333333 1.33333333"></polygon>
                <polygon id="路径" fill="#2C7BE5" points="13 1.33333333 13 11.3333333 11.6666667 11.3333333 11.6666667 1.33333333"></polygon>
                <path d="M3.66666667,1.33333333 C2.3780035,1.33333333 1.33333333,2.3780035 1.33333333,3.66666667 C1.33333333,4.95532506 2.37800539,6 3.66666667,6 C4.95532317,6 6,4.95532317 6,3.66666667 C6,2.37800539 4.95532506,1.33333333 3.66666667,1.33333333 Z M3.66666667,2.66666667 C4.21894621,2.66666667 4.66666667,3.11438588 4.66666667,3.66666667 C4.66666667,4.2189435 4.2189435,4.66666667 3.66666667,4.66666667 C3.11438588,4.66666667 2.66666667,4.21894621 2.66666667,3.66666667 C2.66666667,3.11438317 3.11438317,2.66666667 3.66666667,2.66666667 Z" id="路径" fill="#2C7BE5"></path>
                <path d="M8,5.66666667 C6.7113435,5.66666667 5.66666667,6.7113435 5.66666667,8 C5.66666667,9.2886565 6.7113435,10.3333333 8,10.3333333 C9.2886565,10.3333333 10.3333333,9.2886565 10.3333333,8 C10.3333333,6.7113435 9.2886565,5.66666667 8,5.66666667 Z M8,7 C8.55227683,7 9,7.44772317 9,8 C9,8.55227683 8.55227683,9 8,9 C7.44772317,9 7,8.55227683 7,8 C7,7.44772317 7.44772317,7 8,7 Z" id="路径" fill="#2C7BE5"></path>
                <path d="M12.3333333,10 C11.0446768,10 10,11.0446768 10,12.3333333 C10,13.6219898 11.0446768,14.6666667 12.3333333,14.6666667 C13.6219898,14.6666667 14.6666667,13.6219898 14.6666667,12.3333333 C14.6666667,11.0446768 13.6219898,10 12.3333333,10 Z M12.3333333,11.3333333 C12.8856102,11.3333333 13.3333333,11.7810565 13.3333333,12.3333333 C13.3333333,12.8856102 12.8856102,13.3333333 12.3333333,13.3333333 C11.7810565,13.3333333 11.3333333,12.8856102 11.3333333,12.3333333 C11.3333333,11.7810565 11.7810565,11.3333333 12.3333333,11.3333333 Z" id="路径" fill="#2C7BE5"></path>
            </g>
        </g>
    </g>
</svg>