<?xml version="1.0" encoding="UTF-8"?>
<svg width="14px" height="16px" viewBox="0 0 14 16" version="1.1" xmlns="http://www.w3.org/2000/svg" xmlns:xlink="http://www.w3.org/1999/xlink">
    <title>锁定</title>
    <g id="页面-1" stroke="none" stroke-width="1" fill="none" fill-rule="evenodd">
        <g id="切图" transform="translate(-1442.000000, -201.000000)" fill="#AEB8D1" fill-rule="nonzero">
            <g id="锁定" transform="translate(1442.333333, 201.666667)">
                <path d="M12,6 L1.33333333,6 C0.596953667,6 0,6.59695367 0,7.33333333 L0,13.3333333 C0,14.069713 0.596953667,14.6666667 1.33333333,14.6666667 L12,14.6666667 C12.7363797,14.6666667 13.3333333,14.069713 13.3333333,13.3333333 L13.3333333,7.33333333 C13.3333333,6.59695367 12.7363797,6 12,6 Z M1.33333333,7.33333333 L12,7.33333333 L12,13.3333333 L1.33333333,13.3333333 L1.33333333,7.33333333 Z" id="矩形"></path>
                <path d="M6.66666667,0 C8.80885179,0 10.5577449,1.68397261 10.6617713,3.80036003 L10.6666667,4 L10.6666667,7.33333333 L9.33333333,7.33333333 L9.33333333,4 C9.33333333,2.5272461 8.13941644,1.33333333 6.66666667,1.33333333 C5.25056112,1.33333333 4.09225224,2.4371728 4.00524638,3.83135638 L4,4 L4,7.33333333 L2.66666667,7.33333333 L2.66666667,4 C2.66666667,1.79086541 4.45753826,0 6.66666667,0 Z" id="路径"></path>
                <polygon id="路径" points="7.33333333 8.66666667 7.33333333 12 6 12 6 8.66666667"></polygon>
            </g>
        </g>
    </g>
</svg>