<?xml version="1.0" encoding="UTF-8"?>
<svg width="16px" height="16px" viewBox="0 0 16 16" version="1.1" xmlns="http://www.w3.org/2000/svg" xmlns:xlink="http://www.w3.org/1999/xlink">
    <title>小光圈备份</title>
    <defs>
        <rect id="path-1" x="0" y="0" width="16" height="16"></rect>
    </defs>
    <g id="页面-1" stroke="none" stroke-width="1" fill="none" fill-rule="evenodd">
        <g id="切图" transform="translate(-1491.000000, -307.000000)">
            <g id="小光圈" transform="translate(1491.000000, 306.999991)">
                <mask id="mask-2" fill="white">
                    <use xlink:href="#path-1"></use>
                </mask>
                <use id="蒙版" fill="#D8D8D8" opacity="0" xlink:href="#path-1"></use>
                <g mask="url(#mask-2)" fill="#0CD5A7" fill-rule="nonzero" id="形状">
                    <g transform="translate(0.500000, 0.500009)">
                        <path d="M7.5,15 C3.357875,15 0,11.642125 0,7.5 C0,3.357875 3.357875,0 7.5,0 C11.642125,0 15,3.357875 15,7.5 C15,11.642125 11.642125,15 7.5,15 Z M7.5,14 C11.089875,14 14,11.089875 14,7.5 C14,3.910125 11.089875,1 7.5,1 C3.910125,1 1,3.910125 1,7.5 C1,11.089875 3.910125,14 7.5,14 Z M8.2795625,1.04625 C8.62920485,1.08799859 8.9748537,1.15823203 9.3130625,1.25625 L7.2684375,4.797625 L13.870125,6.200875 C13.9401675,6.5465559 13.9820134,6.89735537 13.99525,7.2498125 L10.3411875,6.4730625 L11.0233125,12.9631875 C10.7206413,13.1588335 10.402184,13.3289018 10.07125,13.471625 L9.69725,9.9131875 L3.53975,12.6546875 C3.25090515,12.4324063 2.98115287,12.1863616 2.7333125,11.919125 L6.2265,10.363875 L1.4665,5.0773125 C1.60023014,4.74469895 1.7613461,4.42376317 1.9481875,4.1178125 L4.7254375,7.2021875 L8.2795625,1.04625 Z M6.7426875,5.7081875 L5.4289375,7.983625 L7.1870625,9.9361875 L9.587375,8.8675 L9.3126875,6.2545 L6.7426875,5.7081875 Z"></path>
                    </g>
                </g>
            </g>
        </g>
    </g>
</svg>