<?xml version="1.0" encoding="UTF-8"?>
<svg width="16px" height="16px" viewBox="0 0 16 16" version="1.1" xmlns="http://www.w3.org/2000/svg" xmlns:xlink="http://www.w3.org/1999/xlink">
    <title>大光圈备份</title>
    <defs>
        <rect id="path-1" x="0" y="0" width="16" height="16"></rect>
    </defs>
    <g id="页面-1" stroke="none" stroke-width="1" fill="none" fill-rule="evenodd">
        <g id="切图" transform="translate(-1439.000000, -307.000000)">
            <g id="大光圈备份" transform="translate(1439.000000, 306.999991)">
                <mask id="mask-2" fill="white">
                    <use xlink:href="#path-1"></use>
                </mask>
                <use id="蒙版" fill="#D8D8D8" opacity="0" xlink:href="#path-1"></use>
                <g id="大光圈" mask="url(#mask-2)" fill="#0CD5A7" fill-rule="nonzero">
                    <g transform="translate(0.500000, 0.500009)" id="形状">
                        <path d="M7.5,15 C3.357875,15 0,11.642125 0,7.5 C0,3.357875 3.357875,0 7.5,0 C11.642125,0 15,3.357875 15,7.5 C15,11.642125 11.642125,15 7.5,15 Z M7.5,14 C11.089875,14 14,11.089875 14,7.5 C14,3.910125 11.089875,1 7.5,1 C3.910125,1 1,3.910125 1,7.5 C1,11.089875 3.910125,14 7.5,14 Z M8.8784375,1.1464375 C9.3221875,1.24225 9.7490625,1.383375 10.154,1.56475 L8.9513125,2.259125 L13.95925,6.7683125 C13.986125,7.0085 14,7.2526875 14,7.5 C14,7.7105 13.99,7.918625 13.9704375,8.124 L12.9915,7.2425625 L10.254875,13.389 C9.84085523,13.5830688 9.40737799,13.7325755 8.96175,13.835 L9.5004375,12.625 L2.7276875,11.913125 C2.4183609,11.5788549 2.14489034,11.2131103 1.91175,10.821875 L3.3026875,10.9680625 L1.8733125,4.2435625 C2.09887804,3.85478101 2.36403793,3.4903642 2.6645625,3.156125 L2.9633125,4.5615625 L8.8784375,1.1464375 Z M8.0406875,2.7848125 L3.1819375,5.5900625 L4.348375,11.0779375 L9.928125,11.664375 L12.2100625,6.539 L8.0406875,2.7848125 Z"></path>
                    </g>
                </g>
            </g>
        </g>
    </g>
</svg>