<?xml version="1.0" encoding="UTF-8"?>
<svg width="16px" height="16px" viewBox="0 0 16 16" version="1.1" xmlns="http://www.w3.org/2000/svg" xmlns:xlink="http://www.w3.org/1999/xlink">
    <title>摄像头备份 2</title>
    <g id="页面-1" stroke="none" stroke-width="1" fill="none" fill-rule="evenodd">
        <g id="切图" transform="translate(-1521.000000, -268.000000)">
            <g id="摄像头备份-2" transform="translate(1521.000000, 268.000000)">
                <rect id="矩形" fill-opacity="0.01" fill="#FFFFFF" fill-rule="nonzero" x="0" y="0" width="16" height="16"></rect>
                <path d="M11.3333333,3 L2,3 C1.26362033,3 0.666666667,3.59695367 0.666666667,4.33333333 L0.666666667,11.6666667 C0.666666667,12.4030463 1.26362033,13 2,13 L11.3333333,13 C12.069713,13 12.6666667,12.4030463 12.6666667,11.6666667 L12.6666667,4.33333333 C12.6666667,3.59695367 12.069713,3 11.3333333,3 Z M2,4.33333333 L11.3333333,4.33333333 L11.3333333,11.6666667 L2,11.6666667 L2,4.33333333 Z" id="矩形" fill="#0CD5A7" fill-rule="nonzero"></path>
                <g id="编组-8" transform="translate(4.800000, 6.000000)" fill="#0CD5A7">
                    <rect id="矩形" x="0" y="0" width="1" height="4" rx="0.5"></rect>
                    <rect id="矩形备份-10" x="3" y="0" width="1" height="4" rx="0.5"></rect>
                </g>
                <polygon id="路径" fill="#0CD5A7" fill-rule="nonzero" points="15.3333333 3.92131067 15.3333333 12.0786893 11.1055728 9.96480906 11.7018576 8.77223948 14 9.921 14 6.078 11.7018576 7.22776052 11.1055728 6.03519094"></polygon>
            </g>
        </g>
    </g>
</svg>