<?xml version="1.0" encoding="UTF-8"?>
<svg width="16px" height="16px" viewBox="0 0 16 16" version="1.1" xmlns="http://www.w3.org/2000/svg" xmlns:xlink="http://www.w3.org/1999/xlink">
    <title>设置_setting-one备份</title>
    <g id="页面-1" stroke="none" stroke-width="1" fill="none" fill-rule="evenodd">
        <g id="切图" transform="translate(-1631.000000, -369.000000)" fill-rule="nonzero">
            <g id="设置_setting-one备份" transform="translate(1631.000000, 369.000000)">
                <rect id="矩形" fill-opacity="0.01" fill="#FFFFFF" opacity="0" x="0" y="0" width="16" height="16"></rect>
                <path d="M11.7147365,1.66666667 L4.28543983,1.66666667 L0.559875124,8 L4.28543983,14.3333333 L11.7147365,14.3333333 L15.4401149,8 L11.7147365,1.66666667 Z M10.951,2.999 L13.893,7.999 L10.952,12.999 L5.047,12.999 L2.106,7.999 L5.048,2.999 L10.951,2.999 Z" id="路径" fill="#2C7BE5"></path>
                <path d="M8,5.66666667 C6.7113435,5.66666667 5.66666667,6.7113435 5.66666667,8 C5.66666667,9.2886565 6.7113435,10.3333333 8,10.3333333 C9.2886565,10.3333333 10.3333333,9.2886565 10.3333333,8 C10.3333333,6.7113435 9.2886565,5.66666667 8,5.66666667 Z M8,7 C8.55227683,7 9,7.44772317 9,8 C9,8.55227683 8.55227683,9 8,9 C7.44772317,9 7,8.55227683 7,8 C7,7.44772317 7.44772317,7 8,7 Z" id="路径" fill="#2C7BE5"></path>
            </g>
        </g>
    </g>
</svg>