<?xml version="1.0" encoding="UTF-8"?>
<svg width="16px" height="17px" viewBox="0 0 16 17" version="1.1" xmlns="http://www.w3.org/2000/svg" xmlns:xlink="http://www.w3.org/1999/xlink">
    <title>解锁</title>
    <g id="页面-1" stroke="none" stroke-width="1" fill="none" fill-rule="evenodd">
        <g id="切图" transform="translate(-1441.000000, -267.000000)">
            <g id="解锁" transform="translate(1441.000000, 267.666636)">
                <rect id="矩形" stroke="#979797" fill="#D8D8D8" opacity="0" x="0.5" y="0.5" width="15" height="15"></rect>
                <path d="M12.9999998,7.01589694 L2.99999984,7.01589694 C2.26362017,7.01589694 1.6666665,7.6128506 1.6666665,8.34923027 L1.6666665,14.3492303 C1.6666665,15.0856099 2.26362017,15.6825636 2.99999984,15.6825636 L12.9999998,15.6825636 C13.7363795,15.6825636 14.3333332,15.0856099 14.3333332,14.3492303 L14.3333332,8.34923027 C14.3333332,7.6128506 13.7363795,7.01589694 12.9999998,7.01589694 Z M2.99999984,8.34923027 L12.9999998,8.34923027 L12.9999998,14.3492303 L2.99999984,14.3492303 L2.99999984,8.34923027 Z" id="矩形" fill="#0CD5A7" fill-rule="nonzero"></path>
                <path d="M7.62900219,1.02039166 C9.62008599,0.821398971 11.4473688,2.09820476 11.9402124,4.00214015 L11.986388,4.20130128 L12.120417,4.85435615 L10.8143073,5.12241414 L10.6802783,4.46935926 C10.4050066,3.12810087 9.14392449,2.20896316 7.76159621,2.34711567 C6.43780723,2.47941509 5.41988451,3.53963249 5.33857376,4.83179572 L5.33333145,5.00159694 L5.33333145,8.33336374 L3.99999639,8.33336374 L3.99999639,5.00227144 C3.99791863,2.94661391 5.56822912,1.22634524 7.62900219,1.02039166 Z" id="路径" fill="#0CD5A7" fill-rule="nonzero"></path>
                <polygon id="路径" fill="#0CD5A7" fill-rule="nonzero" points="8.6666665 9.66669694 8.6666665 13.0000303 7.33333317 13.0000303 7.33333317 9.66669694"></polygon>
            </g>
        </g>
    </g>
</svg>