<?xml version="1.0" encoding="UTF-8"?>
<svg width="16px" height="16px" viewBox="0 0 16 16" version="1.1" xmlns="http://www.w3.org/2000/svg" xmlns:xlink="http://www.w3.org/1999/xlink">
    <title>聚焦远</title>
    <g id="页面-1" stroke="none" stroke-width="1" fill="none" fill-rule="evenodd">
        <g id="切图" transform="translate(-1601.000000, -240.000000)" fill-rule="nonzero">
            <g id="聚焦远" transform="translate(1601.000000, 240.000000)">
                <rect id="矩形" fill-opacity="0.31" fill="#FFFFFF" opacity="0" x="0" y="0" width="16" height="16"></rect>
                <g id="聚焦" fill="#AEB8D1">
                    <path d="M8,5.20084368 C6.45699555,5.20084368 5.20084368,6.45699555 5.20084368,8 C5.20084368,9.54300445 6.45699555,10.7991563 8,10.7991563 C9.54300445,10.7991563 10.7991563,9.54300445 10.7991563,8 C10.7991563,6.45699555 9.54300445,5.20084368 8,5.20084368 L8,5.20084368 Z M8,9.19990626 C7.3381767,9.19990626 6.80009374,8.6618233 6.80009374,8 C6.80009374,7.3381767 7.3381767,6.80009374 8,6.80009374 C8.6618233,6.80009374 9.19990626,7.3381767 9.19990626,8 C9.19990626,8.6618233 8.6618233,9.19990626 8,9.19990626 Z" id="形状"></path>
                    <path d="M15.1994375,7.19943754 L14.3501289,7.19943754 C13.9882822,4.30841341 11.6915866,2.01171783 8.80056246,1.6498711 L8.80056246,0.800562456 C8.80056246,0.358097024 8.44246543,0 8,0 C7.55753457,0 7.19943754,0.358097024 7.19943754,0.800562456 L7.19943754,1.6498711 C4.30841341,2.01171783 2.01171783,4.30841341 1.6498711,7.19943754 L0.800562456,7.19943754 C0.358097024,7.19943754 0,7.55753457 0,8 C0,8.44246543 0.358097024,8.80056246 0.800562456,8.80056246 L1.6498711,8.80056246 C2.01171783,11.6915866 4.30841341,13.9882822 7.19943754,14.3501289 L7.19943754,15.1994375 C7.19943754,15.641903 7.55753457,16 8,16 C8.44246543,16 8.80056246,15.641903 8.80056246,15.1994375 L8.80056246,14.3501289 C11.6915866,13.9882822 13.9882822,11.6915866 14.3501289,8.80056246 L15.1994375,8.80056246 C15.641903,8.80056246 16,8.44246543 16,8 C16,7.55753457 15.641903,7.19943754 15.1994375,7.19943754 Z M8,12.799625 C5.35270682,12.799625 3.20037497,10.6472932 3.20037497,8 C3.20037497,5.35270682 5.35270682,3.20037497 8,3.20037497 C10.6472932,3.20037497 12.799625,5.35270682 12.799625,8 C12.799625,10.6472932 10.6472932,12.799625 8,12.799625 Z" id="形状"></path>
                </g>
            </g>
        </g>
    </g>
</svg>