<?xml version="1.0" encoding="UTF-8"?>
<svg width="16px" height="16px" viewBox="0 0 16 16" version="1.1" xmlns="http://www.w3.org/2000/svg" xmlns:xlink="http://www.w3.org/1999/xlink">
    <title>放大_zoom-in (1)备份</title>
    <g id="页面-1" stroke="none" stroke-width="1" fill="none" fill-rule="evenodd">
        <g id="切图" transform="translate(-1653.000000, -307.000000)" fill-rule="nonzero">
            <g id="放大_zoom-in-(1)备份" transform="translate(1653.000000, 307.000000)">
                <rect id="矩形" fill-opacity="0.01" fill="#FFFFFF" x="0" y="0" width="16" height="16"></rect>
                <path d="M7,0.666666667 C3.50221017,0.666666667 0.666666667,3.50221017 0.666666667,7 C0.666666667,10.4977898 3.50221017,13.3333333 7,13.3333333 C10.4977898,13.3333333 13.3333333,10.4977898 13.3333333,7 C13.3333333,3.50221017 10.4977898,0.666666667 7,0.666666667 Z M7,2 C9.76141017,2 12,4.23858983 12,7 C12,9.76141017 9.76141017,12 7,12 C4.23858983,12 2,9.76141017 2,7 C2,4.23858983 4.23858983,2 7,2 Z" id="路径" fill="#0CD5A7"></path>
                <polygon id="路径" fill="#0CD5A7" points="7.66666667 4.33333333 7.66666667 9.66666667 6.33333333 9.66666667 6.33333333 4.33333333"></polygon>
                <polygon id="路径" fill="#0CD5A7" points="9.66666667 6.33333333 9.66666667 7.66666667 4.33333333 7.66666667 4.33333333 6.33333333"></polygon>
                <polygon id="路径" fill="#0CD5A7" points="10.1311243 11.0739333 11.0739333 10.1311243 14.8451757 13.9023667 13.9023667 14.8451757"></polygon>
            </g>
        </g>
    </g>
</svg>