<?xml version="1.0" encoding="UTF-8"?>
<svg width="16px" height="16px" viewBox="0 0 16 16" version="1.1" xmlns="http://www.w3.org/2000/svg" xmlns:xlink="http://www.w3.org/1999/xlink">
    <title>聚焦近备份</title>
    <g id="页面-1" stroke="none" stroke-width="1" fill="none" fill-rule="evenodd">
        <g id="切图" transform="translate(-1549.000000, -307.000000)" fill-rule="nonzero">
            <g id="聚焦近备份" transform="translate(1549.000000, 307.000000)">
                <rect id="矩形" fill-opacity="0.01" fill="#FFFFFF" x="0" y="0" width="16" height="16"></rect>
                <path d="M8,0.666666667 C3.94991183,0.666666667 0.666666667,3.94991183 0.666666667,8 C0.666666667,12.0500882 3.94991183,15.3333333 8,15.3333333 C12.0500882,15.3333333 15.3333333,12.0500882 15.3333333,8 C15.3333333,3.94991183 12.0500882,0.666666667 8,0.666666667 Z M8,2 C11.3137085,2 14,4.6862915 14,8 C14,11.3137085 11.3137085,14 8,14 C4.6862915,14 2,11.3137085 2,8 C2,4.6862915 4.6862915,2 8,2 Z" id="椭圆形" fill="#0CD5A7"></path>
                <path d="M8.66666667,12.7136856 L8.66666667,14.6666667 L8.66666667,14.6666667 L7.33333333,14.6666667 L7.33333333,12.7136856 C7.33333333,12.3454958 7.63181017,12.0470189 8,12.0470189 C8.36818983,12.0470189 8.66666667,12.3454958 8.66666667,12.7136856 Z" id="路径" fill="#0CD5A7"></path>
                <path d="M15.3333333,7.33333333 L15.3333333,8.66666667 L12.6666667,8.66666667 C12.2984768,8.66666667 12,8.36818983 12,8 C12,7.63181017 12.2984768,7.33333333 12.6666667,7.33333333 L15.3333333,7.33333333 L15.3333333,7.33333333 Z" id="路径" fill="#0CD5A7"></path>
                <path d="M3.98354939,8 C3.98354939,8.36818983 3.68507255,8.66666667 3.31688272,8.66666667 L0.976779737,8.66666667 L0.976779737,8.66666667 L0.976779737,7.33333333 L3.31688272,7.33333333 C3.68507255,7.33333333 3.98354939,7.63181017 3.98354939,8 Z" id="路径" fill="#0CD5A7"></path>
                <path d="M8.66666667,0.666666667 L8.66666667,3.37018216 C8.66666667,3.738372 8.36818983,4.03684883 8,4.03684883 C7.63181017,4.03684883 7.33333333,3.738372 7.33333333,3.37018216 L7.33333333,0.666666667 L7.33333333,0.666666667 L8.66666667,0.666666667 Z" id="路径" fill="#0CD5A7"></path>
                <path d="M8,4.77 C6.21612026,4.77 4.77,6.21612026 4.77,8 C4.77,9.78387974 6.21612026,11.23 8,11.23 C9.78387974,11.23 11.23,9.78387974 11.23,8 C11.23,6.21612026 9.78387974,4.77 8,4.77 Z M8,6 C9.1045695,6 10,6.8954305 10,8 C10,9.1045695 9.1045695,10 8,10 C6.8954305,10 6,9.1045695 6,8 C6,6.8954305 6.8954305,6 8,6 Z" id="椭圆形" fill="#0CD5A7"></path>
            </g>
        </g>
    </g>
</svg>